G04*
G04 #@! TF.GenerationSoftware,Altium Limited,Altium Designer,25.8.1 (18)*
G04*
G04 Layer_Color=16711935*
%FSLAX44Y44*%
%MOMM*%
G71*
G04*
G04 #@! TF.SameCoordinates,12A2BCB0-EAD2-464D-B71D-ECBC9B348D82*
G04*
G04*
G04 #@! TF.FilePolarity,Negative*
G04*
G01*
G75*
%ADD51C,0.8532*%
%ADD52O,2.5032X1.4032*%
%ADD53O,2.0032X1.4032*%
%ADD54C,1.8032*%
%ADD55R,1.8032X1.8032*%
%ADD56R,1.8032X1.8032*%
D51*
X1329726Y1236096D02*
D03*
Y1178296D02*
D03*
D52*
X1324726Y1163946D02*
D03*
Y1250446D02*
D03*
D53*
X1366526D02*
D03*
Y1163946D02*
D03*
D54*
X775374Y981657D02*
D03*
X1175800Y900000D02*
D03*
X1150400D02*
D03*
X1325400Y900800D02*
D03*
X775400Y799600D02*
D03*
X1325400Y875400D02*
D03*
X990000Y900000D02*
D03*
X1300250Y1005250D02*
D03*
X1300000Y748400D02*
D03*
X1300250Y979850D02*
D03*
X1125000Y900000D02*
D03*
X750000Y698000D02*
D03*
X1325650Y1081450D02*
D03*
X1325400Y748400D02*
D03*
X1300000Y926200D02*
D03*
X1325400D02*
D03*
X964600Y900000D02*
D03*
X1300250Y1056050D02*
D03*
X1325650D02*
D03*
X1300250Y1081450D02*
D03*
X1325650Y1030650D02*
D03*
X1300250D02*
D03*
X1325650Y1005250D02*
D03*
X1099600Y900000D02*
D03*
X775400Y926600D02*
D03*
X750000D02*
D03*
Y952000D02*
D03*
X775400D02*
D03*
Y901200D02*
D03*
X750000D02*
D03*
Y875800D02*
D03*
X775400D02*
D03*
X750000Y748800D02*
D03*
X775400D02*
D03*
Y723400D02*
D03*
X750000D02*
D03*
X775400Y698000D02*
D03*
X750000Y672600D02*
D03*
Y774200D02*
D03*
X775400D02*
D03*
X750000Y799600D02*
D03*
X775400Y825000D02*
D03*
X750000D02*
D03*
Y850400D02*
D03*
X775400D02*
D03*
X1300000Y951600D02*
D03*
X1325400D02*
D03*
X1300000Y900800D02*
D03*
Y875400D02*
D03*
X1325400Y723000D02*
D03*
X1300000D02*
D03*
X1325400Y697600D02*
D03*
X1300000D02*
D03*
Y672200D02*
D03*
Y773800D02*
D03*
X1325400D02*
D03*
X1300000Y799200D02*
D03*
X1325400D02*
D03*
Y824600D02*
D03*
X1300000D02*
D03*
Y850000D02*
D03*
X1325400D02*
D03*
D55*
X749974Y981657D02*
D03*
X1074200Y900000D02*
D03*
X1015400D02*
D03*
D56*
X1325400Y672200D02*
D03*
X1325650Y979850D02*
D03*
X775400Y672600D02*
D03*
M02*
