G04*
G04 #@! TF.GenerationSoftware,Altium Limited,Altium Designer,25.8.1 (18)*
G04*
G04 Layer_Color=32896*
%FSLAX44Y44*%
%MOMM*%
G71*
G04*
G04 #@! TF.SameCoordinates,12A2BCB0-EAD2-464D-B71D-ECBC9B348D82*
G04*
G04*
G04 #@! TF.FilePolarity,Positive*
G04*
G01*
G75*
%ADD11C,0.2000*%
D11*
X737273Y974357D02*
Y994357D01*
Y974357D02*
X742673Y968957D01*
X788074D01*
X737273Y994357D02*
X788074D01*
Y968957D02*
Y994357D01*
X951900Y887300D02*
Y912700D01*
Y887300D02*
X1028100D01*
X951900Y912700D02*
X1022700D01*
X1028100Y907300D01*
Y887300D02*
Y907300D01*
X1287550Y1094150D02*
X1338350D01*
X1287550Y967150D02*
Y1094150D01*
X1338350Y972550D02*
Y1094150D01*
X1332950Y967150D02*
X1338350Y972550D01*
X1287550Y967150D02*
X1332950D01*
X1061500Y892700D02*
Y912700D01*
Y892700D02*
X1066900Y887300D01*
X1188500D01*
X1061500Y912700D02*
X1188500D01*
Y887300D02*
Y912700D01*
X737300Y659600D02*
Y964700D01*
X788100D01*
Y665300D02*
Y964700D01*
X782400Y659600D02*
X788100Y665300D01*
X737300Y659600D02*
X782400D01*
X1287300Y659200D02*
Y964300D01*
X1338100D01*
Y664900D02*
Y964300D01*
X1332400Y659200D02*
X1338100Y664900D01*
X1287300Y659200D02*
X1332400D01*
M02*
