G04*
G04 #@! TF.GenerationSoftware,Altium Limited,Altium Designer,25.8.1 (18)*
G04*
G04 Layer_Color=2752767*
%FSLAX44Y44*%
%MOMM*%
G71*
G04*
G04 #@! TF.SameCoordinates,12A2BCB0-EAD2-464D-B71D-ECBC9B348D82*
G04*
G04*
G04 #@! TF.FilePolarity,Positive*
G04*
G01*
G75*
%ADD77C,0.1270*%
%ADD78C,0.1693*%
D77*
X1329726Y1231016D02*
X1324646Y1241176D01*
X1334806D01*
X1329726Y1231016D01*
Y1173216D02*
X1324646Y1183376D01*
X1334806D01*
X1329726Y1173216D01*
X1366526Y1245366D02*
X1369066Y1247906D01*
X1371606D01*
X1369066Y1250446D01*
X1371606Y1252986D01*
X1369066D01*
X1366526Y1255526D01*
X1363986Y1252986D01*
X1361446D01*
X1363986Y1250446D01*
X1361446Y1247906D01*
X1363986D01*
X1366526Y1245366D01*
Y1158866D02*
X1369066Y1161406D01*
X1371606D01*
X1369066Y1163946D01*
X1371606Y1166486D01*
X1369066D01*
X1366526Y1169026D01*
X1363986Y1166486D01*
X1361446D01*
X1363986Y1163946D01*
X1361446Y1161406D01*
X1363986D01*
X1366526Y1158866D01*
X770294Y976577D02*
Y986737D01*
X780453D01*
Y976577D01*
X770294D01*
X744893D02*
Y986737D01*
X755053D01*
Y976577D01*
X744893D01*
X1170720Y894920D02*
Y905080D01*
X1180880D01*
Y894920D01*
X1170720D01*
X1145320D02*
Y905080D01*
X1155480D01*
Y894920D01*
X1145320D01*
X1320320Y895720D02*
Y905880D01*
X1330480D01*
Y895720D01*
X1320320D01*
X770320Y794520D02*
Y804680D01*
X780480D01*
Y794520D01*
X770320D01*
X1320320Y667120D02*
Y677280D01*
X1330480D01*
Y667120D01*
X1320320D01*
X1320570Y974770D02*
Y984930D01*
X1330730D01*
Y974770D01*
X1320570D01*
X1320320Y870320D02*
Y880480D01*
X1330480D01*
Y870320D01*
X1320320D01*
X1069120Y894920D02*
Y905080D01*
X1079280D01*
Y894920D01*
X1069120D01*
X984920D02*
Y905080D01*
X995080D01*
Y894920D01*
X984920D01*
X1295170Y1000170D02*
Y1010330D01*
X1305330D01*
Y1000170D01*
X1295170D01*
X1294920Y743320D02*
Y753480D01*
X1305080D01*
Y743320D01*
X1294920D01*
X1295170Y974770D02*
Y984930D01*
X1305330D01*
Y974770D01*
X1295170D01*
X1119920Y894920D02*
Y905080D01*
X1130080D01*
Y894920D01*
X1119920D01*
X744920Y692920D02*
Y703080D01*
X755080D01*
Y692920D01*
X744920D01*
X1320570Y1076370D02*
Y1086530D01*
X1330730D01*
Y1076370D01*
X1320570D01*
X1320320Y743320D02*
Y753480D01*
X1330480D01*
Y743320D01*
X1320320D01*
X1294920Y921120D02*
Y931280D01*
X1305080D01*
Y921120D01*
X1294920D01*
X1320320D02*
Y931280D01*
X1330480D01*
Y921120D01*
X1320320D01*
X959520Y894920D02*
Y905080D01*
X969680D01*
Y894920D01*
X959520D01*
X1010320D02*
Y905080D01*
X1020480D01*
Y894920D01*
X1010320D01*
X1295170Y1050970D02*
Y1061130D01*
X1305330D01*
Y1050970D01*
X1295170D01*
X1320570D02*
Y1061130D01*
X1330730D01*
Y1050970D01*
X1320570D01*
X1295170Y1076370D02*
Y1086530D01*
X1305330D01*
Y1076370D01*
X1295170D01*
X1320570Y1025570D02*
Y1035730D01*
X1330730D01*
Y1025570D01*
X1320570D01*
X1295170D02*
Y1035730D01*
X1305330D01*
Y1025570D01*
X1295170D01*
X1320570Y1000170D02*
Y1010330D01*
X1330730D01*
Y1000170D01*
X1320570D01*
X1094520Y894920D02*
Y905080D01*
X1104680D01*
Y894920D01*
X1094520D01*
X770320Y921520D02*
Y931680D01*
X780480D01*
Y921520D01*
X770320D01*
X744920D02*
Y931680D01*
X755080D01*
Y921520D01*
X744920D01*
Y946920D02*
Y957080D01*
X755080D01*
Y946920D01*
X744920D01*
X770320D02*
Y957080D01*
X780480D01*
Y946920D01*
X770320D01*
Y896120D02*
Y906280D01*
X780480D01*
Y896120D01*
X770320D01*
X744920D02*
Y906280D01*
X755080D01*
Y896120D01*
X744920D01*
Y870720D02*
Y880880D01*
X755080D01*
Y870720D01*
X744920D01*
X770320D02*
Y880880D01*
X780480D01*
Y870720D01*
X770320D01*
X744920Y743720D02*
Y753880D01*
X755080D01*
Y743720D01*
X744920D01*
X770320D02*
Y753880D01*
X780480D01*
Y743720D01*
X770320D01*
Y718320D02*
Y728480D01*
X780480D01*
Y718320D01*
X770320D01*
X744920D02*
Y728480D01*
X755080D01*
Y718320D01*
X744920D01*
X770320Y692920D02*
Y703080D01*
X780480D01*
Y692920D01*
X770320D01*
Y667520D02*
Y677680D01*
X780480D01*
Y667520D01*
X770320D01*
X744920D02*
Y677680D01*
X755080D01*
Y667520D01*
X744920D01*
Y769120D02*
Y779280D01*
X755080D01*
Y769120D01*
X744920D01*
X770320D02*
Y779280D01*
X780480D01*
Y769120D01*
X770320D01*
X744920Y794520D02*
Y804680D01*
X755080D01*
Y794520D01*
X744920D01*
X770320Y819920D02*
Y830080D01*
X780480D01*
Y819920D01*
X770320D01*
X744920D02*
Y830080D01*
X755080D01*
Y819920D01*
X744920D01*
Y845320D02*
Y855480D01*
X755080D01*
Y845320D01*
X744920D01*
X770320D02*
Y855480D01*
X780480D01*
Y845320D01*
X770320D01*
X1294920Y946520D02*
Y956680D01*
X1305080D01*
Y946520D01*
X1294920D01*
X1320320D02*
Y956680D01*
X1330480D01*
Y946520D01*
X1320320D01*
X1294920Y895720D02*
Y905880D01*
X1305080D01*
Y895720D01*
X1294920D01*
Y870320D02*
Y880480D01*
X1305080D01*
Y870320D01*
X1294920D01*
X1320320Y717920D02*
Y728080D01*
X1330480D01*
Y717920D01*
X1320320D01*
X1294920D02*
Y728080D01*
X1305080D01*
Y717920D01*
X1294920D01*
X1320320Y692520D02*
Y702680D01*
X1330480D01*
Y692520D01*
X1320320D01*
X1294920D02*
Y702680D01*
X1305080D01*
Y692520D01*
X1294920D01*
Y667120D02*
Y677280D01*
X1305080D01*
Y667120D01*
X1294920D01*
Y768720D02*
Y778880D01*
X1305080D01*
Y768720D01*
X1294920D01*
X1320320D02*
Y778880D01*
X1330480D01*
Y768720D01*
X1320320D01*
X1294920Y794120D02*
Y804280D01*
X1305080D01*
Y794120D01*
X1294920D01*
X1320320D02*
Y804280D01*
X1330480D01*
Y794120D01*
X1320320D01*
Y819520D02*
Y829680D01*
X1330480D01*
Y819520D01*
X1320320D01*
X1294920D02*
Y829680D01*
X1305080D01*
Y819520D01*
X1294920D01*
Y844920D02*
Y855080D01*
X1305080D01*
Y844920D01*
X1294920D01*
X1320320D02*
Y855080D01*
X1330480D01*
Y844920D01*
X1320320D01*
X1364921Y1214921D02*
X1367461Y1220001D01*
X1364921Y1225081D01*
X1370001Y1222541D01*
X1375081Y1225081D01*
X1372541Y1220001D01*
X1375081Y1214921D01*
X1370001Y1217461D01*
X1364921Y1214921D01*
X1354921Y1194921D02*
X1357461Y1200001D01*
X1354921Y1205081D01*
X1360001Y1202541D01*
X1365081Y1205081D01*
X1362541Y1200001D01*
X1365081Y1194921D01*
X1360001Y1197461D01*
X1354921Y1194921D01*
X1364921Y1174921D02*
X1367461Y1180001D01*
X1364921Y1185081D01*
X1370001Y1182541D01*
X1375081Y1185081D01*
X1372541Y1180001D01*
X1375081Y1174921D01*
X1370001Y1177461D01*
X1364921Y1174921D01*
Y1134921D02*
X1367461Y1140001D01*
X1364921Y1145081D01*
X1370001Y1142541D01*
X1375081Y1145081D01*
X1372541Y1140001D01*
X1375081Y1134921D01*
X1370001Y1137461D01*
X1364921Y1134921D01*
X1354921Y1114921D02*
X1357461Y1120001D01*
X1354921Y1125081D01*
X1360001Y1122541D01*
X1365081Y1125081D01*
X1362541Y1120001D01*
X1365081Y1114921D01*
X1360001Y1117461D01*
X1354921Y1114921D01*
X1364921Y1094921D02*
X1367461Y1100001D01*
X1364921Y1105081D01*
X1370001Y1102541D01*
X1375081Y1105081D01*
X1372541Y1100001D01*
X1375081Y1094921D01*
X1370001Y1097461D01*
X1364921Y1094921D01*
X1334921Y1234921D02*
X1337461Y1240001D01*
X1334921Y1245081D01*
X1340001Y1242541D01*
X1345081Y1245081D01*
X1342541Y1240001D01*
X1345081Y1234921D01*
X1340001Y1237461D01*
X1334921Y1234921D01*
X1344921Y1214921D02*
X1347461Y1220001D01*
X1344921Y1225081D01*
X1350001Y1222541D01*
X1355081Y1225081D01*
X1352541Y1220001D01*
X1355081Y1214921D01*
X1350001Y1217461D01*
X1344921Y1214921D01*
X1334921Y1194921D02*
X1337461Y1200001D01*
X1334921Y1205081D01*
X1340001Y1202541D01*
X1345081Y1205081D01*
X1342541Y1200001D01*
X1345081Y1194921D01*
X1340001Y1197461D01*
X1334921Y1194921D01*
X1344921Y1174921D02*
X1347461Y1180001D01*
X1344921Y1185081D01*
X1350001Y1182541D01*
X1355081Y1185081D01*
X1352541Y1180001D01*
X1355081Y1174921D01*
X1350001Y1177461D01*
X1344921Y1174921D01*
Y1134921D02*
X1347461Y1140001D01*
X1344921Y1145081D01*
X1350001Y1142541D01*
X1355081Y1145081D01*
X1352541Y1140001D01*
X1355081Y1134921D01*
X1350001Y1137461D01*
X1344921Y1134921D01*
X1334921Y1114921D02*
X1337461Y1120001D01*
X1334921Y1125081D01*
X1340001Y1122541D01*
X1345081Y1125081D01*
X1342541Y1120001D01*
X1345081Y1114921D01*
X1340001Y1117461D01*
X1334921Y1114921D01*
X1344921Y1094921D02*
X1347461Y1100001D01*
X1344921Y1105081D01*
X1350001Y1102541D01*
X1355081Y1105081D01*
X1352541Y1100001D01*
X1355081Y1094921D01*
X1350001Y1097461D01*
X1344921Y1094921D01*
X1324921Y1214921D02*
X1327461Y1220001D01*
X1324921Y1225081D01*
X1330001Y1222541D01*
X1335081Y1225081D01*
X1332541Y1220001D01*
X1335081Y1214921D01*
X1330001Y1217461D01*
X1324921Y1214921D01*
Y1134921D02*
X1327461Y1140001D01*
X1324921Y1145081D01*
X1330001Y1142541D01*
X1335081Y1145081D01*
X1332541Y1140001D01*
X1335081Y1134921D01*
X1330001Y1137461D01*
X1324921Y1134921D01*
X1314921Y1114921D02*
X1317461Y1120001D01*
X1314921Y1125081D01*
X1320001Y1122541D01*
X1325081Y1125081D01*
X1322541Y1120001D01*
X1325081Y1114921D01*
X1320001Y1117461D01*
X1314921Y1114921D01*
X1324921Y1094921D02*
X1327461Y1100001D01*
X1324921Y1105081D01*
X1330001Y1102541D01*
X1335081Y1105081D01*
X1332541Y1100001D01*
X1335081Y1094921D01*
X1330001Y1097461D01*
X1324921Y1094921D01*
X1294921Y1154921D02*
X1297461Y1160001D01*
X1294921Y1165081D01*
X1300001Y1162541D01*
X1305081Y1165081D01*
X1302541Y1160001D01*
X1305081Y1154921D01*
X1300001Y1157461D01*
X1294921Y1154921D01*
X1304921Y1134921D02*
X1307461Y1140001D01*
X1304921Y1145081D01*
X1310001Y1142541D01*
X1315081Y1145081D01*
X1312541Y1140001D01*
X1315081Y1134921D01*
X1310001Y1137461D01*
X1304921Y1134921D01*
X1294921Y1114921D02*
X1297461Y1120001D01*
X1294921Y1125081D01*
X1300001Y1122541D01*
X1305081Y1125081D01*
X1302541Y1120001D01*
X1305081Y1114921D01*
X1300001Y1117461D01*
X1294921Y1114921D01*
X1274921Y1154921D02*
X1277461Y1160001D01*
X1274921Y1165081D01*
X1280001Y1162541D01*
X1285081Y1165081D01*
X1282541Y1160001D01*
X1285081Y1154921D01*
X1280001Y1157461D01*
X1274921Y1154921D01*
X1284921Y1134921D02*
X1287461Y1140001D01*
X1284921Y1145081D01*
X1290001Y1142541D01*
X1295081Y1145081D01*
X1292541Y1140001D01*
X1295081Y1134921D01*
X1290001Y1137461D01*
X1284921Y1134921D01*
X1274921Y1114921D02*
X1277461Y1120001D01*
X1274921Y1125081D01*
X1280001Y1122541D01*
X1285081Y1125081D01*
X1282541Y1120001D01*
X1285081Y1114921D01*
X1280001Y1117461D01*
X1274921Y1114921D01*
Y714920D02*
X1277461Y720000D01*
X1274921Y725080D01*
X1280001Y722540D01*
X1285081Y725080D01*
X1282541Y720000D01*
X1285081Y714920D01*
X1280001Y717460D01*
X1274921Y714920D01*
X1254921Y1154921D02*
X1257461Y1160001D01*
X1254921Y1165081D01*
X1260001Y1162541D01*
X1265081Y1165081D01*
X1262541Y1160001D01*
X1265081Y1154921D01*
X1260001Y1157461D01*
X1254921Y1154921D01*
X1264921Y1134921D02*
X1267461Y1140001D01*
X1264921Y1145081D01*
X1270001Y1142541D01*
X1275081Y1145081D01*
X1272541Y1140001D01*
X1275081Y1134921D01*
X1270001Y1137461D01*
X1264921Y1134921D01*
X1254921Y714920D02*
X1257461Y720000D01*
X1254921Y725080D01*
X1260001Y722540D01*
X1265081Y725080D01*
X1262541Y720000D01*
X1265081Y714920D01*
X1260001Y717460D01*
X1254921Y714920D01*
X1234921Y1234921D02*
X1237461Y1240001D01*
X1234921Y1245081D01*
X1240001Y1242541D01*
X1245081Y1245081D01*
X1242541Y1240001D01*
X1245081Y1234921D01*
X1240001Y1237461D01*
X1234921Y1234921D01*
Y1154921D02*
X1237461Y1160001D01*
X1234921Y1165081D01*
X1240001Y1162541D01*
X1245081Y1165081D01*
X1242541Y1160001D01*
X1245081Y1154921D01*
X1240001Y1157461D01*
X1234921Y1154921D01*
Y754920D02*
X1237461Y760000D01*
X1234921Y765080D01*
X1240001Y762540D01*
X1245081Y765080D01*
X1242541Y760000D01*
X1245081Y754920D01*
X1240001Y757460D01*
X1234921Y754920D01*
X1214921Y1234921D02*
X1217461Y1240001D01*
X1214921Y1245081D01*
X1220001Y1242541D01*
X1225081Y1245081D01*
X1222541Y1240001D01*
X1225081Y1234921D01*
X1220001Y1237461D01*
X1214921Y1234921D01*
X1224921Y1174921D02*
X1227461Y1180001D01*
X1224921Y1185081D01*
X1230001Y1182541D01*
X1235081Y1185081D01*
X1232541Y1180001D01*
X1235081Y1174921D01*
X1230001Y1177461D01*
X1224921Y1174921D01*
X1214921Y994921D02*
X1217461Y1000001D01*
X1214921Y1005080D01*
X1220001Y1002541D01*
X1225081Y1005080D01*
X1222541Y1000001D01*
X1225081Y994921D01*
X1220001Y997460D01*
X1214921Y994921D01*
Y914921D02*
X1217461Y920001D01*
X1214921Y925080D01*
X1220001Y922541D01*
X1225081Y925080D01*
X1222541Y920001D01*
X1225081Y914921D01*
X1220001Y917460D01*
X1214921Y914921D01*
Y834921D02*
X1217461Y840001D01*
X1214921Y845080D01*
X1220001Y842541D01*
X1225081Y845080D01*
X1222541Y840001D01*
X1225081Y834921D01*
X1220001Y837460D01*
X1214921Y834921D01*
X1224921Y734920D02*
X1227461Y740000D01*
X1224921Y745080D01*
X1230001Y742540D01*
X1235081Y745080D01*
X1232541Y740000D01*
X1235081Y734920D01*
X1230001Y737460D01*
X1224921Y734920D01*
X1194921Y1234921D02*
X1197461Y1240001D01*
X1194921Y1245081D01*
X1200001Y1242541D01*
X1205081Y1245081D01*
X1202541Y1240001D01*
X1205081Y1234921D01*
X1200001Y1237461D01*
X1194921Y1234921D01*
X1204921Y1214921D02*
X1207461Y1220001D01*
X1204921Y1225081D01*
X1210001Y1222541D01*
X1215081Y1225081D01*
X1212541Y1220001D01*
X1215081Y1214921D01*
X1210001Y1217461D01*
X1204921Y1214921D01*
X1194921Y874921D02*
X1197461Y880001D01*
X1194921Y885080D01*
X1200001Y882541D01*
X1205081Y885080D01*
X1202541Y880001D01*
X1205081Y874921D01*
X1200001Y877460D01*
X1194921Y874921D01*
X1204921Y734920D02*
X1207461Y740000D01*
X1204921Y745080D01*
X1210001Y742540D01*
X1215081Y745080D01*
X1212541Y740000D01*
X1215081Y734920D01*
X1210001Y737460D01*
X1204921Y734920D01*
X1174921Y874921D02*
X1177461Y880001D01*
X1174921Y885080D01*
X1180001Y882541D01*
X1185081Y885080D01*
X1182541Y880001D01*
X1185081Y874921D01*
X1180001Y877460D01*
X1174921Y874921D01*
Y674920D02*
X1177461Y680000D01*
X1174921Y685080D01*
X1180001Y682540D01*
X1185081Y685080D01*
X1182541Y680000D01*
X1185081Y674920D01*
X1180001Y677460D01*
X1174921Y674920D01*
X1154921Y914921D02*
X1157461Y920001D01*
X1154921Y925080D01*
X1160001Y922541D01*
X1165081Y925080D01*
X1162541Y920001D01*
X1165081Y914921D01*
X1160001Y917460D01*
X1154921Y914921D01*
Y674920D02*
X1157461Y680000D01*
X1154921Y685080D01*
X1160001Y682540D01*
X1165081Y685080D01*
X1162541Y680000D01*
X1165081Y674920D01*
X1160001Y677460D01*
X1154921Y674920D01*
X1144921Y774920D02*
X1147461Y780000D01*
X1144921Y785080D01*
X1150001Y782540D01*
X1155081Y785080D01*
X1152541Y780000D01*
X1155081Y774920D01*
X1150001Y777460D01*
X1144921Y774920D01*
X1134921Y714920D02*
X1137461Y720000D01*
X1134921Y725080D01*
X1140001Y722540D01*
X1145081Y725080D01*
X1142541Y720000D01*
X1145081Y714920D01*
X1140001Y717460D01*
X1134921Y714920D01*
Y674920D02*
X1137461Y680000D01*
X1134921Y685080D01*
X1140001Y682540D01*
X1145081Y685080D01*
X1142541Y680000D01*
X1145081Y674920D01*
X1140001Y677460D01*
X1134921Y674920D01*
X1124921Y814920D02*
X1127461Y820000D01*
X1124921Y825080D01*
X1130001Y822540D01*
X1135081Y825080D01*
X1132541Y820000D01*
X1135081Y814920D01*
X1130001Y817460D01*
X1124921Y814920D01*
X1114921Y794920D02*
X1117461Y800000D01*
X1114921Y805080D01*
X1120001Y802540D01*
X1125081Y805080D01*
X1122541Y800000D01*
X1125081Y794920D01*
X1120001Y797460D01*
X1114921Y794920D01*
X1124921Y734920D02*
X1127461Y740000D01*
X1124921Y745080D01*
X1130001Y742540D01*
X1135081Y745080D01*
X1132541Y740000D01*
X1135081Y734920D01*
X1130001Y737460D01*
X1124921Y734920D01*
X1114921Y714920D02*
X1117461Y720000D01*
X1114921Y725080D01*
X1120001Y722540D01*
X1125081Y725080D01*
X1122541Y720000D01*
X1125081Y714920D01*
X1120001Y717460D01*
X1114921Y714920D01*
X1124921Y694920D02*
X1127461Y700000D01*
X1124921Y705080D01*
X1130001Y702540D01*
X1135081Y705080D01*
X1132541Y700000D01*
X1135081Y694920D01*
X1130001Y697460D01*
X1124921Y694920D01*
X1114921Y674920D02*
X1117461Y680000D01*
X1114921Y685080D01*
X1120001Y682540D01*
X1125081Y685080D01*
X1122541Y680000D01*
X1125081Y674920D01*
X1120001Y677460D01*
X1114921Y674920D01*
X1094921Y1034921D02*
X1097461Y1040001D01*
X1094921Y1045081D01*
X1100001Y1042541D01*
X1105081Y1045081D01*
X1102541Y1040001D01*
X1105081Y1034921D01*
X1100001Y1037461D01*
X1094921Y1034921D01*
X1104921Y734920D02*
X1107461Y740000D01*
X1104921Y745080D01*
X1110001Y742540D01*
X1115081Y745080D01*
X1112541Y740000D01*
X1115081Y734920D01*
X1110001Y737460D01*
X1104921Y734920D01*
X1094921Y714920D02*
X1097461Y720000D01*
X1094921Y725080D01*
X1100001Y722540D01*
X1105081Y725080D01*
X1102541Y720000D01*
X1105081Y714920D01*
X1100001Y717460D01*
X1094921Y714920D01*
X1104921Y694920D02*
X1107461Y700000D01*
X1104921Y705080D01*
X1110001Y702540D01*
X1115081Y705080D01*
X1112541Y700000D01*
X1115081Y694920D01*
X1110001Y697460D01*
X1104921Y694920D01*
X1094921Y674920D02*
X1097461Y680000D01*
X1094921Y685080D01*
X1100001Y682540D01*
X1105081Y685080D01*
X1102541Y680000D01*
X1105081Y674920D01*
X1100001Y677460D01*
X1094921Y674920D01*
X1084921Y774920D02*
X1087461Y780000D01*
X1084921Y785080D01*
X1090001Y782540D01*
X1095081Y785080D01*
X1092541Y780000D01*
X1095081Y774920D01*
X1090001Y777460D01*
X1084921Y774920D01*
X1074921Y714920D02*
X1077461Y720000D01*
X1074921Y725080D01*
X1080001Y722540D01*
X1085081Y725080D01*
X1082541Y720000D01*
X1085081Y714920D01*
X1080001Y717460D01*
X1074921Y714920D01*
Y674920D02*
X1077461Y680000D01*
X1074921Y685080D01*
X1080001Y682540D01*
X1085081Y685080D01*
X1082541Y680000D01*
X1085081Y674920D01*
X1080001Y677460D01*
X1074921Y674920D01*
X1064921Y774920D02*
X1067461Y780000D01*
X1064921Y785080D01*
X1070001Y782540D01*
X1075081Y785080D01*
X1072541Y780000D01*
X1075081Y774920D01*
X1070001Y777460D01*
X1064921Y774920D01*
X1054921Y714920D02*
X1057461Y720000D01*
X1054921Y725080D01*
X1060001Y722540D01*
X1065081Y725080D01*
X1062541Y720000D01*
X1065081Y714920D01*
X1060001Y717460D01*
X1054921Y714920D01*
Y674920D02*
X1057461Y680000D01*
X1054921Y685080D01*
X1060001Y682540D01*
X1065081Y685080D01*
X1062541Y680000D01*
X1065081Y674920D01*
X1060001Y677460D01*
X1054921Y674920D01*
X1044921Y694920D02*
X1047461Y700000D01*
X1044921Y705080D01*
X1050001Y702540D01*
X1055081Y705080D01*
X1052541Y700000D01*
X1055081Y694920D01*
X1050001Y697460D01*
X1044921Y694920D01*
X1034921Y674920D02*
X1037461Y680000D01*
X1034921Y685080D01*
X1040001Y682540D01*
X1045081Y685080D01*
X1042541Y680000D01*
X1045081Y674920D01*
X1040001Y677460D01*
X1034921Y674920D01*
X1014921Y874921D02*
X1017461Y880001D01*
X1014921Y885080D01*
X1020001Y882541D01*
X1025081Y885080D01*
X1022541Y880001D01*
X1025081Y874921D01*
X1020001Y877460D01*
X1014921Y874921D01*
X1024921Y814920D02*
X1027461Y820000D01*
X1024921Y825080D01*
X1030001Y822540D01*
X1035081Y825080D01*
X1032541Y820000D01*
X1035081Y814920D01*
X1030001Y817460D01*
X1024921Y814920D01*
Y694920D02*
X1027461Y700000D01*
X1024921Y705080D01*
X1030001Y702540D01*
X1035081Y705080D01*
X1032541Y700000D01*
X1035081Y694920D01*
X1030001Y697460D01*
X1024921Y694920D01*
X1014921Y674920D02*
X1017461Y680000D01*
X1014921Y685080D01*
X1020001Y682540D01*
X1025081Y685080D01*
X1022541Y680000D01*
X1025081Y674920D01*
X1020001Y677460D01*
X1014921Y674920D01*
X1004921Y1054921D02*
X1007460Y1060001D01*
X1004921Y1065081D01*
X1010001Y1062541D01*
X1015080Y1065081D01*
X1012541Y1060001D01*
X1015080Y1054921D01*
X1010001Y1057461D01*
X1004921Y1054921D01*
X994921Y914921D02*
X997460Y920001D01*
X994921Y925080D01*
X1000001Y922541D01*
X1005080Y925080D01*
X1002541Y920001D01*
X1005080Y914921D01*
X1000001Y917460D01*
X994921Y914921D01*
Y874921D02*
X997460Y880001D01*
X994921Y885080D01*
X1000001Y882541D01*
X1005080Y885080D01*
X1002541Y880001D01*
X1005080Y874921D01*
X1000001Y877460D01*
X994921Y874921D01*
X1004921Y854921D02*
X1007460Y860001D01*
X1004921Y865080D01*
X1010001Y862541D01*
X1015080Y865080D01*
X1012541Y860001D01*
X1015080Y854921D01*
X1010001Y857460D01*
X1004921Y854921D01*
X974921Y874921D02*
X977460Y880001D01*
X974921Y885080D01*
X980001Y882541D01*
X985080Y885080D01*
X982541Y880001D01*
X985080Y874921D01*
X980001Y877460D01*
X974921Y874921D01*
X984921Y854921D02*
X987460Y860001D01*
X984921Y865080D01*
X990001Y862541D01*
X995080Y865080D01*
X992541Y860001D01*
X995080Y854921D01*
X990001Y857460D01*
X984921Y854921D01*
X954921Y874921D02*
X957460Y880001D01*
X954921Y885080D01*
X960001Y882541D01*
X965080Y885080D01*
X962541Y880001D01*
X965080Y874921D01*
X960001Y877460D01*
X954921Y874921D01*
X964921Y854921D02*
X967460Y860001D01*
X964921Y865080D01*
X970001Y862541D01*
X975080Y865080D01*
X972541Y860001D01*
X975080Y854921D01*
X970001Y857460D01*
X964921Y854921D01*
Y814920D02*
X967460Y820000D01*
X964921Y825080D01*
X970001Y822540D01*
X975080Y825080D01*
X972541Y820000D01*
X975080Y814920D01*
X970001Y817460D01*
X964921Y814920D01*
X954921Y674920D02*
X957460Y680000D01*
X954921Y685080D01*
X960001Y682540D01*
X965080Y685080D01*
X962541Y680000D01*
X965080Y674920D01*
X960001Y677460D01*
X954921Y674920D01*
X944921Y854921D02*
X947460Y860001D01*
X944921Y865080D01*
X950001Y862541D01*
X955080Y865080D01*
X952541Y860001D01*
X955080Y854921D01*
X950001Y857460D01*
X944921Y854921D01*
X934921Y714920D02*
X937460Y720000D01*
X934921Y725080D01*
X940001Y722540D01*
X945080Y725080D01*
X942541Y720000D01*
X945080Y714920D01*
X940001Y717460D01*
X934921Y714920D01*
X944921Y694920D02*
X947460Y700000D01*
X944921Y705080D01*
X950001Y702540D01*
X955080Y705080D01*
X952541Y700000D01*
X955080Y694920D01*
X950001Y697460D01*
X944921Y694920D01*
X934921Y674920D02*
X937460Y680000D01*
X934921Y685080D01*
X940001Y682540D01*
X945080Y685080D01*
X942541Y680000D01*
X945080Y674920D01*
X940001Y677460D01*
X934921Y674920D01*
X904921Y1014921D02*
X907460Y1020001D01*
X904921Y1025081D01*
X910001Y1022541D01*
X915080Y1025081D01*
X912541Y1020001D01*
X915080Y1014921D01*
X910001Y1017461D01*
X904921Y1014921D01*
Y854921D02*
X907460Y860001D01*
X904921Y865080D01*
X910001Y862541D01*
X915080Y865080D01*
X912541Y860001D01*
X915080Y854921D01*
X910001Y857460D01*
X904921Y854921D01*
X874921Y1194921D02*
X877460Y1200001D01*
X874921Y1205081D01*
X880001Y1202541D01*
X885080Y1205081D01*
X882541Y1200001D01*
X885080Y1194921D01*
X880001Y1197461D01*
X874921Y1194921D01*
X884921Y1054921D02*
X887460Y1060001D01*
X884921Y1065081D01*
X890001Y1062541D01*
X895080Y1065081D01*
X892541Y1060001D01*
X895080Y1054921D01*
X890001Y1057461D01*
X884921Y1054921D01*
Y854921D02*
X887460Y860001D01*
X884921Y865080D01*
X890001Y862541D01*
X895080Y865080D01*
X892541Y860001D01*
X895080Y854921D01*
X890001Y857460D01*
X884921Y854921D01*
X874921Y674920D02*
X877460Y680000D01*
X874921Y685080D01*
X880001Y682540D01*
X885080Y685080D01*
X882541Y680000D01*
X885080Y674920D01*
X880001Y677460D01*
X874921Y674920D01*
X854921Y714920D02*
X857460Y720000D01*
X854921Y725080D01*
X860001Y722540D01*
X865080Y725080D01*
X862541Y720000D01*
X865080Y714920D01*
X860001Y717460D01*
X854921Y714920D01*
Y674920D02*
X857460Y680000D01*
X854921Y685080D01*
X860001Y682540D01*
X865080Y685080D01*
X862541Y680000D01*
X865080Y674920D01*
X860001Y677460D01*
X854921Y674920D01*
X844921Y734920D02*
X847460Y740000D01*
X844921Y745080D01*
X850001Y742540D01*
X855080Y745080D01*
X852541Y740000D01*
X855080Y734920D01*
X850001Y737460D01*
X844921Y734920D01*
X834921Y714920D02*
X837460Y720000D01*
X834921Y725080D01*
X840001Y722540D01*
X845080Y725080D01*
X842541Y720000D01*
X845080Y714920D01*
X840001Y717460D01*
X834921Y714920D01*
X844921Y694920D02*
X847460Y700000D01*
X844921Y705080D01*
X850001Y702540D01*
X855080Y705080D01*
X852541Y700000D01*
X855080Y694920D01*
X850001Y697460D01*
X844921Y694920D01*
X834921Y674920D02*
X837460Y680000D01*
X834921Y685080D01*
X840001Y682540D01*
X845080Y685080D01*
X842541Y680000D01*
X845080Y674920D01*
X840001Y677460D01*
X834921Y674920D01*
X814920Y1234921D02*
X817460Y1240001D01*
X814920Y1245081D01*
X820000Y1242541D01*
X825080Y1245081D01*
X822540Y1240001D01*
X825080Y1234921D01*
X820000Y1237461D01*
X814920Y1234921D01*
X824920Y774920D02*
X827460Y780000D01*
X824920Y785080D01*
X830000Y782540D01*
X835080Y785080D01*
X832540Y780000D01*
X835080Y774920D01*
X830000Y777460D01*
X824920Y774920D01*
X814920Y754920D02*
X817460Y760000D01*
X814920Y765080D01*
X820000Y762540D01*
X825080Y765080D01*
X822540Y760000D01*
X825080Y754920D01*
X820000Y757460D01*
X814920Y754920D01*
X824920Y694920D02*
X827460Y700000D01*
X824920Y705080D01*
X830000Y702540D01*
X835080Y705080D01*
X832540Y700000D01*
X835080Y694920D01*
X830000Y697460D01*
X824920Y694920D01*
X814920Y674920D02*
X817460Y680000D01*
X814920Y685080D01*
X820000Y682540D01*
X825080Y685080D01*
X822540Y680000D01*
X825080Y674920D01*
X820000Y677460D01*
X814920Y674920D01*
X794920Y1234921D02*
X797460Y1240001D01*
X794920Y1245081D01*
X800000Y1242541D01*
X805080Y1245081D01*
X802540Y1240001D01*
X805080Y1234921D01*
X800000Y1237461D01*
X794920Y1234921D01*
X804920Y1094921D02*
X807460Y1100001D01*
X804920Y1105081D01*
X810000Y1102541D01*
X815080Y1105081D01*
X812540Y1100001D01*
X815080Y1094921D01*
X810000Y1097461D01*
X804920Y1094921D01*
X794920Y794920D02*
X797460Y800000D01*
X794920Y805080D01*
X800000Y802540D01*
X805080Y805080D01*
X802540Y800000D01*
X805080Y794920D01*
X800000Y797460D01*
X794920Y794920D01*
X784920Y1214921D02*
X787460Y1220001D01*
X784920Y1225081D01*
X790000Y1222541D01*
X795080Y1225081D01*
X792540Y1220001D01*
X795080Y1214921D01*
X790000Y1217461D01*
X784920Y1214921D01*
Y1094921D02*
X787460Y1100001D01*
X784920Y1105081D01*
X790000Y1102541D01*
X795080Y1105081D01*
X792540Y1100001D01*
X795080Y1094921D01*
X790000Y1097461D01*
X784920Y1094921D01*
X754920Y1194921D02*
X757460Y1200001D01*
X754920Y1205081D01*
X760000Y1202541D01*
X765080Y1205081D01*
X762540Y1200001D01*
X765080Y1194921D01*
X760000Y1197461D01*
X754920Y1194921D01*
X764920Y1174921D02*
X767460Y1180001D01*
X764920Y1185081D01*
X770000Y1182541D01*
X775080Y1185081D01*
X772540Y1180001D01*
X775080Y1174921D01*
X770000Y1177461D01*
X764920Y1174921D01*
X754920Y994921D02*
X757460Y1000001D01*
X754920Y1005080D01*
X760000Y1002541D01*
X765080Y1005080D01*
X762540Y1000001D01*
X765080Y994921D01*
X760000Y997460D01*
X754920Y994921D01*
X734920Y1234921D02*
X737460Y1240001D01*
X734920Y1245081D01*
X740000Y1242541D01*
X745080Y1245081D01*
X742540Y1240001D01*
X745080Y1234921D01*
X740000Y1237461D01*
X734920Y1234921D01*
Y1194921D02*
X737460Y1200001D01*
X734920Y1205081D01*
X740000Y1202541D01*
X745080Y1205081D01*
X742540Y1200001D01*
X745080Y1194921D01*
X740000Y1197461D01*
X734920Y1194921D01*
X744920Y1174921D02*
X747460Y1180001D01*
X744920Y1185081D01*
X750000Y1182541D01*
X755080Y1185081D01*
X752540Y1180001D01*
X755080Y1174921D01*
X750000Y1177461D01*
X744920Y1174921D01*
X734920Y1154921D02*
X737460Y1160001D01*
X734920Y1165081D01*
X740000Y1162541D01*
X745080Y1165081D01*
X742540Y1160001D01*
X745080Y1154921D01*
X740000Y1157461D01*
X734920Y1154921D01*
X744920Y1094921D02*
X747460Y1100001D01*
X744920Y1105081D01*
X750000Y1102541D01*
X755080Y1105081D01*
X752540Y1100001D01*
X755080Y1094921D01*
X750000Y1097461D01*
X744920Y1094921D01*
X714920Y1234921D02*
X717460Y1240001D01*
X714920Y1245081D01*
X720000Y1242541D01*
X725080Y1245081D01*
X722540Y1240001D01*
X725080Y1234921D01*
X720000Y1237461D01*
X714920Y1234921D01*
X724920Y1214921D02*
X727460Y1220001D01*
X724920Y1225081D01*
X730000Y1222541D01*
X735080Y1225081D01*
X732540Y1220001D01*
X735080Y1214921D01*
X730000Y1217461D01*
X724920Y1214921D01*
X714920Y1194921D02*
X717460Y1200001D01*
X714920Y1205081D01*
X720000Y1202541D01*
X725080Y1205081D01*
X722540Y1200001D01*
X725080Y1194921D01*
X720000Y1197461D01*
X714920Y1194921D01*
X724920Y1174921D02*
X727460Y1180001D01*
X724920Y1185081D01*
X730000Y1182541D01*
X735080Y1185081D01*
X732540Y1180001D01*
X735080Y1174921D01*
X730000Y1177461D01*
X724920Y1174921D01*
X714920Y1154921D02*
X717460Y1160001D01*
X714920Y1165081D01*
X720000Y1162541D01*
X725080Y1165081D01*
X722540Y1160001D01*
X725080Y1154921D01*
X720000Y1157461D01*
X714920Y1154921D01*
X694920Y1234921D02*
X697460Y1240001D01*
X694920Y1245081D01*
X700000Y1242541D01*
X705080Y1245081D01*
X702540Y1240001D01*
X705080Y1234921D01*
X700000Y1237461D01*
X694920Y1234921D01*
X704920Y1214921D02*
X707460Y1220001D01*
X704920Y1225081D01*
X710000Y1222541D01*
X715080Y1225081D01*
X712540Y1220001D01*
X715080Y1214921D01*
X710000Y1217461D01*
X704920Y1214921D01*
X694920Y1194921D02*
X697460Y1200001D01*
X694920Y1205081D01*
X700000Y1202541D01*
X705080Y1205081D01*
X702540Y1200001D01*
X705080Y1194921D01*
X700000Y1197461D01*
X694920Y1194921D01*
X704920Y1174921D02*
X707460Y1180001D01*
X704920Y1185081D01*
X710000Y1182541D01*
X715080Y1185081D01*
X712540Y1180001D01*
X715080Y1174921D01*
X710000Y1177461D01*
X704920Y1174921D01*
X694920Y1154921D02*
X697460Y1160001D01*
X694920Y1165081D01*
X700000Y1162541D01*
X705080Y1165081D01*
X702540Y1160001D01*
X705080Y1154921D01*
X700000Y1157461D01*
X694920Y1154921D01*
X704920Y1134921D02*
X707460Y1140001D01*
X704920Y1145081D01*
X710000Y1142541D01*
X715080Y1145081D01*
X712540Y1140001D01*
X715080Y1134921D01*
X710000Y1137461D01*
X704920Y1134921D01*
X694920Y1074921D02*
X697460Y1080001D01*
X694920Y1085081D01*
X700000Y1082541D01*
X705080Y1085081D01*
X702540Y1080001D01*
X705080Y1074921D01*
X700000Y1077461D01*
X694920Y1074921D01*
Y1034921D02*
X697460Y1040001D01*
X694920Y1045081D01*
X700000Y1042541D01*
X705080Y1045081D01*
X702540Y1040001D01*
X705080Y1034921D01*
X700000Y1037461D01*
X694920Y1034921D01*
Y994921D02*
X697460Y1000001D01*
X694920Y1005080D01*
X700000Y1002541D01*
X705080Y1005080D01*
X702540Y1000001D01*
X705080Y994921D01*
X700000Y997460D01*
X694920Y994921D01*
X704920Y974921D02*
X707460Y980001D01*
X704920Y985080D01*
X710000Y982541D01*
X715080Y985080D01*
X712540Y980001D01*
X715080Y974921D01*
X710000Y977460D01*
X704920Y974921D01*
X857420Y969920D02*
X859960Y975000D01*
X857420Y980080D01*
X862500Y977540D01*
X867580Y980080D01*
X865040Y975000D01*
X867580Y969920D01*
X862500Y972460D01*
X857420Y969920D01*
X827420Y899920D02*
X829960Y905000D01*
X827420Y910080D01*
X832500Y907540D01*
X837580Y910080D01*
X835040Y905000D01*
X837580Y899920D01*
X832500Y902460D01*
X827420Y899920D01*
Y912420D02*
X829960Y917500D01*
X827420Y922580D01*
X832500Y920040D01*
X837580Y922580D01*
X835040Y917500D01*
X837580Y912420D01*
X832500Y914960D01*
X827420Y912420D01*
X859920Y937420D02*
X862460Y942500D01*
X859920Y947580D01*
X865000Y945040D01*
X870080Y947580D01*
X867540Y942500D01*
X870080Y937420D01*
X865000Y939960D01*
X859920Y937420D01*
X874920Y814920D02*
X877460Y820000D01*
X874920Y825080D01*
X880000Y822540D01*
X885080Y825080D01*
X882540Y820000D01*
X885080Y814920D01*
X880000Y817460D01*
X874920Y814920D01*
X869920Y799920D02*
X872460Y805000D01*
X869920Y810080D01*
X875000Y807540D01*
X880080Y810080D01*
X877540Y805000D01*
X880080Y799920D01*
X875000Y802460D01*
X869920Y799920D01*
Y792420D02*
X872460Y797500D01*
X869920Y802580D01*
X875000Y800040D01*
X880080Y802580D01*
X877540Y797500D01*
X880080Y792420D01*
X875000Y794960D01*
X869920Y792420D01*
X877420Y799920D02*
X879960Y805000D01*
X877420Y810080D01*
X882500Y807540D01*
X887580Y810080D01*
X885040Y805000D01*
X887580Y799920D01*
X882500Y802460D01*
X877420Y799920D01*
Y792420D02*
X879960Y797500D01*
X877420Y802580D01*
X882500Y800040D01*
X887580Y802580D01*
X885040Y797500D01*
X887580Y792420D01*
X882500Y794960D01*
X877420Y792420D01*
X864920Y814920D02*
X867460Y820000D01*
X864920Y825080D01*
X870000Y822540D01*
X875080Y825080D01*
X872540Y820000D01*
X875080Y814920D01*
X870000Y817460D01*
X864920Y814920D01*
X857420Y1067420D02*
X859960Y1072500D01*
X857420Y1077580D01*
X862500Y1075040D01*
X867580Y1077580D01*
X865040Y1072500D01*
X867580Y1067420D01*
X862500Y1069960D01*
X857420Y1067420D01*
Y1074920D02*
X859960Y1080000D01*
X857420Y1085080D01*
X862500Y1082540D01*
X867580Y1085080D01*
X865040Y1080000D01*
X867580Y1074920D01*
X862500Y1077460D01*
X857420Y1074920D01*
X862152Y1038777D02*
X864692Y1043857D01*
X862152Y1048937D01*
X867232Y1046397D01*
X872312Y1048937D01*
X869772Y1043857D01*
X872312Y1038777D01*
X867232Y1041317D01*
X862152Y1038777D01*
X864920Y1067420D02*
X867460Y1072500D01*
X864920Y1077580D01*
X870000Y1075040D01*
X875080Y1077580D01*
X872540Y1072500D01*
X875080Y1067420D01*
X870000Y1069960D01*
X864920Y1067420D01*
X857420Y982420D02*
X859960Y987500D01*
X857420Y992580D01*
X862500Y990040D01*
X867580Y992580D01*
X865040Y987500D01*
X867580Y982420D01*
X862500Y984960D01*
X857420Y982420D01*
X884920Y962420D02*
X887460Y967500D01*
X884920Y972580D01*
X890000Y970040D01*
X895080Y972580D01*
X892540Y967500D01*
X895080Y962420D01*
X890000Y964960D01*
X884920Y962420D01*
X872420D02*
X874960Y967500D01*
X872420Y972580D01*
X877500Y970040D01*
X882580Y972580D01*
X880040Y967500D01*
X882580Y962420D01*
X877500Y964960D01*
X872420Y962420D01*
X884920Y969920D02*
X887460Y975000D01*
X884920Y980080D01*
X890000Y977540D01*
X895080Y980080D01*
X892540Y975000D01*
X895080Y969920D01*
X890000Y972460D01*
X884920Y969920D01*
X864920Y827420D02*
X867460Y832500D01*
X864920Y837580D01*
X870000Y835040D01*
X875080Y837580D01*
X872540Y832500D01*
X875080Y827420D01*
X870000Y829960D01*
X864920Y827420D01*
Y857420D02*
X867460Y862500D01*
X864920Y867580D01*
X870000Y865040D01*
X875080Y867580D01*
X872540Y862500D01*
X875080Y857420D01*
X870000Y859960D01*
X864920Y857420D01*
X869920Y697420D02*
X872460Y702500D01*
X869920Y707580D01*
X875000Y705040D01*
X880080Y707580D01*
X877540Y702500D01*
X880080Y697420D01*
X875000Y699960D01*
X869920Y697420D01*
Y732420D02*
X872460Y737500D01*
X869920Y742580D01*
X875000Y740040D01*
X880080Y742580D01*
X877540Y737500D01*
X880080Y732420D01*
X875000Y734960D01*
X869920Y732420D01*
X877420Y697420D02*
X879960Y702500D01*
X877420Y707580D01*
X882500Y705040D01*
X887580Y707580D01*
X885040Y702500D01*
X887580Y697420D01*
X882500Y699960D01*
X877420Y697420D01*
Y689920D02*
X879960Y695000D01*
X877420Y700080D01*
X882500Y697540D01*
X887580Y700080D01*
X885040Y695000D01*
X887580Y689920D01*
X882500Y692460D01*
X877420Y689920D01*
X869920D02*
X872460Y695000D01*
X869920Y700080D01*
X875000Y697540D01*
X880080Y700080D01*
X877540Y695000D01*
X880080Y689920D01*
X875000Y692460D01*
X869920Y689920D01*
X1067420Y977420D02*
X1069960Y982500D01*
X1067420Y987580D01*
X1072500Y985040D01*
X1077580Y987580D01*
X1075040Y982500D01*
X1077580Y977420D01*
X1072500Y979960D01*
X1067420Y977420D01*
X1059920D02*
X1062460Y982500D01*
X1059920Y987580D01*
X1065000Y985040D01*
X1070080Y987580D01*
X1067540Y982500D01*
X1070080Y977420D01*
X1065000Y979960D01*
X1059920Y977420D01*
Y969920D02*
X1062460Y975000D01*
X1059920Y980080D01*
X1065000Y977540D01*
X1070080Y980080D01*
X1067540Y975000D01*
X1070080Y969920D01*
X1065000Y972460D01*
X1059920Y969920D01*
X1049920Y744920D02*
X1052460Y750000D01*
X1049920Y755080D01*
X1055000Y752540D01*
X1060080Y755080D01*
X1057540Y750000D01*
X1060080Y744920D01*
X1055000Y747460D01*
X1049920Y744920D01*
X894920Y887420D02*
X897460Y892500D01*
X894920Y897580D01*
X900000Y895040D01*
X905080Y897580D01*
X902540Y892500D01*
X905080Y887420D01*
X900000Y889960D01*
X894920Y887420D01*
X887420Y872420D02*
X889960Y877500D01*
X887420Y882580D01*
X892500Y880040D01*
X897580Y882580D01*
X895040Y877500D01*
X897580Y872420D01*
X892500Y874960D01*
X887420Y872420D01*
Y879920D02*
X889960Y885000D01*
X887420Y890080D01*
X892500Y887540D01*
X897580Y890080D01*
X895040Y885000D01*
X897580Y879920D01*
X892500Y882460D01*
X887420Y879920D01*
Y887420D02*
X889960Y892500D01*
X887420Y897580D01*
X892500Y895040D01*
X897580Y897580D01*
X895040Y892500D01*
X897580Y887420D01*
X892500Y889960D01*
X887420Y887420D01*
X874920Y847420D02*
X877460Y852500D01*
X874920Y857580D01*
X880000Y855040D01*
X885080Y857580D01*
X882540Y852500D01*
X885080Y847420D01*
X880000Y849960D01*
X874920Y847420D01*
Y857420D02*
X877460Y862500D01*
X874920Y867580D01*
X880000Y865040D01*
X885080Y867580D01*
X882540Y862500D01*
X885080Y857420D01*
X880000Y859960D01*
X874920Y857420D01*
Y877420D02*
X877460Y882500D01*
X874920Y887580D01*
X880000Y885040D01*
X885080Y887580D01*
X882540Y882500D01*
X885080Y877420D01*
X880000Y879960D01*
X874920Y877420D01*
Y867420D02*
X877460Y872500D01*
X874920Y877580D01*
X880000Y875040D01*
X885080Y877580D01*
X882540Y872500D01*
X885080Y867420D01*
X880000Y869960D01*
X874920Y867420D01*
Y837420D02*
X877460Y842500D01*
X874920Y847580D01*
X880000Y845040D01*
X885080Y847580D01*
X882540Y842500D01*
X885080Y837420D01*
X880000Y839960D01*
X874920Y837420D01*
X864920Y877420D02*
X867460Y882500D01*
X864920Y887580D01*
X870000Y885040D01*
X875080Y887580D01*
X872540Y882500D01*
X875080Y877420D01*
X870000Y879960D01*
X864920Y877420D01*
Y847420D02*
X867460Y852500D01*
X864920Y857580D01*
X870000Y855040D01*
X875080Y857580D01*
X872540Y852500D01*
X875080Y847420D01*
X870000Y849960D01*
X864920Y847420D01*
Y867420D02*
X867460Y872500D01*
X864920Y877580D01*
X870000Y875040D01*
X875080Y877580D01*
X872540Y872500D01*
X875080Y867420D01*
X870000Y869960D01*
X864920Y867420D01*
X874920Y827420D02*
X877460Y832500D01*
X874920Y837580D01*
X880000Y835040D01*
X885080Y837580D01*
X882540Y832500D01*
X885080Y827420D01*
X880000Y829960D01*
X874920Y827420D01*
X989920Y964920D02*
X992460Y970000D01*
X989920Y975080D01*
X995000Y972540D01*
X1000080Y975080D01*
X997540Y970000D01*
X1000080Y964920D01*
X995000Y967460D01*
X989920Y964920D01*
X964920Y832420D02*
X967460Y837500D01*
X964920Y842580D01*
X970000Y840040D01*
X975080Y842580D01*
X972540Y837500D01*
X975080Y832420D01*
X970000Y834960D01*
X964920Y832420D01*
X1052420Y969920D02*
X1054960Y975000D01*
X1052420Y980080D01*
X1057500Y977540D01*
X1062580Y980080D01*
X1060040Y975000D01*
X1062580Y969920D01*
X1057500Y972460D01*
X1052420Y969920D01*
X1067420Y962420D02*
X1069960Y967500D01*
X1067420Y972580D01*
X1072500Y970040D01*
X1077580Y972580D01*
X1075040Y967500D01*
X1077580Y962420D01*
X1072500Y964960D01*
X1067420Y962420D01*
X1059920D02*
X1062460Y967500D01*
X1059920Y972580D01*
X1065000Y970040D01*
X1070080Y972580D01*
X1067540Y967500D01*
X1070080Y962420D01*
X1065000Y964960D01*
X1059920Y962420D01*
X1052420D02*
X1054960Y967500D01*
X1052420Y972580D01*
X1057500Y970040D01*
X1062580Y972580D01*
X1060040Y967500D01*
X1062580Y962420D01*
X1057500Y964960D01*
X1052420Y962420D01*
X1067420Y969920D02*
X1069960Y975000D01*
X1067420Y980080D01*
X1072500Y977540D01*
X1077580Y980080D01*
X1075040Y975000D01*
X1077580Y969920D01*
X1072500Y972460D01*
X1067420Y969920D01*
X974478Y1105951D02*
X977018Y1111031D01*
X974478Y1116111D01*
X979558Y1113571D01*
X984638Y1116111D01*
X982098Y1111031D01*
X984638Y1105951D01*
X979558Y1108491D01*
X974478Y1105951D01*
X974615Y1093409D02*
X977155Y1098489D01*
X974615Y1103569D01*
X979695Y1101029D01*
X984775Y1103569D01*
X982235Y1098489D01*
X984775Y1093409D01*
X979695Y1095949D01*
X974615Y1093409D01*
X1005679Y1106138D02*
X1008219Y1111218D01*
X1005679Y1116298D01*
X1010759Y1113758D01*
X1015839Y1116298D01*
X1013299Y1111218D01*
X1015839Y1106138D01*
X1010759Y1108678D01*
X1005679Y1106138D01*
X1005641Y1093588D02*
X1008181Y1098668D01*
X1005641Y1103748D01*
X1010721Y1101208D01*
X1015801Y1103748D01*
X1013261Y1098668D01*
X1015801Y1093588D01*
X1010721Y1096128D01*
X1005641Y1093588D01*
X1005798Y1131836D02*
X1008337Y1136916D01*
X1005798Y1141996D01*
X1010878Y1139456D01*
X1015957Y1141996D01*
X1013418Y1136916D01*
X1015957Y1131836D01*
X1010878Y1134376D01*
X1005798Y1131836D01*
X974592Y1118498D02*
X977132Y1123578D01*
X974592Y1128658D01*
X979672Y1126118D01*
X984752Y1128658D01*
X982212Y1123578D01*
X984752Y1118498D01*
X979672Y1121038D01*
X974592Y1118498D01*
X974520Y1131598D02*
X977060Y1136677D01*
X974520Y1141758D01*
X979600Y1139218D01*
X984680Y1141758D01*
X982140Y1136677D01*
X984680Y1131598D01*
X979600Y1134137D01*
X974520Y1131598D01*
X1006007Y1081046D02*
X1008547Y1086126D01*
X1006007Y1091206D01*
X1011087Y1088666D01*
X1016167Y1091206D01*
X1013627Y1086126D01*
X1016167Y1081046D01*
X1011087Y1083586D01*
X1006007Y1081046D01*
X974336Y1144049D02*
X976876Y1149129D01*
X974336Y1154209D01*
X979416Y1151669D01*
X984496Y1154209D01*
X981956Y1149129D01*
X984496Y1144049D01*
X979416Y1146589D01*
X974336Y1144049D01*
X1005798Y1118825D02*
X1008337Y1123905D01*
X1005798Y1128985D01*
X1010878Y1126445D01*
X1015957Y1128985D01*
X1013418Y1123905D01*
X1015957Y1118825D01*
X1010878Y1121365D01*
X1005798Y1118825D01*
X1006033Y1144532D02*
X1008573Y1149612D01*
X1006033Y1154692D01*
X1011113Y1152152D01*
X1016193Y1154692D01*
X1013653Y1149612D01*
X1016193Y1144532D01*
X1011113Y1147072D01*
X1006033Y1144532D01*
X890831Y1102284D02*
X893371Y1107364D01*
X890831Y1112444D01*
X895911Y1109904D01*
X900991Y1112444D01*
X898451Y1107364D01*
X900991Y1102284D01*
X895911Y1104824D01*
X890831Y1102284D01*
X902420Y1117420D02*
X904960Y1122500D01*
X902420Y1127580D01*
X907500Y1125040D01*
X912580Y1127580D01*
X910040Y1122500D01*
X912580Y1117420D01*
X907500Y1119960D01*
X902420Y1117420D01*
X947420Y972420D02*
X949960Y977500D01*
X947420Y982580D01*
X952500Y980040D01*
X957580Y982580D01*
X955040Y977500D01*
X957580Y972420D01*
X952500Y974960D01*
X947420Y972420D01*
X955845Y1054648D02*
X958385Y1059728D01*
X955845Y1064808D01*
X960925Y1062268D01*
X966005Y1064808D01*
X963465Y1059728D01*
X966005Y1054648D01*
X960925Y1057188D01*
X955845Y1054648D01*
X962420Y987420D02*
X964960Y992500D01*
X962420Y997580D01*
X967500Y995040D01*
X972580Y997580D01*
X970040Y992500D01*
X972580Y987420D01*
X967500Y989960D01*
X962420Y987420D01*
X914920Y982420D02*
X917460Y987500D01*
X914920Y992580D01*
X920000Y990040D01*
X925080Y992580D01*
X922540Y987500D01*
X925080Y982420D01*
X920000Y984960D01*
X914920Y982420D01*
Y989920D02*
X917460Y995000D01*
X914920Y1000080D01*
X920000Y997540D01*
X925080Y1000080D01*
X922540Y995000D01*
X925080Y989920D01*
X920000Y992460D01*
X914920Y989920D01*
X954920Y979920D02*
X957460Y985000D01*
X954920Y990080D01*
X960000Y987540D01*
X965080Y990080D01*
X962540Y985000D01*
X965080Y979920D01*
X960000Y982460D01*
X954920Y979920D01*
X904920Y989920D02*
X907460Y995000D01*
X904920Y1000080D01*
X910000Y997540D01*
X915080Y1000080D01*
X912540Y995000D01*
X915080Y989920D01*
X910000Y992460D01*
X904920Y989920D01*
X955961Y1038805D02*
X958501Y1043885D01*
X955961Y1048965D01*
X961041Y1046425D01*
X966121Y1048965D01*
X963581Y1043885D01*
X966121Y1038805D01*
X961041Y1041345D01*
X955961Y1038805D01*
X869920Y982420D02*
X872460Y987500D01*
X869920Y992580D01*
X875000Y990040D01*
X880080Y992580D01*
X877540Y987500D01*
X880080Y982420D01*
X875000Y984960D01*
X869920Y982420D01*
Y994920D02*
X872460Y1000000D01*
X869920Y1005080D01*
X875000Y1002540D01*
X880080Y1005080D01*
X877540Y1000000D01*
X880080Y994920D01*
X875000Y997460D01*
X869920Y994920D01*
X869525Y1026329D02*
X872065Y1031409D01*
X869525Y1036489D01*
X874604Y1033949D01*
X879685Y1036489D01*
X877144Y1031409D01*
X879685Y1026329D01*
X874604Y1028869D01*
X869525Y1026329D01*
X864920Y1074920D02*
X867460Y1080000D01*
X864920Y1085080D01*
X870000Y1082540D01*
X875080Y1085080D01*
X872540Y1080000D01*
X875080Y1074920D01*
X870000Y1077460D01*
X864920Y1074920D01*
X939920Y964920D02*
X942460Y970000D01*
X939920Y975080D01*
X945000Y972540D01*
X950080Y975080D01*
X947540Y970000D01*
X950080Y964920D01*
X945000Y967460D01*
X939920Y964920D01*
X917420Y942420D02*
X919960Y947500D01*
X917420Y952580D01*
X922500Y950040D01*
X927580Y952580D01*
X925040Y947500D01*
X927580Y942420D01*
X922500Y944960D01*
X917420Y942420D01*
X902420Y887420D02*
X904960Y892500D01*
X902420Y897580D01*
X907500Y895040D01*
X912580Y897580D01*
X910040Y892500D01*
X912580Y887420D01*
X907500Y889960D01*
X902420Y887420D01*
Y879920D02*
X904960Y885000D01*
X902420Y890080D01*
X907500Y887540D01*
X912580Y890080D01*
X910040Y885000D01*
X912580Y879920D01*
X907500Y882460D01*
X902420Y879920D01*
Y872420D02*
X904960Y877500D01*
X902420Y882580D01*
X907500Y880040D01*
X912580Y882580D01*
X910040Y877500D01*
X912580Y872420D01*
X907500Y874960D01*
X902420Y872420D01*
X894920Y962420D02*
X897460Y967500D01*
X894920Y972580D01*
X900000Y970040D01*
X905080Y972580D01*
X902540Y967500D01*
X905080Y962420D01*
X900000Y964960D01*
X894920Y962420D01*
Y879920D02*
X897460Y885000D01*
X894920Y890080D01*
X900000Y887540D01*
X905080Y890080D01*
X902540Y885000D01*
X905080Y879920D01*
X900000Y882460D01*
X894920Y879920D01*
Y872420D02*
X897460Y877500D01*
X894920Y882580D01*
X900000Y880040D01*
X905080Y882580D01*
X902540Y877500D01*
X905080Y872420D01*
X900000Y874960D01*
X894920Y872420D01*
Y969920D02*
X897460Y975000D01*
X894920Y980080D01*
X900000Y977540D01*
X905080Y980080D01*
X902540Y975000D01*
X905080Y969920D01*
X900000Y972460D01*
X894920Y969920D01*
X959920Y797420D02*
X962460Y802500D01*
X959920Y807580D01*
X965000Y805040D01*
X970080Y807580D01*
X967540Y802500D01*
X970080Y797420D01*
X965000Y799960D01*
X959920Y797420D01*
Y789920D02*
X962460Y795000D01*
X959920Y800080D01*
X965000Y797540D01*
X970080Y800080D01*
X967540Y795000D01*
X970080Y789920D01*
X965000Y792460D01*
X959920Y789920D01*
X957420Y689920D02*
X959960Y695000D01*
X957420Y700080D01*
X962500Y697540D01*
X967580Y700080D01*
X965040Y695000D01*
X967580Y689920D01*
X962500Y692460D01*
X957420Y689920D01*
Y697420D02*
X959960Y702500D01*
X957420Y707580D01*
X962500Y705040D01*
X967580Y707580D01*
X965040Y702500D01*
X967580Y697420D01*
X962500Y699960D01*
X957420Y697420D01*
X967420Y789920D02*
X969960Y795000D01*
X967420Y800080D01*
X972500Y797540D01*
X977580Y800080D01*
X975040Y795000D01*
X977580Y789920D01*
X972500Y792460D01*
X967420Y789920D01*
X951294Y735602D02*
X953834Y740682D01*
X951294Y745761D01*
X956374Y743222D01*
X961454Y745761D01*
X958914Y740682D01*
X961454Y735602D01*
X956374Y738141D01*
X951294Y735602D01*
X967420Y797420D02*
X969960Y802500D01*
X967420Y807580D01*
X972500Y805040D01*
X977580Y807580D01*
X975040Y802500D01*
X977580Y797420D01*
X972500Y799960D01*
X967420Y797420D01*
X964920Y689920D02*
X967460Y695000D01*
X964920Y700080D01*
X970000Y697540D01*
X975080Y700080D01*
X972540Y695000D01*
X975080Y689920D01*
X970000Y692460D01*
X964920Y689920D01*
Y697420D02*
X967460Y702500D01*
X964920Y707580D01*
X970000Y705040D01*
X975080Y707580D01*
X972540Y702500D01*
X975080Y697420D01*
X970000Y699960D01*
X964920Y697420D01*
X1095197Y1106269D02*
X1097737Y1111349D01*
X1095197Y1116429D01*
X1100277Y1113889D01*
X1105357Y1116429D01*
X1102817Y1111349D01*
X1105357Y1106269D01*
X1100277Y1108809D01*
X1095197Y1106269D01*
X1094964Y1131538D02*
X1097504Y1136618D01*
X1094964Y1141699D01*
X1100044Y1139158D01*
X1105124Y1141699D01*
X1102584Y1136618D01*
X1105124Y1131538D01*
X1100044Y1134079D01*
X1094964Y1131538D01*
X1094940Y1081096D02*
X1097480Y1086176D01*
X1094940Y1091255D01*
X1100020Y1088716D01*
X1105100Y1091255D01*
X1102560Y1086176D01*
X1105100Y1081096D01*
X1100020Y1083635D01*
X1094940Y1081096D01*
Y1093040D02*
X1097480Y1098120D01*
X1094940Y1103200D01*
X1100020Y1100660D01*
X1105100Y1103200D01*
X1102560Y1098120D01*
X1105100Y1093040D01*
X1100020Y1095580D01*
X1094940Y1093040D01*
X1094778Y1118680D02*
X1097318Y1123760D01*
X1094778Y1128840D01*
X1099858Y1126300D01*
X1104938Y1128840D01*
X1102398Y1123760D01*
X1104938Y1118680D01*
X1099858Y1121220D01*
X1094778Y1118680D01*
X1064776Y1119021D02*
X1067316Y1124101D01*
X1064776Y1129181D01*
X1069856Y1126641D01*
X1074936Y1129181D01*
X1072396Y1124101D01*
X1074936Y1119021D01*
X1069856Y1121561D01*
X1064776Y1119021D01*
X1064699Y1093541D02*
X1067240Y1098621D01*
X1064699Y1103701D01*
X1069780Y1101161D01*
X1074859Y1103701D01*
X1072319Y1098621D01*
X1074859Y1093541D01*
X1069780Y1096081D01*
X1064699Y1093541D01*
X1064628Y1131627D02*
X1067168Y1136707D01*
X1064628Y1141787D01*
X1069708Y1139247D01*
X1074788Y1141787D01*
X1072248Y1136707D01*
X1074788Y1131627D01*
X1069708Y1134167D01*
X1064628Y1131627D01*
X1064622Y1080994D02*
X1067162Y1086074D01*
X1064622Y1091154D01*
X1069703Y1088614D01*
X1074782Y1091154D01*
X1072243Y1086074D01*
X1074782Y1080994D01*
X1069703Y1083534D01*
X1064622Y1080994D01*
X1064486Y1106291D02*
X1067026Y1111371D01*
X1064486Y1116451D01*
X1069566Y1113911D01*
X1074646Y1116451D01*
X1072106Y1111371D01*
X1074646Y1106291D01*
X1069566Y1108831D01*
X1064486Y1106291D01*
X1095337Y1143263D02*
X1097877Y1148343D01*
X1095337Y1153423D01*
X1100417Y1150883D01*
X1105497Y1153423D01*
X1102957Y1148343D01*
X1105497Y1143263D01*
X1100417Y1145803D01*
X1095337Y1143263D01*
X1064813Y1144400D02*
X1067353Y1149480D01*
X1064813Y1154560D01*
X1069893Y1152020D01*
X1074973Y1154560D01*
X1072433Y1149480D01*
X1074973Y1144400D01*
X1069893Y1146940D01*
X1064813Y1144400D01*
X702420Y1109920D02*
X704960Y1115000D01*
X702420Y1120080D01*
X707500Y1117540D01*
X712580Y1120080D01*
X710040Y1115000D01*
X712580Y1109920D01*
X707500Y1112460D01*
X702420Y1109920D01*
Y1119920D02*
X704960Y1125000D01*
X702420Y1130080D01*
X707500Y1127540D01*
X712580Y1130080D01*
X710040Y1125000D01*
X712580Y1119920D01*
X707500Y1122460D01*
X702420Y1119920D01*
X1004920Y979920D02*
X1007460Y985000D01*
X1004920Y990080D01*
X1010000Y987540D01*
X1015080Y990080D01*
X1012540Y985000D01*
X1015080Y979920D01*
X1010000Y982460D01*
X1004920Y979920D01*
X969920Y994920D02*
X972460Y1000000D01*
X969920Y1005080D01*
X975000Y1002540D01*
X980080Y1005080D01*
X977540Y1000000D01*
X980080Y994920D01*
X975000Y997460D01*
X969920Y994920D01*
X997420Y972420D02*
X999960Y977500D01*
X997420Y982580D01*
X1002500Y980040D01*
X1007580Y982580D01*
X1005040Y977500D01*
X1007580Y972420D01*
X1002500Y974960D01*
X997420Y972420D01*
X1052420Y977420D02*
X1054960Y982500D01*
X1052420Y987580D01*
X1057500Y985040D01*
X1062580Y987580D01*
X1060040Y982500D01*
X1062580Y977420D01*
X1057500Y979960D01*
X1052420Y977420D01*
X1264920Y1234920D02*
X1267460Y1240000D01*
X1264920Y1245080D01*
X1270000Y1242540D01*
X1275080Y1245080D01*
X1272540Y1240000D01*
X1275080Y1234920D01*
X1270000Y1237460D01*
X1264920Y1234920D01*
X1254920D02*
X1257460Y1240000D01*
X1254920Y1245080D01*
X1260000Y1242540D01*
X1265080Y1245080D01*
X1262540Y1240000D01*
X1265080Y1234920D01*
X1260000Y1237460D01*
X1254920Y1234920D01*
X1129704Y1233133D02*
X1132244Y1238213D01*
X1129704Y1243293D01*
X1134784Y1240753D01*
X1139864Y1243293D01*
X1137324Y1238213D01*
X1139864Y1233133D01*
X1134784Y1235673D01*
X1129704Y1233133D01*
X1129920Y1194920D02*
X1132460Y1200000D01*
X1129920Y1205080D01*
X1135000Y1202540D01*
X1140080Y1205080D01*
X1137540Y1200000D01*
X1140080Y1194920D01*
X1135000Y1197460D01*
X1129920Y1194920D01*
Y1207420D02*
X1132460Y1212500D01*
X1129920Y1217580D01*
X1135000Y1215040D01*
X1140080Y1217580D01*
X1137540Y1212500D01*
X1140080Y1207420D01*
X1135000Y1209960D01*
X1129920Y1207420D01*
Y1219920D02*
X1132460Y1225000D01*
X1129920Y1230080D01*
X1135000Y1227540D01*
X1140080Y1230080D01*
X1137540Y1225000D01*
X1140080Y1219920D01*
X1135000Y1222460D01*
X1129920Y1219920D01*
X882420Y1102420D02*
X884960Y1107500D01*
X882420Y1112580D01*
X887500Y1110040D01*
X892580Y1112580D01*
X890040Y1107500D01*
X892580Y1102420D01*
X887500Y1104960D01*
X882420Y1102420D01*
X938929Y1097940D02*
X941469Y1103020D01*
X938929Y1108100D01*
X944009Y1105560D01*
X949089Y1108100D01*
X946549Y1103020D01*
X949089Y1097940D01*
X944009Y1100480D01*
X938929Y1097940D01*
X943301Y1106219D02*
X945841Y1111299D01*
X943301Y1116379D01*
X948381Y1113839D01*
X953461Y1116379D01*
X950921Y1111299D01*
X953461Y1106219D01*
X948381Y1108759D01*
X943301Y1106219D01*
X974046Y1080701D02*
X976586Y1085781D01*
X974046Y1090861D01*
X979126Y1088321D01*
X984206Y1090861D01*
X981666Y1085781D01*
X984206Y1080701D01*
X979126Y1083241D01*
X974046Y1080701D01*
X808680Y1050514D02*
X811220Y1055594D01*
X808680Y1060674D01*
X813760Y1058134D01*
X818840Y1060674D01*
X816300Y1055594D01*
X818840Y1050514D01*
X813760Y1053054D01*
X808680Y1050514D01*
X803242Y1107897D02*
X805782Y1112977D01*
X803242Y1118057D01*
X808322Y1115517D01*
X813402Y1118057D01*
X810862Y1112977D01*
X813402Y1107897D01*
X808322Y1110437D01*
X803242Y1107897D01*
X712420Y1119920D02*
X714960Y1125000D01*
X712420Y1130080D01*
X717500Y1127540D01*
X722580Y1130080D01*
X720040Y1125000D01*
X722580Y1119920D01*
X717500Y1122460D01*
X712420Y1119920D01*
Y1109920D02*
X714960Y1115000D01*
X712420Y1120080D01*
X717500Y1117540D01*
X722580Y1120080D01*
X720040Y1115000D01*
X722580Y1109920D01*
X717500Y1112460D01*
X712420Y1109920D01*
X1157420Y772420D02*
X1159960Y777500D01*
X1157420Y782580D01*
X1162500Y780040D01*
X1167580Y782580D01*
X1165040Y777500D01*
X1167580Y772420D01*
X1162500Y774960D01*
X1157420Y772420D01*
X1217420Y982420D02*
X1219960Y987500D01*
X1217420Y992580D01*
X1222500Y990040D01*
X1227580Y992580D01*
X1225040Y987500D01*
X1227580Y982420D01*
X1222500Y984960D01*
X1217420Y982420D01*
Y1012420D02*
X1219960Y1017500D01*
X1217420Y1022580D01*
X1222500Y1020040D01*
X1227580Y1022580D01*
X1225040Y1017500D01*
X1227580Y1012420D01*
X1222500Y1014960D01*
X1217420Y1012420D01*
X1197420Y1119920D02*
X1199960Y1125000D01*
X1197420Y1130080D01*
X1202500Y1127540D01*
X1207580Y1130080D01*
X1205040Y1125000D01*
X1207580Y1119920D01*
X1202500Y1122460D01*
X1197420Y1119920D01*
X1199920Y1107420D02*
X1202460Y1112500D01*
X1199920Y1117580D01*
X1205000Y1115040D01*
X1210080Y1117580D01*
X1207540Y1112500D01*
X1210080Y1107420D01*
X1205000Y1109960D01*
X1199920Y1107420D01*
X1214920Y1087420D02*
X1217460Y1092500D01*
X1214920Y1097580D01*
X1220000Y1095040D01*
X1225080Y1097580D01*
X1222540Y1092500D01*
X1225080Y1087420D01*
X1220000Y1089960D01*
X1214920Y1087420D01*
X1162760Y1079590D02*
X1165300Y1084670D01*
X1162760Y1089750D01*
X1167840Y1087210D01*
X1172920Y1089750D01*
X1170380Y1084670D01*
X1172920Y1079590D01*
X1167840Y1082130D01*
X1162760Y1079590D01*
X1164237Y1055111D02*
X1166777Y1060191D01*
X1164237Y1065271D01*
X1169317Y1062731D01*
X1174397Y1065271D01*
X1171857Y1060191D01*
X1174397Y1055111D01*
X1169317Y1057651D01*
X1164237Y1055111D01*
X1173080Y1054850D02*
X1175620Y1059930D01*
X1173080Y1065010D01*
X1178160Y1062470D01*
X1183240Y1065010D01*
X1180700Y1059930D01*
X1183240Y1054850D01*
X1178160Y1057390D01*
X1173080Y1054850D01*
X1164359Y1047079D02*
X1166899Y1052159D01*
X1164359Y1057239D01*
X1169439Y1054699D01*
X1174519Y1057239D01*
X1171979Y1052159D01*
X1174519Y1047079D01*
X1169439Y1049619D01*
X1164359Y1047079D01*
X1173242Y1046958D02*
X1175782Y1052038D01*
X1173242Y1057118D01*
X1178322Y1054578D01*
X1183402Y1057118D01*
X1180862Y1052038D01*
X1183402Y1046958D01*
X1178322Y1049498D01*
X1173242Y1046958D01*
X1164359Y1039048D02*
X1166899Y1044128D01*
X1164359Y1049208D01*
X1169439Y1046668D01*
X1174519Y1049208D01*
X1171979Y1044128D01*
X1174519Y1039048D01*
X1169439Y1041588D01*
X1164359Y1039048D01*
X1173242Y1038683D02*
X1175782Y1043763D01*
X1173242Y1048843D01*
X1178322Y1046303D01*
X1183402Y1048843D01*
X1180862Y1043763D01*
X1183402Y1038683D01*
X1178322Y1041223D01*
X1173242Y1038683D01*
X1182420Y1019920D02*
X1184960Y1025000D01*
X1182420Y1030080D01*
X1187500Y1027540D01*
X1192580Y1030080D01*
X1190040Y1025000D01*
X1192580Y1019920D01*
X1187500Y1022460D01*
X1182420Y1019920D01*
X1279729Y1185170D02*
X1282269Y1190250D01*
X1279729Y1195330D01*
X1284809Y1192790D01*
X1289889Y1195330D01*
X1287349Y1190250D01*
X1289889Y1185170D01*
X1284809Y1187710D01*
X1279729Y1185170D01*
X1279571Y1223214D02*
X1282111Y1228294D01*
X1279571Y1233374D01*
X1284651Y1230834D01*
X1289731Y1233374D01*
X1287191Y1228294D01*
X1289731Y1223214D01*
X1284651Y1225754D01*
X1279571Y1223214D01*
X1254920Y1179920D02*
X1257460Y1185000D01*
X1254920Y1190080D01*
X1260000Y1187540D01*
X1265080Y1190080D01*
X1262540Y1185000D01*
X1265080Y1179920D01*
X1260000Y1182460D01*
X1254920Y1179920D01*
Y1169920D02*
X1257460Y1175000D01*
X1254920Y1180080D01*
X1260000Y1177540D01*
X1265080Y1180080D01*
X1262540Y1175000D01*
X1265080Y1169920D01*
X1260000Y1172460D01*
X1254920Y1169920D01*
X1264920D02*
X1267460Y1175000D01*
X1264920Y1180080D01*
X1270000Y1177540D01*
X1275080Y1180080D01*
X1272540Y1175000D01*
X1275080Y1169920D01*
X1270000Y1172460D01*
X1264920Y1169920D01*
Y1179920D02*
X1267460Y1185000D01*
X1264920Y1190080D01*
X1270000Y1187540D01*
X1275080Y1190080D01*
X1272540Y1185000D01*
X1275080Y1179920D01*
X1270000Y1182460D01*
X1264920Y1179920D01*
X1254920Y1224920D02*
X1257460Y1230000D01*
X1254920Y1235080D01*
X1260000Y1232540D01*
X1265080Y1235080D01*
X1262540Y1230000D01*
X1265080Y1224920D01*
X1260000Y1227460D01*
X1254920Y1224920D01*
X1264920D02*
X1267460Y1230000D01*
X1264920Y1235080D01*
X1270000Y1232540D01*
X1275080Y1235080D01*
X1272540Y1230000D01*
X1275080Y1224920D01*
X1270000Y1227460D01*
X1264920Y1224920D01*
X1212420Y862420D02*
X1214960Y867500D01*
X1212420Y872580D01*
X1217500Y870040D01*
X1222580Y872580D01*
X1220040Y867500D01*
X1222580Y862420D01*
X1217500Y864960D01*
X1212420Y862420D01*
X1204920D02*
X1207460Y867500D01*
X1204920Y872580D01*
X1210000Y870040D01*
X1215080Y872580D01*
X1212540Y867500D01*
X1215080Y862420D01*
X1210000Y864960D01*
X1204920Y862420D01*
X1197420D02*
X1199960Y867500D01*
X1197420Y872580D01*
X1202500Y870040D01*
X1207580Y872580D01*
X1205040Y867500D01*
X1207580Y862420D01*
X1202500Y864960D01*
X1197420Y862420D01*
Y854920D02*
X1199960Y860000D01*
X1197420Y865080D01*
X1202500Y862540D01*
X1207580Y865080D01*
X1205040Y860000D01*
X1207580Y854920D01*
X1202500Y857460D01*
X1197420Y854920D01*
X1204920D02*
X1207460Y860000D01*
X1204920Y865080D01*
X1210000Y862540D01*
X1215080Y865080D01*
X1212540Y860000D01*
X1215080Y854920D01*
X1210000Y857460D01*
X1204920Y854920D01*
X1212420D02*
X1214960Y860000D01*
X1212420Y865080D01*
X1217500Y862540D01*
X1222580Y865080D01*
X1220040Y860000D01*
X1222580Y854920D01*
X1217500Y857460D01*
X1212420Y854920D01*
X1204920Y847420D02*
X1207460Y852500D01*
X1204920Y857580D01*
X1210000Y855040D01*
X1215080Y857580D01*
X1212540Y852500D01*
X1215080Y847420D01*
X1210000Y849960D01*
X1204920Y847420D01*
X1212420D02*
X1214960Y852500D01*
X1212420Y857580D01*
X1217500Y855040D01*
X1222580Y857580D01*
X1220040Y852500D01*
X1222580Y847420D01*
X1217500Y849960D01*
X1212420Y847420D01*
X1197420D02*
X1199960Y852500D01*
X1197420Y857580D01*
X1202500Y855040D01*
X1207580Y857580D01*
X1205040Y852500D01*
X1207580Y847420D01*
X1202500Y849960D01*
X1197420Y847420D01*
X1212420Y752420D02*
X1214960Y757500D01*
X1212420Y762580D01*
X1217500Y760040D01*
X1222580Y762580D01*
X1220040Y757500D01*
X1222580Y752420D01*
X1217500Y754960D01*
X1212420Y752420D01*
X1197420Y767420D02*
X1199960Y772500D01*
X1197420Y777580D01*
X1202500Y775040D01*
X1207580Y777580D01*
X1205040Y772500D01*
X1207580Y767420D01*
X1202500Y769960D01*
X1197420Y767420D01*
X1204920Y759920D02*
X1207460Y765000D01*
X1204920Y770080D01*
X1210000Y767540D01*
X1215080Y770080D01*
X1212540Y765000D01*
X1215080Y759920D01*
X1210000Y762460D01*
X1204920Y759920D01*
X1212420Y767420D02*
X1214960Y772500D01*
X1212420Y777580D01*
X1217500Y775040D01*
X1222580Y777580D01*
X1220040Y772500D01*
X1222580Y767420D01*
X1217500Y769960D01*
X1212420Y767420D01*
X1204920D02*
X1207460Y772500D01*
X1204920Y777580D01*
X1210000Y775040D01*
X1215080Y777580D01*
X1212540Y772500D01*
X1215080Y767420D01*
X1210000Y769960D01*
X1204920Y767420D01*
X1212420Y759920D02*
X1214960Y765000D01*
X1212420Y770080D01*
X1217500Y767540D01*
X1222580Y770080D01*
X1220040Y765000D01*
X1222580Y759920D01*
X1217500Y762460D01*
X1212420Y759920D01*
X1197420D02*
X1199960Y765000D01*
X1197420Y770080D01*
X1202500Y767540D01*
X1207580Y770080D01*
X1205040Y765000D01*
X1207580Y759920D01*
X1202500Y762460D01*
X1197420Y759920D01*
Y752420D02*
X1199960Y757500D01*
X1197420Y762580D01*
X1202500Y760040D01*
X1207580Y762580D01*
X1205040Y757500D01*
X1207580Y752420D01*
X1202500Y754960D01*
X1197420Y752420D01*
X1204920D02*
X1207460Y757500D01*
X1204920Y762580D01*
X1210000Y760040D01*
X1215080Y762580D01*
X1212540Y757500D01*
X1215080Y752420D01*
X1210000Y754960D01*
X1204920Y752420D01*
X1095061Y1182465D02*
X1097601Y1187545D01*
X1095061Y1192625D01*
X1100141Y1190085D01*
X1105221Y1192625D01*
X1102681Y1187545D01*
X1105221Y1182465D01*
X1100141Y1185005D01*
X1095061Y1182465D01*
X1094920Y1169920D02*
X1097460Y1175000D01*
X1094920Y1180080D01*
X1100000Y1177540D01*
X1105080Y1180080D01*
X1102540Y1175000D01*
X1105080Y1169920D01*
X1100000Y1172460D01*
X1094920Y1169920D01*
X1064821Y1182648D02*
X1067362Y1187729D01*
X1064821Y1192809D01*
X1069902Y1190268D01*
X1074982Y1192809D01*
X1072441Y1187729D01*
X1074982Y1182648D01*
X1069902Y1185189D01*
X1064821Y1182648D01*
X1064691Y1157514D02*
X1067231Y1162594D01*
X1064691Y1167673D01*
X1069771Y1165134D01*
X1074851Y1167673D01*
X1072311Y1162594D01*
X1074851Y1157514D01*
X1069771Y1160053D01*
X1064691Y1157514D01*
X1064647Y1169928D02*
X1067187Y1175008D01*
X1064647Y1180088D01*
X1069727Y1177548D01*
X1074807Y1180088D01*
X1072267Y1175008D01*
X1074807Y1169928D01*
X1069727Y1172468D01*
X1064647Y1169928D01*
X1095151Y1156883D02*
X1097691Y1161963D01*
X1095151Y1167043D01*
X1100231Y1164503D01*
X1105311Y1167043D01*
X1102771Y1161963D01*
X1105311Y1156883D01*
X1100231Y1159423D01*
X1095151Y1156883D01*
X1064559Y1246033D02*
X1067099Y1251113D01*
X1064559Y1256193D01*
X1069639Y1253653D01*
X1074719Y1256193D01*
X1072179Y1251113D01*
X1074719Y1246033D01*
X1069639Y1248573D01*
X1064559Y1246033D01*
X1035554Y1245918D02*
X1038094Y1250998D01*
X1035554Y1256078D01*
X1040634Y1253538D01*
X1045714Y1256078D01*
X1043174Y1250998D01*
X1045714Y1245918D01*
X1040634Y1248458D01*
X1035554Y1245918D01*
X1006073Y1221023D02*
X1008613Y1226103D01*
X1006073Y1231183D01*
X1011153Y1228643D01*
X1016233Y1231183D01*
X1013693Y1226103D01*
X1016233Y1221023D01*
X1011153Y1223563D01*
X1006073Y1221023D01*
X1005941Y1195340D02*
X1008481Y1200419D01*
X1005941Y1205499D01*
X1011021Y1202960D01*
X1016101Y1205499D01*
X1013561Y1200419D01*
X1016101Y1195340D01*
X1011021Y1197879D01*
X1005941Y1195340D01*
X1005798Y1170005D02*
X1008337Y1175085D01*
X1005798Y1180164D01*
X1010878Y1177625D01*
X1015957Y1180164D01*
X1013418Y1175085D01*
X1015957Y1170005D01*
X1010878Y1172544D01*
X1005798Y1170005D01*
Y1156994D02*
X1008337Y1162074D01*
X1005798Y1167154D01*
X1010878Y1164614D01*
X1015957Y1167154D01*
X1013418Y1162074D01*
X1015957Y1156994D01*
X1010878Y1159534D01*
X1005798Y1156994D01*
X1005613Y1208214D02*
X1008153Y1213294D01*
X1005613Y1218374D01*
X1010693Y1215834D01*
X1015773Y1218374D01*
X1013233Y1213294D01*
X1015773Y1208214D01*
X1010693Y1210754D01*
X1005613Y1208214D01*
X1005482Y1233306D02*
X1008022Y1238386D01*
X1005482Y1243466D01*
X1010562Y1240926D01*
X1015642Y1243466D01*
X1013102Y1238386D01*
X1015642Y1233306D01*
X1010562Y1235846D01*
X1005482Y1233306D01*
X1005406Y1182780D02*
X1007946Y1187860D01*
X1005406Y1192940D01*
X1010486Y1190400D01*
X1015566Y1192940D01*
X1013026Y1187860D01*
X1015566Y1182780D01*
X1010486Y1185320D01*
X1005406Y1182780D01*
X974597Y1182589D02*
X977137Y1187669D01*
X974597Y1192749D01*
X979677Y1190209D01*
X984757Y1192749D01*
X982217Y1187669D01*
X984757Y1182589D01*
X979677Y1185129D01*
X974597Y1182589D01*
X974491Y1207955D02*
X977031Y1213035D01*
X974491Y1218115D01*
X979571Y1215575D01*
X984651Y1218115D01*
X982111Y1213035D01*
X984651Y1207955D01*
X979571Y1210495D01*
X974491Y1207955D01*
X974456Y1170012D02*
X976996Y1175092D01*
X974456Y1180172D01*
X979536Y1177632D01*
X984616Y1180172D01*
X982076Y1175092D01*
X984616Y1170012D01*
X979536Y1172552D01*
X974456Y1170012D01*
X974370Y1232806D02*
X976910Y1237886D01*
X974370Y1242966D01*
X979450Y1240426D01*
X984530Y1242966D01*
X981990Y1237886D01*
X984530Y1232806D01*
X979450Y1235346D01*
X974370Y1232806D01*
X974350Y1195272D02*
X976890Y1200352D01*
X974350Y1205432D01*
X979430Y1202892D01*
X984510Y1205432D01*
X981970Y1200352D01*
X984510Y1195272D01*
X979430Y1197812D01*
X974350Y1195272D01*
X974266Y1220278D02*
X976805Y1225358D01*
X974266Y1230438D01*
X979345Y1227898D01*
X984426Y1230438D01*
X981886Y1225358D01*
X984426Y1220278D01*
X979345Y1222818D01*
X974266Y1220278D01*
X974102Y1156975D02*
X976643Y1162055D01*
X974102Y1167135D01*
X979183Y1164595D01*
X984262Y1167135D01*
X981722Y1162055D01*
X984262Y1156975D01*
X979183Y1159515D01*
X974102Y1156975D01*
X942420Y1169920D02*
X944960Y1175000D01*
X942420Y1180080D01*
X947500Y1177540D01*
X952580Y1180080D01*
X950040Y1175000D01*
X952580Y1169920D01*
X947500Y1172460D01*
X942420Y1169920D01*
X942314Y1156952D02*
X944854Y1162032D01*
X942314Y1167112D01*
X947394Y1164572D01*
X952474Y1167112D01*
X949934Y1162032D01*
X952474Y1156952D01*
X947394Y1159492D01*
X942314Y1156952D01*
Y1147415D02*
X944854Y1152495D01*
X942314Y1157575D01*
X947394Y1155035D01*
X952474Y1157575D01*
X949934Y1152495D01*
X952474Y1147415D01*
X947394Y1149955D01*
X942314Y1147415D01*
X941835Y1220347D02*
X944375Y1225427D01*
X941835Y1230507D01*
X946915Y1227967D01*
X951995Y1230507D01*
X949455Y1225427D01*
X951995Y1220347D01*
X946915Y1222887D01*
X941835Y1220347D01*
X941681Y1135049D02*
X944221Y1140129D01*
X941681Y1145209D01*
X946761Y1142669D01*
X951841Y1145209D01*
X949301Y1140129D01*
X951841Y1135049D01*
X946761Y1137589D01*
X941681Y1135049D01*
X942420Y1194920D02*
X944960Y1200000D01*
X942420Y1205080D01*
X947500Y1202540D01*
X952580Y1205080D01*
X950040Y1200000D01*
X952580Y1194920D01*
X947500Y1197460D01*
X942420Y1194920D01*
X929920Y1202420D02*
X932460Y1207500D01*
X929920Y1212580D01*
X935000Y1210040D01*
X940080Y1212580D01*
X937540Y1207500D01*
X940080Y1202420D01*
X935000Y1204960D01*
X929920Y1202420D01*
Y1194920D02*
X932460Y1200000D01*
X929920Y1205080D01*
X935000Y1202540D01*
X940080Y1205080D01*
X937540Y1200000D01*
X940080Y1194920D01*
X935000Y1197460D01*
X929920Y1194920D01*
X927420Y1244920D02*
X929960Y1250000D01*
X927420Y1255080D01*
X932500Y1252540D01*
X937580Y1255080D01*
X935040Y1250000D01*
X937580Y1244920D01*
X932500Y1247460D01*
X927420Y1244920D01*
X922420Y1202420D02*
X924960Y1207500D01*
X922420Y1212580D01*
X927500Y1210040D01*
X932580Y1212580D01*
X930040Y1207500D01*
X932580Y1202420D01*
X927500Y1204960D01*
X922420Y1202420D01*
Y1194920D02*
X924960Y1200000D01*
X922420Y1205080D01*
X927500Y1202540D01*
X932580Y1205080D01*
X930040Y1200000D01*
X932580Y1194920D01*
X927500Y1197460D01*
X922420Y1194920D01*
X941180Y1118680D02*
X943720Y1123760D01*
X941180Y1128840D01*
X946260Y1126300D01*
X951340Y1128840D01*
X948800Y1123760D01*
X951340Y1118680D01*
X946260Y1121220D01*
X941180Y1118680D01*
X877718Y1128915D02*
X880258Y1133995D01*
X877718Y1139075D01*
X882798Y1136535D01*
X887878Y1139075D01*
X885338Y1133995D01*
X887878Y1128915D01*
X882798Y1131455D01*
X877718Y1128915D01*
X942561Y1182357D02*
X945101Y1187437D01*
X942561Y1192517D01*
X947641Y1189977D01*
X952721Y1192517D01*
X950181Y1187437D01*
X952721Y1182357D01*
X947641Y1184897D01*
X942561Y1182357D01*
X862224Y1175554D02*
X864763Y1180634D01*
X862224Y1185714D01*
X867303Y1183174D01*
X872383Y1185714D01*
X869844Y1180634D01*
X872383Y1175554D01*
X867303Y1178094D01*
X862224Y1175554D01*
X852420Y1224920D02*
X854960Y1230000D01*
X852420Y1235080D01*
X857500Y1232540D01*
X862580Y1235080D01*
X860040Y1230000D01*
X862580Y1224920D01*
X857500Y1227460D01*
X852420Y1224920D01*
Y1239920D02*
X854960Y1245000D01*
X852420Y1250080D01*
X857500Y1247540D01*
X862580Y1250080D01*
X860040Y1245000D01*
X862580Y1239920D01*
X857500Y1242460D01*
X852420Y1239920D01*
X844920Y1224920D02*
X847460Y1230000D01*
X844920Y1235080D01*
X850000Y1232540D01*
X855080Y1235080D01*
X852540Y1230000D01*
X855080Y1224920D01*
X850000Y1227460D01*
X844920Y1224920D01*
Y1232420D02*
X847460Y1237500D01*
X844920Y1242580D01*
X850000Y1240040D01*
X855080Y1242580D01*
X852540Y1237500D01*
X855080Y1232420D01*
X850000Y1234960D01*
X844920Y1232420D01*
Y1239920D02*
X847460Y1245000D01*
X844920Y1250080D01*
X850000Y1247540D01*
X855080Y1250080D01*
X852540Y1245000D01*
X855080Y1239920D01*
X850000Y1242460D01*
X844920Y1239920D01*
X843122Y1213098D02*
X845662Y1218178D01*
X843122Y1223258D01*
X848202Y1220718D01*
X853282Y1223258D01*
X850742Y1218178D01*
X853282Y1213098D01*
X848202Y1215638D01*
X843122Y1213098D01*
X842674Y1166326D02*
X845214Y1171406D01*
X842674Y1176486D01*
X847754Y1173946D01*
X852834Y1176486D01*
X850294Y1171406D01*
X852834Y1166326D01*
X847754Y1168866D01*
X842674Y1166326D01*
X852420Y1232420D02*
X854960Y1237500D01*
X852420Y1242580D01*
X857500Y1240040D01*
X862580Y1242580D01*
X860040Y1237500D01*
X862580Y1232420D01*
X857500Y1234960D01*
X852420Y1232420D01*
X859920D02*
X862460Y1237500D01*
X859920Y1242580D01*
X865000Y1240040D01*
X870080Y1242580D01*
X867540Y1237500D01*
X870080Y1232420D01*
X865000Y1234960D01*
X859920Y1232420D01*
Y1224920D02*
X862460Y1230000D01*
X859920Y1235080D01*
X865000Y1232540D01*
X870080Y1235080D01*
X867540Y1230000D01*
X870080Y1224920D01*
X865000Y1227460D01*
X859920Y1224920D01*
Y1239920D02*
X862460Y1245000D01*
X859920Y1250080D01*
X865000Y1247540D01*
X870080Y1250080D01*
X867540Y1245000D01*
X870080Y1239920D01*
X865000Y1242460D01*
X859920Y1239920D01*
X1129588Y1245484D02*
X1132128Y1250564D01*
X1129588Y1255644D01*
X1134668Y1253104D01*
X1139748Y1255644D01*
X1137208Y1250564D01*
X1139748Y1245484D01*
X1134668Y1248024D01*
X1129588Y1245484D01*
X1095158Y1221194D02*
X1097698Y1226274D01*
X1095158Y1231354D01*
X1100238Y1228814D01*
X1105318Y1231354D01*
X1102778Y1226274D01*
X1105318Y1221194D01*
X1100238Y1223734D01*
X1095158Y1221194D01*
X1095125Y1233149D02*
X1097664Y1238229D01*
X1095125Y1243309D01*
X1100204Y1240769D01*
X1105285Y1243309D01*
X1102745Y1238229D01*
X1105285Y1233149D01*
X1100204Y1235689D01*
X1095125Y1233149D01*
X1095092Y1194968D02*
X1097632Y1200048D01*
X1095092Y1205128D01*
X1100172Y1202588D01*
X1105252Y1205128D01*
X1102712Y1200048D01*
X1105252Y1194968D01*
X1100172Y1197508D01*
X1095092Y1194968D01*
X1094778Y1208317D02*
X1097318Y1213397D01*
X1094778Y1218477D01*
X1099858Y1215937D01*
X1104938Y1218477D01*
X1102398Y1213397D01*
X1104938Y1208317D01*
X1099858Y1210857D01*
X1094778Y1208317D01*
X1064778Y1195369D02*
X1067318Y1200449D01*
X1064778Y1205529D01*
X1069858Y1202989D01*
X1074938Y1205529D01*
X1072398Y1200449D01*
X1074938Y1195369D01*
X1069858Y1197909D01*
X1064778Y1195369D01*
X1064778Y1220635D02*
X1067318Y1225715D01*
X1064778Y1230795D01*
X1069858Y1228255D01*
X1074938Y1230795D01*
X1072398Y1225715D01*
X1074938Y1220635D01*
X1069858Y1223175D01*
X1064778Y1220635D01*
X1064690Y1208002D02*
X1067231Y1213082D01*
X1064690Y1218162D01*
X1069771Y1215622D01*
X1074850Y1218162D01*
X1072310Y1213082D01*
X1074850Y1208002D01*
X1069771Y1210542D01*
X1064690Y1208002D01*
X1064559Y1233487D02*
X1067099Y1238567D01*
X1064559Y1243647D01*
X1069639Y1241107D01*
X1074719Y1243647D01*
X1072179Y1238567D01*
X1074719Y1233487D01*
X1069639Y1236027D01*
X1064559Y1233487D01*
X1095066Y1246348D02*
X1097606Y1251428D01*
X1095066Y1256508D01*
X1100146Y1253968D01*
X1105226Y1256508D01*
X1102686Y1251428D01*
X1105226Y1246348D01*
X1100146Y1248888D01*
X1095066Y1246348D01*
D78*
X1329806Y1163946D02*
G03*
X1329806Y1163946I-5080J0D01*
G01*
Y1250446D02*
G03*
X1329806Y1250446I-5080J0D01*
G01*
M02*
