G04*
G04 #@! TF.GenerationSoftware,Altium Limited,Altium Designer,25.8.1 (18)*
G04*
G04 Layer_Physical_Order=5*
G04 Layer_Color=16737945*
%FSLAX44Y44*%
%MOMM*%
G71*
G04*
G04 #@! TF.SameCoordinates,D9B5030B-DEC9-43D5-86CA-AB677CE75BD6*
G04*
G04*
G04 #@! TF.FilePolarity,Positive*
G04*
G01*
G75*
%ADD15C,0.2540*%
%ADD69C,0.6500*%
%ADD70O,2.3000X1.2000*%
%ADD71O,1.8000X1.2000*%
%ADD72C,1.6000*%
%ADD73R,1.6000X1.6000*%
%ADD74R,1.6000X1.6000*%
%ADD75C,0.6000*%
G36*
X1375922Y1257864D02*
X1375714Y1257664D01*
X1374672Y1257262D01*
X1374429Y1257448D01*
X1373800Y1257849D01*
X1373139Y1258193D01*
X1372450Y1258479D01*
X1371739Y1258703D01*
X1371011Y1258864D01*
X1370271Y1258961D01*
X1369526Y1258994D01*
X1367796D01*
Y1250446D01*
Y1241898D01*
X1369526D01*
X1370271Y1241930D01*
X1371011Y1242028D01*
X1371739Y1242189D01*
X1372450Y1242413D01*
X1373139Y1242699D01*
X1373800Y1243043D01*
X1374429Y1243444D01*
X1374672Y1243630D01*
X1375714Y1243228D01*
X1375922Y1243028D01*
Y1171364D01*
X1375714Y1171164D01*
X1374672Y1170762D01*
X1374429Y1170948D01*
X1373800Y1171349D01*
X1373139Y1171693D01*
X1372450Y1171979D01*
X1371739Y1172203D01*
X1371011Y1172364D01*
X1370271Y1172461D01*
X1369526Y1172494D01*
X1367796D01*
Y1163946D01*
Y1155398D01*
X1369526D01*
X1370271Y1155430D01*
X1371011Y1155528D01*
X1371739Y1155689D01*
X1372450Y1155913D01*
X1373139Y1156199D01*
X1373800Y1156543D01*
X1374429Y1156944D01*
X1374672Y1157130D01*
X1375714Y1156728D01*
X1375922Y1156528D01*
Y654078D01*
X694078D01*
Y1265922D01*
X1375922D01*
Y1257864D01*
D02*
G37*
%LPC*%
G36*
X1174262Y1261515D02*
X1097325D01*
X1096898Y1261487D01*
X1096477Y1261404D01*
X1096071Y1261266D01*
X1095687Y1261076D01*
X1095330Y1260838D01*
X1095008Y1260555D01*
X1088842Y1254390D01*
X1073421D01*
X1073373Y1254450D01*
X1072976Y1254847D01*
X1072537Y1255197D01*
X1072062Y1255496D01*
X1071556Y1255739D01*
X1071026Y1255925D01*
X1070478Y1256050D01*
X1069920Y1256113D01*
X1069358D01*
X1068800Y1256050D01*
X1068253Y1255925D01*
X1067723Y1255739D01*
X1067217Y1255496D01*
X1066741Y1255197D01*
X1066302Y1254847D01*
X1065905Y1254450D01*
X1065555Y1254011D01*
X1065256Y1253535D01*
X1065013Y1253029D01*
X1064827Y1252499D01*
X1064702Y1251952D01*
X1064639Y1251394D01*
Y1250832D01*
X1064702Y1250274D01*
X1064827Y1249726D01*
X1065013Y1249196D01*
X1065256Y1248690D01*
X1065555Y1248215D01*
X1065905Y1247776D01*
X1066302Y1247379D01*
X1066741Y1247029D01*
X1067217Y1246730D01*
X1067723Y1246486D01*
X1068253Y1246301D01*
X1068800Y1246176D01*
X1069358Y1246113D01*
X1069920D01*
X1070478Y1246176D01*
X1070955Y1246284D01*
X1071073Y1246211D01*
X1071624Y1245186D01*
X1069996Y1243558D01*
X1069920Y1243567D01*
X1069359D01*
X1068801Y1243504D01*
X1068253Y1243379D01*
X1067723Y1243193D01*
X1067217Y1242950D01*
X1066741Y1242651D01*
X1066302Y1242301D01*
X1065905Y1241904D01*
X1065555Y1241465D01*
X1065256Y1240989D01*
X1065013Y1240483D01*
X1064827Y1239953D01*
X1064702Y1239406D01*
X1064639Y1238848D01*
Y1238286D01*
X1064702Y1237728D01*
X1064827Y1237180D01*
X1065013Y1236650D01*
X1065256Y1236144D01*
X1065555Y1235669D01*
X1065905Y1235230D01*
X1066302Y1234833D01*
X1066741Y1234483D01*
X1067217Y1234184D01*
X1067723Y1233940D01*
X1068253Y1233755D01*
X1068801Y1233630D01*
X1069359Y1233567D01*
X1069920D01*
X1070478Y1233630D01*
X1071026Y1233755D01*
X1071556Y1233940D01*
X1072062Y1234184D01*
X1072537Y1234483D01*
X1072976Y1234833D01*
X1073373Y1235230D01*
X1073724Y1235669D01*
X1074022Y1236144D01*
X1074266Y1236650D01*
X1074451Y1237180D01*
X1074576Y1237728D01*
X1074639Y1238286D01*
Y1238848D01*
X1074631Y1238924D01*
X1077033Y1241327D01*
X1129360D01*
X1129496Y1241236D01*
X1130158Y1240129D01*
X1129972Y1239599D01*
X1129847Y1239052D01*
X1129784Y1238494D01*
Y1237932D01*
X1129847Y1237374D01*
X1129972Y1236827D01*
X1130158Y1236296D01*
X1130172Y1236267D01*
X1129615Y1235176D01*
X1129411Y1235017D01*
X1122484D01*
X1122355Y1235043D01*
X1121928Y1235071D01*
X1096079D01*
X1095651Y1235043D01*
X1095231Y1234959D01*
X1094825Y1234821D01*
X1094440Y1234632D01*
X1094084Y1234393D01*
X1093762Y1234111D01*
X1088643Y1228992D01*
X1073640D01*
X1073592Y1229052D01*
X1073195Y1229449D01*
X1072756Y1229799D01*
X1072280Y1230098D01*
X1071774Y1230342D01*
X1071244Y1230527D01*
X1070697Y1230652D01*
X1070139Y1230715D01*
X1069577D01*
X1069019Y1230652D01*
X1068471Y1230527D01*
X1067941Y1230342D01*
X1067435Y1230098D01*
X1066960Y1229799D01*
X1066521Y1229449D01*
X1066124Y1229052D01*
X1065773Y1228613D01*
X1065587Y1228316D01*
X1064929Y1228098D01*
X1064136Y1228040D01*
X1064070Y1228065D01*
X1051431Y1240703D01*
X1051109Y1240986D01*
X1050752Y1241224D01*
X1050368Y1241414D01*
X1049962Y1241552D01*
X1049542Y1241635D01*
X1049114Y1241663D01*
X1014344D01*
X1014296Y1241723D01*
X1013899Y1242120D01*
X1013460Y1242470D01*
X1012984Y1242769D01*
X1012478Y1243013D01*
X1011948Y1243198D01*
X1011401Y1243323D01*
X1010843Y1243386D01*
X1010281D01*
X1009723Y1243323D01*
X1009175Y1243198D01*
X1008645Y1243013D01*
X1008139Y1242769D01*
X1007664Y1242470D01*
X1007225Y1242120D01*
X1006828Y1241723D01*
X1006477Y1241284D01*
X1006179Y1240808D01*
X1005935Y1240303D01*
X1005750Y1239772D01*
X1005625Y1239225D01*
X1005562Y1238667D01*
Y1238105D01*
X1005625Y1237547D01*
X1005750Y1237000D01*
X1005935Y1236470D01*
X1006179Y1235964D01*
X1006477Y1235488D01*
X1006828Y1235049D01*
X1007225Y1234652D01*
X1007664Y1234302D01*
X1008139Y1234003D01*
X1008645Y1233760D01*
X1009175Y1233574D01*
X1009723Y1233449D01*
X1010281Y1233386D01*
X1010843D01*
X1011401Y1233449D01*
X1011948Y1233574D01*
X1012478Y1233760D01*
X1012984Y1234003D01*
X1013460Y1234302D01*
X1013899Y1234652D01*
X1014296Y1235049D01*
X1014344Y1235109D01*
X1047757D01*
X1059223Y1223643D01*
Y1219545D01*
X1058068Y1219066D01*
X1048714Y1228420D01*
X1048392Y1228703D01*
X1048036Y1228941D01*
X1047651Y1229130D01*
X1047245Y1229268D01*
X1046825Y1229352D01*
X1046397Y1229380D01*
X1014935D01*
X1014887Y1229440D01*
X1014490Y1229837D01*
X1014051Y1230187D01*
X1013575Y1230486D01*
X1013069Y1230730D01*
X1012539Y1230915D01*
X1011992Y1231040D01*
X1011434Y1231103D01*
X1010872D01*
X1010314Y1231040D01*
X1009766Y1230915D01*
X1009236Y1230730D01*
X1008730Y1230486D01*
X1008255Y1230187D01*
X1007816Y1229837D01*
X1007419Y1229440D01*
X1007068Y1229001D01*
X1006770Y1228525D01*
X1006526Y1228019D01*
X1006341Y1227489D01*
X1006216Y1226942D01*
X1006153Y1226384D01*
Y1225822D01*
X1006216Y1225264D01*
X1006341Y1224716D01*
X1006526Y1224186D01*
X1006770Y1223680D01*
X1007068Y1223205D01*
X1007419Y1222766D01*
X1007816Y1222369D01*
X1008255Y1222019D01*
X1008730Y1221720D01*
X1009236Y1221476D01*
X1009766Y1221291D01*
X1010314Y1221166D01*
X1010872Y1221103D01*
X1011434D01*
X1011992Y1221166D01*
X1012539Y1221291D01*
X1013069Y1221476D01*
X1013575Y1221720D01*
X1014051Y1222019D01*
X1014490Y1222369D01*
X1014887Y1222766D01*
X1014935Y1222826D01*
X1045040D01*
X1054223Y1213643D01*
Y1212045D01*
X1053068Y1211566D01*
X1049023Y1215611D01*
X1048701Y1215894D01*
X1048344Y1216132D01*
X1047960Y1216322D01*
X1047554Y1216460D01*
X1047133Y1216543D01*
X1046706Y1216571D01*
X1014475D01*
X1014427Y1216631D01*
X1014030Y1217028D01*
X1013591Y1217378D01*
X1013115Y1217677D01*
X1012609Y1217921D01*
X1012079Y1218106D01*
X1011532Y1218231D01*
X1010974Y1218294D01*
X1010412D01*
X1009854Y1218231D01*
X1009307Y1218106D01*
X1008776Y1217921D01*
X1008270Y1217677D01*
X1007795Y1217378D01*
X1007356Y1217028D01*
X1006959Y1216631D01*
X1006609Y1216192D01*
X1006310Y1215717D01*
X1006066Y1215211D01*
X1005881Y1214681D01*
X1005756Y1214133D01*
X1005693Y1213575D01*
Y1213014D01*
X1005756Y1212455D01*
X1005881Y1211908D01*
X1006066Y1211378D01*
X1006310Y1210872D01*
X1006609Y1210396D01*
X1006959Y1209957D01*
X1007356Y1209560D01*
X1007795Y1209210D01*
X1008270Y1208911D01*
X1008776Y1208668D01*
X1009307Y1208482D01*
X1009854Y1208357D01*
X1010412Y1208294D01*
X1010974D01*
X1011532Y1208357D01*
X1012079Y1208482D01*
X1012609Y1208668D01*
X1013115Y1208911D01*
X1013591Y1209210D01*
X1014030Y1209560D01*
X1014427Y1209957D01*
X1014475Y1210017D01*
X1045348D01*
X1049223Y1206143D01*
Y1199545D01*
X1048068Y1199066D01*
X1044398Y1202737D01*
X1044075Y1203019D01*
X1043719Y1203258D01*
X1043335Y1203447D01*
X1042929Y1203585D01*
X1042508Y1203669D01*
X1042080Y1203697D01*
X1014803D01*
X1014755Y1203756D01*
X1014358Y1204154D01*
X1013919Y1204504D01*
X1013444Y1204802D01*
X1012938Y1205046D01*
X1012408Y1205232D01*
X1011860Y1205357D01*
X1011302Y1205419D01*
X1010741D01*
X1010182Y1205357D01*
X1009635Y1205232D01*
X1009105Y1205046D01*
X1008599Y1204802D01*
X1008123Y1204504D01*
X1007684Y1204154D01*
X1007287Y1203756D01*
X1006937Y1203317D01*
X1006638Y1202842D01*
X1006395Y1202336D01*
X1006209Y1201806D01*
X1006084Y1201258D01*
X1006021Y1200700D01*
Y1200139D01*
X1006084Y1199581D01*
X1006209Y1199033D01*
X1006395Y1198503D01*
X1006638Y1197997D01*
X1006937Y1197522D01*
X1007287Y1197083D01*
X1007684Y1196685D01*
X1008123Y1196335D01*
X1008599Y1196037D01*
X1009105Y1195793D01*
X1009635Y1195607D01*
X1010182Y1195482D01*
X1010741Y1195420D01*
X1011302D01*
X1011860Y1195482D01*
X1012408Y1195607D01*
X1012938Y1195793D01*
X1013444Y1196037D01*
X1013919Y1196335D01*
X1014358Y1196685D01*
X1014755Y1197083D01*
X1014803Y1197142D01*
X1040723D01*
X1044223Y1193643D01*
Y1129545D01*
X1043068Y1129066D01*
X1032902Y1139233D01*
X1032579Y1139515D01*
X1032223Y1139753D01*
X1031839Y1139943D01*
X1031433Y1140081D01*
X1031012Y1140164D01*
X1030584Y1140193D01*
X1014659D01*
X1014612Y1140253D01*
X1014214Y1140650D01*
X1013775Y1141000D01*
X1013300Y1141299D01*
X1012794Y1141542D01*
X1012264Y1141728D01*
X1011716Y1141853D01*
X1011158Y1141916D01*
X1010597D01*
X1010039Y1141853D01*
X1009491Y1141728D01*
X1008961Y1141542D01*
X1008455Y1141299D01*
X1007980Y1141000D01*
X1007541Y1140650D01*
X1007143Y1140253D01*
X1006793Y1139814D01*
X1006495Y1139338D01*
X1006251Y1138832D01*
X1006065Y1138302D01*
X1005940Y1137754D01*
X1005878Y1137196D01*
Y1136635D01*
X1005940Y1136077D01*
X1006065Y1135529D01*
X1006251Y1134999D01*
X1006495Y1134493D01*
X1006793Y1134018D01*
X1007143Y1133579D01*
X1007541Y1133182D01*
X1007980Y1132831D01*
X1008455Y1132533D01*
X1008961Y1132289D01*
X1009491Y1132104D01*
X1010039Y1131979D01*
X1010597Y1131916D01*
X1011158D01*
X1011716Y1131979D01*
X1012264Y1132104D01*
X1012794Y1132289D01*
X1013300Y1132533D01*
X1013775Y1132831D01*
X1014214Y1133182D01*
X1014612Y1133579D01*
X1014659Y1133639D01*
X1029227D01*
X1039223Y1123643D01*
Y1122045D01*
X1038068Y1121566D01*
X1033412Y1126222D01*
X1033090Y1126505D01*
X1032733Y1126743D01*
X1032349Y1126933D01*
X1031943Y1127070D01*
X1031523Y1127154D01*
X1031095Y1127182D01*
X1014659D01*
X1014612Y1127242D01*
X1014214Y1127639D01*
X1013775Y1127989D01*
X1013300Y1128288D01*
X1012794Y1128532D01*
X1012264Y1128717D01*
X1011716Y1128842D01*
X1011158Y1128905D01*
X1010597D01*
X1010039Y1128842D01*
X1009491Y1128717D01*
X1008961Y1128532D01*
X1008455Y1128288D01*
X1007980Y1127989D01*
X1007541Y1127639D01*
X1007143Y1127242D01*
X1006793Y1126803D01*
X1006495Y1126328D01*
X1006251Y1125822D01*
X1006065Y1125292D01*
X1005940Y1124744D01*
X1005878Y1124186D01*
Y1123624D01*
X1005940Y1123066D01*
X1006065Y1122519D01*
X1006251Y1121989D01*
X1006495Y1121483D01*
X1006793Y1121007D01*
X1007143Y1120568D01*
X1007541Y1120171D01*
X1007980Y1119821D01*
X1008455Y1119522D01*
X1008961Y1119278D01*
X1009491Y1119093D01*
X1010039Y1118968D01*
X1010597Y1118905D01*
X1011158D01*
X1011716Y1118968D01*
X1012264Y1119093D01*
X1012794Y1119278D01*
X1013300Y1119522D01*
X1013775Y1119821D01*
X1014214Y1120171D01*
X1014612Y1120568D01*
X1014659Y1120628D01*
X1029737D01*
X1034223Y1116143D01*
Y1114334D01*
X1033131Y1113870D01*
X1032973Y1113840D01*
X1032651Y1114056D01*
X1032266Y1114246D01*
X1031860Y1114383D01*
X1031440Y1114467D01*
X1031012Y1114495D01*
X1014541D01*
X1014493Y1114555D01*
X1014096Y1114952D01*
X1013657Y1115302D01*
X1013181Y1115601D01*
X1012675Y1115845D01*
X1012145Y1116030D01*
X1011598Y1116155D01*
X1011040Y1116218D01*
X1010478D01*
X1009920Y1116155D01*
X1009372Y1116030D01*
X1008842Y1115845D01*
X1008336Y1115601D01*
X1007861Y1115302D01*
X1007422Y1114952D01*
X1007025Y1114555D01*
X1006674Y1114116D01*
X1006376Y1113640D01*
X1006132Y1113134D01*
X1005947Y1112604D01*
X1005822Y1112057D01*
X1005817Y1112017D01*
X1004567Y1112087D01*
Y1144227D01*
X1006251Y1145911D01*
X1007379Y1146275D01*
X1007776Y1145878D01*
X1008215Y1145528D01*
X1008690Y1145229D01*
X1009196Y1144986D01*
X1009726Y1144800D01*
X1010274Y1144675D01*
X1010832Y1144612D01*
X1011393D01*
X1011952Y1144675D01*
X1012499Y1144800D01*
X1013029Y1144986D01*
X1013535Y1145229D01*
X1014010Y1145528D01*
X1014450Y1145878D01*
X1014847Y1146275D01*
X1015197Y1146714D01*
X1015496Y1147190D01*
X1015739Y1147696D01*
X1015925Y1148226D01*
X1016050Y1148774D01*
X1016113Y1149332D01*
Y1149893D01*
X1016050Y1150451D01*
X1015925Y1150999D01*
X1015739Y1151529D01*
X1015496Y1152035D01*
X1015197Y1152510D01*
X1014847Y1152949D01*
X1014450Y1153346D01*
X1014010Y1153697D01*
X1013535Y1153995D01*
X1013029Y1154239D01*
X1012499Y1154425D01*
X1011952Y1154549D01*
X1011393Y1154612D01*
X1010832D01*
X1010274Y1154549D01*
X1009726Y1154425D01*
X1009196Y1154239D01*
X1008690Y1153995D01*
X1008215Y1153697D01*
X1007776Y1153346D01*
X1007379Y1152949D01*
X1007331Y1152889D01*
X1005318D01*
X1004890Y1152861D01*
X1004470Y1152778D01*
X1004064Y1152640D01*
X1003680Y1152450D01*
X1003323Y1152212D01*
X1003001Y1151930D01*
X1000846Y1149774D01*
X999691Y1150253D01*
Y1154489D01*
X1003999Y1158797D01*
X1007096D01*
X1007143Y1158737D01*
X1007541Y1158340D01*
X1007980Y1157990D01*
X1008455Y1157691D01*
X1008961Y1157447D01*
X1009491Y1157262D01*
X1010039Y1157137D01*
X1010597Y1157074D01*
X1011158D01*
X1011716Y1157137D01*
X1012264Y1157262D01*
X1012794Y1157447D01*
X1013300Y1157691D01*
X1013775Y1157990D01*
X1014214Y1158340D01*
X1014612Y1158737D01*
X1014962Y1159176D01*
X1015260Y1159652D01*
X1015504Y1160158D01*
X1015690Y1160688D01*
X1015815Y1161235D01*
X1015878Y1161793D01*
Y1162355D01*
X1015815Y1162913D01*
X1015690Y1163460D01*
X1015504Y1163990D01*
X1015260Y1164497D01*
X1014962Y1164972D01*
X1014612Y1165411D01*
X1014214Y1165808D01*
X1013775Y1166158D01*
X1013300Y1166457D01*
X1012794Y1166701D01*
X1012264Y1166886D01*
X1011716Y1167011D01*
X1011158Y1167074D01*
X1010597D01*
X1010039Y1167011D01*
X1009491Y1166886D01*
X1008961Y1166701D01*
X1008455Y1166457D01*
X1007980Y1166158D01*
X1007541Y1165808D01*
X1007143Y1165411D01*
X1007096Y1165351D01*
X1002641D01*
X1002214Y1165323D01*
X1001793Y1165239D01*
X1001387Y1165102D01*
X1001003Y1164912D01*
X1000646Y1164674D01*
X1000324Y1164391D01*
X996188Y1160255D01*
X995033Y1160733D01*
Y1165398D01*
X1001442Y1171807D01*
X1007096D01*
X1007143Y1171748D01*
X1007541Y1171350D01*
X1007980Y1171000D01*
X1008455Y1170702D01*
X1008961Y1170458D01*
X1009491Y1170272D01*
X1010039Y1170147D01*
X1010597Y1170085D01*
X1011158D01*
X1011716Y1170147D01*
X1012264Y1170272D01*
X1012794Y1170458D01*
X1013300Y1170702D01*
X1013775Y1171000D01*
X1014214Y1171350D01*
X1014612Y1171748D01*
X1014962Y1172187D01*
X1015260Y1172662D01*
X1015504Y1173168D01*
X1015690Y1173698D01*
X1015815Y1174246D01*
X1015878Y1174804D01*
Y1175365D01*
X1015815Y1175923D01*
X1015690Y1176471D01*
X1015504Y1177001D01*
X1015260Y1177507D01*
X1014962Y1177982D01*
X1014612Y1178421D01*
X1014214Y1178819D01*
X1013775Y1179169D01*
X1013300Y1179467D01*
X1012794Y1179711D01*
X1012264Y1179897D01*
X1011716Y1180022D01*
X1011158Y1180085D01*
X1010597D01*
X1010039Y1180022D01*
X1009491Y1179897D01*
X1008961Y1179711D01*
X1008455Y1179467D01*
X1007980Y1179169D01*
X1007541Y1178819D01*
X1007143Y1178421D01*
X1007096Y1178362D01*
X1000085D01*
X999741Y1178339D01*
X999583Y1178500D01*
X999139Y1179505D01*
X1004217Y1184583D01*
X1006704D01*
X1006751Y1184523D01*
X1007149Y1184126D01*
X1007588Y1183775D01*
X1008063Y1183477D01*
X1008569Y1183233D01*
X1009099Y1183047D01*
X1009647Y1182923D01*
X1010205Y1182860D01*
X1010766D01*
X1011324Y1182923D01*
X1011872Y1183047D01*
X1012402Y1183233D01*
X1012908Y1183477D01*
X1013383Y1183775D01*
X1013822Y1184126D01*
X1014220Y1184523D01*
X1014570Y1184962D01*
X1014869Y1185437D01*
X1015112Y1185943D01*
X1015298Y1186473D01*
X1015423Y1187021D01*
X1015486Y1187579D01*
Y1188140D01*
X1015423Y1188699D01*
X1015298Y1189246D01*
X1015112Y1189776D01*
X1014869Y1190282D01*
X1014570Y1190758D01*
X1014220Y1191197D01*
X1013822Y1191594D01*
X1013383Y1191944D01*
X1012908Y1192243D01*
X1012402Y1192486D01*
X1011872Y1192672D01*
X1011324Y1192797D01*
X1010766Y1192860D01*
X1010205D01*
X1009647Y1192797D01*
X1009099Y1192672D01*
X1008569Y1192486D01*
X1008063Y1192243D01*
X1007588Y1191944D01*
X1007149Y1191594D01*
X1006751Y1191197D01*
X1006704Y1191137D01*
X1002860D01*
X1002432Y1191109D01*
X1002011Y1191025D01*
X1001606Y1190887D01*
X1001221Y1190698D01*
X1000865Y1190460D01*
X1000543Y1190177D01*
X985772Y1175406D01*
X985660Y1175403D01*
X984479Y1175881D01*
X984473Y1175930D01*
X984348Y1176478D01*
X984162Y1177008D01*
X983919Y1177514D01*
X983620Y1177990D01*
X983270Y1178429D01*
X982873Y1178826D01*
X982434Y1179176D01*
X981958Y1179475D01*
X981452Y1179718D01*
X980922Y1179904D01*
X980375Y1180029D01*
X979817Y1180092D01*
X979255D01*
X978697Y1180029D01*
X978363Y1179952D01*
X977985Y1180354D01*
X977721Y1181078D01*
X979320Y1182677D01*
X979396Y1182669D01*
X979958D01*
X980516Y1182732D01*
X981063Y1182857D01*
X981593Y1183042D01*
X982100Y1183286D01*
X982575Y1183585D01*
X983014Y1183935D01*
X983411Y1184332D01*
X983761Y1184771D01*
X984060Y1185246D01*
X984304Y1185752D01*
X984489Y1186282D01*
X984614Y1186830D01*
X984677Y1187388D01*
Y1187950D01*
X984614Y1188508D01*
X984489Y1189055D01*
X984304Y1189585D01*
X984060Y1190091D01*
X983761Y1190567D01*
X983411Y1191006D01*
X983014Y1191403D01*
X982575Y1191753D01*
X982100Y1192052D01*
X981593Y1192295D01*
X981063Y1192481D01*
X980516Y1192606D01*
X979958Y1192669D01*
X979396D01*
X978838Y1192606D01*
X978291Y1192481D01*
X977761Y1192295D01*
X977056Y1193343D01*
X979073Y1195361D01*
X979149Y1195352D01*
X979711D01*
X980269Y1195415D01*
X980816Y1195540D01*
X981347Y1195725D01*
X981852Y1195969D01*
X982328Y1196268D01*
X982767Y1196618D01*
X983164Y1197015D01*
X983514Y1197454D01*
X983813Y1197930D01*
X984057Y1198436D01*
X984242Y1198966D01*
X984367Y1199513D01*
X984430Y1200071D01*
Y1200633D01*
X984367Y1201191D01*
X984242Y1201738D01*
X984057Y1202268D01*
X983813Y1202774D01*
X983514Y1203250D01*
X983164Y1203689D01*
X982767Y1204086D01*
X982328Y1204436D01*
X981852Y1204735D01*
X981347Y1204979D01*
X980816Y1205164D01*
X980269Y1205289D01*
X979711Y1205352D01*
X979149D01*
X978591Y1205289D01*
X978044Y1205164D01*
X977514Y1204979D01*
X977008Y1204735D01*
X976532Y1204436D01*
X976093Y1204086D01*
X975696Y1203689D01*
X975346Y1203250D01*
X975047Y1202774D01*
X974803Y1202268D01*
X974618Y1201738D01*
X974493Y1201191D01*
X974430Y1200633D01*
Y1200071D01*
X974439Y1199995D01*
X971359Y1196915D01*
X952942D01*
X952831Y1196985D01*
X952137Y1198067D01*
X952155Y1198165D01*
X952312Y1198614D01*
X952437Y1199161D01*
X952500Y1199719D01*
Y1200281D01*
X952437Y1200839D01*
X952312Y1201386D01*
X952127Y1201916D01*
X951883Y1202422D01*
X951584Y1202898D01*
X951234Y1203337D01*
X950837Y1203734D01*
X950398Y1204084D01*
X949922Y1204383D01*
X949416Y1204627D01*
X948886Y1204812D01*
X948339Y1204937D01*
X947781Y1205000D01*
X947219D01*
X946661Y1204937D01*
X946114Y1204812D01*
X945584Y1204627D01*
X945078Y1204383D01*
X944602Y1204084D01*
X944163Y1203734D01*
X943766Y1203337D01*
X943416Y1202898D01*
X943117Y1202422D01*
X942873Y1201916D01*
X942688Y1201386D01*
X942563Y1200839D01*
X942500Y1200281D01*
Y1199719D01*
X942563Y1199161D01*
X942688Y1198614D01*
X942845Y1198165D01*
X942863Y1198067D01*
X942170Y1196985D01*
X942058Y1196915D01*
X940442D01*
X940331Y1196985D01*
X939637Y1198067D01*
X939655Y1198165D01*
X939812Y1198614D01*
X939937Y1199161D01*
X940000Y1199719D01*
Y1200281D01*
X939937Y1200839D01*
X939812Y1201386D01*
X939627Y1201916D01*
X939383Y1202422D01*
X939084Y1202898D01*
X938734Y1203337D01*
X938352Y1203750D01*
X938734Y1204163D01*
X939084Y1204602D01*
X939383Y1205078D01*
X939627Y1205584D01*
X939812Y1206114D01*
X939937Y1206661D01*
X940000Y1207219D01*
Y1207781D01*
X939937Y1208339D01*
X939812Y1208886D01*
X939627Y1209416D01*
X939383Y1209922D01*
X939084Y1210398D01*
X938734Y1210837D01*
X938337Y1211234D01*
X937898Y1211584D01*
X937422Y1211883D01*
X936916Y1212127D01*
X936386Y1212312D01*
X935839Y1212437D01*
X935281Y1212500D01*
X934719D01*
X934161Y1212437D01*
X933614Y1212312D01*
X933084Y1212127D01*
X932578Y1211883D01*
X932102Y1211584D01*
X931663Y1211234D01*
X931250Y1210852D01*
X930837Y1211234D01*
X930398Y1211584D01*
X929922Y1211883D01*
X929416Y1212127D01*
X928886Y1212312D01*
X928339Y1212437D01*
X927781Y1212500D01*
X927219D01*
X926661Y1212437D01*
X926114Y1212312D01*
X925584Y1212127D01*
X925078Y1211883D01*
X924602Y1211584D01*
X924163Y1211234D01*
X923766Y1210837D01*
X923416Y1210398D01*
X923117Y1209922D01*
X922873Y1209416D01*
X922688Y1208886D01*
X922563Y1208339D01*
X922500Y1207781D01*
Y1207219D01*
X922563Y1206661D01*
X922688Y1206114D01*
X922873Y1205584D01*
X923117Y1205078D01*
X923416Y1204602D01*
X923766Y1204163D01*
X924148Y1203750D01*
X923766Y1203337D01*
X923416Y1202898D01*
X923117Y1202422D01*
X922873Y1201916D01*
X922688Y1201386D01*
X922563Y1200839D01*
X922500Y1200281D01*
Y1199719D01*
X922563Y1199161D01*
X922688Y1198614D01*
X922873Y1198084D01*
X923117Y1197578D01*
X923416Y1197102D01*
X923766Y1196663D01*
X923821Y1195956D01*
X923302Y1195436D01*
X876143Y1148277D01*
X835000D01*
X834572Y1148249D01*
X834152Y1148165D01*
X833746Y1148027D01*
X833362Y1147838D01*
X833005Y1147600D01*
X832683Y1147317D01*
X822683Y1137317D01*
X822400Y1136995D01*
X822162Y1136638D01*
X821972Y1136254D01*
X821835Y1135848D01*
X821751Y1135428D01*
X821723Y1135000D01*
Y963857D01*
X792683Y934817D01*
X792400Y934495D01*
X792162Y934138D01*
X791973Y933754D01*
X791835Y933348D01*
X791751Y932928D01*
X791723Y932500D01*
Y888857D01*
X784823Y881957D01*
X783719Y881910D01*
X783182Y882084D01*
X782780Y882562D01*
X782162Y883180D01*
X781493Y883741D01*
X780778Y884242D01*
X780022Y884678D01*
X779230Y885048D01*
X778410Y885346D01*
X777566Y885572D01*
X776706Y885724D01*
X775837Y885800D01*
X774963D01*
X774093Y885724D01*
X773234Y885572D01*
X772390Y885346D01*
X771570Y885048D01*
X770778Y884678D01*
X770022Y884242D01*
X769307Y883741D01*
X768638Y883180D01*
X768020Y882562D01*
X767459Y881893D01*
X766958Y881178D01*
X766522Y880422D01*
X766152Y879631D01*
X765854Y878810D01*
X765628Y877966D01*
X765476Y877106D01*
X765400Y876237D01*
Y875363D01*
X765476Y874493D01*
X765628Y873634D01*
X765854Y872790D01*
X766152Y871970D01*
X766522Y871178D01*
X766958Y870422D01*
X767459Y869707D01*
X768020Y869038D01*
X768638Y868420D01*
X769307Y867859D01*
X769707Y867579D01*
X769330Y866329D01*
X762652D01*
X762224Y866300D01*
X761803Y866217D01*
X761397Y866079D01*
X761013Y865889D01*
X760657Y865651D01*
X760334Y865369D01*
X754364Y859399D01*
X753830Y859648D01*
X753010Y859946D01*
X752166Y860172D01*
X751307Y860324D01*
X750437Y860400D01*
X749563D01*
X748693Y860324D01*
X747834Y860172D01*
X746990Y859946D01*
X746170Y859648D01*
X745378Y859278D01*
X744622Y858842D01*
X743907Y858341D01*
X743238Y857780D01*
X742620Y857162D01*
X742059Y856493D01*
X742027Y856448D01*
X740777Y856842D01*
Y869358D01*
X742027Y869752D01*
X742059Y869707D01*
X742620Y869038D01*
X743238Y868420D01*
X743907Y867859D01*
X744622Y867358D01*
X745378Y866921D01*
X746170Y866552D01*
X746990Y866254D01*
X747834Y866028D01*
X748693Y865876D01*
X749563Y865800D01*
X750437D01*
X751307Y865876D01*
X752166Y866028D01*
X753010Y866254D01*
X753830Y866552D01*
X754622Y866921D01*
X755378Y867358D01*
X756093Y867859D01*
X756762Y868420D01*
X757380Y869038D01*
X757941Y869707D01*
X758442Y870422D01*
X758878Y871178D01*
X759248Y871970D01*
X759546Y872790D01*
X759772Y873634D01*
X759924Y874493D01*
X760000Y875363D01*
Y876237D01*
X759924Y877106D01*
X759772Y877966D01*
X759546Y878810D01*
X759248Y879631D01*
X758878Y880422D01*
X758442Y881178D01*
X757941Y881893D01*
X757380Y882562D01*
X756762Y883180D01*
X756093Y883741D01*
X755378Y884242D01*
X754622Y884678D01*
X753830Y885048D01*
X753010Y885346D01*
X752166Y885572D01*
X751307Y885724D01*
X750437Y885800D01*
X749563D01*
X748693Y885724D01*
X747834Y885572D01*
X746990Y885346D01*
X746170Y885048D01*
X745378Y884678D01*
X744622Y884242D01*
X743907Y883741D01*
X743238Y883180D01*
X742620Y882562D01*
X742059Y881893D01*
X742027Y881848D01*
X740777Y882242D01*
Y894758D01*
X742027Y895152D01*
X742059Y895107D01*
X742620Y894438D01*
X743238Y893820D01*
X743907Y893259D01*
X744622Y892758D01*
X745378Y892321D01*
X746170Y891952D01*
X746990Y891654D01*
X747834Y891428D01*
X748693Y891276D01*
X749563Y891200D01*
X750437D01*
X751307Y891276D01*
X752166Y891428D01*
X753010Y891654D01*
X753830Y891952D01*
X754622Y892321D01*
X755378Y892758D01*
X756093Y893259D01*
X756762Y893820D01*
X757380Y894438D01*
X757941Y895107D01*
X758442Y895822D01*
X758878Y896578D01*
X759248Y897370D01*
X759546Y898190D01*
X759772Y899034D01*
X759924Y899893D01*
X760000Y900763D01*
Y901637D01*
X759924Y902506D01*
X759772Y903366D01*
X759546Y904210D01*
X759248Y905031D01*
X758878Y905822D01*
X758442Y906578D01*
X757941Y907293D01*
X757380Y907962D01*
X756762Y908580D01*
X756093Y909141D01*
X755378Y909642D01*
X754622Y910079D01*
X753830Y910448D01*
X753010Y910746D01*
X752166Y910972D01*
X751307Y911124D01*
X750437Y911200D01*
X749563D01*
X748693Y911124D01*
X747834Y910972D01*
X746990Y910746D01*
X746170Y910448D01*
X745378Y910079D01*
X744622Y909642D01*
X743907Y909141D01*
X743238Y908580D01*
X742620Y907962D01*
X742059Y907293D01*
X742027Y907248D01*
X740777Y907642D01*
Y920158D01*
X742027Y920552D01*
X742059Y920507D01*
X742620Y919838D01*
X743238Y919220D01*
X743907Y918659D01*
X744622Y918158D01*
X745378Y917721D01*
X746170Y917352D01*
X746990Y917054D01*
X747834Y916828D01*
X748693Y916676D01*
X749563Y916600D01*
X750437D01*
X751307Y916676D01*
X752166Y916828D01*
X753010Y917054D01*
X753830Y917352D01*
X754622Y917721D01*
X755378Y918158D01*
X756093Y918659D01*
X756762Y919220D01*
X757380Y919838D01*
X757941Y920507D01*
X758442Y921222D01*
X758878Y921978D01*
X759248Y922769D01*
X759546Y923590D01*
X759772Y924434D01*
X759924Y925294D01*
X760000Y926163D01*
Y927037D01*
X759924Y927906D01*
X759772Y928766D01*
X759546Y929610D01*
X759248Y930431D01*
X758878Y931222D01*
X758442Y931978D01*
X757941Y932693D01*
X757380Y933362D01*
X756762Y933980D01*
X756093Y934541D01*
X755378Y935042D01*
X754622Y935479D01*
X753830Y935848D01*
X753010Y936146D01*
X752166Y936372D01*
X751307Y936524D01*
X750437Y936600D01*
X749563D01*
X748693Y936524D01*
X747834Y936372D01*
X746990Y936146D01*
X746170Y935848D01*
X745378Y935479D01*
X744622Y935042D01*
X743907Y934541D01*
X743238Y933980D01*
X742620Y933362D01*
X742059Y932693D01*
X742027Y932648D01*
X740777Y933042D01*
Y945558D01*
X742027Y945952D01*
X742059Y945907D01*
X742620Y945238D01*
X743238Y944620D01*
X743907Y944059D01*
X744622Y943558D01*
X745378Y943121D01*
X746170Y942752D01*
X746990Y942454D01*
X747834Y942228D01*
X748693Y942076D01*
X749563Y942000D01*
X750437D01*
X751307Y942076D01*
X752166Y942228D01*
X753010Y942454D01*
X753830Y942752D01*
X754622Y943121D01*
X755378Y943558D01*
X756093Y944059D01*
X756762Y944620D01*
X757380Y945238D01*
X757941Y945907D01*
X758442Y946622D01*
X758878Y947378D01*
X759248Y948169D01*
X759546Y948990D01*
X759772Y949834D01*
X759924Y950694D01*
X760000Y951563D01*
Y952437D01*
X759924Y953307D01*
X759772Y954166D01*
X759546Y955010D01*
X759248Y955831D01*
X758878Y956622D01*
X758442Y957378D01*
X757941Y958093D01*
X757380Y958762D01*
X756762Y959380D01*
X756093Y959941D01*
X755378Y960442D01*
X754622Y960879D01*
X753830Y961248D01*
X753010Y961546D01*
X752166Y961772D01*
X751307Y961924D01*
X750437Y962000D01*
X749563D01*
X748693Y961924D01*
X747834Y961772D01*
X746990Y961546D01*
X746170Y961248D01*
X745378Y960879D01*
X744622Y960442D01*
X743907Y959941D01*
X743238Y959380D01*
X742620Y958762D01*
X742059Y958093D01*
X742027Y958048D01*
X740777Y958442D01*
Y971657D01*
X759974D01*
Y991657D01*
X740777D01*
Y1123643D01*
X781357Y1164223D01*
X822500D01*
X822928Y1164251D01*
X823348Y1164335D01*
X823754Y1164472D01*
X824138Y1164662D01*
X824495Y1164900D01*
X824817Y1165183D01*
X873857Y1214223D01*
X943643D01*
X947148Y1210717D01*
X947470Y1210435D01*
X947827Y1210197D01*
X948211Y1210007D01*
X948617Y1209869D01*
X949037Y1209786D01*
X949465Y1209758D01*
X975789D01*
X975837Y1209698D01*
X976234Y1209301D01*
X976673Y1208951D01*
X977149Y1208652D01*
X977655Y1208408D01*
X978185Y1208223D01*
X978733Y1208098D01*
X979290Y1208035D01*
X979852D01*
X980410Y1208098D01*
X980958Y1208223D01*
X981488Y1208408D01*
X981994Y1208652D01*
X982469Y1208951D01*
X982908Y1209301D01*
X983305Y1209698D01*
X983655Y1210137D01*
X983954Y1210612D01*
X984198Y1211118D01*
X984383Y1211648D01*
X984508Y1212196D01*
X984571Y1212754D01*
Y1213316D01*
X984508Y1213874D01*
X984383Y1214421D01*
X984198Y1214951D01*
X983954Y1215457D01*
X983655Y1215933D01*
X983305Y1216372D01*
X982908Y1216769D01*
X982469Y1217119D01*
X981994Y1217418D01*
X981488Y1217661D01*
X980958Y1217847D01*
X980410Y1217972D01*
X979852Y1218035D01*
X979290D01*
X978733Y1217972D01*
X978185Y1217847D01*
X977655Y1217661D01*
X977149Y1217418D01*
X976673Y1217119D01*
X976234Y1216769D01*
X975837Y1216372D01*
X975789Y1216312D01*
X950823D01*
X947887Y1219247D01*
X947869Y1219420D01*
X948290Y1220612D01*
X948301Y1220615D01*
X948831Y1220800D01*
X949337Y1221044D01*
X949813Y1221343D01*
X950252Y1221693D01*
X950649Y1222090D01*
X950999Y1222529D01*
X951298Y1223005D01*
X951542Y1223511D01*
X951727Y1224041D01*
X951852Y1224588D01*
X951915Y1225146D01*
Y1225708D01*
X951852Y1226266D01*
X951727Y1226813D01*
X951542Y1227344D01*
X951298Y1227850D01*
X950999Y1228325D01*
X950649Y1228764D01*
X950252Y1229161D01*
X949813Y1229511D01*
X949337Y1229810D01*
X948831Y1230054D01*
X948301Y1230239D01*
X947754Y1230364D01*
X947196Y1230427D01*
X946634D01*
X946076Y1230364D01*
X945529Y1230239D01*
X944998Y1230054D01*
X944492Y1229810D01*
X944017Y1229511D01*
X943578Y1229161D01*
X943181Y1228764D01*
X942831Y1228325D01*
X942532Y1227850D01*
X942288Y1227344D01*
X942103Y1226813D01*
X941978Y1226266D01*
X941915Y1225708D01*
Y1225146D01*
X941978Y1224588D01*
X942103Y1224041D01*
X942288Y1223511D01*
X942532Y1223005D01*
X942831Y1222529D01*
X943181Y1222090D01*
X943244Y1222027D01*
X942777Y1220790D01*
X942765Y1220777D01*
X872500D01*
X872072Y1220749D01*
X871652Y1220665D01*
X871246Y1220528D01*
X870862Y1220338D01*
X870505Y1220100D01*
X870183Y1219817D01*
X821143Y1170777D01*
X780000D01*
X779572Y1170749D01*
X779152Y1170665D01*
X778746Y1170528D01*
X778362Y1170338D01*
X778005Y1170100D01*
X777683Y1169817D01*
X735183Y1127317D01*
X734900Y1126995D01*
X734662Y1126638D01*
X734472Y1126254D01*
X734335Y1125848D01*
X734251Y1125428D01*
X734223Y1125000D01*
Y786700D01*
X734251Y786272D01*
X734335Y785852D01*
X734472Y785446D01*
X734662Y785061D01*
X734900Y784705D01*
X735183Y784383D01*
X741001Y778564D01*
X740752Y778030D01*
X740454Y777210D01*
X740228Y776366D01*
X740076Y775507D01*
X740000Y774637D01*
Y773763D01*
X740076Y772894D01*
X740228Y772034D01*
X740454Y771190D01*
X740752Y770369D01*
X741122Y769578D01*
X741558Y768822D01*
X742059Y768107D01*
X742620Y767438D01*
X743238Y766820D01*
X743907Y766259D01*
X744622Y765758D01*
X745378Y765322D01*
X746170Y764952D01*
X746990Y764654D01*
X747834Y764428D01*
X748693Y764276D01*
X749563Y764200D01*
X750437D01*
X751307Y764276D01*
X752166Y764428D01*
X753010Y764654D01*
X753830Y764952D01*
X754622Y765322D01*
X755378Y765758D01*
X756093Y766259D01*
X756762Y766820D01*
X757380Y767438D01*
X757941Y768107D01*
X758442Y768822D01*
X758878Y769578D01*
X759248Y770369D01*
X759546Y771190D01*
X759772Y772034D01*
X759924Y772894D01*
X760000Y773763D01*
Y774637D01*
X759924Y775507D01*
X759772Y776366D01*
X759546Y777210D01*
X759248Y778030D01*
X758878Y778822D01*
X758442Y779578D01*
X757941Y780293D01*
X757380Y780962D01*
X756762Y781580D01*
X756093Y782141D01*
X755378Y782642D01*
X754622Y783079D01*
X753830Y783448D01*
X753010Y783746D01*
X752166Y783972D01*
X751307Y784124D01*
X750437Y784200D01*
X749563D01*
X748693Y784124D01*
X747834Y783972D01*
X746990Y783746D01*
X746170Y783448D01*
X745636Y783199D01*
X740777Y788057D01*
Y793158D01*
X742027Y793552D01*
X742059Y793507D01*
X742620Y792838D01*
X743238Y792220D01*
X743907Y791659D01*
X744622Y791158D01*
X745378Y790722D01*
X746170Y790352D01*
X746990Y790054D01*
X747834Y789828D01*
X748693Y789676D01*
X749563Y789600D01*
X750437D01*
X751307Y789676D01*
X752166Y789828D01*
X753010Y790054D01*
X753830Y790352D01*
X754622Y790722D01*
X755378Y791158D01*
X756093Y791659D01*
X756762Y792220D01*
X757380Y792838D01*
X757941Y793507D01*
X758442Y794222D01*
X758878Y794978D01*
X759248Y795770D01*
X759546Y796590D01*
X759772Y797434D01*
X759924Y798294D01*
X760000Y799163D01*
Y800037D01*
X759924Y800907D01*
X759772Y801766D01*
X759546Y802610D01*
X759248Y803430D01*
X758878Y804222D01*
X758442Y804978D01*
X757941Y805693D01*
X757889Y805755D01*
X761584Y809450D01*
X769961D01*
X770296Y808200D01*
X770022Y808042D01*
X769307Y807541D01*
X768638Y806980D01*
X768020Y806362D01*
X767459Y805693D01*
X766958Y804978D01*
X766522Y804222D01*
X766152Y803430D01*
X765854Y802610D01*
X765628Y801766D01*
X765476Y800907D01*
X765400Y800037D01*
Y799163D01*
X765476Y798294D01*
X765628Y797434D01*
X765854Y796590D01*
X766152Y795770D01*
X766522Y794978D01*
X766958Y794222D01*
X767459Y793507D01*
X768020Y792838D01*
X768638Y792220D01*
X769307Y791659D01*
X770022Y791158D01*
X770778Y790722D01*
X771570Y790352D01*
X772390Y790054D01*
X773234Y789828D01*
X774093Y789676D01*
X774963Y789600D01*
X775837D01*
X776706Y789676D01*
X777566Y789828D01*
X778410Y790054D01*
X779230Y790352D01*
X780022Y790722D01*
X780778Y791158D01*
X781493Y791659D01*
X782162Y792220D01*
X782780Y792838D01*
X783341Y793507D01*
X783842Y794222D01*
X784278Y794978D01*
X784648Y795770D01*
X784889Y796433D01*
X787210D01*
X787638Y796461D01*
X788058Y796545D01*
X788464Y796683D01*
X788848Y796872D01*
X789205Y797110D01*
X789527Y797393D01*
X825861Y833726D01*
X827015Y833248D01*
Y816650D01*
X796143Y785777D01*
X784778D01*
X784350Y785749D01*
X783930Y785665D01*
X783524Y785528D01*
X783139Y785338D01*
X782783Y785100D01*
X782461Y784817D01*
X780466Y782822D01*
X780022Y783079D01*
X779230Y783448D01*
X778410Y783746D01*
X777566Y783972D01*
X776706Y784124D01*
X775837Y784200D01*
X774963D01*
X774093Y784124D01*
X773234Y783972D01*
X772390Y783746D01*
X771570Y783448D01*
X770778Y783079D01*
X770022Y782642D01*
X769307Y782141D01*
X768638Y781580D01*
X768020Y780962D01*
X767459Y780293D01*
X766958Y779578D01*
X766522Y778822D01*
X766152Y778030D01*
X765854Y777210D01*
X765628Y776366D01*
X765476Y775507D01*
X765400Y774637D01*
Y773763D01*
X765476Y772894D01*
X765628Y772034D01*
X765854Y771190D01*
X766152Y770369D01*
X766522Y769578D01*
X766958Y768822D01*
X767459Y768107D01*
X768020Y767438D01*
X768638Y766820D01*
X769307Y766259D01*
X769391Y766199D01*
X768997Y764949D01*
X762872D01*
X762445Y764921D01*
X762024Y764838D01*
X761618Y764700D01*
X761234Y764510D01*
X760878Y764272D01*
X760555Y763990D01*
X754364Y757799D01*
X753830Y758048D01*
X753010Y758346D01*
X752166Y758572D01*
X751307Y758724D01*
X750437Y758800D01*
X749563D01*
X748693Y758724D01*
X747834Y758572D01*
X746990Y758346D01*
X746170Y758048D01*
X745378Y757679D01*
X744622Y757242D01*
X743907Y756741D01*
X743238Y756180D01*
X742620Y755562D01*
X742059Y754893D01*
X741558Y754178D01*
X741122Y753422D01*
X740752Y752630D01*
X740454Y751810D01*
X740228Y750966D01*
X740076Y750107D01*
X740000Y749237D01*
Y748363D01*
X740076Y747494D01*
X740228Y746634D01*
X740454Y745790D01*
X740752Y744969D01*
X741122Y744178D01*
X741558Y743422D01*
X742059Y742707D01*
X742620Y742038D01*
X743238Y741420D01*
X743907Y740859D01*
X744622Y740358D01*
X745378Y739921D01*
X746170Y739552D01*
X746990Y739254D01*
X747834Y739028D01*
X748693Y738876D01*
X749563Y738800D01*
X750437D01*
X751307Y738876D01*
X752166Y739028D01*
X753010Y739254D01*
X753830Y739552D01*
X754622Y739921D01*
X755378Y740358D01*
X756093Y740859D01*
X756762Y741420D01*
X757380Y742038D01*
X757941Y742707D01*
X758442Y743422D01*
X758878Y744178D01*
X759248Y744969D01*
X759546Y745790D01*
X759772Y746634D01*
X759924Y747494D01*
X760000Y748363D01*
Y749237D01*
X759924Y750107D01*
X759772Y750966D01*
X759546Y751810D01*
X759248Y752630D01*
X758999Y753164D01*
X764230Y758395D01*
X768986D01*
X769171Y758170D01*
X769307Y756741D01*
X768638Y756180D01*
X768020Y755562D01*
X767459Y754893D01*
X766958Y754178D01*
X766522Y753422D01*
X766152Y752630D01*
X765854Y751810D01*
X765628Y750966D01*
X765476Y750107D01*
X765400Y749237D01*
Y748363D01*
X765476Y747494D01*
X765628Y746634D01*
X765854Y745790D01*
X766152Y744969D01*
X766522Y744178D01*
X766958Y743422D01*
X767459Y742707D01*
X768020Y742038D01*
X768638Y741420D01*
X769307Y740859D01*
X769586Y740664D01*
X769192Y739414D01*
X762737D01*
X762309Y739386D01*
X761888Y739302D01*
X761482Y739164D01*
X761098Y738975D01*
X760742Y738736D01*
X760419Y738454D01*
X754364Y732399D01*
X753830Y732648D01*
X753010Y732946D01*
X752166Y733172D01*
X751307Y733324D01*
X750437Y733400D01*
X749563D01*
X748693Y733324D01*
X747834Y733172D01*
X746990Y732946D01*
X746170Y732648D01*
X745378Y732279D01*
X744622Y731842D01*
X743907Y731341D01*
X743238Y730780D01*
X742620Y730162D01*
X742059Y729493D01*
X741558Y728778D01*
X741122Y728022D01*
X740752Y727231D01*
X740454Y726410D01*
X740228Y725566D01*
X740076Y724706D01*
X740000Y723837D01*
Y722963D01*
X740076Y722094D01*
X740228Y721234D01*
X740454Y720390D01*
X740752Y719569D01*
X741122Y718778D01*
X741558Y718022D01*
X742059Y717307D01*
X742620Y716638D01*
X743238Y716020D01*
X743907Y715459D01*
X744622Y714958D01*
X745378Y714521D01*
X746170Y714152D01*
X746990Y713854D01*
X747834Y713628D01*
X748693Y713476D01*
X749563Y713400D01*
X750437D01*
X751307Y713476D01*
X752166Y713628D01*
X753010Y713854D01*
X753830Y714152D01*
X754622Y714521D01*
X755378Y714958D01*
X756093Y715459D01*
X756762Y716020D01*
X757380Y716638D01*
X757941Y717307D01*
X758442Y718022D01*
X758878Y718778D01*
X759248Y719569D01*
X759546Y720390D01*
X759772Y721234D01*
X759924Y722094D01*
X760000Y722963D01*
Y723837D01*
X759924Y724706D01*
X759772Y725566D01*
X759546Y726410D01*
X759248Y727231D01*
X758999Y727764D01*
X764094Y732859D01*
X769296D01*
X769690Y731609D01*
X769307Y731341D01*
X768638Y730780D01*
X768020Y730162D01*
X767459Y729493D01*
X766958Y728778D01*
X766522Y728022D01*
X766152Y727231D01*
X765854Y726410D01*
X765628Y725566D01*
X765476Y724706D01*
X765400Y723837D01*
Y722963D01*
X765476Y722094D01*
X765628Y721234D01*
X765854Y720390D01*
X766152Y719569D01*
X766522Y718778D01*
X766958Y718022D01*
X767459Y717307D01*
X768020Y716638D01*
X768638Y716020D01*
X769307Y715459D01*
X769880Y715058D01*
X769878Y714633D01*
X769514Y713808D01*
X760531D01*
X760103Y713780D01*
X759682Y713696D01*
X759277Y713558D01*
X758892Y713369D01*
X758536Y713130D01*
X758213Y712848D01*
X752933Y707567D01*
X752166Y707772D01*
X751307Y707924D01*
X750437Y708000D01*
X749563D01*
X748693Y707924D01*
X747834Y707772D01*
X746990Y707546D01*
X746170Y707248D01*
X745378Y706879D01*
X744622Y706442D01*
X743907Y705941D01*
X743238Y705380D01*
X742620Y704762D01*
X742059Y704093D01*
X741558Y703378D01*
X741122Y702622D01*
X740752Y701831D01*
X740454Y701010D01*
X740228Y700166D01*
X740076Y699306D01*
X740000Y698437D01*
Y697563D01*
X740076Y696693D01*
X740228Y695834D01*
X740454Y694990D01*
X740752Y694169D01*
X741122Y693378D01*
X741558Y692622D01*
X742059Y691907D01*
X742620Y691238D01*
X743238Y690620D01*
X743907Y690059D01*
X744622Y689558D01*
X745378Y689121D01*
X746170Y688752D01*
X746990Y688454D01*
X747834Y688228D01*
X748693Y688076D01*
X749563Y688000D01*
X750437D01*
X751307Y688076D01*
X752166Y688228D01*
X753010Y688454D01*
X753830Y688752D01*
X754622Y689121D01*
X755378Y689558D01*
X756093Y690059D01*
X756762Y690620D01*
X757380Y691238D01*
X757941Y691907D01*
X758442Y692622D01*
X758878Y693378D01*
X759248Y694169D01*
X759546Y694990D01*
X759772Y695834D01*
X759924Y696693D01*
X760000Y697563D01*
Y698437D01*
X759924Y699306D01*
X759772Y700166D01*
X759546Y701010D01*
X759248Y701831D01*
X758878Y702622D01*
X758442Y703378D01*
X758265Y703631D01*
X761888Y707254D01*
X769002D01*
X769396Y706004D01*
X769307Y705941D01*
X768638Y705380D01*
X768020Y704762D01*
X767459Y704093D01*
X766958Y703378D01*
X766522Y702622D01*
X766152Y701831D01*
X765854Y701010D01*
X765628Y700166D01*
X765476Y699306D01*
X765400Y698437D01*
Y697563D01*
X765476Y696693D01*
X765628Y695834D01*
X765854Y694990D01*
X766152Y694169D01*
X766522Y693378D01*
X766958Y692622D01*
X767459Y691907D01*
X768020Y691238D01*
X768638Y690620D01*
X769307Y690059D01*
X770022Y689558D01*
X770076Y689527D01*
X769741Y688277D01*
X760895D01*
X760468Y688249D01*
X760047Y688165D01*
X759641Y688028D01*
X759257Y687838D01*
X758901Y687600D01*
X758578Y687317D01*
X753301Y682040D01*
X753010Y682146D01*
X752166Y682372D01*
X751307Y682524D01*
X750437Y682600D01*
X749563D01*
X748693Y682524D01*
X747834Y682372D01*
X746990Y682146D01*
X746170Y681848D01*
X745378Y681479D01*
X744622Y681042D01*
X743907Y680541D01*
X743238Y679980D01*
X742620Y679362D01*
X742059Y678693D01*
X741558Y677978D01*
X741122Y677222D01*
X740752Y676431D01*
X740454Y675610D01*
X740228Y674766D01*
X740076Y673906D01*
X740000Y673037D01*
Y672163D01*
X740076Y671293D01*
X740228Y670434D01*
X740454Y669590D01*
X740752Y668770D01*
X741122Y667978D01*
X741558Y667222D01*
X742059Y666507D01*
X742620Y665838D01*
X743238Y665220D01*
X743907Y664659D01*
X744622Y664158D01*
X745378Y663721D01*
X746170Y663352D01*
X746990Y663054D01*
X747834Y662828D01*
X748693Y662676D01*
X749563Y662600D01*
X750437D01*
X751307Y662676D01*
X752166Y662828D01*
X753010Y663054D01*
X753830Y663352D01*
X754622Y663721D01*
X755378Y664158D01*
X756093Y664659D01*
X756762Y665220D01*
X757380Y665838D01*
X757941Y666507D01*
X758442Y667222D01*
X758878Y667978D01*
X759248Y668770D01*
X759546Y669590D01*
X759772Y670434D01*
X759924Y671293D01*
X760000Y672163D01*
Y673037D01*
X759924Y673906D01*
X759772Y674766D01*
X759546Y675610D01*
X759248Y676431D01*
X758878Y677222D01*
X758466Y677936D01*
X762253Y681723D01*
X765400D01*
Y662600D01*
X785400D01*
Y669223D01*
X792500D01*
X792928Y669251D01*
X793348Y669335D01*
X793754Y669472D01*
X794138Y669662D01*
X794495Y669900D01*
X794817Y670183D01*
X817317Y692683D01*
X817600Y693005D01*
X817838Y693362D01*
X818027Y693746D01*
X818165Y694152D01*
X818249Y694572D01*
X818277Y695000D01*
Y714405D01*
X855292Y751420D01*
X908410D01*
X908838Y751448D01*
X909258Y751531D01*
X909664Y751669D01*
X910048Y751859D01*
X910405Y752097D01*
X910727Y752380D01*
X944817Y786470D01*
X945100Y786792D01*
X945338Y787148D01*
X945528Y787533D01*
X945665Y787939D01*
X945749Y788359D01*
X945777Y788787D01*
Y927429D01*
X1042141Y1023793D01*
X1043497Y1023382D01*
X1043538Y1023173D01*
X1015737Y995372D01*
X1015455Y995050D01*
X1015217Y994693D01*
X1015027Y994309D01*
X1014889Y993903D01*
X1014806Y993482D01*
X1014778Y993055D01*
Y929445D01*
X1014806Y929018D01*
X1014889Y928597D01*
X1015027Y928191D01*
X1015217Y927807D01*
X1015455Y927450D01*
X1015737Y927128D01*
X1029223Y913643D01*
Y852500D01*
X1029251Y852072D01*
X1029335Y851652D01*
X1029472Y851246D01*
X1029662Y850862D01*
X1029900Y850505D01*
X1030183Y850183D01*
X1204628Y675737D01*
X1204950Y675455D01*
X1205307Y675217D01*
X1205691Y675027D01*
X1206097Y674889D01*
X1206518Y674806D01*
X1206945Y674778D01*
X1285068D01*
X1287387Y672458D01*
X1287710Y672176D01*
X1288066Y671937D01*
X1288450Y671748D01*
X1288856Y671610D01*
X1289277Y671526D01*
X1289704Y671498D01*
X1290023D01*
X1290076Y670893D01*
X1290228Y670034D01*
X1290454Y669190D01*
X1290752Y668370D01*
X1291121Y667578D01*
X1291558Y666822D01*
X1292059Y666107D01*
X1292620Y665438D01*
X1293238Y664820D01*
X1293907Y664259D01*
X1294622Y663758D01*
X1295378Y663322D01*
X1296169Y662952D01*
X1296990Y662654D01*
X1297834Y662428D01*
X1298694Y662276D01*
X1299563Y662200D01*
X1300437D01*
X1301306Y662276D01*
X1302166Y662428D01*
X1303010Y662654D01*
X1303831Y662952D01*
X1304622Y663322D01*
X1305378Y663758D01*
X1306093Y664259D01*
X1306762Y664820D01*
X1307380Y665438D01*
X1307941Y666107D01*
X1308442Y666822D01*
X1308878Y667578D01*
X1309248Y668370D01*
X1309546Y669190D01*
X1309772Y670034D01*
X1309924Y670893D01*
X1310000Y671763D01*
Y672637D01*
X1309924Y673506D01*
X1309772Y674366D01*
X1309546Y675210D01*
X1309248Y676031D01*
X1308878Y676822D01*
X1308442Y677578D01*
X1307941Y678293D01*
X1307380Y678962D01*
X1306762Y679580D01*
X1306093Y680141D01*
X1305619Y680473D01*
X1305766Y681311D01*
X1306004Y681723D01*
X1315400D01*
Y662200D01*
X1335400D01*
Y682200D01*
X1324376D01*
Y682522D01*
X1324348Y682950D01*
X1324264Y683370D01*
X1324126Y683776D01*
X1323937Y684161D01*
X1323699Y684517D01*
X1323416Y684839D01*
X1320938Y687317D01*
X1321570Y688352D01*
X1322390Y688054D01*
X1323233Y687828D01*
X1324093Y687676D01*
X1324963Y687600D01*
X1325837D01*
X1326707Y687676D01*
X1327566Y687828D01*
X1328410Y688054D01*
X1329230Y688352D01*
X1330022Y688721D01*
X1330778Y689158D01*
X1331493Y689659D01*
X1332162Y690220D01*
X1332780Y690838D01*
X1333341Y691507D01*
X1333842Y692222D01*
X1334279Y692978D01*
X1334648Y693770D01*
X1334946Y694590D01*
X1335172Y695434D01*
X1335324Y696293D01*
X1335400Y697163D01*
Y698037D01*
X1335324Y698906D01*
X1335172Y699766D01*
X1334946Y700610D01*
X1334648Y701431D01*
X1334279Y702222D01*
X1333842Y702978D01*
X1333341Y703693D01*
X1332780Y704362D01*
X1332162Y704980D01*
X1331493Y705541D01*
X1330778Y706042D01*
X1330022Y706479D01*
X1329230Y706848D01*
X1328410Y707146D01*
X1327566Y707372D01*
X1326707Y707524D01*
X1325837Y707600D01*
X1324963D01*
X1324093Y707524D01*
X1323804Y707473D01*
X1318959Y712317D01*
X1318637Y712600D01*
X1318281Y712838D01*
X1317896Y713028D01*
X1317490Y713165D01*
X1317070Y713249D01*
X1316642Y713277D01*
X1305659D01*
X1305324Y714527D01*
X1305378Y714558D01*
X1306093Y715059D01*
X1306762Y715620D01*
X1307380Y716238D01*
X1307941Y716907D01*
X1308442Y717622D01*
X1308878Y718378D01*
X1309248Y719169D01*
X1309546Y719990D01*
X1309772Y720834D01*
X1309924Y721693D01*
X1310000Y722563D01*
Y723437D01*
X1309924Y724306D01*
X1309772Y725166D01*
X1309546Y726010D01*
X1309248Y726831D01*
X1308878Y727622D01*
X1308442Y728378D01*
X1307941Y729093D01*
X1307380Y729762D01*
X1306762Y730380D01*
X1306093Y730941D01*
X1305742Y731187D01*
X1306136Y732437D01*
X1311328D01*
X1316401Y727364D01*
X1316152Y726831D01*
X1315854Y726010D01*
X1315628Y725166D01*
X1315476Y724306D01*
X1315400Y723437D01*
Y722563D01*
X1315476Y721693D01*
X1315628Y720834D01*
X1315854Y719990D01*
X1316152Y719169D01*
X1316521Y718378D01*
X1316958Y717622D01*
X1317459Y716907D01*
X1318020Y716238D01*
X1318638Y715620D01*
X1319307Y715059D01*
X1320022Y714558D01*
X1320778Y714121D01*
X1321570Y713752D01*
X1322390Y713454D01*
X1323233Y713228D01*
X1324093Y713076D01*
X1324963Y713000D01*
X1325837D01*
X1326707Y713076D01*
X1327566Y713228D01*
X1328410Y713454D01*
X1329230Y713752D01*
X1330022Y714121D01*
X1330778Y714558D01*
X1331493Y715059D01*
X1332162Y715620D01*
X1332780Y716238D01*
X1333341Y716907D01*
X1333842Y717622D01*
X1334279Y718378D01*
X1334648Y719169D01*
X1334946Y719990D01*
X1335172Y720834D01*
X1335324Y721693D01*
X1335400Y722563D01*
Y723437D01*
X1335324Y724306D01*
X1335172Y725166D01*
X1334946Y726010D01*
X1334648Y726831D01*
X1334279Y727622D01*
X1333842Y728378D01*
X1333341Y729093D01*
X1332780Y729762D01*
X1332162Y730380D01*
X1331493Y730941D01*
X1330778Y731442D01*
X1330022Y731879D01*
X1329230Y732248D01*
X1328410Y732546D01*
X1327566Y732772D01*
X1326707Y732924D01*
X1325837Y733000D01*
X1324963D01*
X1324093Y732924D01*
X1323233Y732772D01*
X1322390Y732546D01*
X1321570Y732248D01*
X1321036Y731999D01*
X1315003Y738031D01*
X1314681Y738314D01*
X1314324Y738552D01*
X1313940Y738742D01*
X1313534Y738880D01*
X1313113Y738963D01*
X1312686Y738991D01*
X1306177D01*
X1305783Y740241D01*
X1306093Y740459D01*
X1306762Y741020D01*
X1307380Y741638D01*
X1307941Y742307D01*
X1308442Y743022D01*
X1308878Y743778D01*
X1309248Y744569D01*
X1309546Y745390D01*
X1309772Y746234D01*
X1309924Y747094D01*
X1310000Y747963D01*
Y748837D01*
X1309924Y749706D01*
X1309772Y750566D01*
X1309546Y751410D01*
X1309248Y752231D01*
X1308878Y753022D01*
X1308442Y753778D01*
X1307941Y754493D01*
X1307380Y755162D01*
X1306762Y755780D01*
X1306093Y756341D01*
X1305378Y756842D01*
X1305350Y756858D01*
X1305685Y758108D01*
X1311058D01*
X1316401Y752764D01*
X1316152Y752231D01*
X1315854Y751410D01*
X1315628Y750566D01*
X1315476Y749706D01*
X1315400Y748837D01*
Y747963D01*
X1315476Y747094D01*
X1315628Y746234D01*
X1315854Y745390D01*
X1316152Y744569D01*
X1316521Y743778D01*
X1316958Y743022D01*
X1317459Y742307D01*
X1318020Y741638D01*
X1318638Y741020D01*
X1319307Y740459D01*
X1320022Y739958D01*
X1320778Y739521D01*
X1321570Y739152D01*
X1322390Y738854D01*
X1323233Y738628D01*
X1324093Y738476D01*
X1324963Y738400D01*
X1325837D01*
X1326707Y738476D01*
X1327566Y738628D01*
X1328410Y738854D01*
X1329230Y739152D01*
X1330022Y739521D01*
X1330778Y739958D01*
X1331493Y740459D01*
X1332162Y741020D01*
X1332780Y741638D01*
X1333341Y742307D01*
X1333842Y743022D01*
X1334279Y743778D01*
X1334648Y744569D01*
X1334946Y745390D01*
X1335172Y746234D01*
X1335324Y747094D01*
X1335400Y747963D01*
Y748837D01*
X1335324Y749706D01*
X1335172Y750566D01*
X1334946Y751410D01*
X1334648Y752231D01*
X1334279Y753022D01*
X1333842Y753778D01*
X1333341Y754493D01*
X1332780Y755162D01*
X1332162Y755780D01*
X1331493Y756341D01*
X1330778Y756842D01*
X1330022Y757279D01*
X1329230Y757648D01*
X1328410Y757946D01*
X1327566Y758172D01*
X1326707Y758324D01*
X1325837Y758400D01*
X1324963D01*
X1324093Y758324D01*
X1323233Y758172D01*
X1322390Y757946D01*
X1321570Y757648D01*
X1321036Y757399D01*
X1314732Y763702D01*
X1314410Y763985D01*
X1314054Y764223D01*
X1313669Y764412D01*
X1313263Y764550D01*
X1312843Y764634D01*
X1312415Y764662D01*
X1306653D01*
X1306154Y765742D01*
X1306156Y765912D01*
X1306762Y766420D01*
X1307380Y767038D01*
X1307941Y767707D01*
X1308442Y768422D01*
X1308878Y769178D01*
X1309248Y769969D01*
X1309546Y770790D01*
X1309772Y771634D01*
X1309924Y772494D01*
X1310000Y773363D01*
Y774237D01*
X1309924Y775107D01*
X1309772Y775966D01*
X1309546Y776810D01*
X1309248Y777630D01*
X1308878Y778422D01*
X1308442Y779178D01*
X1307941Y779893D01*
X1307380Y780562D01*
X1306762Y781180D01*
X1306093Y781741D01*
X1305843Y781916D01*
X1306237Y783166D01*
X1314896D01*
X1317783Y780279D01*
X1317459Y779893D01*
X1316958Y779178D01*
X1316521Y778422D01*
X1316152Y777630D01*
X1315854Y776810D01*
X1315628Y775966D01*
X1315476Y775107D01*
X1315400Y774237D01*
Y773363D01*
X1315476Y772494D01*
X1315628Y771634D01*
X1315854Y770790D01*
X1316152Y769969D01*
X1316521Y769178D01*
X1316958Y768422D01*
X1317459Y767707D01*
X1318020Y767038D01*
X1318638Y766420D01*
X1319307Y765859D01*
X1320022Y765358D01*
X1320778Y764921D01*
X1321570Y764552D01*
X1322390Y764254D01*
X1323233Y764028D01*
X1324093Y763876D01*
X1324963Y763800D01*
X1325837D01*
X1326707Y763876D01*
X1327566Y764028D01*
X1328410Y764254D01*
X1329230Y764552D01*
X1330022Y764921D01*
X1330778Y765358D01*
X1331493Y765859D01*
X1332162Y766420D01*
X1332780Y767038D01*
X1333341Y767707D01*
X1333842Y768422D01*
X1334279Y769178D01*
X1334648Y769969D01*
X1334946Y770790D01*
X1335172Y771634D01*
X1335324Y772494D01*
X1335400Y773363D01*
Y774237D01*
X1335324Y775107D01*
X1335172Y775966D01*
X1334946Y776810D01*
X1334648Y777630D01*
X1334279Y778422D01*
X1333842Y779178D01*
X1333341Y779893D01*
X1332780Y780562D01*
X1332162Y781180D01*
X1331493Y781741D01*
X1330778Y782242D01*
X1330022Y782679D01*
X1329230Y783048D01*
X1328410Y783346D01*
X1327566Y783572D01*
X1326707Y783724D01*
X1325837Y783800D01*
X1324963D01*
X1324093Y783724D01*
X1323680Y783651D01*
X1318571Y788761D01*
X1318248Y789043D01*
X1317892Y789281D01*
X1317507Y789471D01*
X1317102Y789609D01*
X1316681Y789692D01*
X1316253Y789720D01*
X1306037D01*
X1306029Y789734D01*
X1305681Y790970D01*
X1306093Y791259D01*
X1306762Y791820D01*
X1307380Y792438D01*
X1307941Y793107D01*
X1308442Y793822D01*
X1308878Y794578D01*
X1309248Y795369D01*
X1309546Y796190D01*
X1309772Y797034D01*
X1309924Y797894D01*
X1310000Y798763D01*
Y799637D01*
X1309924Y800507D01*
X1309772Y801366D01*
X1309546Y802210D01*
X1309248Y803030D01*
X1308878Y803822D01*
X1308442Y804578D01*
X1307941Y805293D01*
X1307380Y805962D01*
X1306762Y806580D01*
X1306093Y807141D01*
X1305576Y807503D01*
X1305641Y808149D01*
X1305953Y808753D01*
X1314112D01*
X1317511Y805355D01*
X1317459Y805293D01*
X1316958Y804578D01*
X1316521Y803822D01*
X1316152Y803030D01*
X1315854Y802210D01*
X1315628Y801366D01*
X1315476Y800507D01*
X1315400Y799637D01*
Y798763D01*
X1315476Y797894D01*
X1315628Y797034D01*
X1315854Y796190D01*
X1316152Y795369D01*
X1316521Y794578D01*
X1316958Y793822D01*
X1317459Y793107D01*
X1318020Y792438D01*
X1318638Y791820D01*
X1319307Y791259D01*
X1320022Y790758D01*
X1320778Y790322D01*
X1321570Y789952D01*
X1322390Y789654D01*
X1323233Y789428D01*
X1324093Y789276D01*
X1324963Y789200D01*
X1325837D01*
X1326707Y789276D01*
X1327566Y789428D01*
X1328410Y789654D01*
X1329230Y789952D01*
X1330022Y790322D01*
X1330778Y790758D01*
X1331493Y791259D01*
X1332162Y791820D01*
X1332780Y792438D01*
X1333341Y793107D01*
X1333842Y793822D01*
X1334279Y794578D01*
X1334648Y795369D01*
X1334946Y796190D01*
X1335172Y797034D01*
X1335324Y797894D01*
X1335400Y798763D01*
Y799637D01*
X1335324Y800507D01*
X1335172Y801366D01*
X1334946Y802210D01*
X1334648Y803030D01*
X1334279Y803822D01*
X1333842Y804578D01*
X1333341Y805293D01*
X1332780Y805962D01*
X1332162Y806580D01*
X1331493Y807141D01*
X1330778Y807642D01*
X1330022Y808079D01*
X1329230Y808448D01*
X1328410Y808746D01*
X1327566Y808972D01*
X1326707Y809124D01*
X1325837Y809200D01*
X1324963D01*
X1324093Y809124D01*
X1323233Y808972D01*
X1323177Y808957D01*
X1317787Y814347D01*
X1317465Y814630D01*
X1317108Y814868D01*
X1316724Y815058D01*
X1316318Y815196D01*
X1315898Y815279D01*
X1315470Y815307D01*
X1306342D01*
X1305948Y816557D01*
X1306093Y816659D01*
X1306762Y817220D01*
X1307380Y817838D01*
X1307941Y818507D01*
X1308442Y819222D01*
X1308878Y819978D01*
X1309248Y820770D01*
X1309546Y821590D01*
X1309772Y822434D01*
X1309924Y823294D01*
X1310000Y824163D01*
Y825037D01*
X1309924Y825907D01*
X1309772Y826766D01*
X1309546Y827610D01*
X1309248Y828430D01*
X1308878Y829222D01*
X1308442Y829978D01*
X1307941Y830693D01*
X1307380Y831362D01*
X1306762Y831980D01*
X1306093Y832541D01*
X1305842Y832717D01*
X1306236Y833967D01*
X1313898D01*
X1317341Y830525D01*
X1316958Y829978D01*
X1316521Y829222D01*
X1316152Y828430D01*
X1315854Y827610D01*
X1315628Y826766D01*
X1315476Y825907D01*
X1315400Y825037D01*
Y824163D01*
X1315476Y823294D01*
X1315628Y822434D01*
X1315854Y821590D01*
X1316152Y820770D01*
X1316521Y819978D01*
X1316958Y819222D01*
X1317459Y818507D01*
X1318020Y817838D01*
X1318638Y817220D01*
X1319307Y816659D01*
X1320022Y816158D01*
X1320778Y815722D01*
X1321570Y815352D01*
X1322390Y815054D01*
X1323233Y814828D01*
X1324093Y814676D01*
X1324963Y814600D01*
X1325837D01*
X1326707Y814676D01*
X1327566Y814828D01*
X1328410Y815054D01*
X1329230Y815352D01*
X1330022Y815722D01*
X1330778Y816158D01*
X1331493Y816659D01*
X1332162Y817220D01*
X1332780Y817838D01*
X1333341Y818507D01*
X1333842Y819222D01*
X1334279Y819978D01*
X1334648Y820770D01*
X1334946Y821590D01*
X1335172Y822434D01*
X1335324Y823294D01*
X1335400Y824163D01*
Y825037D01*
X1335324Y825907D01*
X1335172Y826766D01*
X1334946Y827610D01*
X1334648Y828430D01*
X1334279Y829222D01*
X1333842Y829978D01*
X1333341Y830693D01*
X1332780Y831362D01*
X1332162Y831980D01*
X1331493Y832541D01*
X1330778Y833042D01*
X1330022Y833478D01*
X1329230Y833848D01*
X1328410Y834146D01*
X1327566Y834372D01*
X1326707Y834524D01*
X1325837Y834600D01*
X1324963D01*
X1324093Y834524D01*
X1323233Y834372D01*
X1322862Y834273D01*
X1317573Y839562D01*
X1317251Y839844D01*
X1316894Y840082D01*
X1316510Y840272D01*
X1316104Y840410D01*
X1315683Y840493D01*
X1315256Y840521D01*
X1306038D01*
X1306038Y840523D01*
X1305683Y841771D01*
X1306093Y842059D01*
X1306762Y842620D01*
X1307380Y843238D01*
X1307941Y843907D01*
X1308442Y844622D01*
X1308878Y845378D01*
X1309248Y846170D01*
X1309546Y846990D01*
X1309772Y847834D01*
X1309924Y848693D01*
X1310000Y849563D01*
Y850437D01*
X1309924Y851307D01*
X1309772Y852166D01*
X1309546Y853010D01*
X1309248Y853830D01*
X1308878Y854622D01*
X1308442Y855378D01*
X1307941Y856093D01*
X1307380Y856762D01*
X1306762Y857380D01*
X1306093Y857941D01*
X1306048Y857973D01*
X1306442Y859223D01*
X1313643D01*
X1317176Y855689D01*
X1316958Y855378D01*
X1316521Y854622D01*
X1316152Y853830D01*
X1315854Y853010D01*
X1315628Y852166D01*
X1315476Y851307D01*
X1315400Y850437D01*
Y849563D01*
X1315476Y848693D01*
X1315628Y847834D01*
X1315854Y846990D01*
X1316152Y846170D01*
X1316521Y845378D01*
X1316958Y844622D01*
X1317459Y843907D01*
X1318020Y843238D01*
X1318638Y842620D01*
X1319307Y842059D01*
X1320022Y841558D01*
X1320778Y841122D01*
X1321570Y840752D01*
X1322390Y840454D01*
X1323233Y840228D01*
X1324093Y840076D01*
X1324963Y840000D01*
X1325837D01*
X1326707Y840076D01*
X1327566Y840228D01*
X1328410Y840454D01*
X1329230Y840752D01*
X1330022Y841122D01*
X1330778Y841558D01*
X1331493Y842059D01*
X1332162Y842620D01*
X1332780Y843238D01*
X1333341Y843907D01*
X1333842Y844622D01*
X1334279Y845378D01*
X1334648Y846170D01*
X1334946Y846990D01*
X1335172Y847834D01*
X1335324Y848693D01*
X1335400Y849563D01*
Y850437D01*
X1335324Y851307D01*
X1335172Y852166D01*
X1334946Y853010D01*
X1334648Y853830D01*
X1334279Y854622D01*
X1333842Y855378D01*
X1333341Y856093D01*
X1332780Y856762D01*
X1332162Y857380D01*
X1331493Y857941D01*
X1330778Y858442D01*
X1330022Y858878D01*
X1329230Y859248D01*
X1328410Y859546D01*
X1327566Y859772D01*
X1326707Y859924D01*
X1325837Y860000D01*
X1324963D01*
X1324093Y859924D01*
X1323233Y859772D01*
X1322546Y859588D01*
X1317317Y864817D01*
X1316995Y865100D01*
X1316638Y865338D01*
X1316254Y865528D01*
X1315848Y865665D01*
X1315428Y865749D01*
X1315000Y865777D01*
X1306181D01*
X1305466Y866875D01*
X1305477Y867027D01*
X1306093Y867459D01*
X1306762Y868020D01*
X1307380Y868638D01*
X1307941Y869307D01*
X1308442Y870022D01*
X1308878Y870778D01*
X1309248Y871570D01*
X1309546Y872390D01*
X1309772Y873234D01*
X1309924Y874093D01*
X1310000Y874963D01*
Y875837D01*
X1309924Y876706D01*
X1309772Y877566D01*
X1309546Y878410D01*
X1309248Y879230D01*
X1308878Y880022D01*
X1308442Y880778D01*
X1307941Y881493D01*
X1307380Y882162D01*
X1306762Y882780D01*
X1306093Y883341D01*
X1305378Y883842D01*
X1304622Y884278D01*
X1303831Y884648D01*
X1303010Y884946D01*
X1302166Y885172D01*
X1301306Y885324D01*
X1300437Y885400D01*
X1299563D01*
X1298694Y885324D01*
X1297834Y885172D01*
X1296990Y884946D01*
X1296169Y884648D01*
X1295378Y884278D01*
X1294622Y883842D01*
X1293907Y883341D01*
X1293845Y883289D01*
X1291555Y885579D01*
X1291999Y886585D01*
X1292157Y886746D01*
X1292500Y886723D01*
X1311143D01*
X1317011Y880854D01*
X1316958Y880778D01*
X1316521Y880022D01*
X1316152Y879230D01*
X1315854Y878410D01*
X1315628Y877566D01*
X1315476Y876706D01*
X1315400Y875837D01*
Y874963D01*
X1315476Y874093D01*
X1315628Y873234D01*
X1315854Y872390D01*
X1316152Y871570D01*
X1316521Y870778D01*
X1316958Y870022D01*
X1317459Y869307D01*
X1318020Y868638D01*
X1318638Y868020D01*
X1319307Y867459D01*
X1320022Y866958D01*
X1320778Y866522D01*
X1321570Y866152D01*
X1322390Y865854D01*
X1323233Y865628D01*
X1324093Y865476D01*
X1324963Y865400D01*
X1325837D01*
X1326707Y865476D01*
X1327566Y865628D01*
X1328410Y865854D01*
X1329230Y866152D01*
X1330022Y866522D01*
X1330778Y866958D01*
X1331493Y867459D01*
X1332162Y868020D01*
X1332780Y868638D01*
X1333341Y869307D01*
X1333842Y870022D01*
X1334279Y870778D01*
X1334648Y871570D01*
X1334946Y872390D01*
X1335172Y873234D01*
X1335324Y874093D01*
X1335400Y874963D01*
Y875837D01*
X1335324Y876706D01*
X1335172Y877566D01*
X1334946Y878410D01*
X1334648Y879230D01*
X1334279Y880022D01*
X1333842Y880778D01*
X1333341Y881493D01*
X1332780Y882162D01*
X1332162Y882780D01*
X1331493Y883341D01*
X1330778Y883842D01*
X1330022Y884278D01*
X1329230Y884648D01*
X1328410Y884946D01*
X1327566Y885172D01*
X1326707Y885324D01*
X1325837Y885400D01*
X1324963D01*
X1324093Y885324D01*
X1323233Y885172D01*
X1322390Y884946D01*
X1322242Y884892D01*
X1314817Y892317D01*
X1314495Y892600D01*
X1314138Y892838D01*
X1313754Y893028D01*
X1313348Y893165D01*
X1312928Y893249D01*
X1312500Y893277D01*
X1308373D01*
X1307790Y894527D01*
X1307941Y894707D01*
X1308442Y895422D01*
X1308878Y896178D01*
X1309248Y896970D01*
X1309546Y897790D01*
X1309772Y898634D01*
X1309924Y899493D01*
X1310000Y900363D01*
Y901237D01*
X1309924Y902106D01*
X1309772Y902966D01*
X1309546Y903810D01*
X1309248Y904631D01*
X1308878Y905422D01*
X1308442Y906178D01*
X1307941Y906893D01*
X1307380Y907562D01*
X1306762Y908180D01*
X1306093Y908741D01*
X1305378Y909242D01*
X1304892Y909523D01*
X1305139Y910682D01*
X1305186Y910773D01*
X1309593D01*
X1316041Y904325D01*
X1315854Y903810D01*
X1315628Y902966D01*
X1315476Y902106D01*
X1315400Y901237D01*
Y900363D01*
X1315476Y899493D01*
X1315628Y898634D01*
X1315854Y897790D01*
X1316152Y896970D01*
X1316521Y896178D01*
X1316958Y895422D01*
X1317459Y894707D01*
X1318020Y894038D01*
X1318638Y893420D01*
X1319307Y892859D01*
X1320022Y892358D01*
X1320778Y891921D01*
X1321570Y891552D01*
X1322390Y891254D01*
X1323233Y891028D01*
X1324093Y890876D01*
X1324963Y890800D01*
X1325837D01*
X1326707Y890876D01*
X1327566Y891028D01*
X1328410Y891254D01*
X1329230Y891552D01*
X1330022Y891921D01*
X1330778Y892358D01*
X1331493Y892859D01*
X1332162Y893420D01*
X1332780Y894038D01*
X1333341Y894707D01*
X1333842Y895422D01*
X1334279Y896178D01*
X1334648Y896970D01*
X1334946Y897790D01*
X1335172Y898634D01*
X1335324Y899493D01*
X1335400Y900363D01*
Y901237D01*
X1335324Y902106D01*
X1335172Y902966D01*
X1334946Y903810D01*
X1334648Y904631D01*
X1334279Y905422D01*
X1333842Y906178D01*
X1333341Y906893D01*
X1332780Y907562D01*
X1332162Y908180D01*
X1331493Y908741D01*
X1330778Y909242D01*
X1330022Y909678D01*
X1329230Y910048D01*
X1328410Y910346D01*
X1327566Y910572D01*
X1326707Y910724D01*
X1325837Y910800D01*
X1324963D01*
X1324093Y910724D01*
X1323233Y910572D01*
X1322390Y910346D01*
X1321570Y910048D01*
X1320778Y909678D01*
X1320257Y909378D01*
X1313267Y916367D01*
X1312945Y916650D01*
X1312589Y916888D01*
X1312204Y917077D01*
X1311798Y917215D01*
X1311378Y917299D01*
X1310950Y917327D01*
X1306927D01*
X1306472Y918577D01*
X1306762Y918820D01*
X1307380Y919438D01*
X1307941Y920107D01*
X1308442Y920822D01*
X1308878Y921578D01*
X1309248Y922370D01*
X1309546Y923190D01*
X1309772Y924034D01*
X1309924Y924893D01*
X1310000Y925763D01*
Y926637D01*
X1309924Y927506D01*
X1309772Y928366D01*
X1309546Y929210D01*
X1309248Y930031D01*
X1308878Y930822D01*
X1308442Y931578D01*
X1307941Y932293D01*
X1307380Y932962D01*
X1306762Y933580D01*
X1306093Y934141D01*
X1305378Y934642D01*
X1304622Y935079D01*
X1303831Y935448D01*
X1303010Y935746D01*
X1302166Y935972D01*
X1301306Y936124D01*
X1300437Y936200D01*
X1299563D01*
X1298694Y936124D01*
X1297834Y935972D01*
X1296990Y935746D01*
X1296169Y935448D01*
X1295378Y935079D01*
X1294622Y934642D01*
X1293907Y934141D01*
X1293883Y934121D01*
X1278026Y949979D01*
Y1027751D01*
X1277998Y1028179D01*
X1277914Y1028599D01*
X1277776Y1029005D01*
X1277587Y1029390D01*
X1277349Y1029746D01*
X1277066Y1030069D01*
X1220830Y1086304D01*
X1220833Y1086672D01*
X1221246Y1087656D01*
X1221386Y1087688D01*
X1221916Y1087873D01*
X1222422Y1088117D01*
X1222898Y1088416D01*
X1223337Y1088766D01*
X1223734Y1089163D01*
X1224084Y1089602D01*
X1224383Y1090078D01*
X1224627Y1090584D01*
X1224812Y1091114D01*
X1224937Y1091661D01*
X1225000Y1092219D01*
Y1092781D01*
X1224937Y1093339D01*
X1224812Y1093886D01*
X1224627Y1094416D01*
X1224383Y1094922D01*
X1224084Y1095398D01*
X1223734Y1095837D01*
X1223337Y1096234D01*
X1222898Y1096584D01*
X1222422Y1096883D01*
X1221916Y1097127D01*
X1221386Y1097312D01*
X1220839Y1097437D01*
X1220281Y1097500D01*
X1219719D01*
X1219161Y1097437D01*
X1218614Y1097312D01*
X1218084Y1097127D01*
X1217578Y1096883D01*
X1217102Y1096584D01*
X1216663Y1096234D01*
X1216266Y1095837D01*
X1215916Y1095398D01*
X1215617Y1094922D01*
X1215373Y1094416D01*
X1215188Y1093886D01*
X1215156Y1093746D01*
X1214172Y1093333D01*
X1213804Y1093330D01*
X1190777Y1116357D01*
Y1245000D01*
X1190749Y1245428D01*
X1190665Y1245848D01*
X1190528Y1246254D01*
X1190338Y1246638D01*
X1190100Y1246995D01*
X1189817Y1247317D01*
X1176579Y1260555D01*
X1176257Y1260838D01*
X1175900Y1261076D01*
X1175516Y1261266D01*
X1175110Y1261404D01*
X1174689Y1261487D01*
X1174262Y1261515D01*
D02*
G37*
G36*
X1365256Y1258994D02*
X1363526D01*
X1362781Y1258961D01*
X1362042Y1258864D01*
X1361314Y1258703D01*
X1360603Y1258479D01*
X1359914Y1258193D01*
X1359252Y1257849D01*
X1358623Y1257448D01*
X1358032Y1256994D01*
X1357482Y1256490D01*
X1356978Y1255941D01*
X1356524Y1255349D01*
X1356124Y1254720D01*
X1355779Y1254059D01*
X1355494Y1253370D01*
X1355269Y1252658D01*
X1355108Y1251930D01*
X1355080Y1251716D01*
X1365256D01*
Y1258994D01*
D02*
G37*
G36*
X1330226D02*
X1325996D01*
Y1251716D01*
X1338673D01*
X1338645Y1251930D01*
X1338483Y1252658D01*
X1338259Y1253370D01*
X1337974Y1254059D01*
X1337629Y1254720D01*
X1337229Y1255349D01*
X1336775Y1255941D01*
X1336271Y1256490D01*
X1335721Y1256994D01*
X1335129Y1257448D01*
X1334500Y1257849D01*
X1333839Y1258193D01*
X1333150Y1258479D01*
X1332439Y1258703D01*
X1331711Y1258864D01*
X1330971Y1258961D01*
X1330226Y1258994D01*
D02*
G37*
G36*
X1323456D02*
X1319226D01*
X1318481Y1258961D01*
X1317742Y1258864D01*
X1317014Y1258703D01*
X1316303Y1258479D01*
X1315614Y1258193D01*
X1314952Y1257849D01*
X1314323Y1257448D01*
X1313732Y1256994D01*
X1313182Y1256490D01*
X1312678Y1255941D01*
X1312224Y1255349D01*
X1311823Y1254720D01*
X1311479Y1254059D01*
X1311194Y1253370D01*
X1310970Y1252658D01*
X1310808Y1251930D01*
X1310780Y1251716D01*
X1323456D01*
Y1258994D01*
D02*
G37*
G36*
X865281Y1250000D02*
X864719D01*
X864161Y1249937D01*
X863614Y1249812D01*
X863084Y1249627D01*
X862578Y1249383D01*
X862102Y1249084D01*
X861663Y1248734D01*
X861250Y1248352D01*
X860837Y1248734D01*
X860398Y1249084D01*
X859922Y1249383D01*
X859416Y1249627D01*
X858886Y1249812D01*
X858339Y1249937D01*
X857781Y1250000D01*
X857219D01*
X856661Y1249937D01*
X856114Y1249812D01*
X855584Y1249627D01*
X855078Y1249383D01*
X854602Y1249084D01*
X854163Y1248734D01*
X853750Y1248352D01*
X853337Y1248734D01*
X852898Y1249084D01*
X852422Y1249383D01*
X851916Y1249627D01*
X851386Y1249812D01*
X850839Y1249937D01*
X850281Y1250000D01*
X849719D01*
X849161Y1249937D01*
X848614Y1249812D01*
X848084Y1249627D01*
X847578Y1249383D01*
X847102Y1249084D01*
X846663Y1248734D01*
X846266Y1248337D01*
X845916Y1247898D01*
X845617Y1247422D01*
X845373Y1246916D01*
X845188Y1246386D01*
X845063Y1245839D01*
X845000Y1245281D01*
Y1244719D01*
X845063Y1244161D01*
X845188Y1243614D01*
X845373Y1243084D01*
X845617Y1242578D01*
X845916Y1242102D01*
X846266Y1241663D01*
X846648Y1241250D01*
X846266Y1240837D01*
X845916Y1240398D01*
X845617Y1239922D01*
X845373Y1239416D01*
X845188Y1238886D01*
X845063Y1238339D01*
X845000Y1237781D01*
Y1237219D01*
X845063Y1236661D01*
X845188Y1236114D01*
X845373Y1235584D01*
X845617Y1235078D01*
X845916Y1234602D01*
X846266Y1234163D01*
X846648Y1233750D01*
X846266Y1233337D01*
X845916Y1232898D01*
X845617Y1232422D01*
X845373Y1231916D01*
X845188Y1231386D01*
X845063Y1230839D01*
X845000Y1230281D01*
Y1229719D01*
X845063Y1229161D01*
X845188Y1228614D01*
X845373Y1228084D01*
X845617Y1227578D01*
X845916Y1227102D01*
X846266Y1226663D01*
X846663Y1226266D01*
X847102Y1225916D01*
X847578Y1225617D01*
X848084Y1225373D01*
X848614Y1225188D01*
X849161Y1225063D01*
X849719Y1225000D01*
X850281D01*
X850839Y1225063D01*
X851386Y1225188D01*
X851916Y1225373D01*
X852422Y1225617D01*
X852898Y1225916D01*
X853337Y1226266D01*
X853750Y1226648D01*
X854163Y1226266D01*
X854602Y1225916D01*
X855078Y1225617D01*
X855584Y1225373D01*
X856114Y1225188D01*
X856661Y1225063D01*
X857219Y1225000D01*
X857781D01*
X858339Y1225063D01*
X858886Y1225188D01*
X859416Y1225373D01*
X859922Y1225617D01*
X860398Y1225916D01*
X860837Y1226266D01*
X861250Y1226648D01*
X861663Y1226266D01*
X862102Y1225916D01*
X862578Y1225617D01*
X863084Y1225373D01*
X863614Y1225188D01*
X864161Y1225063D01*
X864719Y1225000D01*
X865281D01*
X865839Y1225063D01*
X866386Y1225188D01*
X866916Y1225373D01*
X867422Y1225617D01*
X867898Y1225916D01*
X868337Y1226266D01*
X868734Y1226663D01*
X869084Y1227102D01*
X869383Y1227578D01*
X869627Y1228084D01*
X869812Y1228614D01*
X869937Y1229161D01*
X870000Y1229719D01*
Y1230281D01*
X869937Y1230839D01*
X869812Y1231386D01*
X869627Y1231916D01*
X869383Y1232422D01*
X869084Y1232898D01*
X868734Y1233337D01*
X868352Y1233750D01*
X868734Y1234163D01*
X869084Y1234602D01*
X869383Y1235078D01*
X869627Y1235584D01*
X869812Y1236114D01*
X869937Y1236661D01*
X870000Y1237219D01*
Y1237781D01*
X869937Y1238339D01*
X869812Y1238886D01*
X869627Y1239416D01*
X869383Y1239922D01*
X869084Y1240398D01*
X868734Y1240837D01*
X868352Y1241250D01*
X868734Y1241663D01*
X869084Y1242102D01*
X869383Y1242578D01*
X869627Y1243084D01*
X869812Y1243614D01*
X869937Y1244161D01*
X870000Y1244719D01*
Y1245281D01*
X869937Y1245839D01*
X869812Y1246386D01*
X869627Y1246916D01*
X869383Y1247422D01*
X869084Y1247898D01*
X868734Y1248337D01*
X868337Y1248734D01*
X867898Y1249084D01*
X867422Y1249383D01*
X866916Y1249627D01*
X866386Y1249812D01*
X865839Y1249937D01*
X865281Y1250000D01*
D02*
G37*
G36*
X1270281Y1245000D02*
X1269719D01*
X1269161Y1244937D01*
X1268614Y1244812D01*
X1268084Y1244627D01*
X1267578Y1244383D01*
X1267102Y1244084D01*
X1266663Y1243734D01*
X1266266Y1243337D01*
X1265916Y1242898D01*
X1265704Y1242561D01*
X1265000Y1242431D01*
X1264296Y1242561D01*
X1264084Y1242898D01*
X1263734Y1243337D01*
X1263337Y1243734D01*
X1262898Y1244084D01*
X1262422Y1244383D01*
X1261916Y1244627D01*
X1261386Y1244812D01*
X1260839Y1244937D01*
X1260281Y1245000D01*
X1259719D01*
X1259161Y1244937D01*
X1258614Y1244812D01*
X1258084Y1244627D01*
X1257578Y1244383D01*
X1257102Y1244084D01*
X1256663Y1243734D01*
X1256266Y1243337D01*
X1255916Y1242898D01*
X1255617Y1242422D01*
X1255373Y1241916D01*
X1255188Y1241386D01*
X1255063Y1240839D01*
X1255000Y1240281D01*
Y1239719D01*
X1255063Y1239161D01*
X1255188Y1238614D01*
X1255373Y1238084D01*
X1255617Y1237578D01*
X1255916Y1237102D01*
X1256266Y1236663D01*
X1256663Y1236266D01*
X1257102Y1235916D01*
X1257439Y1235704D01*
X1257569Y1235000D01*
X1257439Y1234296D01*
X1257102Y1234084D01*
X1256663Y1233734D01*
X1256266Y1233337D01*
X1255916Y1232898D01*
X1255617Y1232422D01*
X1255373Y1231916D01*
X1255188Y1231386D01*
X1255063Y1230839D01*
X1255000Y1230281D01*
Y1229719D01*
X1255063Y1229161D01*
X1255188Y1228614D01*
X1255373Y1228084D01*
X1255617Y1227578D01*
X1255916Y1227102D01*
X1256266Y1226663D01*
X1256663Y1226266D01*
X1257102Y1225916D01*
X1257578Y1225617D01*
X1258084Y1225373D01*
X1258614Y1225188D01*
X1259161Y1225063D01*
X1259719Y1225000D01*
X1260281D01*
X1260839Y1225063D01*
X1261386Y1225188D01*
X1261916Y1225373D01*
X1262422Y1225617D01*
X1262898Y1225916D01*
X1263337Y1226266D01*
X1263734Y1226663D01*
X1264084Y1227102D01*
X1264296Y1227439D01*
X1265000Y1227569D01*
X1265704Y1227439D01*
X1265916Y1227102D01*
X1266266Y1226663D01*
X1266663Y1226266D01*
X1267102Y1225916D01*
X1267578Y1225617D01*
X1268084Y1225373D01*
X1268614Y1225188D01*
X1269161Y1225063D01*
X1269719Y1225000D01*
X1270281D01*
X1270839Y1225063D01*
X1271386Y1225188D01*
X1271916Y1225373D01*
X1272422Y1225617D01*
X1272898Y1225916D01*
X1273337Y1226266D01*
X1273734Y1226663D01*
X1274084Y1227102D01*
X1274383Y1227578D01*
X1274627Y1228084D01*
X1274812Y1228614D01*
X1274937Y1229161D01*
X1275000Y1229719D01*
Y1230281D01*
X1274937Y1230839D01*
X1274812Y1231386D01*
X1274627Y1231916D01*
X1274383Y1232422D01*
X1274084Y1232898D01*
X1273734Y1233337D01*
X1273337Y1233734D01*
X1272898Y1234084D01*
X1272561Y1234296D01*
X1272431Y1235000D01*
X1272561Y1235704D01*
X1272898Y1235916D01*
X1273337Y1236266D01*
X1273734Y1236663D01*
X1274084Y1237102D01*
X1274383Y1237578D01*
X1274627Y1238084D01*
X1274812Y1238614D01*
X1274937Y1239161D01*
X1275000Y1239719D01*
Y1240281D01*
X1274937Y1240839D01*
X1274812Y1241386D01*
X1274627Y1241916D01*
X1274383Y1242422D01*
X1274084Y1242898D01*
X1273734Y1243337D01*
X1273337Y1243734D01*
X1272898Y1244084D01*
X1272422Y1244383D01*
X1271916Y1244627D01*
X1271386Y1244812D01*
X1270839Y1244937D01*
X1270281Y1245000D01*
D02*
G37*
G36*
X1365256Y1249176D02*
X1355080D01*
X1355108Y1248962D01*
X1355269Y1248233D01*
X1355494Y1247522D01*
X1355779Y1246833D01*
X1356124Y1246172D01*
X1356524Y1245543D01*
X1356978Y1244951D01*
X1357482Y1244401D01*
X1358032Y1243898D01*
X1358623Y1243444D01*
X1359252Y1243043D01*
X1359914Y1242699D01*
X1360603Y1242413D01*
X1361314Y1242189D01*
X1362042Y1242028D01*
X1362781Y1241930D01*
X1363526Y1241898D01*
X1365256D01*
Y1249176D01*
D02*
G37*
G36*
X1323456Y1249176D02*
X1310780D01*
X1310808Y1248962D01*
X1310970Y1248233D01*
X1311194Y1247522D01*
X1311479Y1246833D01*
X1311823Y1246172D01*
X1312224Y1245543D01*
X1312678Y1244951D01*
X1313182Y1244401D01*
X1313732Y1243898D01*
X1314323Y1243444D01*
X1314952Y1243043D01*
X1315614Y1242699D01*
X1316303Y1242413D01*
X1317014Y1242189D01*
X1317742Y1242028D01*
X1318481Y1241930D01*
X1319226Y1241898D01*
X1323456D01*
Y1249176D01*
D02*
G37*
G36*
X979731Y1242886D02*
X979169D01*
X978611Y1242823D01*
X978064Y1242698D01*
X977533Y1242513D01*
X977028Y1242269D01*
X976552Y1241971D01*
X976113Y1241620D01*
X975716Y1241223D01*
X975366Y1240784D01*
X975067Y1240309D01*
X974823Y1239803D01*
X974638Y1239273D01*
X974513Y1238725D01*
X974450Y1238167D01*
Y1237606D01*
X974513Y1237047D01*
X974638Y1236500D01*
X974823Y1235970D01*
X975067Y1235464D01*
X975366Y1234988D01*
X975716Y1234549D01*
X976113Y1234152D01*
X976552Y1233802D01*
X977028Y1233503D01*
X977533Y1233260D01*
X978064Y1233074D01*
X978611Y1232949D01*
X979169Y1232886D01*
X979731D01*
X980289Y1232949D01*
X980836Y1233074D01*
X981366Y1233260D01*
X981872Y1233503D01*
X982348Y1233802D01*
X982787Y1234152D01*
X983184Y1234549D01*
X983534Y1234988D01*
X983833Y1235464D01*
X984077Y1235970D01*
X984262Y1236500D01*
X984387Y1237047D01*
X984450Y1237606D01*
Y1238167D01*
X984387Y1238725D01*
X984262Y1239273D01*
X984077Y1239803D01*
X983833Y1240309D01*
X983534Y1240784D01*
X983184Y1241223D01*
X982787Y1241620D01*
X982348Y1241971D01*
X981872Y1242269D01*
X981366Y1242513D01*
X980836Y1242698D01*
X980289Y1242823D01*
X979731Y1242886D01*
D02*
G37*
G36*
X1338673Y1249176D02*
X1325996D01*
Y1241450D01*
X1326005Y1241435D01*
X1326148Y1240648D01*
X1325862Y1240420D01*
X1325402Y1239960D01*
X1324997Y1239452D01*
X1324651Y1238901D01*
X1324369Y1238315D01*
X1324154Y1237701D01*
X1324009Y1237067D01*
X1323936Y1236421D01*
Y1235771D01*
X1324009Y1235125D01*
X1324154Y1234491D01*
X1324369Y1233877D01*
X1324651Y1233291D01*
X1324997Y1232740D01*
X1325402Y1232232D01*
X1325862Y1231772D01*
X1326371Y1231366D01*
X1326921Y1231020D01*
X1327507Y1230738D01*
X1328121Y1230524D01*
X1328755Y1230379D01*
X1329401Y1230306D01*
X1330052D01*
X1330698Y1230379D01*
X1331332Y1230524D01*
X1331946Y1230738D01*
X1332531Y1231020D01*
X1333082Y1231366D01*
X1333591Y1231772D01*
X1334050Y1232232D01*
X1334456Y1232740D01*
X1334802Y1233291D01*
X1335084Y1233877D01*
X1335299Y1234491D01*
X1335444Y1235125D01*
X1335516Y1235771D01*
Y1236421D01*
X1335444Y1237067D01*
X1335299Y1237701D01*
X1335084Y1238315D01*
X1334802Y1238901D01*
X1334456Y1239452D01*
X1334050Y1239960D01*
X1333591Y1240420D01*
X1333082Y1240826D01*
X1332808Y1240997D01*
X1332794Y1241898D01*
X1332959Y1242353D01*
X1333150Y1242413D01*
X1333839Y1242699D01*
X1334500Y1243043D01*
X1335129Y1243444D01*
X1335721Y1243898D01*
X1336271Y1244401D01*
X1336775Y1244951D01*
X1337229Y1245543D01*
X1337629Y1246172D01*
X1337974Y1246833D01*
X1338259Y1247522D01*
X1338483Y1248233D01*
X1338645Y1248962D01*
X1338673Y1249176D01*
D02*
G37*
G36*
X979626Y1230358D02*
X979065D01*
X978507Y1230295D01*
X977959Y1230170D01*
X977429Y1229985D01*
X976923Y1229741D01*
X976448Y1229442D01*
X976009Y1229092D01*
X975611Y1228695D01*
X975261Y1228256D01*
X974962Y1227781D01*
X974719Y1227275D01*
X974533Y1226745D01*
X974408Y1226197D01*
X974345Y1225639D01*
Y1225077D01*
X974408Y1224519D01*
X974533Y1223972D01*
X974719Y1223442D01*
X974962Y1222936D01*
X975261Y1222460D01*
X975611Y1222021D01*
X976009Y1221624D01*
X976448Y1221274D01*
X976923Y1220975D01*
X977429Y1220732D01*
X977959Y1220546D01*
X978507Y1220421D01*
X979065Y1220358D01*
X979626D01*
X980184Y1220421D01*
X980732Y1220546D01*
X981262Y1220732D01*
X981768Y1220975D01*
X982243Y1221274D01*
X982682Y1221624D01*
X983080Y1222021D01*
X983430Y1222460D01*
X983728Y1222936D01*
X983972Y1223442D01*
X984158Y1223972D01*
X984283Y1224519D01*
X984345Y1225077D01*
Y1225639D01*
X984283Y1226197D01*
X984158Y1226745D01*
X983972Y1227275D01*
X983728Y1227781D01*
X983430Y1228256D01*
X983080Y1228695D01*
X982682Y1229092D01*
X982243Y1229442D01*
X981768Y1229741D01*
X981262Y1229985D01*
X980732Y1230170D01*
X980184Y1230295D01*
X979626Y1230358D01*
D02*
G37*
G36*
X848483Y1223178D02*
X847921D01*
X847363Y1223115D01*
X846815Y1222990D01*
X846285Y1222805D01*
X845779Y1222561D01*
X845304Y1222262D01*
X844865Y1221912D01*
X844468Y1221515D01*
X844118Y1221076D01*
X843819Y1220601D01*
X843575Y1220095D01*
X843390Y1219565D01*
X843265Y1219017D01*
X843202Y1218459D01*
Y1217897D01*
X843265Y1217339D01*
X843390Y1216792D01*
X843575Y1216262D01*
X843819Y1215756D01*
X844118Y1215280D01*
X844468Y1214841D01*
X844865Y1214444D01*
X845304Y1214094D01*
X845779Y1213795D01*
X846285Y1213552D01*
X846815Y1213366D01*
X847363Y1213241D01*
X847921Y1213178D01*
X848483D01*
X849041Y1213241D01*
X849588Y1213366D01*
X850118Y1213552D01*
X850624Y1213795D01*
X851100Y1214094D01*
X851539Y1214444D01*
X851936Y1214841D01*
X852286Y1215280D01*
X852585Y1215756D01*
X852829Y1216262D01*
X853014Y1216792D01*
X853139Y1217339D01*
X853202Y1217897D01*
Y1218459D01*
X853139Y1219017D01*
X853014Y1219565D01*
X852829Y1220095D01*
X852585Y1220601D01*
X852286Y1221076D01*
X851936Y1221515D01*
X851539Y1221912D01*
X851100Y1222262D01*
X850624Y1222561D01*
X850118Y1222805D01*
X849588Y1222990D01*
X849041Y1223115D01*
X848483Y1223178D01*
D02*
G37*
G36*
X1270281Y1190000D02*
X1269719D01*
X1269161Y1189937D01*
X1268614Y1189812D01*
X1268084Y1189627D01*
X1267578Y1189383D01*
X1267102Y1189084D01*
X1266663Y1188734D01*
X1266266Y1188337D01*
X1265916Y1187898D01*
X1265704Y1187561D01*
X1265000Y1187431D01*
X1264296Y1187561D01*
X1264084Y1187898D01*
X1263734Y1188337D01*
X1263337Y1188734D01*
X1262898Y1189084D01*
X1262422Y1189383D01*
X1261916Y1189627D01*
X1261386Y1189812D01*
X1260839Y1189937D01*
X1260281Y1190000D01*
X1259719D01*
X1259161Y1189937D01*
X1258614Y1189812D01*
X1258084Y1189627D01*
X1257578Y1189383D01*
X1257102Y1189084D01*
X1256663Y1188734D01*
X1256266Y1188337D01*
X1255916Y1187898D01*
X1255617Y1187422D01*
X1255373Y1186916D01*
X1255188Y1186386D01*
X1255063Y1185839D01*
X1255000Y1185281D01*
Y1184719D01*
X1255063Y1184161D01*
X1255188Y1183614D01*
X1255373Y1183084D01*
X1255617Y1182578D01*
X1255916Y1182102D01*
X1256266Y1181663D01*
X1256663Y1181266D01*
X1257102Y1180916D01*
X1257439Y1180704D01*
X1257569Y1180000D01*
X1257439Y1179296D01*
X1257102Y1179084D01*
X1256663Y1178734D01*
X1256266Y1178337D01*
X1255916Y1177898D01*
X1255617Y1177422D01*
X1255373Y1176916D01*
X1255188Y1176386D01*
X1255063Y1175839D01*
X1255000Y1175281D01*
Y1174719D01*
X1255063Y1174161D01*
X1255188Y1173614D01*
X1255373Y1173084D01*
X1255617Y1172578D01*
X1255916Y1172102D01*
X1256266Y1171663D01*
X1256663Y1171266D01*
X1257102Y1170916D01*
X1257578Y1170617D01*
X1258084Y1170373D01*
X1258614Y1170188D01*
X1259161Y1170063D01*
X1259719Y1170000D01*
X1260281D01*
X1260839Y1170063D01*
X1261386Y1170188D01*
X1261916Y1170373D01*
X1262422Y1170617D01*
X1262898Y1170916D01*
X1263337Y1171266D01*
X1263734Y1171663D01*
X1264084Y1172102D01*
X1264296Y1172439D01*
X1265000Y1172569D01*
X1265704Y1172439D01*
X1265916Y1172102D01*
X1266266Y1171663D01*
X1266663Y1171266D01*
X1267102Y1170916D01*
X1267578Y1170617D01*
X1268084Y1170373D01*
X1268614Y1170188D01*
X1269161Y1170063D01*
X1269719Y1170000D01*
X1270281D01*
X1270839Y1170063D01*
X1271386Y1170188D01*
X1271916Y1170373D01*
X1272422Y1170617D01*
X1272898Y1170916D01*
X1273337Y1171266D01*
X1273734Y1171663D01*
X1274084Y1172102D01*
X1274383Y1172578D01*
X1274627Y1173084D01*
X1274812Y1173614D01*
X1274937Y1174161D01*
X1275000Y1174719D01*
Y1175281D01*
X1274937Y1175839D01*
X1274812Y1176386D01*
X1274627Y1176916D01*
X1274383Y1177422D01*
X1274084Y1177898D01*
X1273734Y1178337D01*
X1273337Y1178734D01*
X1272898Y1179084D01*
X1272561Y1179296D01*
X1272431Y1180000D01*
X1272561Y1180704D01*
X1272898Y1180916D01*
X1273337Y1181266D01*
X1273734Y1181663D01*
X1274084Y1182102D01*
X1274383Y1182578D01*
X1274627Y1183084D01*
X1274812Y1183614D01*
X1274937Y1184161D01*
X1275000Y1184719D01*
Y1185281D01*
X1274937Y1185839D01*
X1274812Y1186386D01*
X1274627Y1186916D01*
X1274383Y1187422D01*
X1274084Y1187898D01*
X1273734Y1188337D01*
X1273337Y1188734D01*
X1272898Y1189084D01*
X1272422Y1189383D01*
X1271916Y1189627D01*
X1271386Y1189812D01*
X1270839Y1189937D01*
X1270281Y1190000D01*
D02*
G37*
G36*
X867584Y1185634D02*
X867023D01*
X866465Y1185571D01*
X865917Y1185446D01*
X865387Y1185261D01*
X864881Y1185017D01*
X864406Y1184718D01*
X863967Y1184368D01*
X863569Y1183971D01*
X863219Y1183532D01*
X862921Y1183056D01*
X862677Y1182550D01*
X862491Y1182020D01*
X862366Y1181473D01*
X862303Y1180915D01*
Y1180353D01*
X862366Y1179795D01*
X862491Y1179248D01*
X862677Y1178717D01*
X862921Y1178212D01*
X863219Y1177736D01*
X863569Y1177297D01*
X863967Y1176900D01*
X864406Y1176550D01*
X864881Y1176251D01*
X865387Y1176007D01*
X865917Y1175822D01*
X866465Y1175697D01*
X867023Y1175634D01*
X867584D01*
X868142Y1175697D01*
X868690Y1175822D01*
X869220Y1176007D01*
X869726Y1176251D01*
X870201Y1176550D01*
X870640Y1176900D01*
X871038Y1177297D01*
X871388Y1177736D01*
X871686Y1178212D01*
X871930Y1178717D01*
X872116Y1179248D01*
X872241Y1179795D01*
X872303Y1180353D01*
Y1180915D01*
X872241Y1181473D01*
X872116Y1182020D01*
X871930Y1182550D01*
X871686Y1183056D01*
X871388Y1183532D01*
X871038Y1183971D01*
X870640Y1184368D01*
X870201Y1184718D01*
X869726Y1185017D01*
X869220Y1185261D01*
X868690Y1185446D01*
X868142Y1185571D01*
X867584Y1185634D01*
D02*
G37*
G36*
X848035Y1176406D02*
X847473D01*
X846915Y1176343D01*
X846368Y1176218D01*
X845838Y1176032D01*
X845332Y1175789D01*
X844856Y1175490D01*
X844417Y1175140D01*
X844020Y1174743D01*
X843670Y1174304D01*
X843371Y1173828D01*
X843128Y1173322D01*
X842942Y1172792D01*
X842817Y1172244D01*
X842754Y1171686D01*
Y1171125D01*
X842817Y1170567D01*
X842942Y1170019D01*
X843128Y1169489D01*
X843371Y1168983D01*
X843670Y1168508D01*
X844020Y1168069D01*
X844417Y1167672D01*
X844856Y1167321D01*
X845332Y1167023D01*
X845838Y1166779D01*
X846368Y1166593D01*
X846915Y1166469D01*
X847473Y1166406D01*
X848035D01*
X848593Y1166469D01*
X849141Y1166593D01*
X849671Y1166779D01*
X850177Y1167023D01*
X850652Y1167321D01*
X851091Y1167672D01*
X851488Y1168069D01*
X851838Y1168508D01*
X852137Y1168983D01*
X852381Y1169489D01*
X852566Y1170019D01*
X852691Y1170567D01*
X852754Y1171125D01*
Y1171686D01*
X852691Y1172244D01*
X852566Y1172792D01*
X852381Y1173322D01*
X852137Y1173828D01*
X851838Y1174304D01*
X851488Y1174743D01*
X851091Y1175140D01*
X850652Y1175490D01*
X850177Y1175789D01*
X849671Y1176032D01*
X849141Y1176218D01*
X848593Y1176343D01*
X848035Y1176406D01*
D02*
G37*
G36*
X1365256Y1172494D02*
X1363526D01*
X1362781Y1172461D01*
X1362042Y1172364D01*
X1361314Y1172203D01*
X1360603Y1171979D01*
X1359914Y1171693D01*
X1359252Y1171349D01*
X1358623Y1170948D01*
X1358032Y1170494D01*
X1357482Y1169990D01*
X1356978Y1169441D01*
X1356524Y1168849D01*
X1356124Y1168220D01*
X1355779Y1167559D01*
X1355494Y1166870D01*
X1355269Y1166158D01*
X1355108Y1165430D01*
X1355080Y1165216D01*
X1365256D01*
Y1172494D01*
D02*
G37*
G36*
X1330052Y1184086D02*
X1329401D01*
X1328755Y1184013D01*
X1328121Y1183868D01*
X1327507Y1183654D01*
X1326921Y1183372D01*
X1326371Y1183026D01*
X1325862Y1182620D01*
X1325402Y1182160D01*
X1324997Y1181652D01*
X1324651Y1181101D01*
X1324369Y1180515D01*
X1324154Y1179901D01*
X1324009Y1179267D01*
X1323936Y1178621D01*
Y1177971D01*
X1324009Y1177325D01*
X1324154Y1176691D01*
X1324369Y1176077D01*
X1324651Y1175491D01*
X1324997Y1174940D01*
X1325402Y1174432D01*
X1325862Y1173972D01*
X1326148Y1173744D01*
X1326005Y1172957D01*
X1325996Y1172942D01*
Y1165216D01*
X1338673D01*
X1338645Y1165430D01*
X1338483Y1166158D01*
X1338259Y1166870D01*
X1337974Y1167559D01*
X1337629Y1168220D01*
X1337229Y1168849D01*
X1336775Y1169441D01*
X1336271Y1169990D01*
X1335721Y1170494D01*
X1335129Y1170948D01*
X1334500Y1171349D01*
X1333839Y1171693D01*
X1333150Y1171979D01*
X1332959Y1172039D01*
X1332794Y1172494D01*
X1332808Y1173394D01*
X1333082Y1173566D01*
X1333591Y1173972D01*
X1334050Y1174432D01*
X1334456Y1174940D01*
X1334802Y1175491D01*
X1335084Y1176077D01*
X1335299Y1176691D01*
X1335444Y1177325D01*
X1335516Y1177971D01*
Y1178621D01*
X1335444Y1179267D01*
X1335299Y1179901D01*
X1335084Y1180515D01*
X1334802Y1181101D01*
X1334456Y1181652D01*
X1334050Y1182160D01*
X1333591Y1182620D01*
X1333082Y1183026D01*
X1332531Y1183372D01*
X1331946Y1183654D01*
X1331332Y1183868D01*
X1330698Y1184013D01*
X1330052Y1184086D01*
D02*
G37*
G36*
X1323456Y1172494D02*
X1319226D01*
X1318481Y1172461D01*
X1317742Y1172364D01*
X1317014Y1172203D01*
X1316303Y1171979D01*
X1315614Y1171693D01*
X1314952Y1171349D01*
X1314323Y1170948D01*
X1313732Y1170494D01*
X1313182Y1169990D01*
X1312678Y1169441D01*
X1312224Y1168849D01*
X1311823Y1168220D01*
X1311479Y1167559D01*
X1311194Y1166870D01*
X1310970Y1166158D01*
X1310808Y1165430D01*
X1310780Y1165216D01*
X1323456D01*
Y1172494D01*
D02*
G37*
G36*
X1365256Y1162676D02*
X1355080D01*
X1355108Y1162462D01*
X1355269Y1161733D01*
X1355494Y1161022D01*
X1355779Y1160333D01*
X1356124Y1159672D01*
X1356524Y1159043D01*
X1356978Y1158451D01*
X1357482Y1157902D01*
X1358032Y1157398D01*
X1358623Y1156944D01*
X1359252Y1156543D01*
X1359914Y1156199D01*
X1360603Y1155913D01*
X1361314Y1155689D01*
X1362042Y1155528D01*
X1362781Y1155430D01*
X1363526Y1155398D01*
X1365256D01*
Y1162676D01*
D02*
G37*
G36*
X1338673Y1162676D02*
X1325996D01*
Y1155398D01*
X1330226D01*
X1330971Y1155430D01*
X1331711Y1155528D01*
X1332439Y1155689D01*
X1333150Y1155913D01*
X1333839Y1156199D01*
X1334500Y1156543D01*
X1335129Y1156944D01*
X1335721Y1157398D01*
X1336271Y1157902D01*
X1336775Y1158451D01*
X1337229Y1159043D01*
X1337629Y1159672D01*
X1337974Y1160333D01*
X1338259Y1161022D01*
X1338483Y1161733D01*
X1338645Y1162462D01*
X1338673Y1162676D01*
D02*
G37*
G36*
X1323456D02*
X1310780D01*
X1310808Y1162462D01*
X1310970Y1161733D01*
X1311194Y1161022D01*
X1311479Y1160333D01*
X1311823Y1159672D01*
X1312224Y1159043D01*
X1312678Y1158451D01*
X1313182Y1157902D01*
X1313732Y1157398D01*
X1314323Y1156944D01*
X1314952Y1156543D01*
X1315614Y1156199D01*
X1316303Y1155913D01*
X1317014Y1155689D01*
X1317742Y1155528D01*
X1318481Y1155430D01*
X1319226Y1155398D01*
X1323456D01*
Y1162676D01*
D02*
G37*
G36*
X717781Y1130000D02*
X717219D01*
X716661Y1129937D01*
X716114Y1129812D01*
X715584Y1129627D01*
X715078Y1129383D01*
X714602Y1129084D01*
X714163Y1128734D01*
X713766Y1128337D01*
X713416Y1127898D01*
X713204Y1127561D01*
X712500Y1127431D01*
X711796Y1127561D01*
X711584Y1127898D01*
X711234Y1128337D01*
X710837Y1128734D01*
X710398Y1129084D01*
X709922Y1129383D01*
X709416Y1129627D01*
X708886Y1129812D01*
X708339Y1129937D01*
X707781Y1130000D01*
X707219D01*
X706661Y1129937D01*
X706114Y1129812D01*
X705584Y1129627D01*
X705078Y1129383D01*
X704602Y1129084D01*
X704163Y1128734D01*
X703766Y1128337D01*
X703416Y1127898D01*
X703117Y1127422D01*
X702873Y1126916D01*
X702688Y1126386D01*
X702563Y1125839D01*
X702500Y1125281D01*
Y1124719D01*
X702563Y1124161D01*
X702688Y1123614D01*
X702873Y1123084D01*
X703117Y1122578D01*
X703416Y1122102D01*
X703766Y1121663D01*
X704163Y1121266D01*
X704602Y1120916D01*
X704939Y1120704D01*
X705069Y1120000D01*
X704939Y1119296D01*
X704602Y1119084D01*
X704163Y1118734D01*
X703766Y1118337D01*
X703416Y1117898D01*
X703117Y1117422D01*
X702873Y1116916D01*
X702688Y1116386D01*
X702563Y1115839D01*
X702500Y1115281D01*
Y1114719D01*
X702563Y1114161D01*
X702688Y1113614D01*
X702873Y1113084D01*
X703117Y1112578D01*
X703416Y1112102D01*
X703766Y1111663D01*
X704163Y1111266D01*
X704602Y1110916D01*
X705078Y1110617D01*
X705584Y1110373D01*
X706114Y1110188D01*
X706661Y1110063D01*
X707219Y1110000D01*
X707781D01*
X708339Y1110063D01*
X708886Y1110188D01*
X709416Y1110373D01*
X709922Y1110617D01*
X710398Y1110916D01*
X710837Y1111266D01*
X711234Y1111663D01*
X711584Y1112102D01*
X711796Y1112439D01*
X712500Y1112569D01*
X713204Y1112439D01*
X713416Y1112102D01*
X713766Y1111663D01*
X714163Y1111266D01*
X714602Y1110916D01*
X715078Y1110617D01*
X715584Y1110373D01*
X716114Y1110188D01*
X716661Y1110063D01*
X717219Y1110000D01*
X717781D01*
X718339Y1110063D01*
X718886Y1110188D01*
X719416Y1110373D01*
X719922Y1110617D01*
X720398Y1110916D01*
X720837Y1111266D01*
X721234Y1111663D01*
X721584Y1112102D01*
X721883Y1112578D01*
X722127Y1113084D01*
X722312Y1113614D01*
X722437Y1114161D01*
X722500Y1114719D01*
Y1115281D01*
X722437Y1115839D01*
X722312Y1116386D01*
X722127Y1116916D01*
X721883Y1117422D01*
X721584Y1117898D01*
X721234Y1118337D01*
X720837Y1118734D01*
X720398Y1119084D01*
X720061Y1119296D01*
X719931Y1120000D01*
X720061Y1120704D01*
X720398Y1120916D01*
X720837Y1121266D01*
X721234Y1121663D01*
X721584Y1122102D01*
X721883Y1122578D01*
X722127Y1123084D01*
X722312Y1123614D01*
X722437Y1124161D01*
X722500Y1124719D01*
Y1125281D01*
X722437Y1125839D01*
X722312Y1126386D01*
X722127Y1126916D01*
X721883Y1127422D01*
X721584Y1127898D01*
X721234Y1128337D01*
X720837Y1128734D01*
X720398Y1129084D01*
X719922Y1129383D01*
X719416Y1129627D01*
X718886Y1129812D01*
X718339Y1129937D01*
X717781Y1130000D01*
D02*
G37*
G36*
X1202781D02*
X1202219D01*
X1201661Y1129937D01*
X1201114Y1129812D01*
X1200584Y1129627D01*
X1200078Y1129383D01*
X1199602Y1129084D01*
X1199163Y1128734D01*
X1198766Y1128337D01*
X1198416Y1127898D01*
X1198117Y1127422D01*
X1197873Y1126916D01*
X1197688Y1126386D01*
X1197563Y1125839D01*
X1197500Y1125281D01*
Y1124719D01*
X1197563Y1124161D01*
X1197688Y1123614D01*
X1197873Y1123084D01*
X1198117Y1122578D01*
X1198416Y1122102D01*
X1198766Y1121663D01*
X1199163Y1121266D01*
X1199602Y1120916D01*
X1200078Y1120617D01*
X1200584Y1120373D01*
X1201114Y1120188D01*
X1201661Y1120063D01*
X1202219Y1120000D01*
X1202781D01*
X1203339Y1120063D01*
X1203886Y1120188D01*
X1204416Y1120373D01*
X1204922Y1120617D01*
X1205398Y1120916D01*
X1205837Y1121266D01*
X1206234Y1121663D01*
X1206584Y1122102D01*
X1206883Y1122578D01*
X1207127Y1123084D01*
X1207312Y1123614D01*
X1207437Y1124161D01*
X1207500Y1124719D01*
Y1125281D01*
X1207437Y1125839D01*
X1207312Y1126386D01*
X1207127Y1126916D01*
X1206883Y1127422D01*
X1206584Y1127898D01*
X1206234Y1128337D01*
X1205837Y1128734D01*
X1205398Y1129084D01*
X1204922Y1129383D01*
X1204416Y1129627D01*
X1203886Y1129812D01*
X1203339Y1129937D01*
X1202781Y1130000D01*
D02*
G37*
G36*
X1326087Y1091450D02*
X1325213D01*
X1324344Y1091374D01*
X1323484Y1091222D01*
X1322640Y1090996D01*
X1321819Y1090698D01*
X1321028Y1090329D01*
X1320272Y1089892D01*
X1319557Y1089391D01*
X1318888Y1088830D01*
X1318270Y1088212D01*
X1317709Y1087543D01*
X1317208Y1086828D01*
X1316772Y1086072D01*
X1316402Y1085281D01*
X1316104Y1084460D01*
X1315878Y1083616D01*
X1315726Y1082757D01*
X1315650Y1081887D01*
Y1081013D01*
X1315726Y1080144D01*
X1315878Y1079284D01*
X1316104Y1078440D01*
X1316402Y1077619D01*
X1316772Y1076828D01*
X1317208Y1076072D01*
X1317709Y1075357D01*
X1318270Y1074688D01*
X1318888Y1074070D01*
X1319557Y1073509D01*
X1320272Y1073008D01*
X1321028Y1072571D01*
X1321819Y1072202D01*
X1322640Y1071904D01*
X1323484Y1071678D01*
X1324344Y1071526D01*
X1325213Y1071450D01*
X1326087D01*
X1326956Y1071526D01*
X1327816Y1071678D01*
X1328660Y1071904D01*
X1329480Y1072202D01*
X1330272Y1072571D01*
X1331028Y1073008D01*
X1331743Y1073509D01*
X1332412Y1074070D01*
X1333030Y1074688D01*
X1333591Y1075357D01*
X1334092Y1076072D01*
X1334529Y1076828D01*
X1334898Y1077619D01*
X1335196Y1078440D01*
X1335422Y1079284D01*
X1335574Y1080144D01*
X1335650Y1081013D01*
Y1081887D01*
X1335574Y1082757D01*
X1335422Y1083616D01*
X1335196Y1084460D01*
X1334898Y1085281D01*
X1334529Y1086072D01*
X1334092Y1086828D01*
X1333591Y1087543D01*
X1333030Y1088212D01*
X1332412Y1088830D01*
X1331743Y1089391D01*
X1331028Y1089892D01*
X1330272Y1090329D01*
X1329480Y1090698D01*
X1328660Y1090996D01*
X1327816Y1091222D01*
X1326956Y1091374D01*
X1326087Y1091450D01*
D02*
G37*
G36*
X1300687D02*
X1299813D01*
X1298943Y1091374D01*
X1298084Y1091222D01*
X1297240Y1090996D01*
X1296420Y1090698D01*
X1295628Y1090329D01*
X1294872Y1089892D01*
X1294157Y1089391D01*
X1293488Y1088830D01*
X1292870Y1088212D01*
X1292309Y1087543D01*
X1291808Y1086828D01*
X1291371Y1086072D01*
X1291002Y1085281D01*
X1290704Y1084460D01*
X1290478Y1083616D01*
X1290326Y1082757D01*
X1290250Y1081887D01*
Y1081013D01*
X1290326Y1080144D01*
X1290478Y1079284D01*
X1290704Y1078440D01*
X1291002Y1077619D01*
X1291371Y1076828D01*
X1291808Y1076072D01*
X1292309Y1075357D01*
X1292870Y1074688D01*
X1293488Y1074070D01*
X1294157Y1073509D01*
X1294872Y1073008D01*
X1295628Y1072571D01*
X1296420Y1072202D01*
X1297240Y1071904D01*
X1298084Y1071678D01*
X1298943Y1071526D01*
X1299813Y1071450D01*
X1300687D01*
X1301557Y1071526D01*
X1302416Y1071678D01*
X1303260Y1071904D01*
X1304081Y1072202D01*
X1304872Y1072571D01*
X1305628Y1073008D01*
X1306343Y1073509D01*
X1307012Y1074070D01*
X1307630Y1074688D01*
X1308191Y1075357D01*
X1308692Y1076072D01*
X1309129Y1076828D01*
X1309498Y1077619D01*
X1309796Y1078440D01*
X1310022Y1079284D01*
X1310174Y1080144D01*
X1310250Y1081013D01*
Y1081887D01*
X1310174Y1082757D01*
X1310022Y1083616D01*
X1309796Y1084460D01*
X1309498Y1085281D01*
X1309129Y1086072D01*
X1308692Y1086828D01*
X1308191Y1087543D01*
X1307630Y1088212D01*
X1307012Y1088830D01*
X1306343Y1089391D01*
X1305628Y1089892D01*
X1304872Y1090329D01*
X1304081Y1090698D01*
X1303260Y1090996D01*
X1302416Y1091222D01*
X1301557Y1091374D01*
X1300687Y1091450D01*
D02*
G37*
G36*
X814041Y1060594D02*
X813480D01*
X812921Y1060531D01*
X812374Y1060406D01*
X811844Y1060221D01*
X811338Y1059977D01*
X810862Y1059678D01*
X810423Y1059328D01*
X810026Y1058931D01*
X809676Y1058492D01*
X809377Y1058017D01*
X809134Y1057511D01*
X808948Y1056981D01*
X808823Y1056433D01*
X808760Y1055875D01*
Y1055313D01*
X808823Y1054755D01*
X808948Y1054208D01*
X809134Y1053678D01*
X809377Y1053172D01*
X809676Y1052696D01*
X810026Y1052257D01*
X810423Y1051860D01*
X810862Y1051510D01*
X811338Y1051211D01*
X811844Y1050968D01*
X812374Y1050782D01*
X812921Y1050657D01*
X813480Y1050594D01*
X814041D01*
X814599Y1050657D01*
X815147Y1050782D01*
X815677Y1050968D01*
X816183Y1051211D01*
X816658Y1051510D01*
X817097Y1051860D01*
X817494Y1052257D01*
X817844Y1052696D01*
X818143Y1053172D01*
X818387Y1053678D01*
X818572Y1054208D01*
X818697Y1054755D01*
X818760Y1055313D01*
Y1055875D01*
X818697Y1056433D01*
X818572Y1056981D01*
X818387Y1057511D01*
X818143Y1058017D01*
X817844Y1058492D01*
X817494Y1058931D01*
X817097Y1059328D01*
X816658Y1059678D01*
X816183Y1059977D01*
X815677Y1060221D01*
X815147Y1060406D01*
X814599Y1060531D01*
X814041Y1060594D01*
D02*
G37*
G36*
X1326087Y1066050D02*
X1325213D01*
X1324344Y1065974D01*
X1323484Y1065822D01*
X1322640Y1065596D01*
X1321819Y1065298D01*
X1321028Y1064929D01*
X1320272Y1064492D01*
X1319557Y1063991D01*
X1318888Y1063430D01*
X1318270Y1062812D01*
X1317709Y1062143D01*
X1317208Y1061428D01*
X1316772Y1060672D01*
X1316402Y1059881D01*
X1316104Y1059060D01*
X1315878Y1058216D01*
X1315726Y1057356D01*
X1315650Y1056487D01*
Y1055613D01*
X1315726Y1054743D01*
X1315878Y1053884D01*
X1316104Y1053040D01*
X1316402Y1052219D01*
X1316772Y1051428D01*
X1317208Y1050672D01*
X1317709Y1049957D01*
X1318270Y1049288D01*
X1318888Y1048670D01*
X1319557Y1048109D01*
X1320272Y1047608D01*
X1321028Y1047171D01*
X1321819Y1046802D01*
X1322640Y1046504D01*
X1323484Y1046278D01*
X1324344Y1046126D01*
X1325213Y1046050D01*
X1326087D01*
X1326956Y1046126D01*
X1327816Y1046278D01*
X1328660Y1046504D01*
X1329480Y1046802D01*
X1330272Y1047171D01*
X1331028Y1047608D01*
X1331743Y1048109D01*
X1332412Y1048670D01*
X1333030Y1049288D01*
X1333591Y1049957D01*
X1334092Y1050672D01*
X1334529Y1051428D01*
X1334898Y1052219D01*
X1335196Y1053040D01*
X1335422Y1053884D01*
X1335574Y1054743D01*
X1335650Y1055613D01*
Y1056487D01*
X1335574Y1057356D01*
X1335422Y1058216D01*
X1335196Y1059060D01*
X1334898Y1059881D01*
X1334529Y1060672D01*
X1334092Y1061428D01*
X1333591Y1062143D01*
X1333030Y1062812D01*
X1332412Y1063430D01*
X1331743Y1063991D01*
X1331028Y1064492D01*
X1330272Y1064929D01*
X1329480Y1065298D01*
X1328660Y1065596D01*
X1327816Y1065822D01*
X1326956Y1065974D01*
X1326087Y1066050D01*
D02*
G37*
G36*
X1300687D02*
X1299813D01*
X1298943Y1065974D01*
X1298084Y1065822D01*
X1297240Y1065596D01*
X1296420Y1065298D01*
X1295628Y1064929D01*
X1294872Y1064492D01*
X1294157Y1063991D01*
X1293488Y1063430D01*
X1292870Y1062812D01*
X1292309Y1062143D01*
X1291808Y1061428D01*
X1291371Y1060672D01*
X1291002Y1059881D01*
X1290704Y1059060D01*
X1290478Y1058216D01*
X1290326Y1057356D01*
X1290250Y1056487D01*
Y1055613D01*
X1290326Y1054743D01*
X1290478Y1053884D01*
X1290704Y1053040D01*
X1291002Y1052219D01*
X1291371Y1051428D01*
X1291808Y1050672D01*
X1292309Y1049957D01*
X1292870Y1049288D01*
X1293488Y1048670D01*
X1294157Y1048109D01*
X1294872Y1047608D01*
X1295628Y1047171D01*
X1296420Y1046802D01*
X1297240Y1046504D01*
X1298084Y1046278D01*
X1298943Y1046126D01*
X1299813Y1046050D01*
X1300687D01*
X1301557Y1046126D01*
X1302416Y1046278D01*
X1303260Y1046504D01*
X1304081Y1046802D01*
X1304872Y1047171D01*
X1305628Y1047608D01*
X1306343Y1048109D01*
X1307012Y1048670D01*
X1307630Y1049288D01*
X1308191Y1049957D01*
X1308692Y1050672D01*
X1309129Y1051428D01*
X1309498Y1052219D01*
X1309796Y1053040D01*
X1310022Y1053884D01*
X1310174Y1054743D01*
X1310250Y1055613D01*
Y1056487D01*
X1310174Y1057356D01*
X1310022Y1058216D01*
X1309796Y1059060D01*
X1309498Y1059881D01*
X1309129Y1060672D01*
X1308692Y1061428D01*
X1308191Y1062143D01*
X1307630Y1062812D01*
X1307012Y1063430D01*
X1306343Y1063991D01*
X1305628Y1064492D01*
X1304872Y1064929D01*
X1304081Y1065298D01*
X1303260Y1065596D01*
X1302416Y1065822D01*
X1301557Y1065974D01*
X1300687Y1066050D01*
D02*
G37*
G36*
X1326087Y1040650D02*
X1325213D01*
X1324344Y1040574D01*
X1323484Y1040422D01*
X1322640Y1040196D01*
X1321819Y1039898D01*
X1321028Y1039529D01*
X1320272Y1039092D01*
X1319557Y1038591D01*
X1318888Y1038030D01*
X1318270Y1037412D01*
X1317709Y1036743D01*
X1317208Y1036028D01*
X1316772Y1035272D01*
X1316402Y1034481D01*
X1316104Y1033660D01*
X1315878Y1032816D01*
X1315726Y1031956D01*
X1315650Y1031087D01*
Y1030213D01*
X1315726Y1029343D01*
X1315878Y1028484D01*
X1316104Y1027640D01*
X1316402Y1026820D01*
X1316772Y1026028D01*
X1317208Y1025272D01*
X1317709Y1024557D01*
X1318270Y1023888D01*
X1318888Y1023270D01*
X1319557Y1022709D01*
X1320272Y1022208D01*
X1321028Y1021771D01*
X1321819Y1021402D01*
X1322640Y1021104D01*
X1323484Y1020878D01*
X1324344Y1020726D01*
X1325213Y1020650D01*
X1326087D01*
X1326956Y1020726D01*
X1327816Y1020878D01*
X1328660Y1021104D01*
X1329480Y1021402D01*
X1330272Y1021771D01*
X1331028Y1022208D01*
X1331743Y1022709D01*
X1332412Y1023270D01*
X1333030Y1023888D01*
X1333591Y1024557D01*
X1334092Y1025272D01*
X1334529Y1026028D01*
X1334898Y1026820D01*
X1335196Y1027640D01*
X1335422Y1028484D01*
X1335574Y1029343D01*
X1335650Y1030213D01*
Y1031087D01*
X1335574Y1031956D01*
X1335422Y1032816D01*
X1335196Y1033660D01*
X1334898Y1034481D01*
X1334529Y1035272D01*
X1334092Y1036028D01*
X1333591Y1036743D01*
X1333030Y1037412D01*
X1332412Y1038030D01*
X1331743Y1038591D01*
X1331028Y1039092D01*
X1330272Y1039529D01*
X1329480Y1039898D01*
X1328660Y1040196D01*
X1327816Y1040422D01*
X1326956Y1040574D01*
X1326087Y1040650D01*
D02*
G37*
G36*
X1300687D02*
X1299813D01*
X1298943Y1040574D01*
X1298084Y1040422D01*
X1297240Y1040196D01*
X1296420Y1039898D01*
X1295628Y1039529D01*
X1294872Y1039092D01*
X1294157Y1038591D01*
X1293488Y1038030D01*
X1292870Y1037412D01*
X1292309Y1036743D01*
X1291808Y1036028D01*
X1291371Y1035272D01*
X1291002Y1034481D01*
X1290704Y1033660D01*
X1290478Y1032816D01*
X1290326Y1031956D01*
X1290250Y1031087D01*
Y1030213D01*
X1290326Y1029343D01*
X1290478Y1028484D01*
X1290704Y1027640D01*
X1291002Y1026820D01*
X1291371Y1026028D01*
X1291808Y1025272D01*
X1292309Y1024557D01*
X1292870Y1023888D01*
X1293488Y1023270D01*
X1294157Y1022709D01*
X1294872Y1022208D01*
X1295628Y1021771D01*
X1296420Y1021402D01*
X1297240Y1021104D01*
X1298084Y1020878D01*
X1298943Y1020726D01*
X1299813Y1020650D01*
X1300687D01*
X1301557Y1020726D01*
X1302416Y1020878D01*
X1303260Y1021104D01*
X1304081Y1021402D01*
X1304872Y1021771D01*
X1305628Y1022208D01*
X1306343Y1022709D01*
X1307012Y1023270D01*
X1307630Y1023888D01*
X1308191Y1024557D01*
X1308692Y1025272D01*
X1309129Y1026028D01*
X1309498Y1026820D01*
X1309796Y1027640D01*
X1310022Y1028484D01*
X1310174Y1029343D01*
X1310250Y1030213D01*
Y1031087D01*
X1310174Y1031956D01*
X1310022Y1032816D01*
X1309796Y1033660D01*
X1309498Y1034481D01*
X1309129Y1035272D01*
X1308692Y1036028D01*
X1308191Y1036743D01*
X1307630Y1037412D01*
X1307012Y1038030D01*
X1306343Y1038591D01*
X1305628Y1039092D01*
X1304872Y1039529D01*
X1304081Y1039898D01*
X1303260Y1040196D01*
X1302416Y1040422D01*
X1301557Y1040574D01*
X1300687Y1040650D01*
D02*
G37*
G36*
X1326087Y1015250D02*
X1325213D01*
X1324344Y1015174D01*
X1323484Y1015022D01*
X1322640Y1014796D01*
X1321819Y1014498D01*
X1321028Y1014129D01*
X1320272Y1013692D01*
X1319557Y1013191D01*
X1318888Y1012630D01*
X1318270Y1012012D01*
X1317709Y1011343D01*
X1317208Y1010628D01*
X1316772Y1009872D01*
X1316402Y1009081D01*
X1316104Y1008260D01*
X1315878Y1007417D01*
X1315726Y1006556D01*
X1315650Y1005687D01*
Y1004813D01*
X1315726Y1003943D01*
X1315878Y1003084D01*
X1316104Y1002240D01*
X1316402Y1001420D01*
X1316772Y1000628D01*
X1317208Y999872D01*
X1317709Y999157D01*
X1318270Y998488D01*
X1318888Y997870D01*
X1319557Y997309D01*
X1320272Y996808D01*
X1321028Y996372D01*
X1321819Y996002D01*
X1322640Y995704D01*
X1323484Y995478D01*
X1324344Y995326D01*
X1325213Y995250D01*
X1326087D01*
X1326956Y995326D01*
X1327816Y995478D01*
X1328660Y995704D01*
X1329480Y996002D01*
X1330272Y996372D01*
X1331028Y996808D01*
X1331743Y997309D01*
X1332412Y997870D01*
X1333030Y998488D01*
X1333591Y999157D01*
X1334092Y999872D01*
X1334529Y1000628D01*
X1334898Y1001420D01*
X1335196Y1002240D01*
X1335422Y1003084D01*
X1335574Y1003943D01*
X1335650Y1004813D01*
Y1005687D01*
X1335574Y1006556D01*
X1335422Y1007417D01*
X1335196Y1008260D01*
X1334898Y1009081D01*
X1334529Y1009872D01*
X1334092Y1010628D01*
X1333591Y1011343D01*
X1333030Y1012012D01*
X1332412Y1012630D01*
X1331743Y1013191D01*
X1331028Y1013692D01*
X1330272Y1014129D01*
X1329480Y1014498D01*
X1328660Y1014796D01*
X1327816Y1015022D01*
X1326956Y1015174D01*
X1326087Y1015250D01*
D02*
G37*
G36*
X1300687D02*
X1299813D01*
X1298943Y1015174D01*
X1298084Y1015022D01*
X1297240Y1014796D01*
X1296420Y1014498D01*
X1295628Y1014129D01*
X1294872Y1013692D01*
X1294157Y1013191D01*
X1293488Y1012630D01*
X1292870Y1012012D01*
X1292309Y1011343D01*
X1291808Y1010628D01*
X1291371Y1009872D01*
X1291002Y1009081D01*
X1290704Y1008260D01*
X1290478Y1007417D01*
X1290326Y1006556D01*
X1290250Y1005687D01*
Y1004813D01*
X1290326Y1003943D01*
X1290478Y1003084D01*
X1290704Y1002240D01*
X1291002Y1001420D01*
X1291371Y1000628D01*
X1291808Y999872D01*
X1292309Y999157D01*
X1292870Y998488D01*
X1293488Y997870D01*
X1294157Y997309D01*
X1294872Y996808D01*
X1295628Y996372D01*
X1296420Y996002D01*
X1297240Y995704D01*
X1298084Y995478D01*
X1298943Y995326D01*
X1299813Y995250D01*
X1300687D01*
X1301557Y995326D01*
X1302416Y995478D01*
X1303260Y995704D01*
X1304081Y996002D01*
X1304872Y996372D01*
X1305628Y996808D01*
X1306343Y997309D01*
X1307012Y997870D01*
X1307630Y998488D01*
X1308191Y999157D01*
X1308692Y999872D01*
X1309129Y1000628D01*
X1309498Y1001420D01*
X1309796Y1002240D01*
X1310022Y1003084D01*
X1310174Y1003943D01*
X1310250Y1004813D01*
Y1005687D01*
X1310174Y1006556D01*
X1310022Y1007417D01*
X1309796Y1008260D01*
X1309498Y1009081D01*
X1309129Y1009872D01*
X1308692Y1010628D01*
X1308191Y1011343D01*
X1307630Y1012012D01*
X1307012Y1012630D01*
X1306343Y1013191D01*
X1305628Y1013692D01*
X1304872Y1014129D01*
X1304081Y1014498D01*
X1303260Y1014796D01*
X1302416Y1015022D01*
X1301557Y1015174D01*
X1300687Y1015250D01*
D02*
G37*
G36*
X775810Y991657D02*
X774937D01*
X774067Y991581D01*
X773207Y991429D01*
X772364Y991203D01*
X771543Y990904D01*
X770752Y990535D01*
X769995Y990099D01*
X769280Y989598D01*
X768611Y989037D01*
X767994Y988419D01*
X767432Y987750D01*
X766932Y987035D01*
X766495Y986279D01*
X766126Y985487D01*
X765827Y984667D01*
X765601Y983823D01*
X765450Y982963D01*
X765374Y982094D01*
Y981220D01*
X765450Y980350D01*
X765601Y979490D01*
X765827Y978647D01*
X766126Y977826D01*
X766495Y977035D01*
X766932Y976279D01*
X767432Y975564D01*
X767994Y974894D01*
X768611Y974277D01*
X769280Y973716D01*
X769995Y973215D01*
X770752Y972778D01*
X771543Y972409D01*
X772364Y972111D01*
X773207Y971885D01*
X774067Y971733D01*
X774937Y971657D01*
X775810D01*
X776680Y971733D01*
X777540Y971885D01*
X778383Y972111D01*
X779204Y972409D01*
X779995Y972778D01*
X780752Y973215D01*
X781467Y973716D01*
X782136Y974277D01*
X782753Y974894D01*
X783315Y975564D01*
X783815Y976279D01*
X784252Y977035D01*
X784621Y977826D01*
X784920Y978647D01*
X785146Y979490D01*
X785297Y980350D01*
X785374Y981220D01*
Y982094D01*
X785297Y982963D01*
X785146Y983823D01*
X784920Y984667D01*
X784621Y985487D01*
X784252Y986279D01*
X783815Y987035D01*
X783315Y987750D01*
X782753Y988419D01*
X782136Y989037D01*
X781467Y989598D01*
X780752Y990099D01*
X779995Y990535D01*
X779204Y990904D01*
X778383Y991203D01*
X777540Y991429D01*
X776680Y991581D01*
X775810Y991657D01*
D02*
G37*
G36*
X1335650Y989850D02*
X1315650D01*
Y969850D01*
X1335650D01*
Y989850D01*
D02*
G37*
G36*
X1300687D02*
X1299813D01*
X1298943Y989774D01*
X1298084Y989622D01*
X1297240Y989396D01*
X1296420Y989098D01*
X1295628Y988729D01*
X1294872Y988292D01*
X1294157Y987791D01*
X1293488Y987230D01*
X1292870Y986612D01*
X1292309Y985943D01*
X1291808Y985228D01*
X1291371Y984472D01*
X1291002Y983680D01*
X1290704Y982860D01*
X1290478Y982017D01*
X1290326Y981156D01*
X1290250Y980287D01*
Y979413D01*
X1290326Y978543D01*
X1290478Y977684D01*
X1290704Y976840D01*
X1291002Y976020D01*
X1291371Y975228D01*
X1291808Y974472D01*
X1292309Y973757D01*
X1292870Y973088D01*
X1293488Y972470D01*
X1294157Y971909D01*
X1294872Y971408D01*
X1295628Y970972D01*
X1296420Y970602D01*
X1297240Y970304D01*
X1298084Y970078D01*
X1298943Y969926D01*
X1299813Y969850D01*
X1300687D01*
X1301557Y969926D01*
X1302416Y970078D01*
X1303260Y970304D01*
X1304081Y970602D01*
X1304872Y970972D01*
X1305628Y971408D01*
X1306343Y971909D01*
X1307012Y972470D01*
X1307630Y973088D01*
X1308191Y973757D01*
X1308692Y974472D01*
X1309129Y975228D01*
X1309498Y976020D01*
X1309796Y976840D01*
X1310022Y977684D01*
X1310174Y978543D01*
X1310250Y979413D01*
Y980287D01*
X1310174Y981156D01*
X1310022Y982017D01*
X1309796Y982860D01*
X1309498Y983680D01*
X1309129Y984472D01*
X1308692Y985228D01*
X1308191Y985943D01*
X1307630Y986612D01*
X1307012Y987230D01*
X1306343Y987791D01*
X1305628Y988292D01*
X1304872Y988729D01*
X1304081Y989098D01*
X1303260Y989396D01*
X1302416Y989622D01*
X1301557Y989774D01*
X1300687Y989850D01*
D02*
G37*
G36*
X775837Y962000D02*
X774963D01*
X774093Y961924D01*
X773234Y961772D01*
X772390Y961546D01*
X771570Y961248D01*
X770778Y960879D01*
X770022Y960442D01*
X769307Y959941D01*
X768638Y959380D01*
X768020Y958762D01*
X767459Y958093D01*
X766958Y957378D01*
X766522Y956622D01*
X766152Y955831D01*
X765854Y955010D01*
X765628Y954166D01*
X765476Y953307D01*
X765400Y952437D01*
Y951563D01*
X765476Y950694D01*
X765628Y949834D01*
X765854Y948990D01*
X766152Y948169D01*
X766522Y947378D01*
X766958Y946622D01*
X767459Y945907D01*
X768020Y945238D01*
X768638Y944620D01*
X769307Y944059D01*
X770022Y943558D01*
X770778Y943121D01*
X771570Y942752D01*
X772390Y942454D01*
X773234Y942228D01*
X774093Y942076D01*
X774963Y942000D01*
X775837D01*
X776706Y942076D01*
X777566Y942228D01*
X778410Y942454D01*
X779230Y942752D01*
X780022Y943121D01*
X780778Y943558D01*
X781493Y944059D01*
X782162Y944620D01*
X782780Y945238D01*
X783341Y945907D01*
X783842Y946622D01*
X784278Y947378D01*
X784648Y948169D01*
X784946Y948990D01*
X785172Y949834D01*
X785324Y950694D01*
X785400Y951563D01*
Y952437D01*
X785324Y953307D01*
X785172Y954166D01*
X784946Y955010D01*
X784648Y955831D01*
X784278Y956622D01*
X783842Y957378D01*
X783341Y958093D01*
X782780Y958762D01*
X782162Y959380D01*
X781493Y959941D01*
X780778Y960442D01*
X780022Y960879D01*
X779230Y961248D01*
X778410Y961546D01*
X777566Y961772D01*
X776706Y961924D01*
X775837Y962000D01*
D02*
G37*
G36*
X1325837Y961600D02*
X1324963D01*
X1324093Y961524D01*
X1323233Y961372D01*
X1322390Y961146D01*
X1321570Y960848D01*
X1320778Y960479D01*
X1320022Y960042D01*
X1319307Y959541D01*
X1318638Y958980D01*
X1318020Y958362D01*
X1317459Y957693D01*
X1316958Y956978D01*
X1316521Y956222D01*
X1316152Y955431D01*
X1315854Y954610D01*
X1315628Y953766D01*
X1315476Y952906D01*
X1315400Y952037D01*
Y951163D01*
X1315476Y950294D01*
X1315628Y949434D01*
X1315854Y948590D01*
X1316152Y947769D01*
X1316521Y946978D01*
X1316958Y946222D01*
X1317459Y945507D01*
X1318020Y944838D01*
X1318638Y944220D01*
X1319307Y943659D01*
X1320022Y943158D01*
X1320778Y942721D01*
X1321570Y942352D01*
X1322390Y942054D01*
X1323233Y941828D01*
X1324093Y941676D01*
X1324963Y941600D01*
X1325837D01*
X1326707Y941676D01*
X1327566Y941828D01*
X1328410Y942054D01*
X1329230Y942352D01*
X1330022Y942721D01*
X1330778Y943158D01*
X1331493Y943659D01*
X1332162Y944220D01*
X1332780Y944838D01*
X1333341Y945507D01*
X1333842Y946222D01*
X1334279Y946978D01*
X1334648Y947769D01*
X1334946Y948590D01*
X1335172Y949434D01*
X1335324Y950294D01*
X1335400Y951163D01*
Y952037D01*
X1335324Y952906D01*
X1335172Y953766D01*
X1334946Y954610D01*
X1334648Y955431D01*
X1334279Y956222D01*
X1333842Y956978D01*
X1333341Y957693D01*
X1332780Y958362D01*
X1332162Y958980D01*
X1331493Y959541D01*
X1330778Y960042D01*
X1330022Y960479D01*
X1329230Y960848D01*
X1328410Y961146D01*
X1327566Y961372D01*
X1326707Y961524D01*
X1325837Y961600D01*
D02*
G37*
G36*
X1300437D02*
X1299563D01*
X1298694Y961524D01*
X1297834Y961372D01*
X1296990Y961146D01*
X1296169Y960848D01*
X1295378Y960479D01*
X1294622Y960042D01*
X1293907Y959541D01*
X1293238Y958980D01*
X1292620Y958362D01*
X1292059Y957693D01*
X1291558Y956978D01*
X1291121Y956222D01*
X1290752Y955431D01*
X1290454Y954610D01*
X1290228Y953766D01*
X1290076Y952906D01*
X1290000Y952037D01*
Y951163D01*
X1290076Y950294D01*
X1290228Y949434D01*
X1290454Y948590D01*
X1290752Y947769D01*
X1291121Y946978D01*
X1291558Y946222D01*
X1292059Y945507D01*
X1292620Y944838D01*
X1293238Y944220D01*
X1293907Y943659D01*
X1294622Y943158D01*
X1295378Y942721D01*
X1296169Y942352D01*
X1296990Y942054D01*
X1297834Y941828D01*
X1298694Y941676D01*
X1299563Y941600D01*
X1300437D01*
X1301306Y941676D01*
X1302166Y941828D01*
X1303010Y942054D01*
X1303831Y942352D01*
X1304622Y942721D01*
X1305378Y943158D01*
X1306093Y943659D01*
X1306762Y944220D01*
X1307380Y944838D01*
X1307941Y945507D01*
X1308442Y946222D01*
X1308878Y946978D01*
X1309248Y947769D01*
X1309546Y948590D01*
X1309772Y949434D01*
X1309924Y950294D01*
X1310000Y951163D01*
Y952037D01*
X1309924Y952906D01*
X1309772Y953766D01*
X1309546Y954610D01*
X1309248Y955431D01*
X1308878Y956222D01*
X1308442Y956978D01*
X1307941Y957693D01*
X1307380Y958362D01*
X1306762Y958980D01*
X1306093Y959541D01*
X1305378Y960042D01*
X1304622Y960479D01*
X1303831Y960848D01*
X1303010Y961146D01*
X1302166Y961372D01*
X1301306Y961524D01*
X1300437Y961600D01*
D02*
G37*
G36*
X775837Y936600D02*
X774963D01*
X774093Y936524D01*
X773234Y936372D01*
X772390Y936146D01*
X771570Y935848D01*
X770778Y935479D01*
X770022Y935042D01*
X769307Y934541D01*
X768638Y933980D01*
X768020Y933362D01*
X767459Y932693D01*
X766958Y931978D01*
X766522Y931222D01*
X766152Y930431D01*
X765854Y929610D01*
X765628Y928766D01*
X765476Y927906D01*
X765400Y927037D01*
Y926163D01*
X765476Y925294D01*
X765628Y924434D01*
X765854Y923590D01*
X766152Y922769D01*
X766522Y921978D01*
X766958Y921222D01*
X767459Y920507D01*
X768020Y919838D01*
X768638Y919220D01*
X769307Y918659D01*
X770022Y918158D01*
X770778Y917721D01*
X771570Y917352D01*
X772390Y917054D01*
X773234Y916828D01*
X774093Y916676D01*
X774963Y916600D01*
X775837D01*
X776706Y916676D01*
X777566Y916828D01*
X778410Y917054D01*
X779230Y917352D01*
X780022Y917721D01*
X780778Y918158D01*
X781493Y918659D01*
X782162Y919220D01*
X782780Y919838D01*
X783341Y920507D01*
X783842Y921222D01*
X784278Y921978D01*
X784648Y922769D01*
X784946Y923590D01*
X785172Y924434D01*
X785324Y925294D01*
X785400Y926163D01*
Y927037D01*
X785324Y927906D01*
X785172Y928766D01*
X784946Y929610D01*
X784648Y930431D01*
X784278Y931222D01*
X783842Y931978D01*
X783341Y932693D01*
X782780Y933362D01*
X782162Y933980D01*
X781493Y934541D01*
X780778Y935042D01*
X780022Y935479D01*
X779230Y935848D01*
X778410Y936146D01*
X777566Y936372D01*
X776706Y936524D01*
X775837Y936600D01*
D02*
G37*
G36*
X1325837Y936200D02*
X1324963D01*
X1324093Y936124D01*
X1323233Y935972D01*
X1322390Y935746D01*
X1321570Y935448D01*
X1320778Y935079D01*
X1320022Y934642D01*
X1319307Y934141D01*
X1318638Y933580D01*
X1318020Y932962D01*
X1317459Y932293D01*
X1316958Y931578D01*
X1316521Y930822D01*
X1316152Y930031D01*
X1315854Y929210D01*
X1315628Y928366D01*
X1315476Y927506D01*
X1315400Y926637D01*
Y925763D01*
X1315476Y924893D01*
X1315628Y924034D01*
X1315854Y923190D01*
X1316152Y922370D01*
X1316521Y921578D01*
X1316958Y920822D01*
X1317459Y920107D01*
X1318020Y919438D01*
X1318638Y918820D01*
X1319307Y918259D01*
X1320022Y917758D01*
X1320778Y917321D01*
X1321570Y916952D01*
X1322390Y916654D01*
X1323233Y916428D01*
X1324093Y916276D01*
X1324963Y916200D01*
X1325837D01*
X1326707Y916276D01*
X1327566Y916428D01*
X1328410Y916654D01*
X1329230Y916952D01*
X1330022Y917321D01*
X1330778Y917758D01*
X1331493Y918259D01*
X1332162Y918820D01*
X1332780Y919438D01*
X1333341Y920107D01*
X1333842Y920822D01*
X1334279Y921578D01*
X1334648Y922370D01*
X1334946Y923190D01*
X1335172Y924034D01*
X1335324Y924893D01*
X1335400Y925763D01*
Y926637D01*
X1335324Y927506D01*
X1335172Y928366D01*
X1334946Y929210D01*
X1334648Y930031D01*
X1334279Y930822D01*
X1333842Y931578D01*
X1333341Y932293D01*
X1332780Y932962D01*
X1332162Y933580D01*
X1331493Y934141D01*
X1330778Y934642D01*
X1330022Y935079D01*
X1329230Y935448D01*
X1328410Y935746D01*
X1327566Y935972D01*
X1326707Y936124D01*
X1325837Y936200D01*
D02*
G37*
G36*
X775837Y911200D02*
X774963D01*
X774093Y911124D01*
X773234Y910972D01*
X772390Y910746D01*
X771570Y910448D01*
X770778Y910079D01*
X770022Y909642D01*
X769307Y909141D01*
X768638Y908580D01*
X768020Y907962D01*
X767459Y907293D01*
X766958Y906578D01*
X766522Y905822D01*
X766152Y905031D01*
X765854Y904210D01*
X765628Y903366D01*
X765476Y902506D01*
X765400Y901637D01*
Y900763D01*
X765476Y899893D01*
X765628Y899034D01*
X765854Y898190D01*
X766152Y897370D01*
X766522Y896578D01*
X766958Y895822D01*
X767459Y895107D01*
X768020Y894438D01*
X768638Y893820D01*
X769307Y893259D01*
X770022Y892758D01*
X770778Y892321D01*
X771570Y891952D01*
X772390Y891654D01*
X773234Y891428D01*
X774093Y891276D01*
X774963Y891200D01*
X775837D01*
X776706Y891276D01*
X777566Y891428D01*
X778410Y891654D01*
X779230Y891952D01*
X780022Y892321D01*
X780778Y892758D01*
X781493Y893259D01*
X782162Y893820D01*
X782780Y894438D01*
X783341Y895107D01*
X783842Y895822D01*
X784278Y896578D01*
X784648Y897370D01*
X784946Y898190D01*
X785172Y899034D01*
X785324Y899893D01*
X785400Y900763D01*
Y901637D01*
X785324Y902506D01*
X785172Y903366D01*
X784946Y904210D01*
X784648Y905031D01*
X784278Y905822D01*
X783842Y906578D01*
X783341Y907293D01*
X782780Y907962D01*
X782162Y908580D01*
X781493Y909141D01*
X780778Y909642D01*
X780022Y910079D01*
X779230Y910448D01*
X778410Y910746D01*
X777566Y910972D01*
X776706Y911124D01*
X775837Y911200D01*
D02*
G37*
G36*
X1025400Y910000D02*
X1005400D01*
Y890000D01*
X1025400D01*
Y910000D01*
D02*
G37*
G36*
X990437D02*
X989563D01*
X988693Y909924D01*
X987834Y909772D01*
X986990Y909546D01*
X986170Y909248D01*
X985378Y908878D01*
X984622Y908442D01*
X983907Y907941D01*
X983238Y907380D01*
X982620Y906762D01*
X982059Y906093D01*
X981558Y905378D01*
X981122Y904622D01*
X980752Y903830D01*
X980454Y903010D01*
X980228Y902166D01*
X980076Y901307D01*
X980000Y900437D01*
Y899563D01*
X980076Y898693D01*
X980228Y897834D01*
X980454Y896990D01*
X980752Y896170D01*
X981122Y895378D01*
X981558Y894622D01*
X982059Y893907D01*
X982620Y893238D01*
X983238Y892620D01*
X983907Y892059D01*
X984622Y891558D01*
X985378Y891122D01*
X986170Y890752D01*
X986990Y890454D01*
X987834Y890228D01*
X988693Y890076D01*
X989563Y890000D01*
X990437D01*
X991307Y890076D01*
X992166Y890228D01*
X993010Y890454D01*
X993830Y890752D01*
X994622Y891122D01*
X995378Y891558D01*
X996093Y892059D01*
X996762Y892620D01*
X997380Y893238D01*
X997941Y893907D01*
X998442Y894622D01*
X998878Y895378D01*
X999248Y896170D01*
X999546Y896990D01*
X999772Y897834D01*
X999924Y898693D01*
X1000000Y899563D01*
Y900437D01*
X999924Y901307D01*
X999772Y902166D01*
X999546Y903010D01*
X999248Y903830D01*
X998878Y904622D01*
X998442Y905378D01*
X997941Y906093D01*
X997380Y906762D01*
X996762Y907380D01*
X996093Y907941D01*
X995378Y908442D01*
X994622Y908878D01*
X993830Y909248D01*
X993010Y909546D01*
X992166Y909772D01*
X991307Y909924D01*
X990437Y910000D01*
D02*
G37*
G36*
X965037D02*
X964163D01*
X963294Y909924D01*
X962434Y909772D01*
X961590Y909546D01*
X960770Y909248D01*
X959978Y908878D01*
X959222Y908442D01*
X958507Y907941D01*
X957838Y907380D01*
X957220Y906762D01*
X956659Y906093D01*
X956158Y905378D01*
X955722Y904622D01*
X955352Y903830D01*
X955054Y903010D01*
X954828Y902166D01*
X954676Y901307D01*
X954600Y900437D01*
Y899563D01*
X954676Y898693D01*
X954828Y897834D01*
X955054Y896990D01*
X955352Y896170D01*
X955722Y895378D01*
X956158Y894622D01*
X956659Y893907D01*
X957220Y893238D01*
X957838Y892620D01*
X958507Y892059D01*
X959222Y891558D01*
X959978Y891122D01*
X960770Y890752D01*
X961590Y890454D01*
X962434Y890228D01*
X963294Y890076D01*
X964163Y890000D01*
X965037D01*
X965907Y890076D01*
X966766Y890228D01*
X967610Y890454D01*
X968430Y890752D01*
X969222Y891122D01*
X969978Y891558D01*
X970693Y892059D01*
X971362Y892620D01*
X971980Y893238D01*
X972541Y893907D01*
X973042Y894622D01*
X973478Y895378D01*
X973848Y896170D01*
X974146Y896990D01*
X974372Y897834D01*
X974524Y898693D01*
X974600Y899563D01*
Y900437D01*
X974524Y901307D01*
X974372Y902166D01*
X974146Y903010D01*
X973848Y903830D01*
X973478Y904622D01*
X973042Y905378D01*
X972541Y906093D01*
X971980Y906762D01*
X971362Y907380D01*
X970693Y907941D01*
X969978Y908442D01*
X969222Y908878D01*
X968430Y909248D01*
X967610Y909546D01*
X966766Y909772D01*
X965907Y909924D01*
X965037Y910000D01*
D02*
G37*
G36*
X970281Y842500D02*
X969719D01*
X969161Y842437D01*
X968614Y842312D01*
X968084Y842127D01*
X967578Y841883D01*
X967102Y841584D01*
X966663Y841234D01*
X966266Y840837D01*
X965916Y840398D01*
X965617Y839922D01*
X965373Y839416D01*
X965188Y838886D01*
X965063Y838339D01*
X965000Y837781D01*
Y837219D01*
X965063Y836661D01*
X965188Y836114D01*
X965373Y835584D01*
X965617Y835078D01*
X965916Y834602D01*
X966266Y834163D01*
X966663Y833766D01*
X967102Y833416D01*
X967578Y833117D01*
X968084Y832873D01*
X968614Y832688D01*
X969161Y832563D01*
X969719Y832500D01*
X970281D01*
X970839Y832563D01*
X971386Y832688D01*
X971916Y832873D01*
X972422Y833117D01*
X972898Y833416D01*
X973337Y833766D01*
X973734Y834163D01*
X974084Y834602D01*
X974383Y835078D01*
X974627Y835584D01*
X974812Y836114D01*
X974937Y836661D01*
X975000Y837219D01*
Y837781D01*
X974937Y838339D01*
X974812Y838886D01*
X974627Y839416D01*
X974383Y839922D01*
X974084Y840398D01*
X973734Y840837D01*
X973337Y841234D01*
X972898Y841584D01*
X972422Y841883D01*
X971916Y842127D01*
X971386Y842312D01*
X970839Y842437D01*
X970281Y842500D01*
D02*
G37*
G36*
X972781Y807500D02*
X972219D01*
X971661Y807437D01*
X971114Y807312D01*
X970584Y807127D01*
X970078Y806883D01*
X969602Y806584D01*
X969163Y806234D01*
X968750Y805852D01*
X968337Y806234D01*
X967898Y806584D01*
X967422Y806883D01*
X966916Y807127D01*
X966386Y807312D01*
X965839Y807437D01*
X965281Y807500D01*
X964719D01*
X964161Y807437D01*
X963614Y807312D01*
X963084Y807127D01*
X962578Y806883D01*
X962102Y806584D01*
X961663Y806234D01*
X961266Y805837D01*
X960916Y805398D01*
X960617Y804922D01*
X960373Y804416D01*
X960188Y803886D01*
X960063Y803339D01*
X960000Y802781D01*
Y802219D01*
X960063Y801661D01*
X960188Y801114D01*
X960373Y800584D01*
X960617Y800078D01*
X960916Y799602D01*
X961266Y799163D01*
Y798337D01*
X960916Y797898D01*
X960617Y797422D01*
X960373Y796916D01*
X960188Y796386D01*
X960063Y795839D01*
X960000Y795281D01*
Y794719D01*
X960063Y794161D01*
X960188Y793614D01*
X960373Y793084D01*
X960617Y792578D01*
X960916Y792102D01*
X961266Y791663D01*
X961663Y791266D01*
X962102Y790916D01*
X962578Y790617D01*
X963084Y790373D01*
X963614Y790188D01*
X964161Y790063D01*
X964719Y790000D01*
X965281D01*
X965839Y790063D01*
X966386Y790188D01*
X966916Y790373D01*
X967422Y790617D01*
X967898Y790916D01*
X968337Y791266D01*
X968750Y791648D01*
X969163Y791266D01*
X969602Y790916D01*
X970078Y790617D01*
X970584Y790373D01*
X971114Y790188D01*
X971661Y790063D01*
X972219Y790000D01*
X972781D01*
X973339Y790063D01*
X973886Y790188D01*
X974416Y790373D01*
X974922Y790617D01*
X975398Y790916D01*
X975837Y791266D01*
X976234Y791663D01*
X976584Y792102D01*
X976883Y792578D01*
X977127Y793084D01*
X977312Y793614D01*
X977437Y794161D01*
X977500Y794719D01*
Y795281D01*
X977437Y795839D01*
X977312Y796386D01*
X977127Y796916D01*
X976883Y797422D01*
X976584Y797898D01*
X976234Y798337D01*
Y799163D01*
X976584Y799602D01*
X976883Y800078D01*
X977127Y800584D01*
X977312Y801114D01*
X977437Y801661D01*
X977500Y802219D01*
Y802781D01*
X977437Y803339D01*
X977312Y803886D01*
X977127Y804416D01*
X976883Y804922D01*
X976584Y805398D01*
X976234Y805837D01*
X975837Y806234D01*
X975398Y806584D01*
X974922Y806883D01*
X974416Y807127D01*
X973886Y807312D01*
X973339Y807437D01*
X972781Y807500D01*
D02*
G37*
G36*
X1055281Y755000D02*
X1054719D01*
X1054161Y754937D01*
X1053614Y754812D01*
X1053084Y754627D01*
X1052578Y754383D01*
X1052102Y754084D01*
X1051663Y753734D01*
X1051266Y753337D01*
X1050916Y752898D01*
X1050617Y752422D01*
X1050373Y751916D01*
X1050188Y751386D01*
X1050063Y750839D01*
X1050000Y750281D01*
Y749719D01*
X1050063Y749161D01*
X1050188Y748614D01*
X1050373Y748084D01*
X1050617Y747578D01*
X1050916Y747102D01*
X1051266Y746663D01*
X1051663Y746266D01*
X1052102Y745916D01*
X1052578Y745617D01*
X1053084Y745373D01*
X1053614Y745188D01*
X1054161Y745063D01*
X1054719Y745000D01*
X1055281D01*
X1055839Y745063D01*
X1056386Y745188D01*
X1056916Y745373D01*
X1057422Y745617D01*
X1057898Y745916D01*
X1058337Y746266D01*
X1058734Y746663D01*
X1059084Y747102D01*
X1059383Y747578D01*
X1059627Y748084D01*
X1059812Y748614D01*
X1059937Y749161D01*
X1060000Y749719D01*
Y750281D01*
X1059937Y750839D01*
X1059812Y751386D01*
X1059627Y751916D01*
X1059383Y752422D01*
X1059084Y752898D01*
X1058734Y753337D01*
X1058337Y753734D01*
X1057898Y754084D01*
X1057422Y754383D01*
X1056916Y754627D01*
X1056386Y754812D01*
X1055839Y754937D01*
X1055281Y755000D01*
D02*
G37*
G36*
X956655Y745682D02*
X956093D01*
X955535Y745619D01*
X954988Y745494D01*
X954458Y745308D01*
X953952Y745064D01*
X953476Y744766D01*
X953037Y744416D01*
X952640Y744018D01*
X952290Y743579D01*
X951991Y743104D01*
X951748Y742598D01*
X951562Y742068D01*
X951437Y741520D01*
X951374Y740962D01*
Y740401D01*
X951437Y739843D01*
X951562Y739295D01*
X951748Y738765D01*
X951991Y738259D01*
X952290Y737784D01*
X952640Y737345D01*
X953037Y736947D01*
X953476Y736597D01*
X953952Y736299D01*
X954458Y736055D01*
X954988Y735869D01*
X955535Y735744D01*
X956093Y735682D01*
X956655D01*
X957213Y735744D01*
X957761Y735869D01*
X958291Y736055D01*
X958797Y736299D01*
X959272Y736597D01*
X959711Y736947D01*
X960108Y737345D01*
X960458Y737784D01*
X960757Y738259D01*
X961001Y738765D01*
X961186Y739295D01*
X961311Y739843D01*
X961374Y740401D01*
Y740962D01*
X961311Y741520D01*
X961186Y742068D01*
X961001Y742598D01*
X960757Y743104D01*
X960458Y743579D01*
X960108Y744018D01*
X959711Y744416D01*
X959272Y744766D01*
X958797Y745064D01*
X958291Y745308D01*
X957761Y745494D01*
X957213Y745619D01*
X956655Y745682D01*
D02*
G37*
G36*
X875281Y742500D02*
X874719D01*
X874161Y742437D01*
X873614Y742312D01*
X873084Y742127D01*
X872578Y741883D01*
X872102Y741584D01*
X871663Y741234D01*
X871266Y740837D01*
X870916Y740398D01*
X870617Y739922D01*
X870373Y739416D01*
X870188Y738886D01*
X870063Y738339D01*
X870000Y737781D01*
Y737219D01*
X870063Y736661D01*
X870188Y736114D01*
X870373Y735584D01*
X870617Y735078D01*
X870916Y734602D01*
X871266Y734163D01*
X871663Y733766D01*
X872102Y733416D01*
X872578Y733117D01*
X873084Y732873D01*
X873614Y732688D01*
X874161Y732563D01*
X874719Y732500D01*
X875281D01*
X875839Y732563D01*
X876386Y732688D01*
X876916Y732873D01*
X877422Y733117D01*
X877898Y733416D01*
X878337Y733766D01*
X878734Y734163D01*
X879084Y734602D01*
X879383Y735078D01*
X879627Y735584D01*
X879812Y736114D01*
X879937Y736661D01*
X880000Y737219D01*
Y737781D01*
X879937Y738339D01*
X879812Y738886D01*
X879627Y739416D01*
X879383Y739922D01*
X879084Y740398D01*
X878734Y740837D01*
X878337Y741234D01*
X877898Y741584D01*
X877422Y741883D01*
X876916Y742127D01*
X876386Y742312D01*
X875839Y742437D01*
X875281Y742500D01*
D02*
G37*
G36*
X970281Y707500D02*
X969719D01*
X969161Y707437D01*
X968614Y707312D01*
X968084Y707127D01*
X967578Y706883D01*
X967102Y706584D01*
X966663Y706234D01*
X965837D01*
X965398Y706584D01*
X964922Y706883D01*
X964416Y707127D01*
X963886Y707312D01*
X963339Y707437D01*
X962781Y707500D01*
X962219D01*
X961661Y707437D01*
X961114Y707312D01*
X960584Y707127D01*
X960078Y706883D01*
X959602Y706584D01*
X959163Y706234D01*
X958766Y705837D01*
X958416Y705398D01*
X958117Y704922D01*
X957873Y704416D01*
X957688Y703886D01*
X957563Y703339D01*
X957500Y702781D01*
Y702219D01*
X957563Y701661D01*
X957688Y701114D01*
X957873Y700584D01*
X958117Y700078D01*
X958416Y699602D01*
X958766Y699163D01*
X959148Y698750D01*
X958766Y698337D01*
X958416Y697898D01*
X958117Y697422D01*
X957873Y696916D01*
X957688Y696386D01*
X957563Y695839D01*
X957500Y695281D01*
Y694719D01*
X957563Y694161D01*
X957688Y693614D01*
X957873Y693084D01*
X958117Y692578D01*
X958416Y692102D01*
X958766Y691663D01*
X959163Y691266D01*
X959602Y690916D01*
X960078Y690617D01*
X960584Y690373D01*
X961114Y690188D01*
X961661Y690063D01*
X962219Y690000D01*
X962781D01*
X963339Y690063D01*
X963886Y690188D01*
X964416Y690373D01*
X964922Y690617D01*
X965398Y690916D01*
X965837Y691266D01*
X966663D01*
X967102Y690916D01*
X967578Y690617D01*
X968084Y690373D01*
X968614Y690188D01*
X969161Y690063D01*
X969719Y690000D01*
X970281D01*
X970839Y690063D01*
X971386Y690188D01*
X971916Y690373D01*
X972422Y690617D01*
X972898Y690916D01*
X973337Y691266D01*
X973734Y691663D01*
X974084Y692102D01*
X974383Y692578D01*
X974627Y693084D01*
X974812Y693614D01*
X974937Y694161D01*
X975000Y694719D01*
Y695281D01*
X974937Y695839D01*
X974812Y696386D01*
X974627Y696916D01*
X974383Y697422D01*
X974084Y697898D01*
X973734Y698337D01*
Y699163D01*
X974084Y699602D01*
X974383Y700078D01*
X974627Y700584D01*
X974812Y701114D01*
X974937Y701661D01*
X975000Y702219D01*
Y702781D01*
X974937Y703339D01*
X974812Y703886D01*
X974627Y704416D01*
X974383Y704922D01*
X974084Y705398D01*
X973734Y705837D01*
X973337Y706234D01*
X972898Y706584D01*
X972422Y706883D01*
X971916Y707127D01*
X971386Y707312D01*
X970839Y707437D01*
X970281Y707500D01*
D02*
G37*
G36*
X882781D02*
X882219D01*
X881661Y707437D01*
X881114Y707312D01*
X880584Y707127D01*
X880078Y706883D01*
X879602Y706584D01*
X879163Y706234D01*
X878337D01*
X877898Y706584D01*
X877422Y706883D01*
X876916Y707127D01*
X876386Y707312D01*
X875839Y707437D01*
X875281Y707500D01*
X874719D01*
X874161Y707437D01*
X873614Y707312D01*
X873084Y707127D01*
X872578Y706883D01*
X872102Y706584D01*
X871663Y706234D01*
X871266Y705837D01*
X870916Y705398D01*
X870617Y704922D01*
X870373Y704416D01*
X870188Y703886D01*
X870063Y703339D01*
X870000Y702781D01*
Y702219D01*
X870063Y701661D01*
X870188Y701114D01*
X870373Y700584D01*
X870617Y700078D01*
X870916Y699602D01*
X871266Y699163D01*
Y698337D01*
X870916Y697898D01*
X870617Y697422D01*
X870373Y696916D01*
X870188Y696386D01*
X870063Y695839D01*
X870000Y695281D01*
Y694719D01*
X870063Y694161D01*
X870188Y693614D01*
X870373Y693084D01*
X870617Y692578D01*
X870916Y692102D01*
X871266Y691663D01*
X871663Y691266D01*
X872102Y690916D01*
X872578Y690617D01*
X873084Y690373D01*
X873614Y690188D01*
X874161Y690063D01*
X874719Y690000D01*
X875281D01*
X875839Y690063D01*
X876386Y690188D01*
X876916Y690373D01*
X877422Y690617D01*
X877898Y690916D01*
X878337Y691266D01*
X879163D01*
X879602Y690916D01*
X880078Y690617D01*
X880584Y690373D01*
X881114Y690188D01*
X881661Y690063D01*
X882219Y690000D01*
X882781D01*
X883339Y690063D01*
X883886Y690188D01*
X884416Y690373D01*
X884922Y690617D01*
X885398Y690916D01*
X885837Y691266D01*
X886234Y691663D01*
X886584Y692102D01*
X886883Y692578D01*
X887127Y693084D01*
X887312Y693614D01*
X887437Y694161D01*
X887500Y694719D01*
Y695281D01*
X887437Y695839D01*
X887312Y696386D01*
X887127Y696916D01*
X886883Y697422D01*
X886584Y697898D01*
X886234Y698337D01*
Y699163D01*
X886584Y699602D01*
X886883Y700078D01*
X887127Y700584D01*
X887312Y701114D01*
X887437Y701661D01*
X887500Y702219D01*
Y702781D01*
X887437Y703339D01*
X887312Y703886D01*
X887127Y704416D01*
X886883Y704922D01*
X886584Y705398D01*
X886234Y705837D01*
X885837Y706234D01*
X885398Y706584D01*
X884922Y706883D01*
X884416Y707127D01*
X883886Y707312D01*
X883339Y707437D01*
X882781Y707500D01*
D02*
G37*
%LPD*%
G36*
X975866Y1133341D02*
X976263Y1132943D01*
X976702Y1132593D01*
X977178Y1132294D01*
X977683Y1132051D01*
X978214Y1131865D01*
X978761Y1131740D01*
X979319Y1131677D01*
X979881D01*
X980439Y1131740D01*
X980986Y1131865D01*
X981516Y1132051D01*
X982022Y1132294D01*
X982055Y1132315D01*
X983170Y1131798D01*
X983305Y1131638D01*
Y1128652D01*
X983267Y1128601D01*
X982094Y1127961D01*
X981589Y1128205D01*
X981059Y1128390D01*
X980511Y1128515D01*
X979953Y1128578D01*
X979391D01*
X978833Y1128515D01*
X978286Y1128390D01*
X977756Y1128205D01*
X977250Y1127961D01*
X976774Y1127662D01*
X976335Y1127312D01*
X975938Y1126915D01*
X975588Y1126476D01*
X975289Y1126000D01*
X975045Y1125494D01*
X974860Y1124964D01*
X974735Y1124417D01*
X974672Y1123859D01*
Y1123297D01*
X974735Y1122739D01*
X974860Y1122192D01*
X975045Y1121662D01*
X975289Y1121155D01*
X975588Y1120680D01*
X975938Y1120241D01*
X976335Y1119844D01*
X976774Y1119494D01*
X977250Y1119195D01*
X977756Y1118951D01*
X978286Y1118766D01*
X978833Y1118641D01*
X979391Y1118578D01*
X979953D01*
X980511Y1118641D01*
X981059Y1118766D01*
X981589Y1118951D01*
X982094Y1119195D01*
X983267Y1118555D01*
X983305Y1118504D01*
Y1116037D01*
X983116Y1115831D01*
X982055Y1115367D01*
X981981Y1115414D01*
X981475Y1115658D01*
X980945Y1115843D01*
X980397Y1115968D01*
X979839Y1116031D01*
X979278D01*
X978720Y1115968D01*
X978172Y1115843D01*
X977642Y1115658D01*
X977136Y1115414D01*
X976661Y1115115D01*
X976221Y1114765D01*
X975824Y1114368D01*
X975777Y1114308D01*
X966434D01*
X966006Y1114280D01*
X965586Y1114196D01*
X965180Y1114058D01*
X964796Y1113869D01*
X964439Y1113631D01*
X964117Y1113348D01*
X951546Y1100777D01*
X949846D01*
X949429Y1101125D01*
X948911Y1102027D01*
X948946Y1102181D01*
X949009Y1102739D01*
Y1103301D01*
X948946Y1103859D01*
X948821Y1104406D01*
X948636Y1104936D01*
X948582Y1105049D01*
X948594Y1105244D01*
X949004Y1106122D01*
X949220Y1106362D01*
X949768Y1106487D01*
X950297Y1106672D01*
X950804Y1106916D01*
X951279Y1107215D01*
X951718Y1107565D01*
X952115Y1107962D01*
X952465Y1108401D01*
X952764Y1108876D01*
X953008Y1109382D01*
X953193Y1109912D01*
X953318Y1110460D01*
X953381Y1111018D01*
Y1111580D01*
X953318Y1112138D01*
X953193Y1112685D01*
X953008Y1113215D01*
X952764Y1113721D01*
X952465Y1114197D01*
X952115Y1114636D01*
X951718Y1115033D01*
X951279Y1115383D01*
X950804Y1115682D01*
X950297Y1115926D01*
X949768Y1116111D01*
X949220Y1116236D01*
X948662Y1116299D01*
X948100D01*
X947542Y1116236D01*
X946995Y1116111D01*
X946465Y1115926D01*
X945959Y1115682D01*
X945483Y1115383D01*
X945044Y1115033D01*
X944647Y1114636D01*
X944297Y1114197D01*
X943998Y1113721D01*
X943754Y1113215D01*
X943569Y1112685D01*
X943444Y1112138D01*
X943381Y1111580D01*
Y1111018D01*
X943444Y1110460D01*
X943569Y1109912D01*
X943754Y1109382D01*
X943809Y1109270D01*
X943796Y1109075D01*
X943386Y1108197D01*
X943170Y1107957D01*
X942623Y1107832D01*
X942093Y1107647D01*
X941587Y1107403D01*
X941111Y1107104D01*
X940672Y1106754D01*
X940275Y1106357D01*
X939925Y1105918D01*
X939626Y1105442D01*
X939382Y1104936D01*
X939197Y1104406D01*
X939072Y1103859D01*
X939009Y1103301D01*
Y1102739D01*
X939072Y1102181D01*
X939107Y1102027D01*
X938589Y1101125D01*
X938173Y1100777D01*
X859168D01*
X858740Y1100749D01*
X858320Y1100665D01*
X857914Y1100527D01*
X857529Y1100338D01*
X857173Y1100100D01*
X856851Y1099817D01*
X849432Y1092398D01*
X848277Y1092877D01*
Y1103269D01*
X856731Y1111723D01*
X887500D01*
X887928Y1111751D01*
X888348Y1111835D01*
X888754Y1111973D01*
X889138Y1112162D01*
X889495Y1112400D01*
X889817Y1112683D01*
X901249Y1124115D01*
X901468Y1124074D01*
X902563Y1123339D01*
X902500Y1122781D01*
Y1122219D01*
X902563Y1121661D01*
X902688Y1121114D01*
X902873Y1120584D01*
X903117Y1120078D01*
X903416Y1119602D01*
X903766Y1119163D01*
X904163Y1118766D01*
X904602Y1118416D01*
X905078Y1118117D01*
X905584Y1117873D01*
X906114Y1117688D01*
X906661Y1117563D01*
X907219Y1117500D01*
X907781D01*
X908339Y1117563D01*
X908886Y1117688D01*
X909416Y1117873D01*
X909922Y1118117D01*
X910398Y1118416D01*
X910837Y1118766D01*
X911234Y1119163D01*
X911584Y1119602D01*
X911883Y1120078D01*
X912127Y1120584D01*
X912312Y1121114D01*
X912437Y1121661D01*
X912500Y1122219D01*
Y1122781D01*
X912437Y1123339D01*
X912312Y1123886D01*
X912127Y1124416D01*
X911883Y1124922D01*
X911584Y1125398D01*
X911234Y1125837D01*
X910837Y1126234D01*
X910398Y1126584D01*
X909922Y1126883D01*
X909416Y1127127D01*
X908886Y1127312D01*
X908339Y1127437D01*
X907781Y1127500D01*
X907219D01*
X906661Y1127437D01*
X906094Y1128283D01*
X906867Y1129223D01*
X943254D01*
X943331Y1129080D01*
X943567Y1127973D01*
X943362Y1127844D01*
X942923Y1127494D01*
X942526Y1127097D01*
X942176Y1126658D01*
X941877Y1126182D01*
X941633Y1125676D01*
X941448Y1125146D01*
X941323Y1124599D01*
X941260Y1124041D01*
Y1123479D01*
X941323Y1122921D01*
X941448Y1122373D01*
X941633Y1121843D01*
X941877Y1121337D01*
X942176Y1120862D01*
X942526Y1120423D01*
X942923Y1120026D01*
X943362Y1119676D01*
X943837Y1119377D01*
X944343Y1119133D01*
X944873Y1118948D01*
X945421Y1118823D01*
X945979Y1118760D01*
X946541D01*
X947099Y1118823D01*
X947646Y1118948D01*
X948176Y1119133D01*
X948682Y1119377D01*
X949158Y1119676D01*
X949597Y1120026D01*
X949994Y1120423D01*
X950344Y1120862D01*
X950643Y1121337D01*
X950886Y1121843D01*
X951072Y1122373D01*
X951197Y1122921D01*
X951260Y1123479D01*
Y1124041D01*
X951197Y1124599D01*
X951072Y1125146D01*
X950886Y1125676D01*
X950643Y1126182D01*
X950344Y1126658D01*
X949994Y1127097D01*
X949597Y1127494D01*
X949158Y1127844D01*
X948952Y1127973D01*
X949189Y1129080D01*
X949266Y1129223D01*
X954743D01*
X955171Y1129251D01*
X955591Y1129335D01*
X955997Y1129472D01*
X956382Y1129662D01*
X956738Y1129900D01*
X957060Y1130183D01*
X960278Y1133400D01*
X975818D01*
X975866Y1133341D01*
D02*
G37*
G36*
X975961Y1095152D02*
X976358Y1094755D01*
X976797Y1094405D01*
X977272Y1094106D01*
X977778Y1093863D01*
X978308Y1093677D01*
X978856Y1093552D01*
X979414Y1093489D01*
X979976D01*
X980534Y1093552D01*
X981081Y1093677D01*
X981611Y1093863D01*
X982117Y1094106D01*
X983299Y1093418D01*
X983305Y1093409D01*
Y1090416D01*
X983245Y1090352D01*
X982055Y1089840D01*
X982023Y1089866D01*
X981548Y1090164D01*
X981042Y1090408D01*
X980512Y1090594D01*
X979965Y1090719D01*
X979406Y1090781D01*
X978845D01*
X978287Y1090719D01*
X977739Y1090594D01*
X977209Y1090408D01*
X976703Y1090164D01*
X976228Y1089866D01*
X975789Y1089516D01*
X975391Y1089118D01*
X975041Y1088679D01*
X974743Y1088204D01*
X974499Y1087698D01*
X974314Y1087168D01*
X974189Y1086620D01*
X974126Y1086062D01*
Y1085501D01*
X974189Y1084943D01*
X974314Y1084395D01*
X974499Y1083865D01*
X974743Y1083359D01*
X975041Y1082884D01*
X975391Y1082444D01*
X975789Y1082047D01*
X976228Y1081697D01*
X976703Y1081398D01*
X977209Y1081155D01*
X977739Y1080969D01*
X978287Y1080844D01*
X978845Y1080781D01*
X979406D01*
X979965Y1080844D01*
X980512Y1080969D01*
X981042Y1081155D01*
X981548Y1081398D01*
X982023Y1081697D01*
X982055Y1081723D01*
X983245Y1081210D01*
X983305Y1081146D01*
Y1045440D01*
X829432Y891566D01*
X828277Y892045D01*
Y918716D01*
X857317Y947756D01*
X857600Y948079D01*
X857838Y948435D01*
X858027Y948820D01*
X858165Y949225D01*
X858249Y949646D01*
X858277Y950073D01*
Y1067884D01*
X858439Y1068046D01*
X859527Y1068476D01*
X859602Y1068416D01*
X860078Y1068117D01*
X860584Y1067873D01*
X861114Y1067688D01*
X861661Y1067563D01*
X862219Y1067500D01*
X862781D01*
X863339Y1067563D01*
X863886Y1067688D01*
X864416Y1067873D01*
X864922Y1068117D01*
X865398Y1068416D01*
X865837Y1068766D01*
X866250Y1069148D01*
X866663Y1068766D01*
X867102Y1068416D01*
X867578Y1068117D01*
X868084Y1067873D01*
X868614Y1067688D01*
X869161Y1067563D01*
X869719Y1067500D01*
X870281D01*
X870839Y1067563D01*
X871386Y1067688D01*
X871916Y1067873D01*
X872422Y1068117D01*
X872898Y1068416D01*
X873337Y1068766D01*
X873734Y1069163D01*
X874084Y1069602D01*
X874383Y1070078D01*
X874627Y1070584D01*
X874812Y1071114D01*
X874937Y1071661D01*
X875000Y1072219D01*
Y1072781D01*
X874937Y1073339D01*
X874812Y1073886D01*
X874627Y1074416D01*
X874383Y1074922D01*
X874084Y1075398D01*
X873734Y1075837D01*
X873352Y1076250D01*
X873734Y1076663D01*
X874084Y1077102D01*
X874383Y1077578D01*
X874627Y1078084D01*
X874812Y1078614D01*
X874937Y1079161D01*
X875000Y1079719D01*
Y1080281D01*
X874937Y1080839D01*
X874812Y1081386D01*
X874627Y1081916D01*
X874383Y1082422D01*
X874084Y1082898D01*
X873734Y1083337D01*
X873337Y1083734D01*
X872898Y1084084D01*
X872422Y1084383D01*
X871916Y1084627D01*
X871386Y1084812D01*
X870839Y1084937D01*
X870281Y1085000D01*
X869719D01*
X869161Y1084937D01*
X868614Y1084812D01*
X868084Y1084627D01*
X867578Y1084383D01*
X867102Y1084084D01*
X866663Y1083734D01*
X866250Y1083352D01*
X865837Y1083734D01*
X865398Y1084084D01*
X864922Y1084383D01*
X864416Y1084627D01*
X863886Y1084812D01*
X863339Y1084937D01*
X862781Y1085000D01*
X862558D01*
X862093Y1085811D01*
X862026Y1086236D01*
X863130Y1087340D01*
X925910D01*
X926832Y1086418D01*
X927154Y1086135D01*
X927510Y1085897D01*
X927895Y1085708D01*
X928300Y1085570D01*
X928721Y1085486D01*
X929149Y1085458D01*
X952620D01*
X953047Y1085486D01*
X953468Y1085570D01*
X953874Y1085708D01*
X954258Y1085897D01*
X954615Y1086135D01*
X954937Y1086418D01*
X963731Y1095212D01*
X975913D01*
X975961Y1095152D01*
D02*
G37*
G36*
X1005909Y1097282D02*
X1006094Y1096752D01*
X1006338Y1096246D01*
X1006637Y1095770D01*
X1006987Y1095331D01*
X1007384Y1094934D01*
X1007823Y1094584D01*
X1008298Y1094285D01*
X1008804Y1094042D01*
X1009334Y1093856D01*
X1009882Y1093731D01*
X1010440Y1093668D01*
X1011002D01*
X1011560Y1093731D01*
X1012107Y1093856D01*
X1012637Y1094042D01*
X1013143Y1094285D01*
X1013619Y1094584D01*
X1014058Y1094934D01*
X1014455Y1095331D01*
X1014503Y1095391D01*
X1018212D01*
X1024223Y1089380D01*
Y1085654D01*
X1023068Y1085176D01*
X1019801Y1088443D01*
X1019479Y1088726D01*
X1019122Y1088964D01*
X1018738Y1089153D01*
X1018332Y1089291D01*
X1017911Y1089375D01*
X1017484Y1089403D01*
X1014869D01*
X1014821Y1089463D01*
X1014424Y1089860D01*
X1013985Y1090210D01*
X1013510Y1090509D01*
X1013004Y1090752D01*
X1012474Y1090938D01*
X1011926Y1091063D01*
X1011368Y1091126D01*
X1010806D01*
X1010248Y1091063D01*
X1009701Y1090938D01*
X1009171Y1090752D01*
X1008665Y1090509D01*
X1008189Y1090210D01*
X1007750Y1089860D01*
X1007353Y1089463D01*
X1007003Y1089024D01*
X1006704Y1088548D01*
X1006460Y1088042D01*
X1006275Y1087512D01*
X1006150Y1086964D01*
X1006087Y1086406D01*
Y1085845D01*
X1006150Y1085287D01*
X1006275Y1084739D01*
X1006460Y1084209D01*
X1006704Y1083703D01*
X1007003Y1083228D01*
X1007353Y1082789D01*
X1007750Y1082392D01*
X1008189Y1082041D01*
X1008665Y1081743D01*
X1009171Y1081499D01*
X1009701Y1081313D01*
X1010248Y1081189D01*
X1010806Y1081126D01*
X1011368D01*
X1011926Y1081189D01*
X1012474Y1081313D01*
X1013004Y1081499D01*
X1013510Y1081743D01*
X1013985Y1082041D01*
X1014424Y1082392D01*
X1014821Y1082789D01*
X1014869Y1082849D01*
X1016126D01*
X1019223Y1079752D01*
Y1038857D01*
X919880Y939514D01*
X919597Y939192D01*
X919359Y938835D01*
X919169Y938451D01*
X919031Y938045D01*
X918948Y937625D01*
X918920Y937197D01*
Y798554D01*
X898643Y778277D01*
X843864D01*
X843436Y778249D01*
X843016Y778165D01*
X842610Y778028D01*
X842225Y777838D01*
X841869Y777600D01*
X841547Y777317D01*
X792506Y728277D01*
X784131D01*
X783842Y728778D01*
X783341Y729493D01*
X782780Y730162D01*
X782162Y730780D01*
X781493Y731341D01*
X781110Y731609D01*
X781504Y732859D01*
X786136D01*
X786564Y732887D01*
X786985Y732971D01*
X787391Y733109D01*
X787775Y733298D01*
X788131Y733537D01*
X788454Y733819D01*
X798767Y744133D01*
X799050Y744455D01*
X799288Y744811D01*
X799477Y745196D01*
X799615Y745602D01*
X799699Y746022D01*
X799727Y746450D01*
Y759293D01*
X847317Y806883D01*
X847600Y807205D01*
X847838Y807562D01*
X848028Y807946D01*
X848165Y808352D01*
X848249Y808773D01*
X848277Y809200D01*
Y880343D01*
X1003607Y1035673D01*
X1003890Y1035995D01*
X1004128Y1036352D01*
X1004318Y1036736D01*
X1004455Y1037142D01*
X1004539Y1037562D01*
X1004567Y1037990D01*
Y1097542D01*
X1005817Y1097683D01*
X1005909Y1097282D01*
D02*
G37*
G36*
X1126723Y1078643D02*
Y984545D01*
X1125568Y984066D01*
X1095777Y1013857D01*
Y1081580D01*
X1095976Y1081769D01*
X1097027Y1082167D01*
X1097122Y1082091D01*
X1097598Y1081793D01*
X1098104Y1081549D01*
X1098634Y1081363D01*
X1099181Y1081238D01*
X1099739Y1081176D01*
X1100301D01*
X1100859Y1081238D01*
X1101406Y1081363D01*
X1101936Y1081549D01*
X1102442Y1081793D01*
X1102918Y1082091D01*
X1103357Y1082441D01*
X1103754Y1082839D01*
X1103802Y1082898D01*
X1122467D01*
X1126723Y1078643D01*
D02*
G37*
G36*
X1162724Y1074529D02*
X1163046Y1074246D01*
X1163402Y1074008D01*
X1163787Y1073819D01*
X1164193Y1073681D01*
X1164613Y1073597D01*
X1165041Y1073569D01*
X1172048D01*
X1179607Y1066010D01*
X1179014Y1064896D01*
X1178980Y1064869D01*
X1178440Y1064930D01*
X1177879D01*
X1177321Y1064867D01*
X1176773Y1064742D01*
X1176243Y1064556D01*
X1175737Y1064313D01*
X1175262Y1064014D01*
X1174823Y1063664D01*
X1174634Y1063475D01*
X1174263Y1063359D01*
X1173941Y1063352D01*
X1173083Y1063503D01*
X1173057Y1063521D01*
X1173051Y1063528D01*
X1172654Y1063925D01*
X1172215Y1064275D01*
X1171739Y1064574D01*
X1171234Y1064818D01*
X1170703Y1065003D01*
X1170156Y1065128D01*
X1169598Y1065191D01*
X1169036D01*
X1168478Y1065128D01*
X1167931Y1065003D01*
X1167401Y1064818D01*
X1166895Y1064574D01*
X1166419Y1064275D01*
X1165980Y1063925D01*
X1165583Y1063528D01*
X1165233Y1063089D01*
X1164934Y1062613D01*
X1164690Y1062107D01*
X1164505Y1061577D01*
X1164380Y1061030D01*
X1164317Y1060472D01*
Y1059910D01*
X1164380Y1059352D01*
X1164505Y1058804D01*
X1164690Y1058274D01*
X1164934Y1057768D01*
X1165233Y1057293D01*
X1165583Y1056854D01*
X1165903Y1056261D01*
X1165500Y1055240D01*
X1165355Y1055057D01*
X1165056Y1054582D01*
X1164812Y1054076D01*
X1164627Y1053546D01*
X1164502Y1052998D01*
X1164439Y1052440D01*
Y1051879D01*
X1164502Y1051320D01*
X1164627Y1050773D01*
X1164812Y1050243D01*
X1165056Y1049737D01*
X1165355Y1049261D01*
X1165548Y1049019D01*
X1165967Y1048143D01*
X1165548Y1047268D01*
X1165355Y1047026D01*
X1165056Y1046550D01*
X1164812Y1046044D01*
X1164627Y1045514D01*
X1164502Y1044967D01*
X1164439Y1044409D01*
Y1043847D01*
X1164502Y1043289D01*
X1164627Y1042741D01*
X1164812Y1042211D01*
X1165056Y1041705D01*
X1165355Y1041230D01*
X1165705Y1040791D01*
X1166102Y1040394D01*
X1166541Y1040043D01*
X1167016Y1039745D01*
X1167522Y1039501D01*
X1168052Y1039316D01*
X1168600Y1039191D01*
X1169158Y1039128D01*
X1169720D01*
X1170278Y1039191D01*
X1170825Y1039316D01*
X1171355Y1039501D01*
X1171861Y1039745D01*
X1172337Y1040043D01*
X1172776Y1040394D01*
X1172949Y1040567D01*
X1173510Y1040696D01*
X1173637Y1040695D01*
X1174518Y1040513D01*
X1174588Y1040426D01*
X1174985Y1040029D01*
X1175424Y1039678D01*
X1175900Y1039380D01*
X1176406Y1039136D01*
X1176936Y1038951D01*
X1177483Y1038826D01*
X1178041Y1038763D01*
X1178603D01*
X1179161Y1038826D01*
X1179708Y1038951D01*
X1180239Y1039136D01*
X1180745Y1039380D01*
X1181220Y1039678D01*
X1181659Y1040029D01*
X1182056Y1040426D01*
X1182406Y1040865D01*
X1182705Y1041340D01*
X1182949Y1041846D01*
X1183134Y1042376D01*
X1183259Y1042924D01*
X1183322Y1043482D01*
Y1044044D01*
X1183259Y1044602D01*
X1183134Y1045149D01*
X1182949Y1045679D01*
X1182705Y1046185D01*
X1182406Y1046661D01*
X1182056Y1047100D01*
X1181792Y1047900D01*
X1182056Y1048701D01*
X1182406Y1049140D01*
X1182705Y1049615D01*
X1182949Y1050121D01*
X1183134Y1050651D01*
X1183259Y1051199D01*
X1183322Y1051757D01*
Y1052318D01*
X1183259Y1052877D01*
X1183134Y1053424D01*
X1182949Y1053954D01*
X1182705Y1054460D01*
X1182406Y1054936D01*
X1182218Y1055172D01*
X1181698Y1055909D01*
X1181894Y1056593D01*
X1182244Y1057032D01*
X1182543Y1057507D01*
X1182786Y1058013D01*
X1182972Y1058543D01*
X1183097Y1059091D01*
X1183160Y1059649D01*
Y1060210D01*
X1183099Y1060750D01*
X1183126Y1060784D01*
X1184240Y1061377D01*
X1234223Y1011394D01*
Y910798D01*
X1234251Y910370D01*
X1234335Y909950D01*
X1234472Y909544D01*
X1234662Y909160D01*
X1234900Y908803D01*
X1235183Y908481D01*
X1290507Y853157D01*
X1290454Y853010D01*
X1290228Y852166D01*
X1290076Y851307D01*
X1290000Y850437D01*
Y849563D01*
X1290076Y848693D01*
X1290228Y847834D01*
X1290429Y847082D01*
X1290359Y846954D01*
X1289151Y846593D01*
X1153277Y982467D01*
Y1082342D01*
X1154432Y1082821D01*
X1162724Y1074529D01*
D02*
G37*
G36*
X1181317Y910421D02*
X1180573Y909397D01*
X1180216Y909579D01*
X1179451Y909896D01*
X1178663Y910152D01*
X1177858Y910345D01*
X1177070Y910470D01*
Y901270D01*
X1186270D01*
X1186145Y902058D01*
X1185952Y902863D01*
X1185696Y903651D01*
X1185379Y904416D01*
X1185197Y904773D01*
X1186221Y905517D01*
X1218006Y873733D01*
X1217916Y873239D01*
X1217470Y872500D01*
X1217219D01*
X1216661Y872437D01*
X1216114Y872312D01*
X1215584Y872127D01*
X1215078Y871883D01*
X1214602Y871584D01*
X1214163Y871234D01*
X1213750Y870852D01*
X1213337Y871234D01*
X1212898Y871584D01*
X1212422Y871883D01*
X1211916Y872127D01*
X1211386Y872312D01*
X1210839Y872437D01*
X1210281Y872500D01*
X1209719D01*
X1209161Y872437D01*
X1208614Y872312D01*
X1208084Y872127D01*
X1207578Y871883D01*
X1207102Y871584D01*
X1206663Y871234D01*
X1206250Y870852D01*
X1205837Y871234D01*
X1205398Y871584D01*
X1204922Y871883D01*
X1204416Y872127D01*
X1203886Y872312D01*
X1203339Y872437D01*
X1202781Y872500D01*
X1202219D01*
X1201661Y872437D01*
X1201114Y872312D01*
X1200584Y872127D01*
X1200078Y871883D01*
X1199602Y871584D01*
X1199163Y871234D01*
X1198766Y870837D01*
X1198416Y870398D01*
X1198117Y869922D01*
X1197873Y869416D01*
X1197688Y868886D01*
X1197563Y868339D01*
X1197500Y867781D01*
Y867219D01*
X1197563Y866661D01*
X1197688Y866114D01*
X1197873Y865584D01*
X1198117Y865078D01*
X1198416Y864602D01*
X1198766Y864163D01*
Y863337D01*
X1198416Y862898D01*
X1198117Y862422D01*
X1197873Y861916D01*
X1197688Y861386D01*
X1197563Y860839D01*
X1197500Y860281D01*
Y859719D01*
X1197563Y859161D01*
X1197688Y858614D01*
X1197873Y858084D01*
X1198117Y857578D01*
X1198416Y857102D01*
X1198766Y856663D01*
X1199148Y856250D01*
X1198766Y855837D01*
X1198416Y855398D01*
X1198117Y854922D01*
X1197873Y854416D01*
X1197688Y853886D01*
X1197563Y853339D01*
X1197500Y852781D01*
Y852219D01*
X1197563Y851661D01*
X1197688Y851114D01*
X1197873Y850584D01*
X1198117Y850078D01*
X1198416Y849602D01*
X1198766Y849163D01*
X1199163Y848766D01*
X1199602Y848416D01*
X1200078Y848117D01*
X1200584Y847873D01*
X1201114Y847688D01*
X1201661Y847563D01*
X1202219Y847500D01*
X1202781D01*
X1203339Y847563D01*
X1203886Y847688D01*
X1204416Y847873D01*
X1204922Y848117D01*
X1205398Y848416D01*
X1205837Y848766D01*
X1206663D01*
X1207102Y848416D01*
X1207578Y848117D01*
X1208084Y847873D01*
X1208614Y847688D01*
X1209161Y847563D01*
X1209719Y847500D01*
X1210281D01*
X1210839Y847563D01*
X1211386Y847688D01*
X1211916Y847873D01*
X1212422Y848117D01*
X1212898Y848416D01*
X1213337Y848766D01*
X1214163D01*
X1214602Y848416D01*
X1215078Y848117D01*
X1215584Y847873D01*
X1216114Y847688D01*
X1216661Y847563D01*
X1217219Y847500D01*
X1217781D01*
X1218339Y847563D01*
X1218886Y847688D01*
X1219416Y847873D01*
X1219922Y848117D01*
X1220398Y848416D01*
X1220837Y848766D01*
X1221234Y849163D01*
X1221584Y849602D01*
X1221883Y850078D01*
X1222127Y850584D01*
X1222312Y851114D01*
X1222437Y851661D01*
X1222500Y852219D01*
Y852781D01*
X1222437Y853339D01*
X1222312Y853886D01*
X1222127Y854416D01*
X1221883Y854922D01*
X1221584Y855398D01*
X1221234Y855837D01*
X1220852Y856250D01*
X1221234Y856663D01*
X1221584Y857102D01*
X1221883Y857578D01*
X1222127Y858084D01*
X1222312Y858614D01*
X1222437Y859161D01*
X1222500Y859719D01*
Y860281D01*
X1222437Y860839D01*
X1222312Y861386D01*
X1222127Y861916D01*
X1221883Y862422D01*
X1221584Y862898D01*
X1221234Y863337D01*
Y864163D01*
X1221584Y864602D01*
X1221883Y865078D01*
X1222127Y865584D01*
X1222312Y866114D01*
X1222437Y866661D01*
X1222500Y867219D01*
Y867470D01*
X1223239Y867916D01*
X1223733Y868006D01*
X1256198Y835541D01*
Y820362D01*
X1254948Y819845D01*
X1254256Y820536D01*
X1253934Y820819D01*
X1253577Y821057D01*
X1253193Y821247D01*
X1252787Y821384D01*
X1252366Y821468D01*
X1251939Y821496D01*
X1219576D01*
X1166561Y874511D01*
Y892673D01*
X1167811Y893125D01*
X1168054Y892840D01*
X1168640Y892254D01*
X1169270Y891716D01*
X1169940Y891230D01*
X1170646Y890797D01*
X1171384Y890421D01*
X1172149Y890104D01*
X1172937Y889848D01*
X1173742Y889655D01*
X1174530Y889530D01*
Y900000D01*
Y910470D01*
X1173742Y910345D01*
X1172937Y910152D01*
X1172149Y909896D01*
X1171384Y909579D01*
X1170646Y909203D01*
X1169940Y908770D01*
X1169270Y908284D01*
X1168640Y907746D01*
X1168054Y907160D01*
X1167804Y906867D01*
X1166739Y907099D01*
X1166508Y907267D01*
X1166449Y907564D01*
X1166312Y907970D01*
X1166122Y908354D01*
X1165884Y908711D01*
X1165601Y909033D01*
X1157317Y917317D01*
X1156995Y917600D01*
X1156638Y917838D01*
X1156254Y918028D01*
X1155848Y918165D01*
X1155428Y918249D01*
X1155000Y918277D01*
X1148857D01*
X1128575Y938560D01*
Y961531D01*
X1129729Y962009D01*
X1181317Y910421D01*
D02*
G37*
G36*
X1064200Y907936D02*
Y890000D01*
X1083786D01*
Y872557D01*
X1083814Y872130D01*
X1083898Y871709D01*
X1084036Y871303D01*
X1084225Y870919D01*
X1084464Y870563D01*
X1084746Y870240D01*
X1160795Y794192D01*
X1160316Y793037D01*
X1147220D01*
X1060777Y879480D01*
Y906147D01*
X1063045Y908415D01*
X1064200Y907936D01*
D02*
G37*
G36*
X1143545Y787443D02*
X1143867Y787160D01*
X1144224Y786922D01*
X1144608Y786732D01*
X1145014Y786595D01*
X1145435Y786511D01*
X1145862Y786483D01*
X1221063D01*
X1284863Y722683D01*
X1285185Y722400D01*
X1285542Y722162D01*
X1285926Y721972D01*
X1286332Y721835D01*
X1286752Y721751D01*
X1287180Y721723D01*
X1290074D01*
X1290076Y721693D01*
X1290228Y720834D01*
X1290454Y719990D01*
X1290752Y719169D01*
X1291121Y718378D01*
X1291558Y717622D01*
X1292059Y716907D01*
X1292620Y716238D01*
X1293238Y715620D01*
X1293907Y715059D01*
X1294622Y714558D01*
X1294676Y714527D01*
X1294341Y713277D01*
X1290000D01*
X1289572Y713249D01*
X1289152Y713165D01*
X1288746Y713028D01*
X1288362Y712838D01*
X1288005Y712600D01*
X1287683Y712317D01*
X1276143Y700777D01*
X1208303D01*
X1055222Y853857D01*
Y874132D01*
X1056377Y874611D01*
X1143545Y787443D01*
D02*
G37*
%LPC*%
G36*
X961206Y1064728D02*
X960645D01*
X960087Y1064665D01*
X959539Y1064540D01*
X959009Y1064355D01*
X958503Y1064111D01*
X958027Y1063812D01*
X957588Y1063462D01*
X957191Y1063065D01*
X956841Y1062626D01*
X956542Y1062150D01*
X956299Y1061645D01*
X956113Y1061115D01*
X955988Y1060567D01*
X955925Y1060009D01*
Y1059447D01*
X955988Y1058889D01*
X956113Y1058342D01*
X956299Y1057812D01*
X956542Y1057306D01*
X956841Y1056830D01*
X957191Y1056391D01*
X957588Y1055994D01*
X958027Y1055644D01*
X958503Y1055345D01*
X959009Y1055101D01*
X959539Y1054916D01*
X960087Y1054791D01*
X960645Y1054728D01*
X961206D01*
X961764Y1054791D01*
X962312Y1054916D01*
X962842Y1055101D01*
X963348Y1055345D01*
X963823Y1055644D01*
X964262Y1055994D01*
X964660Y1056391D01*
X965010Y1056830D01*
X965308Y1057306D01*
X965552Y1057812D01*
X965738Y1058342D01*
X965863Y1058889D01*
X965925Y1059447D01*
Y1060009D01*
X965863Y1060567D01*
X965738Y1061115D01*
X965552Y1061645D01*
X965308Y1062150D01*
X965010Y1062626D01*
X964660Y1063065D01*
X964262Y1063462D01*
X963823Y1063812D01*
X963348Y1064111D01*
X962842Y1064355D01*
X962312Y1064540D01*
X961764Y1064665D01*
X961206Y1064728D01*
D02*
G37*
G36*
X961322Y1048885D02*
X960760D01*
X960202Y1048822D01*
X959655Y1048697D01*
X959125Y1048511D01*
X958619Y1048268D01*
X958143Y1047969D01*
X957704Y1047619D01*
X957307Y1047222D01*
X956957Y1046783D01*
X956658Y1046307D01*
X956414Y1045801D01*
X956229Y1045271D01*
X956104Y1044724D01*
X956041Y1044165D01*
Y1043604D01*
X956104Y1043046D01*
X956229Y1042498D01*
X956414Y1041968D01*
X956658Y1041462D01*
X956957Y1040987D01*
X957307Y1040548D01*
X957704Y1040151D01*
X958143Y1039800D01*
X958619Y1039502D01*
X959125Y1039258D01*
X959655Y1039072D01*
X960202Y1038948D01*
X960760Y1038885D01*
X961322D01*
X961880Y1038948D01*
X962428Y1039072D01*
X962958Y1039258D01*
X963464Y1039502D01*
X963939Y1039800D01*
X964378Y1040151D01*
X964775Y1040548D01*
X965125Y1040987D01*
X965424Y1041462D01*
X965668Y1041968D01*
X965853Y1042498D01*
X965978Y1043046D01*
X966041Y1043604D01*
Y1044165D01*
X965978Y1044724D01*
X965853Y1045271D01*
X965668Y1045801D01*
X965424Y1046307D01*
X965125Y1046783D01*
X964775Y1047222D01*
X964378Y1047619D01*
X963939Y1047969D01*
X963464Y1048268D01*
X962958Y1048511D01*
X962428Y1048697D01*
X961880Y1048822D01*
X961322Y1048885D01*
D02*
G37*
G36*
X867513Y1048857D02*
X866951D01*
X866393Y1048794D01*
X865846Y1048670D01*
X865316Y1048484D01*
X864810Y1048240D01*
X864334Y1047942D01*
X863895Y1047591D01*
X863498Y1047194D01*
X863148Y1046755D01*
X862849Y1046280D01*
X862606Y1045774D01*
X862420Y1045244D01*
X862295Y1044696D01*
X862232Y1044138D01*
Y1043577D01*
X862295Y1043018D01*
X862420Y1042471D01*
X862606Y1041941D01*
X862849Y1041435D01*
X863148Y1040959D01*
X863498Y1040520D01*
X863895Y1040123D01*
X864334Y1039773D01*
X864810Y1039474D01*
X865316Y1039231D01*
X865846Y1039045D01*
X866393Y1038920D01*
X866951Y1038857D01*
X867513D01*
X868071Y1038920D01*
X868619Y1039045D01*
X869149Y1039231D01*
X869655Y1039474D01*
X870130Y1039773D01*
X870569Y1040123D01*
X870966Y1040520D01*
X871316Y1040959D01*
X871615Y1041435D01*
X871859Y1041941D01*
X872044Y1042471D01*
X872169Y1043018D01*
X872232Y1043577D01*
Y1044138D01*
X872169Y1044696D01*
X872044Y1045244D01*
X871859Y1045774D01*
X871615Y1046280D01*
X871316Y1046755D01*
X870966Y1047194D01*
X870569Y1047591D01*
X870130Y1047942D01*
X869655Y1048240D01*
X869149Y1048484D01*
X868619Y1048670D01*
X868071Y1048794D01*
X867513Y1048857D01*
D02*
G37*
G36*
X874885Y1036409D02*
X874324D01*
X873766Y1036346D01*
X873218Y1036221D01*
X872688Y1036036D01*
X872182Y1035792D01*
X871707Y1035493D01*
X871267Y1035143D01*
X870870Y1034746D01*
X870520Y1034307D01*
X870221Y1033831D01*
X869978Y1033326D01*
X869792Y1032795D01*
X869667Y1032248D01*
X869604Y1031690D01*
Y1031128D01*
X869667Y1030570D01*
X869792Y1030023D01*
X869978Y1029493D01*
X870221Y1028987D01*
X870520Y1028511D01*
X870870Y1028072D01*
X871267Y1027675D01*
X871707Y1027325D01*
X872182Y1027026D01*
X872688Y1026782D01*
X873218Y1026597D01*
X873766Y1026472D01*
X874324Y1026409D01*
X874885D01*
X875443Y1026472D01*
X875991Y1026597D01*
X876521Y1026782D01*
X877027Y1027026D01*
X877502Y1027325D01*
X877942Y1027675D01*
X878339Y1028072D01*
X878689Y1028511D01*
X878988Y1028987D01*
X879231Y1029493D01*
X879417Y1030023D01*
X879542Y1030570D01*
X879604Y1031128D01*
Y1031690D01*
X879542Y1032248D01*
X879417Y1032795D01*
X879231Y1033326D01*
X878988Y1033831D01*
X878689Y1034307D01*
X878339Y1034746D01*
X877942Y1035143D01*
X877502Y1035493D01*
X877027Y1035792D01*
X876521Y1036036D01*
X875991Y1036221D01*
X875443Y1036346D01*
X874885Y1036409D01*
D02*
G37*
G36*
X907781Y897500D02*
X907219D01*
X906661Y897437D01*
X906114Y897312D01*
X905584Y897127D01*
X905078Y896883D01*
X904602Y896584D01*
X904163Y896234D01*
X903750Y895852D01*
X903337Y896234D01*
X902898Y896584D01*
X902422Y896883D01*
X901916Y897127D01*
X901386Y897312D01*
X900839Y897437D01*
X900281Y897500D01*
X899719D01*
X899161Y897437D01*
X898614Y897312D01*
X898084Y897127D01*
X897578Y896883D01*
X897102Y896584D01*
X896663Y896234D01*
X896250Y895852D01*
X895837Y896234D01*
X895398Y896584D01*
X894922Y896883D01*
X894416Y897127D01*
X893886Y897312D01*
X893339Y897437D01*
X892781Y897500D01*
X892219D01*
X891661Y897437D01*
X891114Y897312D01*
X890584Y897127D01*
X890078Y896883D01*
X889602Y896584D01*
X889163Y896234D01*
X888766Y895837D01*
X888416Y895398D01*
X888117Y894922D01*
X887873Y894416D01*
X887688Y893886D01*
X887563Y893339D01*
X887500Y892781D01*
Y892219D01*
X887563Y891661D01*
X887688Y891114D01*
X887873Y890584D01*
X888117Y890078D01*
X888416Y889602D01*
X888766Y889163D01*
Y888337D01*
X888416Y887898D01*
X888117Y887422D01*
X887873Y886916D01*
X887688Y886386D01*
X887563Y885839D01*
X887500Y885281D01*
Y884719D01*
X887563Y884161D01*
X887688Y883614D01*
X887873Y883084D01*
X888117Y882578D01*
X888416Y882102D01*
X888766Y881663D01*
X889148Y881250D01*
X888766Y880837D01*
X888416Y880398D01*
X888117Y879922D01*
X887873Y879416D01*
X887688Y878886D01*
X887563Y878339D01*
X887500Y877781D01*
Y877219D01*
X887563Y876661D01*
X887688Y876114D01*
X887873Y875584D01*
X888117Y875078D01*
X888416Y874602D01*
X888766Y874163D01*
X889163Y873766D01*
X889602Y873416D01*
X890078Y873117D01*
X890584Y872873D01*
X891114Y872688D01*
X891661Y872563D01*
X892219Y872500D01*
X892781D01*
X893339Y872563D01*
X893886Y872688D01*
X894416Y872873D01*
X894922Y873117D01*
X895398Y873416D01*
X895837Y873766D01*
X896250Y874148D01*
X896663Y873766D01*
X897102Y873416D01*
X897578Y873117D01*
X898084Y872873D01*
X898614Y872688D01*
X899161Y872563D01*
X899719Y872500D01*
X900281D01*
X900839Y872563D01*
X901386Y872688D01*
X901916Y872873D01*
X902422Y873117D01*
X902898Y873416D01*
X903337Y873766D01*
X903750Y874148D01*
X904163Y873766D01*
X904602Y873416D01*
X905078Y873117D01*
X905584Y872873D01*
X906114Y872688D01*
X906661Y872563D01*
X907219Y872500D01*
X907781D01*
X908339Y872563D01*
X908886Y872688D01*
X909416Y872873D01*
X909922Y873117D01*
X910398Y873416D01*
X910837Y873766D01*
X911234Y874163D01*
X911584Y874602D01*
X911883Y875078D01*
X912127Y875584D01*
X912312Y876114D01*
X912437Y876661D01*
X912500Y877219D01*
Y877781D01*
X912437Y878339D01*
X912312Y878886D01*
X912127Y879416D01*
X911883Y879922D01*
X911584Y880398D01*
X911234Y880837D01*
X910852Y881250D01*
X911234Y881663D01*
X911584Y882102D01*
X911883Y882578D01*
X912127Y883084D01*
X912312Y883614D01*
X912437Y884161D01*
X912500Y884719D01*
Y885281D01*
X912437Y885839D01*
X912312Y886386D01*
X912127Y886916D01*
X911883Y887422D01*
X911584Y887898D01*
X911234Y888337D01*
X910852Y888750D01*
X911234Y889163D01*
X911584Y889602D01*
X911883Y890078D01*
X912127Y890584D01*
X912312Y891114D01*
X912437Y891661D01*
X912500Y892219D01*
Y892781D01*
X912437Y893339D01*
X912312Y893886D01*
X912127Y894416D01*
X911883Y894922D01*
X911584Y895398D01*
X911234Y895837D01*
X910837Y896234D01*
X910398Y896584D01*
X909922Y896883D01*
X909416Y897127D01*
X908886Y897312D01*
X908339Y897437D01*
X907781Y897500D01*
D02*
G37*
G36*
X880281Y847500D02*
X879719D01*
X879161Y847437D01*
X878614Y847312D01*
X878084Y847127D01*
X877578Y846883D01*
X877102Y846584D01*
X876663Y846234D01*
X876266Y845837D01*
X875916Y845398D01*
X875617Y844922D01*
X875373Y844416D01*
X875188Y843886D01*
X875063Y843339D01*
X875000Y842781D01*
Y842219D01*
X875063Y841661D01*
X875188Y841114D01*
X875373Y840584D01*
X875617Y840078D01*
X875916Y839602D01*
X876266Y839163D01*
X876663Y838766D01*
X877102Y838416D01*
X877578Y838117D01*
X878084Y837873D01*
X878614Y837688D01*
X879161Y837563D01*
X879719Y837500D01*
X880281D01*
X880839Y837563D01*
X881386Y837688D01*
X881916Y837873D01*
X882422Y838117D01*
X882898Y838416D01*
X883337Y838766D01*
X883734Y839163D01*
X884084Y839602D01*
X884383Y840078D01*
X884627Y840584D01*
X884812Y841114D01*
X884937Y841661D01*
X885000Y842219D01*
Y842781D01*
X884937Y843339D01*
X884812Y843886D01*
X884627Y844416D01*
X884383Y844922D01*
X884084Y845398D01*
X883734Y845837D01*
X883337Y846234D01*
X882898Y846584D01*
X882422Y846883D01*
X881916Y847127D01*
X881386Y847312D01*
X880839Y847437D01*
X880281Y847500D01*
D02*
G37*
G36*
X882781Y810000D02*
X882219D01*
X881661Y809937D01*
X881114Y809812D01*
X880584Y809627D01*
X880078Y809383D01*
X879602Y809084D01*
X879163Y808734D01*
X878750Y808352D01*
X878337Y808734D01*
X877898Y809084D01*
X877422Y809383D01*
X876916Y809627D01*
X876386Y809812D01*
X875839Y809937D01*
X875281Y810000D01*
X874719D01*
X874161Y809937D01*
X873614Y809812D01*
X873083Y809627D01*
X872578Y809383D01*
X872102Y809084D01*
X871663Y808734D01*
X871266Y808337D01*
X870916Y807898D01*
X870617Y807422D01*
X870373Y806916D01*
X870188Y806386D01*
X870063Y805839D01*
X870000Y805281D01*
Y804719D01*
X870063Y804161D01*
X870188Y803614D01*
X870373Y803084D01*
X870617Y802578D01*
X870916Y802102D01*
X871266Y801663D01*
Y800837D01*
X870916Y800398D01*
X870617Y799922D01*
X870373Y799416D01*
X870188Y798886D01*
X870063Y798339D01*
X870000Y797781D01*
Y797219D01*
X870063Y796661D01*
X870188Y796114D01*
X870373Y795584D01*
X870617Y795078D01*
X870916Y794602D01*
X871266Y794163D01*
X871663Y793766D01*
X872102Y793416D01*
X872578Y793117D01*
X873083Y792873D01*
X873614Y792688D01*
X874161Y792563D01*
X874719Y792500D01*
X875281D01*
X875839Y792563D01*
X876386Y792688D01*
X876916Y792873D01*
X877422Y793117D01*
X877898Y793416D01*
X878337Y793766D01*
X878750Y794148D01*
X879163Y793766D01*
X879602Y793416D01*
X880078Y793117D01*
X880584Y792873D01*
X881114Y792688D01*
X881661Y792563D01*
X882219Y792500D01*
X882781D01*
X883339Y792563D01*
X883886Y792688D01*
X884416Y792873D01*
X884922Y793117D01*
X885398Y793416D01*
X885837Y793766D01*
X886234Y794163D01*
X886584Y794602D01*
X886883Y795078D01*
X887127Y795584D01*
X887312Y796114D01*
X887437Y796661D01*
X887500Y797219D01*
Y797781D01*
X887437Y798339D01*
X887312Y798886D01*
X887127Y799416D01*
X886883Y799922D01*
X886584Y800398D01*
X886234Y800837D01*
Y801663D01*
X886584Y802102D01*
X886883Y802578D01*
X887127Y803084D01*
X887312Y803614D01*
X887437Y804161D01*
X887500Y804719D01*
Y805281D01*
X887437Y805839D01*
X887312Y806386D01*
X887127Y806916D01*
X886883Y807422D01*
X886584Y807898D01*
X886234Y808337D01*
X885837Y808734D01*
X885398Y809084D01*
X884922Y809383D01*
X884416Y809627D01*
X883886Y809812D01*
X883339Y809937D01*
X882781Y810000D01*
D02*
G37*
G36*
X1186270Y898730D02*
X1177070D01*
Y889530D01*
X1177858Y889655D01*
X1178663Y889848D01*
X1179451Y890104D01*
X1180216Y890421D01*
X1180954Y890797D01*
X1181660Y891230D01*
X1182330Y891716D01*
X1182960Y892254D01*
X1183546Y892840D01*
X1184084Y893470D01*
X1184570Y894140D01*
X1185003Y894846D01*
X1185379Y895584D01*
X1185696Y896349D01*
X1185952Y897137D01*
X1186145Y897942D01*
X1186270Y898730D01*
D02*
G37*
G36*
X1217781Y777500D02*
X1217219D01*
X1216661Y777437D01*
X1216114Y777312D01*
X1215584Y777127D01*
X1215078Y776883D01*
X1214602Y776584D01*
X1214163Y776234D01*
X1213750Y775852D01*
X1213337Y776234D01*
X1212898Y776584D01*
X1212422Y776883D01*
X1211916Y777127D01*
X1211386Y777312D01*
X1210839Y777437D01*
X1210281Y777500D01*
X1209719D01*
X1209161Y777437D01*
X1208614Y777312D01*
X1208084Y777127D01*
X1207578Y776883D01*
X1207102Y776584D01*
X1206663Y776234D01*
X1206250Y775852D01*
X1205837Y776234D01*
X1205398Y776584D01*
X1204922Y776883D01*
X1204416Y777127D01*
X1203886Y777312D01*
X1203339Y777437D01*
X1202781Y777500D01*
X1202219D01*
X1201661Y777437D01*
X1201114Y777312D01*
X1200584Y777127D01*
X1200078Y776883D01*
X1199602Y776584D01*
X1199163Y776234D01*
X1198766Y775837D01*
X1198416Y775398D01*
X1198117Y774922D01*
X1197873Y774416D01*
X1197688Y773886D01*
X1197563Y773339D01*
X1197500Y772781D01*
Y772219D01*
X1197563Y771661D01*
X1197688Y771114D01*
X1197873Y770584D01*
X1198117Y770078D01*
X1198416Y769602D01*
X1198766Y769163D01*
X1199148Y768750D01*
X1198766Y768337D01*
X1198416Y767898D01*
X1198117Y767422D01*
X1197873Y766916D01*
X1197688Y766386D01*
X1197563Y765839D01*
X1197500Y765281D01*
Y764719D01*
X1197563Y764161D01*
X1197688Y763614D01*
X1197873Y763084D01*
X1198117Y762578D01*
X1198416Y762102D01*
X1198766Y761663D01*
X1199148Y761250D01*
X1198766Y760837D01*
X1198416Y760398D01*
X1198117Y759922D01*
X1197873Y759416D01*
X1197688Y758886D01*
X1197563Y758339D01*
X1197500Y757781D01*
Y757219D01*
X1197563Y756661D01*
X1197688Y756114D01*
X1197873Y755584D01*
X1198117Y755078D01*
X1198416Y754602D01*
X1198766Y754163D01*
X1199163Y753766D01*
X1199602Y753416D01*
X1200078Y753117D01*
X1200584Y752873D01*
X1201114Y752688D01*
X1201661Y752563D01*
X1202219Y752500D01*
X1202781D01*
X1203339Y752563D01*
X1203886Y752688D01*
X1204416Y752873D01*
X1204922Y753117D01*
X1205398Y753416D01*
X1205837Y753766D01*
X1206663D01*
X1207102Y753416D01*
X1207578Y753117D01*
X1208084Y752873D01*
X1208614Y752688D01*
X1209161Y752563D01*
X1209719Y752500D01*
X1210281D01*
X1210839Y752563D01*
X1211386Y752688D01*
X1211916Y752873D01*
X1212422Y753117D01*
X1212898Y753416D01*
X1213337Y753766D01*
X1214163D01*
X1214602Y753416D01*
X1215078Y753117D01*
X1215584Y752873D01*
X1216114Y752688D01*
X1216661Y752563D01*
X1217219Y752500D01*
X1217781D01*
X1218339Y752563D01*
X1218886Y752688D01*
X1219416Y752873D01*
X1219922Y753117D01*
X1220398Y753416D01*
X1220837Y753766D01*
X1221234Y754163D01*
X1221584Y754602D01*
X1221883Y755078D01*
X1222127Y755584D01*
X1222312Y756114D01*
X1222437Y756661D01*
X1222500Y757219D01*
Y757781D01*
X1222437Y758339D01*
X1222312Y758886D01*
X1222127Y759416D01*
X1221883Y759922D01*
X1221584Y760398D01*
X1221234Y760837D01*
Y761663D01*
X1221584Y762102D01*
X1221883Y762578D01*
X1222127Y763084D01*
X1222312Y763614D01*
X1222437Y764161D01*
X1222500Y764719D01*
Y765281D01*
X1222437Y765839D01*
X1222312Y766386D01*
X1222127Y766916D01*
X1221883Y767422D01*
X1221584Y767898D01*
X1221234Y768337D01*
X1220852Y768750D01*
X1221234Y769163D01*
X1221584Y769602D01*
X1221883Y770078D01*
X1222127Y770584D01*
X1222312Y771114D01*
X1222437Y771661D01*
X1222500Y772219D01*
Y772781D01*
X1222437Y773339D01*
X1222312Y773886D01*
X1222127Y774416D01*
X1221883Y774922D01*
X1221584Y775398D01*
X1221234Y775837D01*
X1220837Y776234D01*
X1220398Y776584D01*
X1219922Y776883D01*
X1219416Y777127D01*
X1218886Y777312D01*
X1218339Y777437D01*
X1217781Y777500D01*
D02*
G37*
%LPD*%
D15*
X887500Y1115000D02*
X905000Y1132500D01*
X855374Y1115000D02*
X887500D01*
X905000Y1132500D02*
X954743D01*
X850000Y952145D02*
Y1088332D01*
X859168Y1097500D02*
X952903D01*
X850000Y1088332D02*
X859168Y1097500D01*
X952903D02*
X966434Y1111031D01*
X979558D01*
X842980Y1125000D02*
X882500D01*
X910930Y1146475D02*
X963602D01*
X849298Y1120000D02*
X884455D01*
X910930Y1146475D01*
X926240Y1168740D02*
X955490D01*
X882500Y1125000D02*
X926240Y1168740D01*
X861773Y1090617D02*
X927267D01*
X855000Y1083844D02*
X861773Y1090617D01*
X855000Y950073D02*
Y1083844D01*
X927267Y1090617D02*
X929149Y1088735D01*
X962374Y1098489D02*
X979695D01*
X991756Y1041939D02*
Y1166756D01*
X835466Y885649D02*
X991756Y1041939D01*
Y1166756D02*
X1000085Y1175085D01*
X845000Y1104626D02*
X855374Y1115000D01*
X820000Y922145D02*
X850000Y952145D01*
X845000Y954216D02*
Y1104626D01*
X825000Y920073D02*
X855000Y950073D01*
X815000Y924216D02*
X845000Y954216D01*
X825000Y962500D02*
Y1135000D01*
X795000Y932500D02*
X825000Y962500D01*
Y1135000D02*
X835000Y1145000D01*
X1090000Y1187729D02*
X1095927Y1193656D01*
X1153844D02*
X1162500Y1185000D01*
X1095927Y1193656D02*
X1153844D01*
X1310950Y914050D02*
X1324200Y900800D01*
X1293450Y914050D02*
X1310950D01*
X1269445Y938055D02*
X1293450Y914050D01*
X1172896Y1244604D02*
X1182500Y1235000D01*
X1324200Y900800D02*
X1325400D01*
X1182500Y1112500D02*
X1269445Y1025555D01*
X1182500Y1112500D02*
Y1235000D01*
X1269445Y938055D02*
Y1025555D01*
X1075676Y1244604D02*
X1172896D01*
X1069639Y1238567D02*
X1075676Y1244604D01*
X929149Y1088735D02*
X952620D01*
X962374Y1098489D01*
X825000Y837500D02*
Y920073D01*
X787210Y799710D02*
X825000Y837500D01*
X775510Y799710D02*
X787210D01*
X775400Y799600D02*
X775510Y799710D01*
X1010693Y1213294D02*
X1046706D01*
X1052500Y1207500D01*
Y1017500D02*
Y1207500D01*
X1025126Y990126D02*
X1052500Y1017500D01*
X1025126Y932374D02*
Y990126D01*
Y932374D02*
X1039571Y917929D01*
Y852500D02*
Y917929D01*
Y852500D02*
X1207071Y685000D01*
X1318621D02*
X1321099Y682522D01*
Y676501D02*
Y682522D01*
X1207071Y685000D02*
X1318621D01*
X1321099Y676501D02*
X1325400Y672200D01*
X1163219Y1219281D02*
X1172500Y1210000D01*
X1069771Y1213082D02*
X1090000D01*
X1096199Y1219281D02*
X1163219D01*
X1090000Y1213082D02*
X1096199Y1219281D01*
X1172500Y1106596D02*
Y1210000D01*
Y1106596D02*
X1259142Y1019954D01*
X1292500Y890000D02*
X1312500D01*
X1259142Y923358D02*
Y1019954D01*
Y923358D02*
X1292500Y890000D01*
X1312500D02*
X1325400Y877100D01*
Y875400D02*
Y877100D01*
X1069566Y1111371D02*
X1076422D01*
X1112500Y872500D02*
Y912500D01*
X1115297Y915297D01*
Y975560D01*
X1076422Y1111371D02*
X1082500Y1105293D01*
Y1008358D02*
X1115297Y975560D01*
X1082500Y1008358D02*
Y1105293D01*
X1112500Y872500D02*
X1185080Y799920D01*
X1296358Y748400D02*
X1300000D01*
X1244838Y799920D02*
X1296358Y748400D01*
X1185080Y799920D02*
X1244838D01*
X1010721Y1098668D02*
X1019569D01*
X1027500Y1090737D01*
Y1035000D02*
Y1090737D01*
X927500Y935000D02*
X1027500Y1035000D01*
X927500Y795000D02*
Y935000D01*
X902197Y769697D02*
X927500Y795000D01*
X750000Y700000D02*
X760531Y710531D01*
X788159D01*
X847325Y769697D01*
X902197D01*
X750000Y698000D02*
Y700000D01*
X1069856Y1124101D02*
X1079609D01*
X1120297Y932203D02*
Y977631D01*
Y932203D02*
X1137811Y914689D01*
X1079609Y1124101D02*
X1087500Y1116210D01*
Y1010429D02*
X1120297Y977631D01*
X1087500Y1010429D02*
Y1116210D01*
X1137811Y873154D02*
Y914689D01*
Y873154D02*
X1205965Y805000D01*
X1247500D01*
X1291115Y761385D01*
X1325400Y748400D02*
Y748400D01*
X1312415Y761385D02*
X1325400Y748400D01*
X1291115Y761385D02*
X1312415D01*
X1069639Y1251113D02*
X1090200D01*
X1097325Y1258238D02*
X1174262D01*
X1090200Y1251113D02*
X1097325Y1258238D01*
X1274749Y948621D02*
X1297170Y926200D01*
X1300000D01*
X1174262Y1258238D02*
X1187500Y1245000D01*
Y1115000D02*
X1274749Y1027751D01*
X1187500Y1115000D02*
Y1245000D01*
X1274749Y948621D02*
Y1027751D01*
X1121928Y1231794D02*
X1121981Y1231740D01*
X1168260D02*
X1177500Y1222500D01*
X1121981Y1231740D02*
X1168260D01*
X1090000Y1225715D02*
X1096079Y1231794D01*
X1121928D01*
X750000Y674105D02*
X760895Y685000D01*
X785000D01*
X810000Y710000D01*
X750000Y672600D02*
Y674105D01*
X777000Y725000D02*
X793864D01*
X843864Y775000D01*
X762737Y736136D02*
X786136D01*
X750000Y723400D02*
X762737Y736136D01*
X786136D02*
X796450Y746450D01*
X750000Y748800D02*
X762872Y761673D01*
X783989D01*
X776478Y774200D02*
X784778Y782500D01*
X775400Y774200D02*
X776478D01*
X784778Y782500D02*
X797500D01*
X737500Y786700D02*
X750000Y774200D01*
X737500Y786700D02*
Y1125000D01*
X775400Y672600D02*
X775500Y672500D01*
X792500D01*
X775400Y698000D02*
X777975Y700575D01*
X785779D01*
X775400Y723400D02*
X777000Y725000D01*
X775400Y748800D02*
X777704D01*
X785779Y700575D02*
X849901Y764697D01*
X904268D01*
X843864Y775000D02*
X900000D01*
X852228Y759697D02*
X906339D01*
X810000Y710000D02*
Y717469D01*
X852228Y759697D01*
X815000Y715762D02*
X853935Y754697D01*
X815000Y695000D02*
Y715762D01*
X853935Y754697D02*
X908410D01*
X792500Y672500D02*
X815000Y695000D01*
X900000Y775000D02*
X922197Y797197D01*
Y937197D01*
X1022500Y1037500D01*
X904268Y764697D02*
X932500Y792929D01*
Y932929D01*
X1032500Y1032929D01*
X906339Y759697D02*
X937500Y790858D01*
Y930858D01*
X1037500Y1030858D01*
X908410Y754697D02*
X942500Y788787D01*
Y928787D01*
X1042500Y1028787D01*
X1022500Y1037500D02*
Y1081109D01*
X1017484Y1086126D02*
X1022500Y1081109D01*
X1011087Y1086126D02*
X1017484D01*
X1031012Y1111218D02*
X1032500Y1109730D01*
Y1032929D02*
Y1109730D01*
X1010759Y1111218D02*
X1031012D01*
X1037500Y1030858D02*
Y1117500D01*
X1031095Y1123905D02*
X1037500Y1117500D01*
X1010878Y1123905D02*
X1031095D01*
X1042500Y1028787D02*
Y1125000D01*
X1030584Y1136916D02*
X1042500Y1125000D01*
X1010878Y1136916D02*
X1030584D01*
X783989Y761673D02*
X835466Y813149D01*
X796450Y746450D02*
Y760650D01*
X845000Y809200D01*
Y881700D01*
X1001290Y1037990D01*
Y1145584D01*
X777704Y748800D02*
X840124Y811220D01*
Y883720D01*
X996414Y1040010D01*
Y1155847D01*
X835466Y813149D02*
Y885649D01*
X797500Y782500D02*
X830292Y815292D01*
Y887792D01*
X986582Y1044082D01*
X1005318Y1149612D02*
X1011113D01*
X1001290Y1145584D02*
X1005318Y1149612D01*
X1002641Y1162074D02*
X1010878D01*
X996414Y1155847D02*
X1002641Y1162074D01*
X1000085Y1175085D02*
X1010878D01*
X1002860Y1187860D02*
X1010486D01*
X986582Y1171582D02*
X1002860Y1187860D01*
X986582Y1044082D02*
Y1171582D01*
X958921Y1136677D02*
X979600D01*
X737500Y1125000D02*
X780000Y1167500D01*
X822500D01*
X872500Y1217500D01*
X815000Y860958D02*
Y924216D01*
X779042Y825000D02*
X815000Y860958D01*
X760300Y837800D02*
X783614D01*
X810000Y864186D02*
Y926287D01*
X783614Y837800D02*
X810000Y864186D01*
X775400Y825000D02*
X779042D01*
X750000Y850400D02*
X762652Y863052D01*
X783052D01*
X750000Y799600D02*
Y802500D01*
Y825000D02*
Y827500D01*
X775400Y850400D02*
X777975Y852975D01*
X785475D01*
X775400Y875800D02*
X777261Y877661D01*
X785161D02*
X795000Y887500D01*
X777261Y877661D02*
X785161D01*
X750000Y802500D02*
X760227Y812727D01*
X782727D02*
X820000Y850000D01*
X760227Y812727D02*
X782727D01*
X820000Y850000D02*
Y922145D01*
X750000Y827500D02*
X760300Y837800D01*
X785475Y852975D02*
X805000Y872500D01*
Y928358D01*
X783052Y863052D02*
X800000Y880000D01*
Y930429D01*
X795000Y887500D02*
Y932500D01*
X800000Y930429D02*
X830000Y960429D01*
X805000Y928358D02*
X835000Y958358D01*
X810000Y926287D02*
X840000Y956287D01*
X972717Y1193638D02*
X979430Y1200352D01*
X877500Y1145000D02*
X926138Y1193638D01*
X972717D01*
X835000Y1145000D02*
X877500D01*
X973279Y1181271D02*
X979677Y1187669D01*
X879891Y1140000D02*
X921162Y1181271D01*
X973279D01*
X838272Y1140000D02*
X879891D01*
X830000Y1131728D02*
X838272Y1140000D01*
X830000Y960429D02*
Y1131728D01*
X961842Y1175092D02*
X979536D01*
X955490Y1168740D02*
X961842Y1175092D01*
X835000Y1117020D02*
X842980Y1125000D01*
X835000Y958358D02*
Y1117020D01*
X963602Y1146475D02*
X979183Y1162055D01*
X840000Y1110702D02*
X849298Y1120000D01*
X840000Y956287D02*
Y1110702D01*
X954743Y1132500D02*
X958921Y1136677D01*
X872500Y1217500D02*
X945000D01*
X949465Y1213035D01*
X979571D01*
X1316642Y710000D02*
X1325400Y701242D01*
X1290000Y710000D02*
X1316642D01*
X1297424Y674775D02*
X1300000Y672200D01*
X1289704Y674775D02*
X1297424D01*
X1296358Y697600D02*
X1300000D01*
X1290954Y692197D02*
X1296358Y697600D01*
X1325400D02*
Y701242D01*
X1286425Y678055D02*
X1289704Y674775D01*
X1206945Y678055D02*
X1286425D01*
X1206889Y692197D02*
X1290954D01*
X1277500Y697500D02*
X1290000Y710000D01*
X1032500Y852500D02*
X1206945Y678055D01*
X1032500Y852500D02*
Y915000D01*
X1018055Y929445D02*
X1032500Y915000D01*
X1018055Y929445D02*
Y993055D01*
X1047500Y1022500D01*
Y1195000D01*
X1046642Y852443D02*
X1206889Y692197D01*
X1046642Y852443D02*
Y920858D01*
X1032197Y935303D02*
X1046642Y920858D01*
X1032197Y935303D02*
Y987197D01*
X1057500Y1012500D01*
X1206945Y697500D02*
X1277500D01*
X1051945Y852500D02*
X1206945Y697500D01*
X1051945Y852500D02*
Y923055D01*
X1037500Y937500D02*
X1051945Y923055D01*
X1037500Y937500D02*
Y985000D01*
X1062500Y1010000D01*
X1042080Y1200419D02*
X1047500Y1195000D01*
X1011021Y1200419D02*
X1042080D01*
X1057500Y1012500D02*
Y1215000D01*
X1046397Y1226103D02*
X1057500Y1215000D01*
X1011153Y1226103D02*
X1046397D01*
X1062500Y1010000D02*
Y1225000D01*
X1049114Y1238386D02*
X1062500Y1225000D01*
X1010562Y1238386D02*
X1049114D01*
X1069727Y1175008D02*
X1090000D01*
X1096594Y1181602D01*
X1312686Y735714D02*
X1325400Y723000D01*
X1291483Y735714D02*
X1312686D01*
X1218219Y818219D02*
X1251939D01*
X1296358Y773800D01*
X1300000D01*
X1298000Y725000D02*
X1300000Y723000D01*
X1287180Y725000D02*
X1298000D01*
X1325400Y723000D02*
Y723000D01*
X1222420Y789760D02*
X1287180Y725000D01*
X1232357Y794840D02*
X1291483Y735714D01*
X1145862Y789760D02*
X1222420D01*
X1163284Y873154D02*
X1218219Y818219D01*
X1057500Y878122D02*
X1145862Y789760D01*
X1164781Y794840D02*
X1232357D01*
X1087063Y872557D02*
X1164781Y794840D01*
X1125297Y937203D02*
Y979703D01*
Y937203D02*
X1147500Y915000D01*
X1092500Y1012500D02*
Y1132273D01*
Y1012500D02*
X1125297Y979703D01*
X1155000Y915000D02*
X1163284Y906716D01*
Y873154D02*
Y906716D01*
X1147500Y915000D02*
X1155000D01*
X1069708Y1136707D02*
X1088067D01*
X1092500Y1132273D01*
X1069703Y1003057D02*
Y1086074D01*
X1102500Y937500D02*
Y970259D01*
X1082500Y917500D02*
X1102500Y937500D01*
X1069703Y1003057D02*
X1102500Y970259D01*
X1067496Y917500D02*
X1082500D01*
X1057500Y907504D02*
X1067496Y917500D01*
X1057500Y878122D02*
Y907504D01*
X1077500Y1006287D02*
X1110297Y973489D01*
Y935297D02*
Y973489D01*
X1077500Y1006287D02*
Y1090901D01*
X1087063Y912063D02*
X1110297Y935297D01*
X1087063Y872557D02*
Y912063D01*
X1069780Y1098621D02*
X1077500Y1090901D01*
X1259475Y818699D02*
X1291730Y786443D01*
X1316253D02*
X1325400Y777297D01*
X1291730Y786443D02*
X1316253D01*
X1325400Y773800D02*
Y777297D01*
X1266131Y829914D02*
Y838546D01*
Y829914D02*
X1296845Y799200D01*
X1300000D01*
X1325400D02*
Y802100D01*
Y824600D02*
Y827100D01*
X1297900Y824600D02*
X1300000D01*
X1259475Y818699D02*
Y836898D01*
X1130000Y966373D02*
Y1080000D01*
Y966373D02*
X1259475Y836898D01*
X1135000Y969677D02*
Y1090000D01*
Y969677D02*
X1266131Y838546D01*
X1315470Y812030D02*
X1325400Y802100D01*
X1292823Y812030D02*
X1315470D01*
X1273973Y830881D02*
X1292823Y812030D01*
X1273973Y830881D02*
Y839054D01*
X1281846Y840654D02*
X1297900Y824600D01*
X1281846Y840654D02*
Y840765D01*
X1145000Y977611D02*
Y1117500D01*
Y977611D02*
X1281846Y840765D01*
X1140000Y973026D02*
X1273973Y839054D01*
X1140000Y973026D02*
Y1105000D01*
X1293865Y837244D02*
X1315256D01*
X1150000Y981109D02*
Y1130000D01*
Y981109D02*
X1293865Y837244D01*
X1315256D02*
X1325400Y827100D01*
X1100044Y1136618D02*
X1143382D01*
X1150000Y1130000D01*
X1099858Y1123760D02*
X1138740D01*
X1145000Y1117500D01*
X1100277Y1111349D02*
X1133652D01*
X1140000Y1105000D01*
X1100020Y1098120D02*
X1126880D01*
X1135000Y1090000D01*
X1100020Y1086176D02*
X1123824D01*
X1130000Y1080000D01*
X1237500Y910798D02*
Y1012751D01*
Y910798D02*
X1298298Y850000D01*
X1300000D01*
X1325400D02*
Y852100D01*
X1297100Y875400D02*
X1300000D01*
X1296700Y900800D02*
X1300000D01*
X1245000Y910902D02*
X1293402Y862500D01*
X1245000Y910902D02*
Y1017304D01*
X1293402Y862500D02*
X1315000D01*
X1325400Y852100D01*
X1252071Y920429D02*
X1297100Y875400D01*
X1252071Y920429D02*
Y1018787D01*
X1264445Y933055D02*
X1296700Y900800D01*
X1264445Y933055D02*
Y1022418D01*
X1177500Y1109363D02*
X1264445Y1022418D01*
X1177500Y1109363D02*
Y1222500D01*
X1162500Y1099804D02*
Y1185000D01*
Y1099804D02*
X1245000Y1017304D01*
X1155000Y1086887D02*
Y1172500D01*
Y1086887D02*
X1165041Y1076846D01*
X1173405D01*
X1237500Y1012751D01*
X1167500Y1103358D02*
X1252071Y1018787D01*
X1069858Y1225715D02*
X1090000D01*
Y1200449D02*
X1096070Y1206519D01*
X1158481D01*
X1069858Y1200449D02*
X1090000D01*
X1167500Y1103358D02*
Y1197500D01*
X1158481Y1206519D02*
X1167500Y1197500D01*
X1069902Y1187729D02*
X1090000D01*
X1096594Y1181602D02*
X1145898D01*
X1155000Y1172500D01*
D69*
X1329726Y1236096D02*
D03*
Y1178296D02*
D03*
D70*
X1324726Y1163946D02*
D03*
Y1250446D02*
D03*
D71*
X1366526D02*
D03*
Y1163946D02*
D03*
D72*
X775374Y981657D02*
D03*
X1175800Y900000D02*
D03*
X1150400D02*
D03*
X1325400Y900800D02*
D03*
X775400Y799600D02*
D03*
X1325400Y875400D02*
D03*
X990000Y900000D02*
D03*
X1300250Y1005250D02*
D03*
X1300000Y748400D02*
D03*
X1300250Y979850D02*
D03*
X1125000Y900000D02*
D03*
X750000Y698000D02*
D03*
X1325650Y1081450D02*
D03*
X1325400Y748400D02*
D03*
X1300000Y926200D02*
D03*
X1325400D02*
D03*
X964600Y900000D02*
D03*
X1300250Y1056050D02*
D03*
X1325650D02*
D03*
X1300250Y1081450D02*
D03*
X1325650Y1030650D02*
D03*
X1300250D02*
D03*
X1325650Y1005250D02*
D03*
X1099600Y900000D02*
D03*
X775400Y926600D02*
D03*
X750000D02*
D03*
Y952000D02*
D03*
X775400D02*
D03*
Y901200D02*
D03*
X750000D02*
D03*
Y875800D02*
D03*
X775400D02*
D03*
X750000Y748800D02*
D03*
X775400D02*
D03*
Y723400D02*
D03*
X750000D02*
D03*
X775400Y698000D02*
D03*
X750000Y672600D02*
D03*
Y774200D02*
D03*
X775400D02*
D03*
X750000Y799600D02*
D03*
X775400Y825000D02*
D03*
X750000D02*
D03*
Y850400D02*
D03*
X775400D02*
D03*
X1300000Y951600D02*
D03*
X1325400D02*
D03*
X1300000Y900800D02*
D03*
Y875400D02*
D03*
X1325400Y723000D02*
D03*
X1300000D02*
D03*
X1325400Y697600D02*
D03*
X1300000D02*
D03*
Y672200D02*
D03*
Y773800D02*
D03*
X1325400D02*
D03*
X1300000Y799200D02*
D03*
X1325400D02*
D03*
Y824600D02*
D03*
X1300000D02*
D03*
Y850000D02*
D03*
X1325400D02*
D03*
D73*
X749974Y981657D02*
D03*
X1074200Y900000D02*
D03*
X1015400D02*
D03*
D74*
X1325400Y672200D02*
D03*
X1325650Y979850D02*
D03*
X775400Y672600D02*
D03*
D75*
X1370001Y1220001D02*
D03*
X1360001Y1200001D02*
D03*
X1370001Y1180001D02*
D03*
Y1140001D02*
D03*
X1360001Y1120001D02*
D03*
X1370001Y1100001D02*
D03*
X1340001Y1240001D02*
D03*
X1350001Y1220001D02*
D03*
X1340001Y1200001D02*
D03*
X1350001Y1180001D02*
D03*
Y1140001D02*
D03*
X1340001Y1120001D02*
D03*
X1350001Y1100001D02*
D03*
X1330001Y1220001D02*
D03*
Y1140001D02*
D03*
X1320001Y1120001D02*
D03*
X1330001Y1100001D02*
D03*
X1300001Y1160001D02*
D03*
X1310001Y1140001D02*
D03*
X1300001Y1120001D02*
D03*
X1280001Y1160001D02*
D03*
X1290001Y1140001D02*
D03*
X1280001Y1120001D02*
D03*
Y720000D02*
D03*
X1260001Y1160001D02*
D03*
X1270001Y1140001D02*
D03*
X1260001Y720000D02*
D03*
X1240001Y1240001D02*
D03*
Y1160001D02*
D03*
Y760000D02*
D03*
X1220001Y1240001D02*
D03*
X1230001Y1180001D02*
D03*
X1220001Y1000001D02*
D03*
Y920001D02*
D03*
Y840001D02*
D03*
X1230001Y740000D02*
D03*
X1200001Y1240001D02*
D03*
X1210001Y1220001D02*
D03*
X1200001Y880001D02*
D03*
X1210001Y740000D02*
D03*
X1180001Y880001D02*
D03*
Y680000D02*
D03*
X1160001Y920001D02*
D03*
Y680000D02*
D03*
X1150001Y780000D02*
D03*
X1140001Y720000D02*
D03*
Y680000D02*
D03*
X1130001Y820000D02*
D03*
X1120001Y800000D02*
D03*
X1130001Y740000D02*
D03*
X1120001Y720000D02*
D03*
X1130001Y700000D02*
D03*
X1120001Y680000D02*
D03*
X1100001Y1040001D02*
D03*
X1110001Y740000D02*
D03*
X1100001Y720000D02*
D03*
X1110001Y700000D02*
D03*
X1100001Y680000D02*
D03*
X1090001Y780000D02*
D03*
X1080001Y720000D02*
D03*
Y680000D02*
D03*
X1070001Y780000D02*
D03*
X1060001Y720000D02*
D03*
Y680000D02*
D03*
X1050001Y700000D02*
D03*
X1040001Y680000D02*
D03*
X1020001Y880001D02*
D03*
X1030001Y820000D02*
D03*
Y700000D02*
D03*
X1020001Y680000D02*
D03*
X1010001Y1060001D02*
D03*
X1000001Y920001D02*
D03*
Y880001D02*
D03*
X1010001Y860001D02*
D03*
X980001Y880001D02*
D03*
X990001Y860001D02*
D03*
X960001Y880001D02*
D03*
X970001Y860001D02*
D03*
Y820000D02*
D03*
X960001Y680000D02*
D03*
X950001Y860001D02*
D03*
X940001Y720000D02*
D03*
X950001Y700000D02*
D03*
X940001Y680000D02*
D03*
X910001Y1020001D02*
D03*
Y860001D02*
D03*
X880001Y1200001D02*
D03*
X890001Y1060001D02*
D03*
Y860001D02*
D03*
X880001Y680000D02*
D03*
X860001Y720000D02*
D03*
Y680000D02*
D03*
X850001Y740000D02*
D03*
X840001Y720000D02*
D03*
X850001Y700000D02*
D03*
X840001Y680000D02*
D03*
X820000Y1240001D02*
D03*
X830000Y780000D02*
D03*
X820000Y760000D02*
D03*
X830000Y700000D02*
D03*
X820000Y680000D02*
D03*
X800000Y1240001D02*
D03*
X810000Y1100001D02*
D03*
X800000Y800000D02*
D03*
X790000Y1220001D02*
D03*
Y1100001D02*
D03*
X760000Y1200001D02*
D03*
X770000Y1180001D02*
D03*
X760000Y1000001D02*
D03*
X740000Y1240001D02*
D03*
Y1200001D02*
D03*
X750000Y1180001D02*
D03*
X740000Y1160001D02*
D03*
X750000Y1100001D02*
D03*
X720000Y1240001D02*
D03*
X730000Y1220001D02*
D03*
X720000Y1200001D02*
D03*
X730000Y1180001D02*
D03*
X720000Y1160001D02*
D03*
X700000Y1240001D02*
D03*
X710000Y1220001D02*
D03*
X700000Y1200001D02*
D03*
X710000Y1180001D02*
D03*
X700000Y1160001D02*
D03*
X710000Y1140001D02*
D03*
X700000Y1080001D02*
D03*
Y1040001D02*
D03*
Y1000001D02*
D03*
X710000Y980001D02*
D03*
X862500Y975000D02*
D03*
X832500Y905000D02*
D03*
Y917500D02*
D03*
X865000Y942500D02*
D03*
X880000Y820000D02*
D03*
X875000Y805000D02*
D03*
Y797500D02*
D03*
X882500Y805000D02*
D03*
Y797500D02*
D03*
X870000Y820000D02*
D03*
X862500Y1072500D02*
D03*
Y1080000D02*
D03*
X867232Y1043857D02*
D03*
X870000Y1072500D02*
D03*
X862500Y987500D02*
D03*
X890000Y967500D02*
D03*
X877500D02*
D03*
X890000Y975000D02*
D03*
X870000Y832500D02*
D03*
Y862500D02*
D03*
X875000Y702500D02*
D03*
Y737500D02*
D03*
X882500Y702500D02*
D03*
Y695000D02*
D03*
X875000D02*
D03*
X1072500Y982500D02*
D03*
X1065000D02*
D03*
Y975000D02*
D03*
X1055000Y750000D02*
D03*
X900000Y892500D02*
D03*
X892500Y877500D02*
D03*
Y885000D02*
D03*
Y892500D02*
D03*
X880000Y852500D02*
D03*
Y862500D02*
D03*
Y882500D02*
D03*
Y872500D02*
D03*
Y842500D02*
D03*
X870000Y882500D02*
D03*
Y852500D02*
D03*
Y872500D02*
D03*
X880000Y832500D02*
D03*
X995000Y970000D02*
D03*
X970000Y837500D02*
D03*
X1057500Y975000D02*
D03*
X1072500Y967500D02*
D03*
X1065000D02*
D03*
X1057500D02*
D03*
X1072500Y975000D02*
D03*
X979558Y1111031D02*
D03*
X979695Y1098489D02*
D03*
X1010759Y1111218D02*
D03*
X1010721Y1098668D02*
D03*
X1010878Y1136916D02*
D03*
X979672Y1123578D02*
D03*
X979600Y1136677D02*
D03*
X1011087Y1086126D02*
D03*
X979416Y1149129D02*
D03*
X1010878Y1123905D02*
D03*
X1011113Y1149612D02*
D03*
X895911Y1107364D02*
D03*
X907500Y1122500D02*
D03*
X952500Y977500D02*
D03*
X960925Y1059728D02*
D03*
X967500Y992500D02*
D03*
X920000Y987500D02*
D03*
Y995000D02*
D03*
X960000Y985000D02*
D03*
X910000Y995000D02*
D03*
X961041Y1043885D02*
D03*
X875000Y987500D02*
D03*
Y1000000D02*
D03*
X874604Y1031409D02*
D03*
X870000Y1080000D02*
D03*
X945000Y970000D02*
D03*
X922500Y947500D02*
D03*
X907500Y892500D02*
D03*
Y885000D02*
D03*
Y877500D02*
D03*
X900000Y967500D02*
D03*
Y885000D02*
D03*
Y877500D02*
D03*
Y975000D02*
D03*
X965000Y802500D02*
D03*
Y795000D02*
D03*
X962500Y695000D02*
D03*
Y702500D02*
D03*
X972500Y795000D02*
D03*
X956374Y740682D02*
D03*
X972500Y802500D02*
D03*
X970000Y695000D02*
D03*
Y702500D02*
D03*
X1100277Y1111349D02*
D03*
X1100044Y1136618D02*
D03*
X1100020Y1086176D02*
D03*
Y1098120D02*
D03*
X1099858Y1123760D02*
D03*
X1069856Y1124101D02*
D03*
X1069780Y1098621D02*
D03*
X1069708Y1136707D02*
D03*
X1069703Y1086074D02*
D03*
X1069566Y1111371D02*
D03*
X1100417Y1148343D02*
D03*
X1069893Y1149480D02*
D03*
X707500Y1115000D02*
D03*
Y1125000D02*
D03*
X1010000Y985000D02*
D03*
X975000Y1000000D02*
D03*
X1002500Y977500D02*
D03*
X1057500Y982500D02*
D03*
X1270000Y1240000D02*
D03*
X1260000D02*
D03*
X1134784Y1238213D02*
D03*
X1135000Y1200000D02*
D03*
Y1212500D02*
D03*
Y1225000D02*
D03*
X887500Y1107500D02*
D03*
X944009Y1103020D02*
D03*
X948381Y1111299D02*
D03*
X979126Y1085781D02*
D03*
X813760Y1055594D02*
D03*
X808322Y1112977D02*
D03*
X717500Y1125000D02*
D03*
Y1115000D02*
D03*
X1162500Y777500D02*
D03*
X1222500Y987500D02*
D03*
Y1017500D02*
D03*
X1202500Y1125000D02*
D03*
X1205000Y1112500D02*
D03*
X1220000Y1092500D02*
D03*
X1167840Y1084670D02*
D03*
X1169317Y1060191D02*
D03*
X1178160Y1059930D02*
D03*
X1169439Y1052159D02*
D03*
X1178322Y1052038D02*
D03*
X1169439Y1044128D02*
D03*
X1178322Y1043763D02*
D03*
X1187500Y1025000D02*
D03*
X1284809Y1190250D02*
D03*
X1284651Y1228294D02*
D03*
X1260000Y1185000D02*
D03*
Y1175000D02*
D03*
X1270000D02*
D03*
Y1185000D02*
D03*
X1260000Y1230000D02*
D03*
X1270000D02*
D03*
X1217500Y867500D02*
D03*
X1210000D02*
D03*
X1202500D02*
D03*
Y860000D02*
D03*
X1210000D02*
D03*
X1217500D02*
D03*
X1210000Y852500D02*
D03*
X1217500D02*
D03*
X1202500D02*
D03*
X1217500Y757500D02*
D03*
X1202500Y772500D02*
D03*
X1210000Y765000D02*
D03*
X1217500Y772500D02*
D03*
X1210000D02*
D03*
X1217500Y765000D02*
D03*
X1202500D02*
D03*
Y757500D02*
D03*
X1210000D02*
D03*
X1100141Y1187545D02*
D03*
X1100000Y1175000D02*
D03*
X1069902Y1187729D02*
D03*
X1069771Y1162594D02*
D03*
X1069727Y1175008D02*
D03*
X1100231Y1161963D02*
D03*
X1069639Y1251113D02*
D03*
X1040634Y1250998D02*
D03*
X1011153Y1226103D02*
D03*
X1011021Y1200419D02*
D03*
X1010878Y1175085D02*
D03*
Y1162074D02*
D03*
X1010693Y1213294D02*
D03*
X1010562Y1238386D02*
D03*
X1010486Y1187860D02*
D03*
X979677Y1187669D02*
D03*
X979571Y1213035D02*
D03*
X979536Y1175092D02*
D03*
X979450Y1237886D02*
D03*
X979430Y1200352D02*
D03*
X979345Y1225358D02*
D03*
X979183Y1162055D02*
D03*
X947500Y1175000D02*
D03*
X947394Y1162032D02*
D03*
Y1152495D02*
D03*
X946915Y1225427D02*
D03*
X946761Y1140129D02*
D03*
X947500Y1200000D02*
D03*
X935000Y1207500D02*
D03*
Y1200000D02*
D03*
X932500Y1250000D02*
D03*
X927500Y1207500D02*
D03*
Y1200000D02*
D03*
X946260Y1123760D02*
D03*
X882798Y1133995D02*
D03*
X947641Y1187437D02*
D03*
X867303Y1180634D02*
D03*
X857500Y1230000D02*
D03*
Y1245000D02*
D03*
X850000Y1230000D02*
D03*
Y1237500D02*
D03*
Y1245000D02*
D03*
X848202Y1218178D02*
D03*
X847754Y1171406D02*
D03*
X857500Y1237500D02*
D03*
X865000D02*
D03*
Y1230000D02*
D03*
Y1245000D02*
D03*
X1134668Y1250564D02*
D03*
X1100238Y1226274D02*
D03*
X1100204Y1238229D02*
D03*
X1100172Y1200048D02*
D03*
X1099858Y1213397D02*
D03*
X1069858Y1200449D02*
D03*
X1069858Y1225715D02*
D03*
X1069771Y1213082D02*
D03*
X1069639Y1238567D02*
D03*
X1100146Y1251428D02*
D03*
M02*
