G04*
G04 #@! TF.GenerationSoftware,Altium Limited,Altium Designer,25.8.1 (18)*
G04*
G04 Layer_Color=128*
%FSLAX44Y44*%
%MOMM*%
G71*
G04*
G04 #@! TF.SameCoordinates,12A2BCB0-EAD2-464D-B71D-ECBC9B348D82*
G04*
G04*
G04 #@! TF.FilePolarity,Positive*
G04*
G01*
G75*
%ADD77C,0.1270*%
D77*
X1326476Y1236096D02*
X1332976D01*
X1329726Y1232846D02*
Y1239346D01*
X1326476Y1178296D02*
X1332976D01*
X1329726Y1175046D02*
Y1181546D01*
X1321726Y1163946D02*
X1327726D01*
X1324726Y1160946D02*
Y1166946D01*
X1363526Y1250446D02*
X1369526D01*
X1366526Y1247446D02*
Y1253446D01*
X1363526Y1163946D02*
X1369526D01*
X1366526Y1160946D02*
Y1166946D01*
X1321726Y1250446D02*
X1327726D01*
X1324726Y1247446D02*
Y1253446D01*
X770374Y981657D02*
X780374D01*
X775374Y976657D02*
Y986657D01*
X744974Y981657D02*
X754974D01*
X749974Y976657D02*
Y986657D01*
X1170800Y900000D02*
X1180800D01*
X1175800Y895000D02*
Y905000D01*
X1145400Y900000D02*
X1155400D01*
X1150400Y895000D02*
Y905000D01*
X1320400Y900800D02*
X1330400D01*
X1325400Y895800D02*
Y905800D01*
X770400Y799600D02*
X780400D01*
X775400Y794600D02*
Y804600D01*
X1320400Y672200D02*
X1330400D01*
X1325400Y667200D02*
Y677200D01*
X1320650Y979850D02*
X1330650D01*
X1325650Y974850D02*
Y984850D01*
X1320400Y875400D02*
X1330400D01*
X1325400Y870400D02*
Y880400D01*
X1069200Y900000D02*
X1079200D01*
X1074200Y895000D02*
Y905000D01*
X985000Y900000D02*
X995000D01*
X990000Y895000D02*
Y905000D01*
X1295250Y1005250D02*
X1305250D01*
X1300250Y1000250D02*
Y1010250D01*
X1295000Y748400D02*
X1305000D01*
X1300000Y743400D02*
Y753400D01*
X1295250Y979850D02*
X1305250D01*
X1300250Y974850D02*
Y984850D01*
X1120000Y900000D02*
X1130000D01*
X1125000Y895000D02*
Y905000D01*
X745000Y698000D02*
X755000D01*
X750000Y693000D02*
Y703000D01*
X1320650Y1081450D02*
X1330650D01*
X1325650Y1076450D02*
Y1086450D01*
X1320400Y748400D02*
X1330400D01*
X1325400Y743400D02*
Y753400D01*
X1295000Y926200D02*
X1305000D01*
X1300000Y921200D02*
Y931200D01*
X1320400Y926200D02*
X1330400D01*
X1325400Y921200D02*
Y931200D01*
X959600Y900000D02*
X969600D01*
X964600Y895000D02*
Y905000D01*
X1010400Y900000D02*
X1020400D01*
X1015400Y895000D02*
Y905000D01*
X1295250Y1056050D02*
X1305250D01*
X1300250Y1051050D02*
Y1061050D01*
X1320650Y1056050D02*
X1330650D01*
X1325650Y1051050D02*
Y1061050D01*
X1295250Y1081450D02*
X1305250D01*
X1300250Y1076450D02*
Y1086450D01*
X1320650Y1030650D02*
X1330650D01*
X1325650Y1025650D02*
Y1035650D01*
X1295250Y1030650D02*
X1305250D01*
X1300250Y1025650D02*
Y1035650D01*
X1320650Y1005250D02*
X1330650D01*
X1325650Y1000250D02*
Y1010250D01*
X1094600Y900000D02*
X1104600D01*
X1099600Y895000D02*
Y905000D01*
X770400Y926600D02*
X780400D01*
X775400Y921600D02*
Y931600D01*
X745000Y926600D02*
X755000D01*
X750000Y921600D02*
Y931600D01*
X745000Y952000D02*
X755000D01*
X750000Y947000D02*
Y957000D01*
X770400Y952000D02*
X780400D01*
X775400Y947000D02*
Y957000D01*
X770400Y901200D02*
X780400D01*
X775400Y896200D02*
Y906200D01*
X745000Y901200D02*
X755000D01*
X750000Y896200D02*
Y906200D01*
X745000Y875800D02*
X755000D01*
X750000Y870800D02*
Y880800D01*
X770400Y875800D02*
X780400D01*
X775400Y870800D02*
Y880800D01*
X745000Y748800D02*
X755000D01*
X750000Y743800D02*
Y753800D01*
X770400Y748800D02*
X780400D01*
X775400Y743800D02*
Y753800D01*
X770400Y723400D02*
X780400D01*
X775400Y718400D02*
Y728400D01*
X745000Y723400D02*
X755000D01*
X750000Y718400D02*
Y728400D01*
X770400Y698000D02*
X780400D01*
X775400Y693000D02*
Y703000D01*
X770400Y672600D02*
X780400D01*
X775400Y667600D02*
Y677600D01*
X745000Y672600D02*
X755000D01*
X750000Y667600D02*
Y677600D01*
X745000Y774200D02*
X755000D01*
X750000Y769200D02*
Y779200D01*
X770400Y774200D02*
X780400D01*
X775400Y769200D02*
Y779200D01*
X745000Y799600D02*
X755000D01*
X750000Y794600D02*
Y804600D01*
X770400Y825000D02*
X780400D01*
X775400Y820000D02*
Y830000D01*
X745000Y825000D02*
X755000D01*
X750000Y820000D02*
Y830000D01*
X745000Y850400D02*
X755000D01*
X750000Y845400D02*
Y855400D01*
X770400Y850400D02*
X780400D01*
X775400Y845400D02*
Y855400D01*
X1295000Y951600D02*
X1305000D01*
X1300000Y946600D02*
Y956600D01*
X1320400Y951600D02*
X1330400D01*
X1325400Y946600D02*
Y956600D01*
X1295000Y900800D02*
X1305000D01*
X1300000Y895800D02*
Y905800D01*
X1295000Y875400D02*
X1305000D01*
X1300000Y870400D02*
Y880400D01*
X1320400Y723000D02*
X1330400D01*
X1325400Y718000D02*
Y728000D01*
X1295000Y723000D02*
X1305000D01*
X1300000Y718000D02*
Y728000D01*
X1320400Y697600D02*
X1330400D01*
X1325400Y692600D02*
Y702600D01*
X1295000Y697600D02*
X1305000D01*
X1300000Y692600D02*
Y702600D01*
X1295000Y672200D02*
X1305000D01*
X1300000Y667200D02*
Y677200D01*
X1295000Y773800D02*
X1305000D01*
X1300000Y768800D02*
Y778800D01*
X1320400Y773800D02*
X1330400D01*
X1325400Y768800D02*
Y778800D01*
X1295000Y799200D02*
X1305000D01*
X1300000Y794200D02*
Y804200D01*
X1320400Y799200D02*
X1330400D01*
X1325400Y794200D02*
Y804200D01*
X1320400Y824600D02*
X1330400D01*
X1325400Y819600D02*
Y829600D01*
X1295000Y824600D02*
X1305000D01*
X1300000Y819600D02*
Y829600D01*
X1295000Y850000D02*
X1305000D01*
X1300000Y845000D02*
Y855000D01*
X1320400Y850000D02*
X1330400D01*
X1325400Y845000D02*
Y855000D01*
X1368501Y1220001D02*
X1371501D01*
X1370001Y1218501D02*
Y1221501D01*
X1358501Y1200001D02*
X1361501D01*
X1360001Y1198501D02*
Y1201501D01*
X1368501Y1180001D02*
X1371501D01*
X1370001Y1178501D02*
Y1181501D01*
X1368501Y1140001D02*
X1371501D01*
X1370001Y1138501D02*
Y1141501D01*
X1358501Y1120001D02*
X1361501D01*
X1360001Y1118501D02*
Y1121501D01*
X1368501Y1100001D02*
X1371501D01*
X1370001Y1098501D02*
Y1101501D01*
X1338501Y1240001D02*
X1341501D01*
X1340001Y1238501D02*
Y1241501D01*
X1348501Y1220001D02*
X1351501D01*
X1350001Y1218501D02*
Y1221501D01*
X1338501Y1200001D02*
X1341501D01*
X1340001Y1198501D02*
Y1201501D01*
X1348501Y1180001D02*
X1351501D01*
X1350001Y1178501D02*
Y1181501D01*
X1348501Y1140001D02*
X1351501D01*
X1350001Y1138501D02*
Y1141501D01*
X1338501Y1120001D02*
X1341501D01*
X1340001Y1118501D02*
Y1121501D01*
X1348501Y1100001D02*
X1351501D01*
X1350001Y1098501D02*
Y1101501D01*
X1328501Y1220001D02*
X1331501D01*
X1330001Y1218501D02*
Y1221501D01*
X1328501Y1140001D02*
X1331501D01*
X1330001Y1138501D02*
Y1141501D01*
X1318501Y1120001D02*
X1321501D01*
X1320001Y1118501D02*
Y1121501D01*
X1328501Y1100001D02*
X1331501D01*
X1330001Y1098501D02*
Y1101501D01*
X1298501Y1160001D02*
X1301501D01*
X1300001Y1158501D02*
Y1161501D01*
X1308501Y1140001D02*
X1311501D01*
X1310001Y1138501D02*
Y1141501D01*
X1298501Y1120001D02*
X1301501D01*
X1300001Y1118501D02*
Y1121501D01*
X1278501Y1160001D02*
X1281501D01*
X1280001Y1158501D02*
Y1161501D01*
X1288501Y1140001D02*
X1291501D01*
X1290001Y1138501D02*
Y1141501D01*
X1278501Y1120001D02*
X1281501D01*
X1280001Y1118501D02*
Y1121501D01*
X1278501Y720000D02*
X1281501D01*
X1280001Y718500D02*
Y721500D01*
X1258501Y1160001D02*
X1261501D01*
X1260001Y1158501D02*
Y1161501D01*
X1268501Y1140001D02*
X1271501D01*
X1270001Y1138501D02*
Y1141501D01*
X1258501Y720000D02*
X1261501D01*
X1260001Y718500D02*
Y721500D01*
X1238501Y1240001D02*
X1241501D01*
X1240001Y1238501D02*
Y1241501D01*
X1238501Y1160001D02*
X1241501D01*
X1240001Y1158501D02*
Y1161501D01*
X1238501Y760000D02*
X1241501D01*
X1240001Y758500D02*
Y761500D01*
X1218501Y1240001D02*
X1221501D01*
X1220001Y1238501D02*
Y1241501D01*
X1228501Y1180001D02*
X1231501D01*
X1230001Y1178501D02*
Y1181501D01*
X1218501Y1000001D02*
X1221501D01*
X1220001Y998501D02*
Y1001500D01*
X1218501Y920001D02*
X1221501D01*
X1220001Y918501D02*
Y921500D01*
X1218501Y840001D02*
X1221501D01*
X1220001Y838501D02*
Y841500D01*
X1228501Y740000D02*
X1231501D01*
X1230001Y738500D02*
Y741500D01*
X1198501Y1240001D02*
X1201501D01*
X1200001Y1238501D02*
Y1241501D01*
X1208501Y1220001D02*
X1211501D01*
X1210001Y1218501D02*
Y1221501D01*
X1198501Y880001D02*
X1201501D01*
X1200001Y878501D02*
Y881500D01*
X1208501Y740000D02*
X1211501D01*
X1210001Y738500D02*
Y741500D01*
X1178501Y880001D02*
X1181501D01*
X1180001Y878501D02*
Y881500D01*
X1178501Y680000D02*
X1181501D01*
X1180001Y678500D02*
Y681500D01*
X1158501Y920001D02*
X1161501D01*
X1160001Y918501D02*
Y921500D01*
X1158501Y680000D02*
X1161501D01*
X1160001Y678500D02*
Y681500D01*
X1148501Y780000D02*
X1151501D01*
X1150001Y778500D02*
Y781500D01*
X1138501Y720000D02*
X1141501D01*
X1140001Y718500D02*
Y721500D01*
X1138501Y680000D02*
X1141501D01*
X1140001Y678500D02*
Y681500D01*
X1128501Y820000D02*
X1131501D01*
X1130001Y818500D02*
Y821500D01*
X1118501Y800000D02*
X1121501D01*
X1120001Y798500D02*
Y801500D01*
X1128501Y740000D02*
X1131501D01*
X1130001Y738500D02*
Y741500D01*
X1118501Y720000D02*
X1121501D01*
X1120001Y718500D02*
Y721500D01*
X1128501Y700000D02*
X1131501D01*
X1130001Y698500D02*
Y701500D01*
X1118501Y680000D02*
X1121501D01*
X1120001Y678500D02*
Y681500D01*
X1098501Y1040001D02*
X1101501D01*
X1100001Y1038501D02*
Y1041501D01*
X1108501Y740000D02*
X1111501D01*
X1110001Y738500D02*
Y741500D01*
X1098501Y720000D02*
X1101501D01*
X1100001Y718500D02*
Y721500D01*
X1108501Y700000D02*
X1111501D01*
X1110001Y698500D02*
Y701500D01*
X1098501Y680000D02*
X1101501D01*
X1100001Y678500D02*
Y681500D01*
X1088501Y780000D02*
X1091501D01*
X1090001Y778500D02*
Y781500D01*
X1078501Y720000D02*
X1081501D01*
X1080001Y718500D02*
Y721500D01*
X1078501Y680000D02*
X1081501D01*
X1080001Y678500D02*
Y681500D01*
X1068501Y780000D02*
X1071501D01*
X1070001Y778500D02*
Y781500D01*
X1058501Y720000D02*
X1061501D01*
X1060001Y718500D02*
Y721500D01*
X1058501Y680000D02*
X1061501D01*
X1060001Y678500D02*
Y681500D01*
X1048501Y700000D02*
X1051501D01*
X1050001Y698500D02*
Y701500D01*
X1038501Y680000D02*
X1041501D01*
X1040001Y678500D02*
Y681500D01*
X1018501Y880001D02*
X1021500D01*
X1020001Y878501D02*
Y881500D01*
X1028501Y820000D02*
X1031501D01*
X1030001Y818500D02*
Y821500D01*
X1028501Y700000D02*
X1031501D01*
X1030001Y698500D02*
Y701500D01*
X1018501Y680000D02*
X1021500D01*
X1020001Y678500D02*
Y681500D01*
X1008501Y1060001D02*
X1011500D01*
X1010001Y1058501D02*
Y1061501D01*
X998501Y920001D02*
X1001500D01*
X1000001Y918501D02*
Y921500D01*
X998501Y880001D02*
X1001500D01*
X1000001Y878501D02*
Y881500D01*
X1008501Y860001D02*
X1011500D01*
X1010001Y858501D02*
Y861500D01*
X978501Y880001D02*
X981500D01*
X980001Y878501D02*
Y881500D01*
X988501Y860001D02*
X991500D01*
X990001Y858501D02*
Y861500D01*
X958501Y880001D02*
X961500D01*
X960001Y878501D02*
Y881500D01*
X968501Y860001D02*
X971500D01*
X970001Y858501D02*
Y861500D01*
X968501Y820000D02*
X971500D01*
X970001Y818500D02*
Y821500D01*
X958501Y680000D02*
X961500D01*
X960001Y678500D02*
Y681500D01*
X948501Y860001D02*
X951500D01*
X950001Y858501D02*
Y861500D01*
X938501Y720000D02*
X941500D01*
X940001Y718500D02*
Y721500D01*
X948501Y700000D02*
X951500D01*
X950001Y698500D02*
Y701500D01*
X938501Y680000D02*
X941500D01*
X940001Y678500D02*
Y681500D01*
X908501Y1020001D02*
X911500D01*
X910001Y1018501D02*
Y1021500D01*
X908501Y860001D02*
X911500D01*
X910001Y858501D02*
Y861500D01*
X878501Y1200001D02*
X881500D01*
X880001Y1198501D02*
Y1201501D01*
X888501Y1060001D02*
X891500D01*
X890001Y1058501D02*
Y1061501D01*
X888501Y860001D02*
X891500D01*
X890001Y858501D02*
Y861500D01*
X878501Y680000D02*
X881500D01*
X880001Y678500D02*
Y681500D01*
X858501Y720000D02*
X861500D01*
X860001Y718500D02*
Y721500D01*
X858501Y680000D02*
X861500D01*
X860001Y678500D02*
Y681500D01*
X848501Y740000D02*
X851500D01*
X850001Y738500D02*
Y741500D01*
X838501Y720000D02*
X841500D01*
X840001Y718500D02*
Y721500D01*
X848501Y700000D02*
X851500D01*
X850001Y698500D02*
Y701500D01*
X838501Y680000D02*
X841500D01*
X840001Y678500D02*
Y681500D01*
X818500Y1240001D02*
X821500D01*
X820000Y1238501D02*
Y1241501D01*
X828501Y780000D02*
X831500D01*
X830000Y778500D02*
Y781500D01*
X818500Y760000D02*
X821500D01*
X820000Y758500D02*
Y761500D01*
X828501Y700000D02*
X831500D01*
X830000Y698500D02*
Y701500D01*
X818500Y680000D02*
X821500D01*
X820000Y678500D02*
Y681500D01*
X798500Y1240001D02*
X801500D01*
X800000Y1238501D02*
Y1241501D01*
X808500Y1100001D02*
X811500D01*
X810000Y1098501D02*
Y1101501D01*
X798500Y800000D02*
X801500D01*
X800000Y798500D02*
Y801500D01*
X788500Y1220001D02*
X791500D01*
X790000Y1218501D02*
Y1221501D01*
X788500Y1100001D02*
X791500D01*
X790000Y1098501D02*
Y1101501D01*
X758500Y1200001D02*
X761500D01*
X760000Y1198501D02*
Y1201501D01*
X768500Y1180001D02*
X771500D01*
X770000Y1178501D02*
Y1181501D01*
X758500Y1000001D02*
X761500D01*
X760000Y998501D02*
Y1001500D01*
X738500Y1240001D02*
X741500D01*
X740000Y1238501D02*
Y1241501D01*
X738500Y1200001D02*
X741500D01*
X740000Y1198501D02*
Y1201501D01*
X748500Y1180001D02*
X751500D01*
X750000Y1178501D02*
Y1181501D01*
X738500Y1160001D02*
X741500D01*
X740000Y1158501D02*
Y1161501D01*
X748500Y1100001D02*
X751500D01*
X750000Y1098501D02*
Y1101501D01*
X718500Y1240001D02*
X721500D01*
X720000Y1238501D02*
Y1241501D01*
X728500Y1220001D02*
X731500D01*
X730000Y1218501D02*
Y1221501D01*
X718500Y1200001D02*
X721500D01*
X720000Y1198501D02*
Y1201501D01*
X728500Y1180001D02*
X731500D01*
X730000Y1178501D02*
Y1181501D01*
X718500Y1160001D02*
X721500D01*
X720000Y1158501D02*
Y1161501D01*
X698500Y1240001D02*
X701500D01*
X700000Y1238501D02*
Y1241501D01*
X708500Y1220001D02*
X711500D01*
X710000Y1218501D02*
Y1221501D01*
X698500Y1200001D02*
X701500D01*
X700000Y1198501D02*
Y1201501D01*
X708500Y1180001D02*
X711500D01*
X710000Y1178501D02*
Y1181501D01*
X698500Y1160001D02*
X701500D01*
X700000Y1158501D02*
Y1161501D01*
X708500Y1140001D02*
X711500D01*
X710000Y1138501D02*
Y1141501D01*
X698500Y1080001D02*
X701500D01*
X700000Y1078501D02*
Y1081501D01*
X698500Y1040001D02*
X701500D01*
X700000Y1038501D02*
Y1041501D01*
X698500Y1000001D02*
X701500D01*
X700000Y998501D02*
Y1001500D01*
X708500Y980001D02*
X711500D01*
X710000Y978501D02*
Y981500D01*
X861000Y975000D02*
X864000D01*
X862500Y973500D02*
Y976500D01*
X831000Y905000D02*
X834000D01*
X832500Y903500D02*
Y906500D01*
X831000Y917500D02*
X834000D01*
X832500Y916000D02*
Y919000D01*
X863500Y942500D02*
X866500D01*
X865000Y941000D02*
Y944000D01*
X878500Y820000D02*
X881500D01*
X880000Y818500D02*
Y821500D01*
X873500Y805000D02*
X876500D01*
X875000Y803500D02*
Y806500D01*
X873500Y797500D02*
X876500D01*
X875000Y796000D02*
Y799000D01*
X881000Y805000D02*
X884000D01*
X882500Y803500D02*
Y806500D01*
X881000Y797500D02*
X884000D01*
X882500Y796000D02*
Y799000D01*
X868500Y820000D02*
X871500D01*
X870000Y818500D02*
Y821500D01*
X861000Y1072500D02*
X864000D01*
X862500Y1071000D02*
Y1074000D01*
X861000Y1080000D02*
X864000D01*
X862500Y1078500D02*
Y1081500D01*
X865732Y1043857D02*
X868732D01*
X867232Y1042357D02*
Y1045357D01*
X868500Y1072500D02*
X871500D01*
X870000Y1071000D02*
Y1074000D01*
X861000Y987500D02*
X864000D01*
X862500Y986000D02*
Y989000D01*
X888500Y967500D02*
X891500D01*
X890000Y966000D02*
Y969000D01*
X876000Y967500D02*
X879000D01*
X877500Y966000D02*
Y969000D01*
X888500Y975000D02*
X891500D01*
X890000Y973500D02*
Y976500D01*
X868500Y832500D02*
X871500D01*
X870000Y831000D02*
Y834000D01*
X868500Y862500D02*
X871500D01*
X870000Y861000D02*
Y864000D01*
X873500Y702500D02*
X876500D01*
X875000Y701000D02*
Y704000D01*
X873500Y737500D02*
X876500D01*
X875000Y736000D02*
Y739000D01*
X881000Y702500D02*
X884000D01*
X882500Y701000D02*
Y704000D01*
X881000Y695000D02*
X884000D01*
X882500Y693500D02*
Y696500D01*
X873500Y695000D02*
X876500D01*
X875000Y693500D02*
Y696500D01*
X1071000Y982500D02*
X1074000D01*
X1072500Y981000D02*
Y984000D01*
X1063500Y982500D02*
X1066500D01*
X1065000Y981000D02*
Y984000D01*
X1063500Y975000D02*
X1066500D01*
X1065000Y973500D02*
Y976500D01*
X1053500Y750000D02*
X1056500D01*
X1055000Y748500D02*
Y751500D01*
X898500Y892500D02*
X901500D01*
X900000Y891000D02*
Y894000D01*
X891000Y877500D02*
X894000D01*
X892500Y876000D02*
Y879000D01*
X891000Y885000D02*
X894000D01*
X892500Y883500D02*
Y886500D01*
X891000Y892500D02*
X894000D01*
X892500Y891000D02*
Y894000D01*
X878500Y852500D02*
X881500D01*
X880000Y851000D02*
Y854000D01*
X878500Y862500D02*
X881500D01*
X880000Y861000D02*
Y864000D01*
X878500Y882500D02*
X881500D01*
X880000Y881000D02*
Y884000D01*
X878500Y872500D02*
X881500D01*
X880000Y871000D02*
Y874000D01*
X878500Y842500D02*
X881500D01*
X880000Y841000D02*
Y844000D01*
X868500Y882500D02*
X871500D01*
X870000Y881000D02*
Y884000D01*
X868500Y852500D02*
X871500D01*
X870000Y851000D02*
Y854000D01*
X868500Y872500D02*
X871500D01*
X870000Y871000D02*
Y874000D01*
X878500Y832500D02*
X881500D01*
X880000Y831000D02*
Y834000D01*
X993500Y970000D02*
X996500D01*
X995000Y968500D02*
Y971500D01*
X968500Y837500D02*
X971500D01*
X970000Y836000D02*
Y839000D01*
X1056000Y975000D02*
X1059000D01*
X1057500Y973500D02*
Y976500D01*
X1071000Y967500D02*
X1074000D01*
X1072500Y966000D02*
Y969000D01*
X1063500Y967500D02*
X1066500D01*
X1065000Y966000D02*
Y969000D01*
X1056000Y967500D02*
X1059000D01*
X1057500Y966000D02*
Y969000D01*
X1071000Y975000D02*
X1074000D01*
X1072500Y973500D02*
Y976500D01*
X978058Y1111031D02*
X981058D01*
X979558Y1109531D02*
Y1112531D01*
X978195Y1098489D02*
X981195D01*
X979695Y1096989D02*
Y1099989D01*
X1009259Y1111218D02*
X1012259D01*
X1010759Y1109718D02*
Y1112718D01*
X1009221Y1098668D02*
X1012221D01*
X1010721Y1097168D02*
Y1100168D01*
X1009378Y1136916D02*
X1012377D01*
X1010878Y1135416D02*
Y1138416D01*
X978172Y1123578D02*
X981172D01*
X979672Y1122078D02*
Y1125078D01*
X978100Y1136677D02*
X981100D01*
X979600Y1135178D02*
Y1138177D01*
X1009587Y1086126D02*
X1012587D01*
X1011087Y1084626D02*
Y1087626D01*
X977916Y1149129D02*
X980916D01*
X979416Y1147629D02*
Y1150629D01*
X1009378Y1123905D02*
X1012377D01*
X1010878Y1122405D02*
Y1125405D01*
X1009613Y1149612D02*
X1012613D01*
X1011113Y1148112D02*
Y1151112D01*
X894411Y1107364D02*
X897411D01*
X895911Y1105864D02*
Y1108864D01*
X906000Y1122500D02*
X909000D01*
X907500Y1121000D02*
Y1124000D01*
X951000Y977500D02*
X954000D01*
X952500Y976000D02*
Y979000D01*
X959425Y1059728D02*
X962425D01*
X960925Y1058228D02*
Y1061228D01*
X966000Y992500D02*
X969000D01*
X967500Y991000D02*
Y994000D01*
X918500Y987500D02*
X921500D01*
X920000Y986000D02*
Y989000D01*
X918500Y995000D02*
X921500D01*
X920000Y993500D02*
Y996500D01*
X958500Y985000D02*
X961500D01*
X960000Y983500D02*
Y986500D01*
X908500Y995000D02*
X911500D01*
X910000Y993500D02*
Y996500D01*
X959541Y1043885D02*
X962541D01*
X961041Y1042385D02*
Y1045385D01*
X873500Y987500D02*
X876500D01*
X875000Y986000D02*
Y989000D01*
X873500Y1000000D02*
X876500D01*
X875000Y998500D02*
Y1001500D01*
X873104Y1031409D02*
X876105D01*
X874604Y1029909D02*
Y1032909D01*
X868500Y1080000D02*
X871500D01*
X870000Y1078500D02*
Y1081500D01*
X943500Y970000D02*
X946500D01*
X945000Y968500D02*
Y971500D01*
X921000Y947500D02*
X924000D01*
X922500Y946000D02*
Y949000D01*
X906000Y892500D02*
X909000D01*
X907500Y891000D02*
Y894000D01*
X906000Y885000D02*
X909000D01*
X907500Y883500D02*
Y886500D01*
X906000Y877500D02*
X909000D01*
X907500Y876000D02*
Y879000D01*
X898500Y967500D02*
X901500D01*
X900000Y966000D02*
Y969000D01*
X898500Y885000D02*
X901500D01*
X900000Y883500D02*
Y886500D01*
X898500Y877500D02*
X901500D01*
X900000Y876000D02*
Y879000D01*
X898500Y975000D02*
X901500D01*
X900000Y973500D02*
Y976500D01*
X963500Y802500D02*
X966500D01*
X965000Y801000D02*
Y804000D01*
X963500Y795000D02*
X966500D01*
X965000Y793500D02*
Y796500D01*
X961000Y695000D02*
X964000D01*
X962500Y693500D02*
Y696500D01*
X961000Y702500D02*
X964000D01*
X962500Y701000D02*
Y704000D01*
X971000Y795000D02*
X974000D01*
X972500Y793500D02*
Y796500D01*
X954874Y740682D02*
X957874D01*
X956374Y739182D02*
Y742181D01*
X971000Y802500D02*
X974000D01*
X972500Y801000D02*
Y804000D01*
X968500Y695000D02*
X971500D01*
X970000Y693500D02*
Y696500D01*
X968500Y702500D02*
X971500D01*
X970000Y701000D02*
Y704000D01*
X1098777Y1111349D02*
X1101777D01*
X1100277Y1109849D02*
Y1112849D01*
X1098544Y1136618D02*
X1101544D01*
X1100044Y1135118D02*
Y1138119D01*
X1098520Y1086176D02*
X1101520D01*
X1100020Y1084676D02*
Y1087675D01*
X1098520Y1098120D02*
X1101520D01*
X1100020Y1096620D02*
Y1099620D01*
X1098358Y1123760D02*
X1101358D01*
X1099858Y1122260D02*
Y1125260D01*
X1068356Y1124101D02*
X1071356D01*
X1069856Y1122601D02*
Y1125601D01*
X1068279Y1098621D02*
X1071280D01*
X1069780Y1097121D02*
Y1100121D01*
X1068208Y1136707D02*
X1071208D01*
X1069708Y1135207D02*
Y1138207D01*
X1068203Y1086074D02*
X1071202D01*
X1069703Y1084574D02*
Y1087574D01*
X1068066Y1111371D02*
X1071066D01*
X1069566Y1109871D02*
Y1112871D01*
X1098917Y1148343D02*
X1101917D01*
X1100417Y1146843D02*
Y1149843D01*
X1068393Y1149480D02*
X1071393D01*
X1069893Y1147980D02*
Y1150980D01*
X706000Y1115000D02*
X709000D01*
X707500Y1113500D02*
Y1116500D01*
X706000Y1125000D02*
X709000D01*
X707500Y1123500D02*
Y1126500D01*
X1008500Y985000D02*
X1011500D01*
X1010000Y983500D02*
Y986500D01*
X973500Y1000000D02*
X976500D01*
X975000Y998500D02*
Y1001500D01*
X1001000Y977500D02*
X1004000D01*
X1002500Y976000D02*
Y979000D01*
X1056000Y982500D02*
X1059000D01*
X1057500Y981000D02*
Y984000D01*
X1268500Y1240000D02*
X1271500D01*
X1270000Y1238500D02*
Y1241500D01*
X1258500Y1240000D02*
X1261500D01*
X1260000Y1238500D02*
Y1241500D01*
X1133284Y1238213D02*
X1136284D01*
X1134784Y1236713D02*
Y1239713D01*
X1133500Y1200000D02*
X1136500D01*
X1135000Y1198500D02*
Y1201500D01*
X1133500Y1212500D02*
X1136500D01*
X1135000Y1211000D02*
Y1214000D01*
X1133500Y1225000D02*
X1136500D01*
X1135000Y1223500D02*
Y1226500D01*
X886000Y1107500D02*
X889000D01*
X887500Y1106000D02*
Y1109000D01*
X942509Y1103020D02*
X945509D01*
X944009Y1101520D02*
Y1104520D01*
X946881Y1111299D02*
X949881D01*
X948381Y1109799D02*
Y1112799D01*
X977626Y1085781D02*
X980626D01*
X979126Y1084281D02*
Y1087281D01*
X812260Y1055594D02*
X815260D01*
X813760Y1054094D02*
Y1057094D01*
X806822Y1112977D02*
X809822D01*
X808322Y1111477D02*
Y1114477D01*
X716000Y1125000D02*
X719000D01*
X717500Y1123500D02*
Y1126500D01*
X716000Y1115000D02*
X719000D01*
X717500Y1113500D02*
Y1116500D01*
X1161000Y777500D02*
X1164000D01*
X1162500Y776000D02*
Y779000D01*
X1221000Y987500D02*
X1224000D01*
X1222500Y986000D02*
Y989000D01*
X1221000Y1017500D02*
X1224000D01*
X1222500Y1016000D02*
Y1019000D01*
X1201000Y1125000D02*
X1204000D01*
X1202500Y1123500D02*
Y1126500D01*
X1203500Y1112500D02*
X1206500D01*
X1205000Y1111000D02*
Y1114000D01*
X1218500Y1092500D02*
X1221500D01*
X1220000Y1091000D02*
Y1094000D01*
X1166340Y1084670D02*
X1169340D01*
X1167840Y1083170D02*
Y1086170D01*
X1167817Y1060191D02*
X1170817D01*
X1169317Y1058691D02*
Y1061691D01*
X1176660Y1059930D02*
X1179660D01*
X1178160Y1058430D02*
Y1061430D01*
X1167939Y1052159D02*
X1170939D01*
X1169439Y1050659D02*
Y1053659D01*
X1176822Y1052038D02*
X1179822D01*
X1178322Y1050538D02*
Y1053538D01*
X1167939Y1044128D02*
X1170939D01*
X1169439Y1042628D02*
Y1045628D01*
X1176822Y1043763D02*
X1179822D01*
X1178322Y1042263D02*
Y1045263D01*
X1186000Y1025000D02*
X1189000D01*
X1187500Y1023500D02*
Y1026500D01*
X1283309Y1190250D02*
X1286309D01*
X1284809Y1188750D02*
Y1191750D01*
X1283151Y1228294D02*
X1286151D01*
X1284651Y1226794D02*
Y1229794D01*
X1258500Y1185000D02*
X1261500D01*
X1260000Y1183500D02*
Y1186500D01*
X1258500Y1175000D02*
X1261500D01*
X1260000Y1173500D02*
Y1176500D01*
X1268500Y1175000D02*
X1271500D01*
X1270000Y1173500D02*
Y1176500D01*
X1268500Y1185000D02*
X1271500D01*
X1270000Y1183500D02*
Y1186500D01*
X1258500Y1230000D02*
X1261500D01*
X1260000Y1228500D02*
Y1231500D01*
X1268500Y1230000D02*
X1271500D01*
X1270000Y1228500D02*
Y1231500D01*
X1216000Y867500D02*
X1219000D01*
X1217500Y866000D02*
Y869000D01*
X1208500Y867500D02*
X1211500D01*
X1210000Y866000D02*
Y869000D01*
X1201000Y867500D02*
X1204000D01*
X1202500Y866000D02*
Y869000D01*
X1201000Y860000D02*
X1204000D01*
X1202500Y858500D02*
Y861500D01*
X1208500Y860000D02*
X1211500D01*
X1210000Y858500D02*
Y861500D01*
X1216000Y860000D02*
X1219000D01*
X1217500Y858500D02*
Y861500D01*
X1208500Y852500D02*
X1211500D01*
X1210000Y851000D02*
Y854000D01*
X1216000Y852500D02*
X1219000D01*
X1217500Y851000D02*
Y854000D01*
X1201000Y852500D02*
X1204000D01*
X1202500Y851000D02*
Y854000D01*
X1216000Y757500D02*
X1219000D01*
X1217500Y756000D02*
Y759000D01*
X1201000Y772500D02*
X1204000D01*
X1202500Y771000D02*
Y774000D01*
X1208500Y765000D02*
X1211500D01*
X1210000Y763500D02*
Y766500D01*
X1216000Y772500D02*
X1219000D01*
X1217500Y771000D02*
Y774000D01*
X1208500Y772500D02*
X1211500D01*
X1210000Y771000D02*
Y774000D01*
X1216000Y765000D02*
X1219000D01*
X1217500Y763500D02*
Y766500D01*
X1201000Y765000D02*
X1204000D01*
X1202500Y763500D02*
Y766500D01*
X1201000Y757500D02*
X1204000D01*
X1202500Y756000D02*
Y759000D01*
X1208500Y757500D02*
X1211500D01*
X1210000Y756000D02*
Y759000D01*
X1098641Y1187545D02*
X1101641D01*
X1100141Y1186045D02*
Y1189045D01*
X1098500Y1175000D02*
X1101500D01*
X1100000Y1173500D02*
Y1176500D01*
X1068401Y1187729D02*
X1071402D01*
X1069902Y1186228D02*
Y1189229D01*
X1068271Y1162594D02*
X1071271D01*
X1069771Y1161094D02*
Y1164093D01*
X1068227Y1175008D02*
X1071227D01*
X1069727Y1173508D02*
Y1176508D01*
X1098731Y1161963D02*
X1101731D01*
X1100231Y1160463D02*
Y1163463D01*
X1068139Y1251113D02*
X1071139D01*
X1069639Y1249613D02*
Y1252613D01*
X1039134Y1250998D02*
X1042134D01*
X1040634Y1249498D02*
Y1252498D01*
X1009653Y1226103D02*
X1012653D01*
X1011153Y1224603D02*
Y1227603D01*
X1009521Y1200419D02*
X1012521D01*
X1011021Y1198920D02*
Y1201919D01*
X1009378Y1175085D02*
X1012377D01*
X1010878Y1173585D02*
Y1176584D01*
X1009378Y1162074D02*
X1012377D01*
X1010878Y1160574D02*
Y1163574D01*
X1009193Y1213294D02*
X1012193D01*
X1010693Y1211794D02*
Y1214794D01*
X1009062Y1238386D02*
X1012062D01*
X1010562Y1236886D02*
Y1239886D01*
X1008986Y1187860D02*
X1011986D01*
X1010486Y1186360D02*
Y1189360D01*
X978177Y1187669D02*
X981177D01*
X979677Y1186169D02*
Y1189169D01*
X978071Y1213035D02*
X981071D01*
X979571Y1211535D02*
Y1214535D01*
X978036Y1175092D02*
X981036D01*
X979536Y1173592D02*
Y1176592D01*
X977950Y1237886D02*
X980950D01*
X979450Y1236386D02*
Y1239386D01*
X977930Y1200352D02*
X980930D01*
X979430Y1198852D02*
Y1201852D01*
X977846Y1225358D02*
X980845D01*
X979345Y1223858D02*
Y1226858D01*
X977682Y1162055D02*
X980683D01*
X979183Y1160555D02*
Y1163555D01*
X946000Y1175000D02*
X949000D01*
X947500Y1173500D02*
Y1176500D01*
X945894Y1162032D02*
X948894D01*
X947394Y1160532D02*
Y1163532D01*
X945894Y1152495D02*
X948894D01*
X947394Y1150995D02*
Y1153995D01*
X945415Y1225427D02*
X948415D01*
X946915Y1223927D02*
Y1226927D01*
X945261Y1140129D02*
X948261D01*
X946761Y1138629D02*
Y1141629D01*
X946000Y1200000D02*
X949000D01*
X947500Y1198500D02*
Y1201500D01*
X933500Y1207500D02*
X936500D01*
X935000Y1206000D02*
Y1209000D01*
X933500Y1200000D02*
X936500D01*
X935000Y1198500D02*
Y1201500D01*
X931000Y1250000D02*
X934000D01*
X932500Y1248500D02*
Y1251500D01*
X926000Y1207500D02*
X929000D01*
X927500Y1206000D02*
Y1209000D01*
X926000Y1200000D02*
X929000D01*
X927500Y1198500D02*
Y1201500D01*
X944760Y1123760D02*
X947760D01*
X946260Y1122260D02*
Y1125260D01*
X881298Y1133995D02*
X884298D01*
X882798Y1132495D02*
Y1135495D01*
X946141Y1187437D02*
X949141D01*
X947641Y1185937D02*
Y1188937D01*
X865804Y1180634D02*
X868803D01*
X867303Y1179134D02*
Y1182134D01*
X856000Y1230000D02*
X859000D01*
X857500Y1228500D02*
Y1231500D01*
X856000Y1245000D02*
X859000D01*
X857500Y1243500D02*
Y1246500D01*
X848500Y1230000D02*
X851500D01*
X850000Y1228500D02*
Y1231500D01*
X848500Y1237500D02*
X851500D01*
X850000Y1236000D02*
Y1239000D01*
X848500Y1245000D02*
X851500D01*
X850000Y1243500D02*
Y1246500D01*
X846702Y1218178D02*
X849702D01*
X848202Y1216678D02*
Y1219678D01*
X846254Y1171406D02*
X849254D01*
X847754Y1169906D02*
Y1172906D01*
X856000Y1237500D02*
X859000D01*
X857500Y1236000D02*
Y1239000D01*
X863500Y1237500D02*
X866500D01*
X865000Y1236000D02*
Y1239000D01*
X863500Y1230000D02*
X866500D01*
X865000Y1228500D02*
Y1231500D01*
X863500Y1245000D02*
X866500D01*
X865000Y1243500D02*
Y1246500D01*
X1133168Y1250564D02*
X1136168D01*
X1134668Y1249064D02*
Y1252064D01*
X1098738Y1226274D02*
X1101738D01*
X1100238Y1224774D02*
Y1227774D01*
X1098705Y1238229D02*
X1101704D01*
X1100204Y1236729D02*
Y1239729D01*
X1098672Y1200048D02*
X1101672D01*
X1100172Y1198548D02*
Y1201548D01*
X1098358Y1213397D02*
X1101358D01*
X1099858Y1211897D02*
Y1214897D01*
X1068358Y1200449D02*
X1071358D01*
X1069858Y1198949D02*
Y1201949D01*
X1068358Y1225715D02*
X1071358D01*
X1069858Y1224215D02*
Y1227215D01*
X1068270Y1213082D02*
X1071271D01*
X1069771Y1211582D02*
Y1214582D01*
X1068139Y1238567D02*
X1071139D01*
X1069639Y1237067D02*
Y1240067D01*
X1098646Y1251428D02*
X1101646D01*
X1100146Y1249928D02*
Y1252928D01*
M02*
