G04*
G04 #@! TF.GenerationSoftware,Altium Limited,Altium Designer,25.8.1 (18)*
G04*
G04 Layer_Color=8421504*
%FSLAX44Y44*%
%MOMM*%
G71*
G04*
G04 #@! TF.SameCoordinates,12A2BCB0-EAD2-464D-B71D-ECBC9B348D82*
G04*
G04*
G04 #@! TF.FilePolarity,Positive*
G04*
G01*
G75*
%ADD16R,1.6000X0.8000*%
%ADD17R,3.0000X2.1000*%
%ADD18R,2.1000X1.4000*%
%ADD19R,0.9000X0.6000*%
G04:AMPARAMS|DCode=20|XSize=0.4mm|YSize=0.95mm|CornerRadius=0.07mm|HoleSize=0mm|Usage=FLASHONLY|Rotation=270.000|XOffset=0mm|YOffset=0mm|HoleType=Round|Shape=RoundedRectangle|*
%AMROUNDEDRECTD20*
21,1,0.4000,0.8100,0,0,270.0*
21,1,0.2600,0.9500,0,0,270.0*
1,1,0.1400,-0.4050,-0.1300*
1,1,0.1400,-0.4050,0.1300*
1,1,0.1400,0.4050,0.1300*
1,1,0.1400,0.4050,-0.1300*
%
%ADD20ROUNDEDRECTD20*%
G04:AMPARAMS|DCode=21|XSize=0.6mm|YSize=1mm|CornerRadius=0.105mm|HoleSize=0mm|Usage=FLASHONLY|Rotation=270.000|XOffset=0mm|YOffset=0mm|HoleType=Round|Shape=RoundedRectangle|*
%AMROUNDEDRECTD21*
21,1,0.6000,0.7900,0,0,270.0*
21,1,0.3900,1.0000,0,0,270.0*
1,1,0.2100,-0.3950,-0.1950*
1,1,0.2100,-0.3950,0.1950*
1,1,0.2100,0.3950,0.1950*
1,1,0.2100,0.3950,-0.1950*
%
%ADD21ROUNDEDRECTD21*%
%ADD22R,0.7900X0.2400*%
%ADD23R,0.7900X0.5400*%
%ADD24R,0.6000X0.3000*%
%ADD25R,1.8000X1.0000*%
G04:AMPARAMS|DCode=26|XSize=7mm|YSize=7mm|CornerRadius=0.7mm|HoleSize=0mm|Usage=FLASHONLY|Rotation=180.000|XOffset=0mm|YOffset=0mm|HoleType=Round|Shape=RoundedRectangle|*
%AMROUNDEDRECTD26*
21,1,7.0000,5.6000,0,0,180.0*
21,1,5.6000,7.0000,0,0,180.0*
1,1,1.4000,-2.8000,2.8000*
1,1,1.4000,2.8000,2.8000*
1,1,1.4000,2.8000,-2.8000*
1,1,1.4000,-2.8000,-2.8000*
%
%ADD26ROUNDEDRECTD26*%
G04:AMPARAMS|DCode=27|XSize=2mm|YSize=3mm|CornerRadius=0.5mm|HoleSize=0mm|Usage=FLASHONLY|Rotation=180.000|XOffset=0mm|YOffset=0mm|HoleType=Round|Shape=RoundedRectangle|*
%AMROUNDEDRECTD27*
21,1,2.0000,2.0000,0,0,180.0*
21,1,1.0000,3.0000,0,0,180.0*
1,1,1.0000,-0.5000,1.0000*
1,1,1.0000,0.5000,1.0000*
1,1,1.0000,0.5000,-1.0000*
1,1,1.0000,-0.5000,-1.0000*
%
%ADD27ROUNDEDRECTD27*%
G04:AMPARAMS|DCode=28|XSize=0.6mm|YSize=1mm|CornerRadius=0.105mm|HoleSize=0mm|Usage=FLASHONLY|Rotation=180.000|XOffset=0mm|YOffset=0mm|HoleType=Round|Shape=RoundedRectangle|*
%AMROUNDEDRECTD28*
21,1,0.6000,0.7900,0,0,180.0*
21,1,0.3900,1.0000,0,0,180.0*
1,1,0.2100,-0.1950,0.3950*
1,1,0.2100,0.1950,0.3950*
1,1,0.2100,0.1950,-0.3950*
1,1,0.2100,-0.1950,-0.3950*
%
%ADD28ROUNDEDRECTD28*%
G04:AMPARAMS|DCode=29|XSize=1.61mm|YSize=0.58mm|CornerRadius=0.0725mm|HoleSize=0mm|Usage=FLASHONLY|Rotation=0.000|XOffset=0mm|YOffset=0mm|HoleType=Round|Shape=RoundedRectangle|*
%AMROUNDEDRECTD29*
21,1,1.6100,0.4350,0,0,0.0*
21,1,1.4650,0.5800,0,0,0.0*
1,1,0.1450,0.7325,-0.2175*
1,1,0.1450,-0.7325,-0.2175*
1,1,0.1450,-0.7325,0.2175*
1,1,0.1450,0.7325,0.2175*
%
%ADD29ROUNDEDRECTD29*%
%ADD30O,1.4500X0.6000*%
%ADD31R,1.5000X1.0000*%
%ADD32R,1.4986X3.2766*%
D16*
X789750Y1188750D02*
D03*
Y1201250D02*
D03*
D17*
X760750Y1226750D02*
D03*
Y1163250D02*
D03*
D18*
X1075750Y748750D02*
D03*
X1162750D02*
D03*
Y703750D02*
D03*
X1075750D02*
D03*
X1075250Y840250D02*
D03*
X1162250D02*
D03*
Y795250D02*
D03*
X1075250D02*
D03*
D19*
X928000Y841250D02*
D03*
X952000Y831750D02*
D03*
X928000Y822250D02*
D03*
X1016250Y838250D02*
D03*
X1040250Y828750D02*
D03*
X1016250Y819250D02*
D03*
X925500Y737750D02*
D03*
X949500Y728250D02*
D03*
X925500Y718750D02*
D03*
X1014000Y739000D02*
D03*
X1038000Y729500D02*
D03*
X1014000Y720000D02*
D03*
D20*
X1010206Y1038596D02*
D03*
Y1024596D02*
D03*
X1004000Y700000D02*
D03*
Y686000D02*
D03*
X915750Y700000D02*
D03*
Y686000D02*
D03*
X1006000Y799750D02*
D03*
Y785750D02*
D03*
X916250Y802250D02*
D03*
Y788250D02*
D03*
D21*
X830037Y1056710D02*
D03*
Y1040710D02*
D03*
X715332Y1084336D02*
D03*
Y1100337D02*
D03*
X715178Y1069361D02*
D03*
Y1053361D02*
D03*
X945277Y1013232D02*
D03*
Y1029232D02*
D03*
X945000Y1060000D02*
D03*
Y1044000D02*
D03*
X820515Y1123061D02*
D03*
Y1139061D02*
D03*
X930363Y1187276D02*
D03*
Y1171276D02*
D03*
X812500Y1218500D02*
D03*
Y1172000D02*
D03*
X928535Y1221476D02*
D03*
X890285D02*
D03*
X909285D02*
D03*
X1179750Y1141500D02*
D03*
X1142500D02*
D03*
X1161250D02*
D03*
X885500Y1088000D02*
D03*
X904750Y1088000D02*
D03*
X1300808Y1175076D02*
D03*
X1185750Y810250D02*
D03*
X1149000Y1028250D02*
D03*
X1047250Y1038500D02*
D03*
X1300819Y1238992D02*
D03*
X1185500Y718000D02*
D03*
X923750Y1088000D02*
D03*
X1185750Y826250D02*
D03*
Y841000D02*
D03*
X1185500Y734000D02*
D03*
X1185250Y748750D02*
D03*
X909285Y1237476D02*
D03*
X890285D02*
D03*
X928535D02*
D03*
X1161250Y1157500D02*
D03*
X1142500D02*
D03*
X1179750D02*
D03*
X897750Y805250D02*
D03*
X987250Y802750D02*
D03*
X897000Y703000D02*
D03*
X985250Y703000D02*
D03*
X1149000Y1044250D02*
D03*
X831250Y1202500D02*
D03*
Y1218500D02*
D03*
X812500Y1202500D02*
D03*
X831250Y1188000D02*
D03*
Y1172000D02*
D03*
X812500Y1188000D02*
D03*
X885500Y1072000D02*
D03*
X904750Y1072000D02*
D03*
X1185750Y857000D02*
D03*
X1300808Y1191076D02*
D03*
X1028500Y1038500D02*
D03*
Y1022500D02*
D03*
X1047250D02*
D03*
X1185250Y764750D02*
D03*
X1300819Y1222992D02*
D03*
X985250Y687000D02*
D03*
X897000Y687000D02*
D03*
X987250Y786750D02*
D03*
X897750Y789250D02*
D03*
X923750Y1072000D02*
D03*
D22*
X1317626Y1199696D02*
D03*
Y1194696D02*
D03*
Y1189696D02*
D03*
Y1209696D02*
D03*
Y1224696D02*
D03*
Y1219696D02*
D03*
Y1232696D02*
D03*
Y1181696D02*
D03*
Y1214696D02*
D03*
Y1204696D02*
D03*
Y1173696D02*
D03*
Y1240696D02*
D03*
D23*
Y1231196D02*
D03*
Y1183196D02*
D03*
Y1175196D02*
D03*
Y1239196D02*
D03*
D24*
X1284826Y1212696D02*
D03*
X1284844Y1198099D02*
D03*
X1284826Y1219696D02*
D03*
X1284844Y1205099D02*
D03*
D25*
X1115510Y1187700D02*
D03*
X963510Y1251198D02*
D03*
Y1213098D02*
D03*
X1084760Y1238500D02*
D03*
X995010Y1251200D02*
D03*
Y1086100D02*
D03*
Y1098800D02*
D03*
Y1111500D02*
D03*
Y1124200D02*
D03*
Y1136900D02*
D03*
Y1162300D02*
D03*
Y1175000D02*
D03*
Y1187700D02*
D03*
Y1200400D02*
D03*
Y1213100D02*
D03*
Y1225800D02*
D03*
Y1238500D02*
D03*
X1084760Y1086100D02*
D03*
Y1098800D02*
D03*
Y1124200D02*
D03*
Y1136900D02*
D03*
Y1149600D02*
D03*
Y1162300D02*
D03*
Y1175000D02*
D03*
Y1187700D02*
D03*
Y1200400D02*
D03*
Y1213100D02*
D03*
Y1225800D02*
D03*
Y1251200D02*
D03*
X963510Y1136898D02*
D03*
Y1124198D02*
D03*
Y1111498D02*
D03*
Y1098798D02*
D03*
Y1086098D02*
D03*
Y1225798D02*
D03*
Y1238498D02*
D03*
Y1187698D02*
D03*
Y1200398D02*
D03*
Y1162298D02*
D03*
Y1149598D02*
D03*
X1084760Y1111500D02*
D03*
X1115510Y1136900D02*
D03*
Y1124200D02*
D03*
Y1111500D02*
D03*
Y1098800D02*
D03*
Y1213100D02*
D03*
Y1225800D02*
D03*
Y1251200D02*
D03*
Y1238500D02*
D03*
Y1200400D02*
D03*
Y1175000D02*
D03*
Y1162300D02*
D03*
Y1149600D02*
D03*
Y1086100D02*
D03*
X963510Y1174998D02*
D03*
X995010Y1149600D02*
D03*
D26*
X762145Y1057178D02*
D03*
D27*
X784995Y1131178D02*
D03*
X739295D02*
D03*
D28*
X816119Y1006034D02*
D03*
X832119D02*
D03*
X832081Y1024447D02*
D03*
X816081D02*
D03*
X834500Y1122500D02*
D03*
X850500D02*
D03*
X850500Y1140000D02*
D03*
X834500D02*
D03*
X883000Y1167500D02*
D03*
X1001500Y819500D02*
D03*
X899750Y1203000D02*
D03*
Y1183750D02*
D03*
X999500Y719750D02*
D03*
X910750Y719250D02*
D03*
X911750Y821750D02*
D03*
X899750Y1164750D02*
D03*
X985250Y838750D02*
D03*
X895750Y841250D02*
D03*
X867000Y1167500D02*
D03*
X826175Y1105283D02*
D03*
X842175D02*
D03*
X999500Y738250D02*
D03*
X983500D02*
D03*
X985500Y819500D02*
D03*
X915750Y1203000D02*
D03*
Y1183750D02*
D03*
X910750Y737750D02*
D03*
X894750D02*
D03*
X1001250Y838750D02*
D03*
X911750Y841250D02*
D03*
X833500Y1083000D02*
D03*
X817500D02*
D03*
X983500Y719750D02*
D03*
X894750Y719250D02*
D03*
X895750Y821750D02*
D03*
X915750Y1164750D02*
D03*
D29*
X851450Y1018450D02*
D03*
Y1056550D02*
D03*
Y1031150D02*
D03*
X923550Y1018450D02*
D03*
Y1031150D02*
D03*
Y1043850D02*
D03*
Y1056550D02*
D03*
X851450Y1043850D02*
D03*
D30*
X870250Y1108450D02*
D03*
Y1133850D02*
D03*
Y1146550D02*
D03*
Y1121150D02*
D03*
X924750Y1146550D02*
D03*
Y1133850D02*
D03*
Y1121150D02*
D03*
Y1108450D02*
D03*
D31*
X1129246Y998500D02*
D03*
X1025000Y1251200D02*
D03*
Y1238500D02*
D03*
Y1086100D02*
D03*
Y1098800D02*
D03*
Y1111500D02*
D03*
Y1124200D02*
D03*
Y1136900D02*
D03*
Y1149600D02*
D03*
Y1162300D02*
D03*
Y1175000D02*
D03*
Y1187700D02*
D03*
Y1200400D02*
D03*
Y1213100D02*
D03*
Y1225800D02*
D03*
X1056250Y1251200D02*
D03*
Y1238500D02*
D03*
Y1086100D02*
D03*
Y1098800D02*
D03*
Y1111500D02*
D03*
Y1124200D02*
D03*
Y1136900D02*
D03*
Y1149600D02*
D03*
Y1162300D02*
D03*
Y1175000D02*
D03*
Y1187700D02*
D03*
Y1200400D02*
D03*
Y1213100D02*
D03*
Y1225800D02*
D03*
X1129246Y1044500D02*
D03*
Y1021500D02*
D03*
D32*
X1066254D02*
D03*
M02*
